<?xml version="1.0" encoding="UTF-8" standalone="no"?>
<svg xmlns="http://www.w3.org/2000/svg" version="1.1" viewBox="0.00 0.00 1621.00 562.00">
  <g stroke-width="2.00" fill="none" stroke-linecap="butt">
    <path stroke="#543687" vector-effect="non-scaling-stroke" d="   M 1612.95 48.56   Q 1611.98 47.85 1612.85 50.46"></path>
    <path stroke="#543687" vector-effect="non-scaling-stroke" d="   M 1613.18 64.79   Q 1612.62 65.77 1613.07 66.56"></path>
    <path stroke="#95317e" vector-effect="non-scaling-stroke" d="   M 1571.30 250.01   L 1314.35 420.03"></path>
    <path stroke="#b81771" vector-effect="non-scaling-stroke" d="   M 1371.32 458.32   Q 1371.49 457.45 1371.46 457.40   A 0.77 0.77 0.0 0 0 1370.18 457.34   Q 1358.66 473.13 1338.90 475.91"></path>
    <path stroke="#543687" vector-effect="non-scaling-stroke" d="   M 7.77 278.27   Q 7.89 277.75 7.73 277.32   A 0.69 0.69 0.0 0 0 7.02 276.87   L 6.47 276.92"></path>
    <path stroke="#b81771" vector-effect="non-scaling-stroke" d="   M 1450.95 553.81   L 1449.20 553.95"></path>
    <path stroke="#b81771" vector-effect="non-scaling-stroke" d="   M 1438.18 553.75   L 1435.82 553.49"></path>
  </g>
  <path fill="#853582" d="   M 1590.49 4.42   Q 1595.50 4.40 1599.41 6.82   Q 1599.91 7.13 1599.33 7.18   C 1596.50 7.46 1593.01 6.69 1590.50 6.70   C 1587.99 6.70 1584.50 7.49 1581.67 7.23   Q 1581.09 7.18 1581.59 6.87   Q 1585.49 4.43 1590.49 4.42   Z"></path>
  <path fill="#23378b" d="   M 1612.95 48.56   Q 1611.98 47.85 1612.85 50.46   Q 1612.46 55.24 1612.61 62.46   Q 1612.64 64.07 1613.18 64.79   Q 1612.62 65.77 1613.07 66.56   Q 1611.73 72.68 1610.43 78.57   Q 1608.79 85.99 1607.19 90.42   Q 1597.87 116.11 1575.74 131.48   Q 1572.62 133.65 1558.57 141.74   Q 1485.34 183.93 1360.31 255.82   C 1345.58 264.28 1331.65 272.69 1319.05 283.05   Q 1309.18 291.18 1302.26 302.54   Q 1293.17 317.48 1289.62 333.11   Q 1286.08 348.67 1286.51 365.25   Q 1286.55 367.11 1284.19 368.46   Q 1278.87 371.48 1275.51 366.76   Q 1273.70 364.22 1272.25 361.75   Q 1261.88 344.18 1251.81 326.45   C 1246.54 317.17 1242.64 309.88 1239.64 301.05   Q 1228.66 268.73 1240.81 234.31   Q 1251.44 204.19 1278.40 186.64   Q 1294.10 176.42 1308.91 168.12   Q 1319.48 162.19 1581.02 11.52   Q 1584.70 9.39 1587.19 8.71   C 1596.79 6.06 1602.04 14.08 1605.24 21.51   Q 1609.10 30.45 1610.75 38.74   Q 1612.07 45.32 1612.95 48.56   Z"></path>
  <path fill="#853582" d="   M 1612.85 50.46   Q 1611.98 47.85 1612.95 48.56   L 1613.05 32.37   A 0.10 0.10 0.0 0 1 1613.25 32.35   Q 1615.27 40.79 1616.54 49.61   Q 1616.61 50.08 1616.13 50.12   L 1612.85 50.46   Z"></path>
  <path fill="#853582" d="   M 1613.07 66.56   Q 1612.62 65.77 1613.18 64.79   L 1616.03 64.95   Q 1616.54 64.98 1616.50 65.49   C 1615.98 71.85 1615.00 78.48 1613.17 84.47   A 0.08 0.08 0.0 0 1 1613.02 84.45   L 1613.07 66.56   Z"></path>
  <rect fill="#23378b" x="-3.82" y="-24.65" transform="translate(229.93,192.26) rotate(45.0)" width="7.64" height="49.30" rx="3.26"></rect>
  <circle fill="#23378b" cx="56.31" cy="198.27" r="14.42"></circle>
  <circle fill="#23378b" cx="666.73" cy="198.48" r="14.35"></circle>
  <path fill="#23378b" d="   M 250.31 227.61   Q 249.95 228.86 250.94 229.69   Q 261.14 238.35 262.19 252.30   Q 262.97 262.79 262.23 274.75   C 261.84 281.04 260.30 287.03 256.93 292.16   Q 250.28 302.33 238.92 305.77   Q 233.12 307.53 221.94 307.47   Q 200.17 307.35 196.69 307.35   Q 195.11 307.36 194.54 309.34   C 190.46 323.49 182.05 332.37 167.01 334.52   Q 158.86 335.68 148.93 335.36   Q 147.93 335.32 147.76 334.34   Q 146.49 326.73 147.02 319.78   C 147.60 312.23 152.05 307.59 159.30 306.65   Q 161.07 306.43 163.81 305.94   Q 166.59 305.44 166.57 301.99   Q 166.48 273.70 166.67 253.73   C 166.70 250.90 168.57 249.82 171.25 249.57   Q 181.05 248.66 187.07 249.68   Q 195.09 251.03 195.45 259.66   Q 195.61 263.54 195.74 274.54   Q 195.78 278.09 199.54 278.22   Q 213.71 278.68 228.52 278.36   Q 231.91 278.29 232.96 276.13   Q 233.32 275.39 233.74 271.83   Q 234.75 263.30 233.13 254.14   Q 232.86 252.67 231.36 251.93   Q 225.53 249.04 217.98 250.14   Q 216.52 250.35 215.65 250.18   A 1.90 1.88 -85.2 0 1 214.15 248.39   Q 213.84 238.42 214.13 224.22   Q 214.15 222.83 215.71 221.21   Q 244.66 191.25 249.48 186.75   Q 253.03 183.45 256.99 184.91   Q 259.34 185.78 262.40 189.82   Q 262.78 190.33 266.56 195.69   Q 271.44 202.61 267.86 208.95   Q 267.03 210.42 259.79 217.81   Q 255.60 222.10 251.27 226.28   Q 250.46 227.06 250.31 227.61   Z"></path>
  <path fill="#23378b" d="   M 402.00 229.07   Q 403.53 230.99 408.55 236.90   Q 411.42 240.27 412.43 245.06   Q 414.85 256.46 414.33 271.00   Q 413.96 281.53 409.72 290.45   C 404.57 301.29 392.29 306.96 380.51 307.27   Q 370.45 307.53 360.00 307.29   Q 345.56 306.96 340.17 305.29   Q 324.63 300.47 320.26 282.22   Q 318.46 274.68 318.58 263.63   Q 318.75 248.53 318.80 202.70   A 0.65 0.65 0.0 0 1 319.45 202.05   L 345.74 202.05   A 0.86 0.86 0.0 0 1 346.60 202.92   Q 346.57 237.60 346.65 272.26   Q 346.66 277.23 350.61 278.27   Q 351.46 278.50 356.91 278.58   Q 364.38 278.69 376.50 278.67   C 380.68 278.66 385.41 277.99 385.64 272.47   Q 386.11 261.66 385.55 256.45   Q 384.94 250.68 379.17 250.39   Q 373.00 250.09 368.15 250.00   Q 366.45 249.97 366.45 248.27   L 366.45 223.10   A 4.35 4.33 67.7 0 1 367.73 220.02   C 378.34 209.52 388.89 198.66 399.84 188.04   C 404.34 183.67 408.83 183.19 413.17 188.70   Q 416.96 193.52 418.76 196.80   Q 423.38 205.19 416.56 212.08   Q 409.60 219.12 402.17 226.35   Q 400.86 227.63 402.00 229.07   Z"></path>
  <path fill="#23378b" d="   M 933.13 227.18   A 1.62 1.61 -54.6 0 0 933.46 229.14   Q 945.66 240.22 946.25 256.49   Q 946.29 257.57 946.31 263.04   Q 946.32 266.31 946.15 269.59   Q 945.93 273.71 946.76 275.29   Q 948.32 278.25 952.50 278.32   Q 970.42 278.63 979.25 278.25   Q 983.30 278.08 983.91 273.65   Q 984.94 266.11 989.18 261.23   C 990.37 259.87 992.22 259.40 994.08 259.43   Q 1003.93 259.60 1011.22 259.57   A 1.40 1.40 0.0 0 1 1012.60 260.73   Q 1015.11 275.35 1009.62 288.32   C 1004.84 299.60 993.97 306.05 981.70 307.10   Q 960.69 308.91 941.03 305.54   C 938.52 305.11 935.46 304.20 932.70 303.40   Q 931.40 303.02 929.35 303.65   Q 916.98 307.41 904.25 307.40   Q 880.83 307.39 869.06 307.38   C 856.28 307.37 837.22 307.84 821.77 307.28   C 813.85 307.00 805.40 306.30 799.01 302.70   C 789.73 297.47 784.74 288.48 783.51 277.65   Q 782.54 269.14 783.91 260.85   A 1.60 1.60 0.0 0 1 785.45 259.52   Q 793.95 259.32 794.54 259.32   Q 799.81 259.27 803.60 260.43   C 809.37 262.22 810.68 266.46 811.41 271.89   Q 811.80 274.77 812.70 275.94   Q 814.79 278.62 818.00 278.62   Q 843.35 278.66 909.25 278.64   Q 910.10 278.64 912.27 278.33   Q 916.32 277.74 916.55 273.61   Q 917.17 262.45 916.65 255.53   Q 916.28 250.62 910.56 250.34   Q 906.44 250.14 899.56 250.17   Q 897.67 250.17 897.67 248.29   L 897.67 223.25   A 4.55 4.51 -22.7 0 1 899.00 220.05   Q 915.20 203.82 932.18 186.94   Q 937.15 181.99 942.77 186.89   Q 943.06 187.15 948.97 194.31   Q 952.39 198.45 952.68 201.56   Q 953.17 206.88 949.76 210.25   Q 937.97 221.90 934.05 226.05   Q 933.34 226.81 933.13 227.18   Z"></path>
  <path fill="#23378b" d="   M 117.79 254.75   Q 117.89 249.09 117.68 235.46   Q 117.46 220.28 117.71 204.40   A 1.82 1.82 0.0 0 1 119.18 202.65   Q 126.25 201.29 133.98 202.26   C 140.24 203.04 145.27 206.21 145.54 213.18   Q 145.59 214.48 145.85 225.43   Q 146.38 247.82 146.25 255.09   Q 146.15 260.75 146.36 274.38   Q 146.58 289.56 146.33 305.44   A 1.82 1.82 0.0 0 1 144.86 307.19   Q 137.79 308.55 130.06 307.58   C 123.80 306.80 118.77 303.63 118.50 296.66   Q 118.45 295.36 118.19 284.41   Q 117.66 262.02 117.79 254.75   Z"></path>
  <path fill="#23378b" d="   M 617.49 278.18   A 1.80 1.80 0.0 0 0 618.31 276.44   Q 617.44 269.12 617.19 265.51   Q 616.52 255.51 619.34 246.09   C 622.34 236.06 629.61 226.77 639.94 223.90   Q 645.40 222.38 652.56 222.22   Q 671.63 221.80 673.50 221.81   Q 682.46 221.84 690.76 223.98   C 703.35 227.23 710.87 237.33 712.82 249.82   Q 714.98 263.57 712.86 278.43   C 711.49 288.06 706.63 297.38 698.08 302.21   Q 693.70 304.69 687.55 305.79   Q 678.97 307.34 668.28 307.36   Q 638.72 307.42 590.33 307.34   Q 579.09 307.32 574.39 305.93   C 562.59 302.43 554.17 292.83 551.80 280.64   Q 550.53 274.09 550.54 267.78   Q 550.66 216.21 550.47 212.78   Q 550.41 211.66 550.30 207.32   Q 550.17 202.34 555.04 202.15   Q 565.62 201.73 570.79 202.35   Q 576.71 203.05 578.53 208.06   Q 579.48 210.71 579.50 215.75   Q 579.62 259.25 579.44 272.26   C 579.36 277.72 582.38 278.45 587.24 278.55   Q 600.88 278.84 615.79 278.55   Q 616.96 278.53 617.49 278.18   Z   M 685.8317 257.6749   A 7.69 7.69 0.0 0 0 678.1551 249.9715   L 653.5752 249.9286   A 7.69 7.69 0.0 0 0 645.8718 257.6051   L 645.8483 271.0451   A 7.69 7.69 0.0 0 0 653.5249 278.7485   L 678.1048 278.7914   A 7.69 7.69 0.0 0 0 685.8082 271.1149   L 685.8317 257.6749   Z"></path>
  <path fill="#23378b" d="   M 1090.82 278.14   A 1.68 1.67 1.7 0 0 1092.09 276.95   Q 1094.08 269.68 1094.76 267.49   Q 1096.25 262.66 1100.23 260.73   Q 1102.62 259.56 1108.19 259.52   Q 1111.41 259.49 1119.52 259.63   A 1.93 1.93 0.0 0 1 1121.39 261.25   C 1123.94 276.72 1121.24 292.37 1107.60 301.56   Q 1099.98 306.69 1091.04 307.21   Q 1075.97 308.08 1065.28 307.54   Q 1052.03 306.86 1045.68 304.20   Q 1031.08 298.07 1027.70 280.34   Q 1026.38 273.44 1026.42 264.50   Q 1026.53 238.17 1026.51 219.04   C 1026.51 215.32 1026.06 210.27 1026.13 206.93   Q 1026.23 202.68 1030.57 202.30   Q 1035.55 201.86 1042.52 202.02   C 1045.78 202.10 1049.12 202.33 1051.49 204.53   Q 1054.96 207.75 1054.96 211.30   Q 1055.03 256.89 1055.00 269.00   Q 1054.98 274.32 1055.03 274.47   Q 1056.23 278.19 1059.98 278.26   Q 1072.00 278.52 1087.49 278.44   Q 1089.47 278.43 1090.82 278.14   Z"></path>
  <path fill="#853582" d="   M 1571.30 250.01   L 1314.35 420.03   Q 1312.43 402.91 1314.55 387.56   Q 1318.52 358.83 1337.36 338.13   Q 1347.49 327.00 1362.04 318.61   Q 1533.44 219.76 1539.88 216.04   Q 1546.51 212.23 1549.46 211.96   Q 1555.50 211.41 1559.64 217.59   Q 1570.01 233.08 1571.30 250.01   Z"></path>
  <path fill="#23378b" d="   M 7.77 278.27   Q 7.89 277.75 7.73 277.32   A 0.69 0.69 0.0 0 0 7.02 276.87   L 6.47 276.92   L 7.59 276.73   Q 8.12 276.65 8.17 276.12   Q 8.35 274.28 8.37 272.47   Q 8.68 247.10 8.43 223.15   Q 8.42 222.45 9.12 222.38   C 17.83 221.49 36.45 218.84 36.90 232.67   Q 37.38 247.18 37.30 267.44   C 37.28 273.55 36.39 278.16 43.73 278.28   Q 55.73 278.48 66.75 278.46   C 69.51 278.45 72.86 278.51 74.55 276.30   Q 75.87 274.57 75.94 272.42   Q 76.09 268.08 75.98 241.03   Q 75.95 232.13 76.27 226.32   Q 76.46 222.90 79.46 222.43   Q 83.62 221.78 93.90 222.04   Q 98.45 222.16 100.32 223.77   Q 103.16 226.21 103.57 230.24   Q 104.31 237.61 104.85 256.29   C 105.11 265.30 105.25 275.30 102.74 283.37   Q 96.48 303.53 74.14 307.22   Q 70.52 307.82 61.11 307.78   Q 51.29 307.74 40.84 307.19   C 27.28 306.48 17.06 299.48 11.62 287.33   Q 9.72 283.10 8.45 278.77   Q 8.32 278.33 7.77 278.27   Z"></path>
  <path fill="#23378b" d="   M 537.66 273.98   A 33.46 33.46 0.0 0 1 504.20 307.44   L 475.18 307.44   A 33.46 33.46 0.0 0 1 441.72 273.98   L 441.72 255.32   A 33.46 33.46 0.0 0 1 475.18 221.86   L 504.20 221.86   A 33.46 33.46 0.0 0 1 537.66 255.32   L 537.66 273.98   Z   M 509.1177 257.2758   A 7.38 7.38 0.0 0 0 501.7249 249.9087   L 477.2649 249.9514   A 7.38 7.38 0.0 0 0 469.8978 257.3442   L 469.9223 271.3642   A 7.38 7.38 0.0 0 0 477.3151 278.7313   L 501.7751 278.6886   A 7.38 7.38 0.0 0 0 509.1422 271.2958   L 509.1177 257.2758   Z"></path>
  <circle fill="#23378b" cx="996.10" cy="236.13" r="14.36"></circle>
  <path fill="#23378b" d="   M 276.71 298.12   Q 277.24 276.45 276.52 256.70   Q 276.37 252.79 277.15 251.31   Q 278.62 248.49 282.71 248.63   Q 284.38 248.69 291.62 249.63   Q 296.52 250.26 299.35 251.68   Q 304.46 254.22 304.74 260.29   Q 305.87 284.73 304.81 303.00   Q 304.25 312.62 299.45 320.34   C 290.96 334.02 273.35 336.20 258.82 335.12   A 1.47 1.46 -88.3 0 1 257.47 333.68   Q 257.31 317.89 257.32 314.32   Q 257.32 312.68 259.01 311.26   Q 263.79 307.27 270.43 306.39   Q 273.82 305.94 275.59 303.41   Q 276.61 301.94 276.71 298.12   Z"></path>
  <path fill="#23378b" d="   M 726.47 302.12   Q 727.87 285.56 727.39 270.81   Q 727.36 269.89 726.80 257.53   Q 726.60 253.12 727.30 251.60   Q 728.83 248.31 733.55 248.73   Q 743.69 249.62 748.03 250.55   Q 752.53 251.51 754.27 255.18   Q 755.15 257.05 755.27 262.20   Q 755.67 280.96 755.49 300.75   Q 755.41 309.70 751.55 317.55   C 746.12 328.61 734.95 334.35 722.77 335.29   Q 716.41 335.79 709.18 335.09   Q 707.44 334.92 707.43 333.17   Q 707.40 330.63 707.32 320.70   C 707.27 315.29 708.21 311.07 712.97 308.53   Q 714.50 307.71 718.64 306.84   C 721.20 306.29 726.20 305.36 726.47 302.12   Z"></path>
  <path fill="#a42c7a" d="   M 1571.30 250.01   Q 1573.14 265.45 1570.62 280.20   Q 1566.05 306.98 1546.65 325.39   Q 1542.57 329.26 1532.15 336.65   Q 1521.05 344.51 1505.46 353.46   Q 1450.30 385.13 1427.97 397.84   Q 1413.01 406.35 1410.68 407.88   Q 1383.13 425.98 1371.32 458.32   Q 1371.49 457.45 1371.46 457.40   A 0.77 0.77 0.0 0 0 1370.18 457.34   Q 1358.66 473.13 1338.90 475.91   Q 1330.84 463.92 1323.41 449.09   Q 1315.92 434.13 1314.35 420.03   L 1571.30 250.01   Z"></path>
  <path fill="#853582" d="   M 6.47 276.92   L 7.02 276.87   A 0.69 0.69 0.0 0 1 7.73 277.32   Q 7.89 277.75 7.77 278.27   L 8.10 286.67   Q 8.24 290.26 7.08 286.86   Q 5.87 283.32 4.45 278.01   Q 4.32 277.51 4.79 277.29   Q 5.55 276.96 6.47 276.92   Z"></path>
  <circle fill="#23378b" cx="1074.32" cy="337.59" r="14.37"></circle>
  <path fill="#a42c7a" d="   M 7.85 376.03   A 0.26 0.26 0.0 0 1 8.11 376.29   L 8.11 430.39   A 12.18 0.82 90.0 0 1 7.29 442.57   L 6.43 442.57   A 12.18 0.82 90.0 0 1 5.61 430.39   L 5.61 376.29   A 0.26 0.26 0.0 0 1 5.87 376.03   L 7.85 376.03   Z"></path>
  <path fill="#cc0267" d="   M 566.28 433.50   A 1.35 1.29 8.4 0 0 565.66 433.94   C 560.48 440.30 553.83 441.53 545.94 440.84   C 533.84 439.78 526.14 431.58 522.92 420.26   Q 521.32 414.58 521.65 406.48   C 521.97 398.39 525.33 388.44 532.08 383.39   Q 544.54 374.06 560.33 377.47   C 570.57 379.68 577.94 387.15 578.72 397.65   Q 578.82 399.01 577.49 399.32   Q 573.06 400.37 568.54 398.96   C 567.21 398.54 566.31 397.31 565.63 395.93   C 563.54 391.63 561.24 388.04 556.59 386.74   C 547.27 384.14 538.97 389.99 536.16 398.90   Q 533.07 408.70 536.21 418.88   C 538.85 427.43 546.68 434.02 555.88 430.76   Q 563.37 428.11 566.32 419.74   Q 566.96 417.92 564.96 417.85   L 554.42 417.50   Q 553.37 417.47 553.37 416.54   L 553.37 408.65   A 1.07 1.06 -90.0 0 1 554.43 407.58   L 576.99 407.58   A 1.43 1.42 -90.0 0 1 578.41 409.01   L 578.41 439.48   A 0.71 0.70 90.0 0 1 577.71 440.19   L 569.52 440.19   A 1.37 1.37 0.0 0 1 568.15 438.84   Q 568.13 436.92 568.18 434.79   Q 568.22 432.79 566.28 433.50   Z"></path>
  <path fill="#cc0267" d="   M 348.19 403.91   Q 348.66 405.73 349.94 404.44   Q 359.66 394.64 374.06 380.06   C 374.78 379.33 376.54 378.04 378.00 377.86   Q 383.71 377.16 389.00 377.91   A 1.04 1.04 0.0 0 1 389.59 379.67   L 363.64 405.63   A 1.98 1.97 48.2 0 0 363.50 408.27   L 387.25 437.67   A 1.45 0.49 67.9 0 1 387.35 437.80   Q 388.61 439.73 386.78 439.97   Q 383.31 440.44 375.61 440.30   Q 372.58 440.25 371.04 438.04   Q 368.15 433.90 357.30 419.94   Q 355.82 418.04 353.44 416.77   A 2.18 2.17 30.8 0 0 350.61 417.48   Q 349.21 419.57 348.90 422.22   Q 348.00 429.83 348.42 438.64   A 1.23 1.23 0.0 0 1 347.19 439.93   L 337.11 439.93   Q 335.67 439.93 335.67 438.49   L 335.67 378.52   A 0.80 0.80 0.0 0 1 336.47 377.72   L 347.18 377.72   A 1.00 0.99 -0.9 0 1 348.18 378.68   Q 348.59 390.85 348.15 403.57   A 1.05 0.93 41.6 0 0 348.19 403.91   Z"></path>
  <path fill="#cc0267" d="   M 1082.26 404.76   Q 1082.26 407.02 1083.77 405.34   Q 1096.01 391.72 1105.88 380.39   Q 1108.04 377.91 1111.36 377.65   Q 1116.58 377.24 1121.74 377.78   A 1.08 1.07 89.3 0 1 1122.69 378.71   Q 1122.76 379.25 1122.41 379.66   Q 1120.45 381.96 1118.39 384.14   Q 1103.31 400.16 1097.55 406.44   A 1.63 1.62 47.1 0 0 1097.48 408.55   L 1121.51 438.28   A 0.94 0.94 0.0 0 1 1120.86 439.81   Q 1114.03 440.40 1107.75 439.57   Q 1106.64 439.42 1104.93 437.36   Q 1088.72 417.84 1088.66 417.78   Q 1087.65 416.65 1085.58 417.00   C 1080.82 417.80 1082.34 435.09 1082.67 438.84   Q 1082.76 439.89 1081.70 439.89   L 1071.77 439.89   Q 1069.59 439.89 1069.59 437.71   L 1069.59 378.68   A 0.89 0.88 90.0 0 1 1070.47 377.79   L 1080.73 377.79   Q 1082.26 377.79 1082.26 379.32   L 1082.26 404.76   Z"></path>
  <path fill="#cc0267" d="   M 47.75 409.53   A 0.71 0.71 0.0 0 0 47.72 410.54   Q 50.94 413.93 52.69 417.80   Q 53.72 420.09 54.77 426.09   Q 56.21 434.35 57.65 439.01   A 0.59 0.59 0.0 0 1 57.12 439.78   Q 51.19 440.08 45.21 439.84   A 0.73 0.72 84.8 0 1 44.53 439.27   Q 43.50 434.90 41.08 422.97   Q 39.83 416.80 33.98 415.34   Q 31.74 414.78 26.23 414.02   Q 21.69 413.40 21.58 417.76   Q 21.33 427.74 21.42 438.82   A 1.10 1.09 -0.3 0 1 20.32 439.92   L 11.06 439.92   A 1.56 1.55 -0.0 0 1 9.50 438.37   L 9.50 380.26   Q 9.50 377.78 11.98 377.73   Q 26.57 377.42 39.75 378.24   Q 44.34 378.52 47.01 379.54   Q 57.08 383.37 57.15 394.58   Q 57.20 402.83 50.90 407.15   Q 48.62 408.72 47.75 409.53   Z   M 20.94 389.76   L 21.37 404.25   A 2.25 2.25 0.0 0 0 23.69 406.44   L 32.19 406.18   A 12.58 9.02 -1.7 0 0 44.50 396.79   L 44.47 395.83   A 12.58 9.02 -1.7 0 0 31.63 387.19   L 23.12 387.44   A 2.25 2.25 0.0 0 0 20.94 389.76   Z"></path>
  <path fill="#cc0267" d="   M 112.55 408.67   Q 112.55 411.09 112.25 412.44   A 1.87 1.86 6.4 0 1 110.43 413.89   L 84.77 413.89   A 1.35 1.35 0.0 0 0 83.42 415.24   L 83.42 428.46   A 1.33 1.33 0.0 0 0 84.75 429.79   L 113.55 429.79   A 1.29 1.28 0.0 0 1 114.84 431.07   L 114.84 438.28   Q 114.84 439.64 113.47 439.64   L 72.82 439.64   Q 70.86 439.64 70.80 437.69   Q 70.60 431.45 70.55 408.76   Q 70.50 386.08 70.68 379.84   Q 70.73 377.89 72.69 377.88   L 113.34 377.70   Q 114.71 377.70 114.71 379.06   L 114.74 386.27   A 1.29 1.28 -0.2 0 1 113.46 387.55   L 84.66 387.68   A 1.33 1.33 0.0 0 0 83.33 389.01   L 83.39 402.23   A 1.35 1.35 0.0 0 0 84.75 403.58   L 110.41 403.47   A 1.87 1.86 -6.6 0 1 112.23 404.91   Q 112.54 406.26 112.55 408.67   Z"></path>
  <path fill="#cc0267" d="   M 141.63 402.70   A 0.85 0.85 0.0 0 0 142.48 403.55   L 167.92 403.55   A 1.59 1.59 0.0 0 1 169.51 405.14   L 169.51 412.59   A 1.18 1.18 0.0 0 1 168.33 413.77   L 143.06 413.77   Q 141.62 413.77 141.62 415.22   L 141.62 438.61   A 1.30 1.29 0.0 0 1 140.32 439.90   L 129.33 439.90   A 0.58 0.58 0.0 0 1 128.75 439.37   Q 128.45 435.65 128.46 434.25   Q 128.54 404.37 128.48 379.03   A 1.16 1.16 0.0 0 1 129.42 377.89   Q 130.36 377.71 131.76 377.71   Q 152.05 377.64 171.05 377.83   Q 172.67 377.84 172.67 379.46   L 172.67 386.08   Q 172.67 387.61 171.14 387.59   Q 157.18 387.39 142.69 388.12   A 1.12 1.12 0.0 0 0 141.63 389.24   L 141.63 402.70   Z"></path>
  <path fill="#cc0267" d="   M 205.33 377.75   Q 209.60 377.75 211.74 378.26   Q 213.75 378.74 214.55 381.01   Q 214.62 381.21 234.79 438.42   Q 235.32 439.94 233.71 439.94   L 223.29 439.94   Q 221.82 439.94 221.36 438.54   Q 219.88 434.05 216.90 424.29   Q 215.95 421.16 213.00 421.21   Q 212.78 421.21 205.29 421.20   Q 197.79 421.19 197.57 421.19   Q 194.62 421.14 193.66 424.26   Q 190.66 434.02 189.17 438.51   Q 188.71 439.90 187.24 439.90   L 176.82 439.88   Q 175.21 439.87 175.74 438.36   Q 196.04 381.19 196.11 380.99   Q 196.91 378.72 198.92 378.25   Q 201.06 377.74 205.33 377.75   Z   M 198.22 409.47   A 1.57 1.57 0.0 0 0 199.70 411.53   L 210.49 411.66   A 1.57 1.57 0.0 0 0 212.01 409.64   L 206.83 392.30   A 1.57 1.57 0.0 0 0 203.83 392.27   L 198.22 409.47   Z"></path>
  <path fill="#cc0267" d="   M 272.17 404.01   Q 280.21 404.02 284.77 403.84   Q 286.43 403.77 286.43 402.11   L 286.43 379.68   A 1.72 1.71 0.0 0 1 288.15 377.97   L 297.18 377.97   A 1.69 1.69 0.0 0 1 298.87 379.62   Q 298.97 384.06 298.96 409.11   Q 298.94 434.16 298.84 438.60   A 1.69 1.69 0.0 0 1 297.14 440.25   L 288.11 440.24   A 1.72 1.71 0.1 0 1 286.40 438.53   L 286.42 416.10   Q 286.43 414.44 284.77 414.37   Q 280.21 414.18 272.17 414.18   Q 264.13 414.17 259.57 414.35   Q 257.91 414.42 257.91 416.08   L 257.91 438.51   A 1.72 1.71 0.0 0 1 256.19 440.22   L 247.16 440.22   A 1.69 1.69 0.0 0 1 245.47 438.57   Q 245.37 434.13 245.39 409.08   Q 245.40 384.03 245.51 379.59   A 1.69 1.69 0.0 0 1 247.20 377.94   L 256.23 377.95   A 1.72 1.71 0.1 0 1 257.95 379.66   L 257.92 402.09   Q 257.92 403.75 259.58 403.82   Q 264.14 404.01 272.17 404.01   Z"></path>
  <path fill="#cc0267" d="   M 423.50 377.83   C 426.54 377.84 431.14 377.41 432.32 380.73   Q 444.10 413.82 452.74 438.53   A 1.00 1.00 0.0 0 1 451.82 439.86   Q 444.46 440.08 442.59 440.04   Q 439.16 439.97 438.46 437.22   Q 438.14 436.00 434.87 424.01   Q 434.20 421.55 431.65 421.41   Q 427.55 421.20 423.34 421.18   Q 419.13 421.17 415.03 421.35   Q 412.48 421.47 411.79 423.93   Q 408.44 435.89 408.11 437.11   Q 407.39 439.85 403.96 439.90   Q 402.09 439.92 394.73 439.65   A 1.00 1.00 0.0 0 1 393.82 438.31   Q 402.64 413.67 414.66 380.67   C 415.87 377.35 420.46 377.82 423.50 377.83   Z   M 416.41 409.30   A 1.80 1.80 0.0 0 0 418.13 411.62   L 428.16 411.64   A 1.80 1.80 0.0 0 0 429.89 409.33   L 424.90 392.39   A 1.80 1.80 0.0 0 0 421.45 392.38   L 416.41 409.30   Z"></path>
  <path fill="#cc0267" d="   M 502.10 410.69   Q 505.14 413.91 506.58 416.72   Q 507.54 418.59 508.37 423.68   Q 509.70 431.91 511.75 438.91   A 0.79 0.78 81.9 0 1 511.00 439.92   L 500.21 439.92   A 1.60 1.59 83.3 0 1 498.66 438.69   Q 498.08 436.26 495.63 424.51   Q 494.76 420.31 493.67 418.77   C 490.97 414.97 486.39 414.97 481.78 414.20   C 478.01 413.56 475.85 414.63 475.75 418.75   Q 475.51 429.11 475.64 438.96   A 0.94 0.94 0.0 0 1 474.70 439.92   L 464.28 439.92   A 0.69 0.69 0.0 0 1 463.59 439.23   L 463.59 379.76   A 1.57 1.56 -2.4 0 1 465.03 378.20   Q 480.44 376.93 495.60 378.50   Q 500.89 379.04 503.77 380.69   C 512.52 385.70 514.25 397.02 507.85 404.62   Q 505.80 407.05 502.23 409.50   A 0.79 0.79 0.0 0 0 502.10 410.69   Z   M 475.12 389.70   L 475.66 404.49   A 2.11 2.11 0.0 0 0 477.84 406.52   L 486.00 406.23   A 13.11 8.87 -2.1 0 0 498.78 396.88   L 498.73 395.60   A 13.11 8.87 -2.1 0 0 485.30 387.22   L 477.15 387.52   A 2.11 2.11 0.0 0 0 475.12 389.70   Z"></path>
  <path fill="#cc0267" d="   M 617.35 377.77   Q 622.22 377.79 624.07 378.40   Q 625.61 378.91 626.41 381.19   Q 639.33 417.93 646.95 439.18   A 0.56 0.56 0.0 0 1 646.42 439.92   L 635.48 439.92   Q 633.98 439.92 633.47 438.51   L 628.03 423.27   A 2.94 2.93 -8.5 0 0 625.38 421.32   Q 621.90 421.19 617.17 421.17   Q 612.43 421.15 608.95 421.25   A 2.94 2.93 9.0 0 0 606.29 423.18   L 600.72 438.37   Q 600.19 439.77 598.69 439.76   L 587.75 439.67   A 0.56 0.56 0.0 0 1 587.23 438.92   Q 595.03 417.74 608.27 381.11   Q 609.09 378.84 610.63 378.34   Q 612.49 377.75 617.35 377.77   Z   M 610.09 409.29   A 1.64 1.64 0.0 0 0 611.63 411.43   L 622.27 411.58   A 1.64 1.64 0.0 0 0 623.86 409.48   L 618.78 392.32   A 1.64 1.64 0.0 0 0 615.65 392.28   L 610.09 409.29   Z"></path>
  <path fill="#cc0267" d="   M 695.99 410.35   Q 696.23 411.05 698.99 414.03   C 700.36 415.52 701.25 417.69 701.53 419.87   Q 702.78 429.65 706.03 438.78   A 0.82 0.82 0.0 0 1 705.26 439.88   L 694.32 439.88   Q 692.78 439.88 692.45 438.37   Q 689.43 424.43 688.93 422.43   Q 687.54 416.82 682.35 415.42   Q 677.28 414.04 673.78 413.83   Q 669.73 413.59 669.59 417.82   Q 669.33 426.02 669.41 438.88   A 1.04 1.03 -0.3 0 1 668.37 439.92   L 658.77 439.92   A 1.38 1.38 0.0 0 1 657.39 438.54   L 657.39 379.48   Q 657.39 377.98 658.89 377.92   Q 673.51 377.43 685.70 377.90   Q 691.92 378.15 694.83 379.27   C 702.44 382.20 706.46 389.67 705.07 397.60   Q 704.03 403.53 699.28 407.04   Q 696.44 409.13 696.15 409.48   Q 695.82 409.88 695.99 410.35   Z   M 668.98 388.85   L 669.41 405.09   A 1.40 1.40 0.0 0 0 670.84 406.45   L 680.65 406.19   A 11.71 8.69 -1.5 0 0 692.13 397.20   L 692.08 395.54   A 11.71 8.69 -1.5 0 0 680.15 387.16   L 670.34 387.42   A 1.40 1.40 0.0 0 0 668.98 388.85   Z"></path>
  <path fill="#cc0267" d="   M 742.22 377.79   Q 745.19 377.80 748.00 378.26   Q 750.32 378.64 751.16 380.86   Q 752.67 384.83 771.26 437.50   Q 771.56 438.37 771.66 438.94   A 0.87 0.86 85.2 0 1 770.81 439.95   L 760.19 439.95   A 2.01 1.99 80.0 0 1 758.31 438.62   L 752.88 423.40   A 3.37 3.36 -9.2 0 0 749.76 421.16   Q 746.10 421.09 742.15 421.09   Q 738.19 421.08 734.53 421.14   A 3.37 3.36 9.4 0 0 731.41 423.37   L 725.93 438.57   A 2.01 1.99 -79.8 0 1 724.04 439.89   L 713.42 439.86   A 0.87 0.86 -85.0 0 1 712.58 438.85   Q 712.68 438.28 712.98 437.41   Q 731.74 384.80 733.26 380.83   Q 734.11 378.61 736.43 378.24   Q 739.24 377.79 742.22 377.79   Z   M 735.11 409.40   A 1.55 1.55 0.0 0 0 736.59 411.42   L 747.36 411.44   A 1.55 1.55 0.0 0 0 748.84 409.42   L 743.49 392.31   A 1.55 1.55 0.0 0 0 740.53 392.31   L 735.11 409.40   Z"></path>
  <path fill="#cc0267" d="   M 814.31 405.97   Q 817.88 412.43 822.76 421.11   Q 824.17 423.62 824.17 420.74   L 824.17 378.49   A 0.58 0.57 0.0 0 1 824.75 377.92   L 835.51 377.92   A 0.77 0.77 0.0 0 1 836.28 378.69   L 836.28 438.67   A 1.23 1.23 0.0 0 1 835.05 439.90   L 821.59 439.90   A 2.61 2.60 74.4 0 1 819.36 438.64   Q 816.60 434.04 813.73 428.76   Q 809.07 420.21 804.36 411.68   Q 800.79 405.22 795.91 396.54   Q 794.50 394.03 794.50 396.91   L 794.50 439.16   A 0.58 0.57 0.0 0 1 793.92 439.73   L 783.16 439.73   A 0.77 0.77 0.0 0 1 782.39 438.96   L 782.39 378.98   A 1.23 1.23 0.0 0 1 783.62 377.75   L 797.08 377.75   A 2.61 2.60 74.4 0 1 799.31 379.01   Q 802.07 383.61 804.94 388.89   Q 809.60 397.44 814.31 405.97   Z"></path>
  <path fill="#cc0267" d="   M 913.54 405.56   A 0.75 0.75 0.0 0 0 913.63 406.61   C 916.55 409.06 919.42 411.03 920.53 413.45   C 922.33 417.33 921.89 423.28 920.76 427.05   C 918.22 435.55 910.89 438.57 902.53 439.13   Q 888.19 440.09 874.96 439.86   A 0.86 0.85 -5.4 0 1 874.13 439.18   Q 873.73 437.21 873.71 435.25   Q 873.41 408.24 873.68 379.66   Q 873.69 378.63 874.67 378.27   Q 876.11 377.74 878.39 377.71   Q 896.48 377.49 904.34 378.13   C 911.12 378.69 918.80 383.86 919.30 391.30   C 919.70 397.41 917.30 401.11 913.54 405.56   Z   M 885.37 389.54   L 885.45 401.48   A 2.19 2.19 0.0 0 0 887.66 403.66   L 896.75 403.60   A 9.96 7.74 -0.4 0 0 906.65 395.79   L 906.65 394.95   A 9.96 7.74 -0.4 0 0 896.63 387.28   L 887.54 387.34   A 2.19 2.19 0.0 0 0 885.37 389.54   Z   M 885.45 413.90   L 885.35 428.74   A 1.70 1.70 0.0 0 0 887.04 430.45   L 898.96 430.53   A 9.72 8.69 0.4 0 0 908.74 421.91   L 908.74 421.05   A 9.72 8.69 0.4 0 0 899.08 412.29   L 887.16 412.21   A 1.70 1.70 0.0 0 0 885.45 413.90   Z"></path>
  <path fill="#cc0267" d="   M 958.71 377.80   Q 959.67 377.80 963.03 377.90   Q 966.71 378.01 967.99 381.66   Q 977.86 409.75 988.35 439.16   A 0.65 0.65 0.0 0 1 987.78 440.03   Q 982.43 440.44 976.90 439.99   Q 975.27 439.86 974.72 438.31   Q 972.02 430.59 969.79 424.23   Q 968.76 421.30 965.99 421.27   Q 962.28 421.21 958.58 421.20   Q 954.88 421.19 951.17 421.22   Q 948.40 421.24 947.35 424.16   Q 945.08 430.51 942.33 438.21   Q 941.77 439.76 940.14 439.88   Q 934.61 440.29 929.26 439.85   A 0.65 0.65 0.0 0 1 928.70 438.98   Q 939.37 409.63 949.41 381.60   Q 950.71 377.96 954.39 377.87   Q 957.75 377.79 958.71 377.80   Z   M 951.83 409.53   A 1.55 1.55 0.0 0 0 953.34 411.49   L 963.71 411.39   A 1.55 1.55 0.0 0 0 965.18 409.39   L 959.81 391.68   A 1.55 1.55 0.0 0 0 956.83 391.71   L 951.83 409.53   Z"></path>
  <path fill="#cc0267" d="   M 1020.89 411.61   Q 1017.02 404.45 1011.51 396.75   Q 1011.18 396.29 1011.16 396.85   Q 1010.84 404.94 1011.04 438.48   Q 1011.04 439.95 1009.57 439.95   L 999.70 439.95   A 1.07 1.06 0.0 0 1 998.63 438.89   L 998.63 379.40   Q 998.63 377.74 1000.29 377.74   L 1013.66 377.74   A 2.65 2.63 -14.3 0 1 1015.98 379.11   Q 1023.31 392.46 1030.66 406.07   Q 1034.53 413.24 1040.04 420.94   Q 1040.37 421.40 1040.39 420.84   Q 1040.71 412.75 1040.51 379.21   Q 1040.51 377.74 1041.98 377.74   L 1051.85 377.74   A 1.07 1.06 0.0 0 1 1052.92 378.80   L 1052.92 438.29   Q 1052.92 439.95 1051.26 439.95   L 1037.89 439.95   A 2.65 2.63 -14.3 0 1 1035.57 438.58   Q 1028.24 425.23 1020.89 411.61   Z"></path>
  <path fill="#cc0267" d="   M 1450.95 553.81   L 1449.20 553.95   L 1438.18 553.75   L 1435.82 553.49   Q 1424.10 550.71 1417.74 546.99   Q 1395.56 534.02 1393.04 508.04   Q 1391.82 495.48 1396.50 484.06   Q 1403.28 467.48 1417.50 459.81   Q 1426.07 455.18 1436.41 454.03   C 1455.01 451.96 1473.91 459.54 1484.34 475.43   C 1494.22 490.50 1495.79 509.06 1488.12 525.41   C 1481.01 540.56 1467.98 549.12 1451.88 553.11   Q 1451.44 553.22 1450.95 553.81   Z"></path>
  <path fill="#cc0267" d="   M 1371.32 458.32   Q 1365.49 477.18 1365.34 497.16   C 1365.31 501.00 1364.94 504.20 1360.83 504.87   Q 1358.01 505.33 1355.96 503.85   Q 1354.78 503.01 1353.11 500.16   Q 1346.19 488.33 1338.90 475.91   Q 1358.66 473.13 1370.18 457.34   A 0.77 0.77 0.0 0 1 1371.46 457.40   Q 1371.49 457.45 1371.32 458.32   Z"></path>
  <path fill="#a42c7a" d="   M 1438.18 553.75   L 1437.62 557.10   Q 1437.53 557.63 1437.00 557.53   Q 1430.78 556.37 1424.77 554.32   Q 1423.70 553.96 1424.83 553.93   Q 1429.69 553.81 1434.75 554.11   Q 1435.24 554.14 1435.82 553.49   L 1438.18 553.75   Z"></path>
  <path fill="#a42c7a" d="   M 1450.95 553.81   L 1460.30 553.95   Q 1462.22 553.98 1460.42 554.65   Q 1456.03 556.30 1450.25 557.52   Q 1449.74 557.63 1449.55 557.14   Q 1448.99 555.65 1449.20 553.95   L 1450.95 553.81   Z"></path>
</svg>
