<?xml version="1.0" encoding="UTF-8" standalone="no"?>
<svg xmlns="http://www.w3.org/2000/svg" version="1.1" viewBox="0.00 0.00 750.00 750.00">
  <circle fill="#005da9" cx="345.76" cy="150.84" r="69.96"></circle>
  <circle fill="#005da9" cx="225.73" cy="235.02" r="50.72"></circle>
  <circle fill="#005da9" cx="465.81" cy="235.02" r="50.72"></circle>
  <circle fill="#005da9" cx="345.77" cy="303.78" r="51.35"></circle>
  <circle fill="#005da9" cx="242.80" cy="356.20" r="33.54"></circle>
  <circle fill="#005da9" cx="448.71" cy="356.21" r="33.53"></circle>
  <circle fill="#005da9" cx="345.76" cy="425.15" r="33.31"></circle>
  <circle fill="#005da9" cx="431.74" cy="476.64" r="17.07"></circle>
  <circle fill="#005da9" cx="259.80" cy="476.63" r="17.06"></circle>
  <circle fill="#005da9" cx="345.75" cy="509.07" r="17.23"></circle>
  <path fill="#005da9" d="   M 660.68 567.79   L 669.40 576.40   A 0.52 0.52 0.0 0 1 669.38 577.16   L 660.28 585.36   A 0.52 0.52 0.0 0 1 659.57 585.35   L 650.84 576.74   A 0.52 0.52 0.0 0 1 650.86 575.98   L 659.97 567.78   A 0.52 0.52 0.0 0 1 660.68 567.79   Z"></path>
  <path fill="#005da9" d="   M 177.13 577.82   L 167.97 586.33   A 0.34 0.34 0.0 0 1 167.50 586.32   L 158.68 577.47   A 0.34 0.34 0.0 0 1 158.69 576.98   L 167.84 568.48   A 0.34 0.34 0.0 0 1 168.31 568.49   L 177.14 577.33   A 0.34 0.34 0.0 0 1 177.13 577.82   Z"></path>
  <path fill="#005da9" d="   M 457.54 622.78   C 457.11 626.21 457.02 628.49 454.85 630.97   Q 448.45 638.29 438.01 639.51   Q 431.84 640.23 427.68 639.58   C 424.51 639.08 423.04 636.60 420.30 633.60   Q 419.96 633.23 419.67 633.64   C 416.89 637.56 415.26 639.69 411.66 641.94   Q 409.88 643.06 407.34 642.46   Q 398.99 640.46 395.12 633.09   A 0.57 0.57 0.0 0 0 394.13 633.06   C 392.23 636.20 390.08 639.93 385.78 639.97   Q 380.69 640.02 378.15 639.33   Q 371.40 637.51 369.39 630.73   A 0.83 0.82 65.1 0 0 368.15 630.27   Q 358.85 636.34 347.42 638.39   Q 334.36 640.73 322.53 639.41   C 312.17 638.24 304.78 633.42 304.26 622.24   Q 303.74 610.85 309.88 600.83   Q 311.16 598.74 313.38 599.77   L 314.25 600.17   Q 316.31 601.12 315.45 603.23   C 312.98 609.29 310.16 616.80 316.90 620.64   Q 320.86 622.90 325.21 623.44   Q 342.55 625.57 360.80 620.10   Q 369.07 617.62 371.36 610.36   Q 371.87 608.74 373.65 609.28   L 376.22 610.06   Q 377.66 610.49 377.21 611.97   C 375.94 616.23 374.83 622.34 380.38 623.62   Q 383.52 624.35 386.30 624.06   Q 388.92 623.78 391.45 620.46   Q 394.31 616.69 397.34 612.86   C 399.54 610.09 403.13 606.83 406.66 605.93   Q 407.89 605.62 409.76 606.18   Q 415.42 607.88 419.04 612.97   Q 423.81 619.70 425.77 622.20   Q 427.14 623.96 429.61 624.01   Q 435.85 624.13 440.75 623.74   Q 445.66 623.35 450.06 621.37   A 1.22 1.21 -30.8 0 0 450.53 619.52   Q 442.99 609.70 431.79 604.90   A 1.59 1.57 -76.5 0 1 430.84 603.33   Q 431.79 590.67 432.26 588.18   Q 432.46 587.10 432.62 586.20   Q 432.71 585.71 433.14 585.46   Q 453.84 573.55 476.73 568.16   Q 477.96 567.87 477.45 569.02   Q 474.51 575.61 471.20 582.49   Q 470.78 583.38 469.83 583.55   Q 469.10 583.68 469.01 583.71   Q 455.44 587.86 441.22 594.45   Q 440.52 594.77 441.21 595.12   Q 452.53 600.68 462.16 609.60   Q 462.65 610.06 473.30 620.45   Q 475.19 622.29 478.44 623.35   Q 480.42 624.00 484.16 624.01   C 495.34 624.05 501.43 623.99 509.96 622.29   Q 510.95 622.10 510.08 621.58   Q 502.76 617.26 496.99 613.20   Q 494.55 611.49 492.80 614.02   Q 490.73 617.02 490.21 618.20   Q 489.38 620.06 487.53 619.21   L 485.84 618.42   Q 484.04 617.59 484.84 615.78   Q 488.48 607.52 493.30 601.32   C 497.60 595.78 503.52 599.84 508.32 603.51   Q 511.59 606.01 521.14 613.10   Q 528.85 618.83 538.23 619.33   Q 538.63 619.35 538.43 619.70   L 531.47 631.77   A 0.82 0.81 20.5 0 1 530.61 632.16   Q 525.81 631.23 522.31 630.71   Q 519.29 630.25 513.27 632.28   Q 509.71 633.48 499.03 637.28   Q 491.23 640.06 482.51 639.93   Q 474.76 639.81 469.51 634.64   Q 464.45 629.66 459.14 622.36   Q 457.82 620.55 457.54 622.78   Z   M 413.6059 628.8862   A 3.48 3.48 0.0 0 0 413.3741 623.9702   L 408.0635 619.1380   A 3.48 3.48 0.0 0 0 403.1475 619.3698   L 402.4341 620.1538   A 3.48 3.48 0.0 0 0 402.6659 625.0698   L 407.9765 629.9020   A 3.48 3.48 0.0 0 0 412.8925 629.6702   L 413.6059 628.8862   Z"></path>
  <path fill="#005da9" d="   M 626.56 622.40   Q 625.09 620.75 625.34 622.95   Q 626.03 629.00 621.09 632.85   C 615.66 637.09 609.36 638.87 602.35 639.40   Q 588.58 640.46 575.75 639.21   C 568.62 638.52 562.04 635.88 560.74 628.04   Q 558.73 615.86 566.87 604.22   Q 567.75 602.96 569.15 603.61   L 570.77 604.36   A 1.55 1.55 0.0 0 1 571.49 606.49   Q 569.03 611.16 568.66 614.37   C 567.90 620.91 573.23 623.10 578.82 623.57   Q 587.00 624.26 602.13 623.89   C 607.66 623.76 613.59 623.36 618.40 620.67   A 0.53 0.52 -31.7 0 0 618.58 619.93   C 614.31 613.22 605.77 607.80 598.40 604.79   A 1.04 1.03 13.6 0 1 597.76 603.75   Q 598.71 592.57 599.09 588.63   Q 599.18 587.74 599.70 586.04   A 1.21 1.20 -6.2 0 1 600.28 585.32   Q 621.87 573.23 644.99 568.11   A 0.40 0.40 0.0 0 1 645.44 568.66   L 638.94 582.68   A 1.27 1.24 -85.4 0 1 638.16 583.36   Q 622.83 587.75 608.44 594.35   A 0.52 0.52 0.0 0 0 608.44 595.30   Q 619.74 600.52 629.14 609.05   Q 630.85 610.60 641.25 620.47   Q 644.83 623.87 650.37 623.99   Q 656.15 624.13 660.51 623.85   Q 663.27 623.67 665.88 622.42   Q 666.37 622.19 666.25 621.67   C 665.50 618.24 662.89 615.04 660.49 611.76   A 0.82 0.81 45.4 0 1 660.49 610.79   L 668.78 599.60   Q 669.14 599.11 669.54 599.57   Q 674.94 605.74 676.00 613.78   C 676.57 618.12 675.23 622.71 673.51 627.53   Q 672.17 631.29 670.14 633.39   C 664.52 639.15 658.24 640.15 650.21 639.91   Q 644.70 639.76 640.46 637.07   C 634.64 633.38 630.22 626.50 626.56 622.40   Z"></path>
  <path fill="#005da9" d="   M 188.10 580.52   L 201.21 569.22   A 0.37 0.36 -24.5 0 1 201.81 569.44   C 202.30 572.85 202.99 577.28 203.09 580.96   Q 203.87 609.53 199.19 635.58   Q 198.61 638.81 196.46 641.20   Q 195.27 642.53 193.26 642.86   A 0.65 0.65 0.0 0 1 192.51 642.24   Q 191.32 610.84 187.83 581.22   Q 187.78 580.80 188.10 580.52   Z"></path>
  <path fill="#005da9" d="   M 143.83 631.70   C 141.58 635.32 137.35 639.52 132.80 639.80   Q 130.93 639.92 99.75 639.73   C 91.35 639.68 87.84 634.37 86.06 626.75   C 83.69 616.65 83.84 607.18 83.29 595.03   Q 82.96 587.83 81.17 580.34   A 0.67 0.67 0.0 0 1 81.35 579.72   L 91.58 569.49   Q 91.86 569.21 92.07 569.55   Q 93.20 571.37 93.49 572.32   Q 95.49 578.79 95.52 586.51   Q 95.55 598.50 94.95 607.54   Q 94.61 612.72 95.48 617.80   Q 96.48 623.72 102.48 623.86   Q 124.35 624.36 124.59 624.36   C 128.39 624.36 133.70 624.17 136.82 622.91   Q 137.67 622.56 138.46 620.98   Q 140.84 616.22 141.23 611.30   Q 141.27 610.78 141.79 610.78   L 146.99 610.78   Q 147.50 610.78 147.44 611.28   C 146.92 616.19 149.13 622.61 154.48 623.79   Q 155.81 624.09 161.54 624.05   Q 166.64 624.01 170.62 623.29   A 2.16 2.15 -12.2 0 0 172.33 620.64   Q 172.11 619.74 171.23 618.39   Q 168.51 614.19 166.64 611.67   Q 166.34 611.26 166.64 610.85   L 175.13 599.40   A 0.50 0.50 0.0 0 1 175.95 599.42   C 179.16 604.18 182.28 609.31 182.21 615.05   C 182.09 625.42 177.61 636.73 166.41 639.15   Q 161.33 640.25 155.79 639.80   C 150.43 639.37 147.00 636.27 144.68 631.74   A 0.49 0.49 0.0 0 0 143.83 631.70   Z"></path>
  <path fill="#005da9" d="   M 281.77 569.70   Q 283.55 581.93 283.09 595.02   Q 282.47 612.48 280.21 629.23   C 279.55 634.15 278.76 641.72 273.33 642.89   A 0.73 0.73 0.0 0 1 272.45 642.20   Q 271.26 611.33 267.72 581.07   Q 267.69 580.83 267.87 580.67   L 280.96 569.39   A 0.50 0.49 65.7 0 1 281.77 569.70   Z"></path>
  <path fill="#005da9" d="   M 718.86 622.70   A 1.56 1.56 0.0 0 0 719.58 620.64   Q 717.45 616.13 714.14 612.23   A 1.27 1.26 43.0 0 1 714.08 610.65   L 722.18 599.72   Q 722.75 598.94 723.35 599.70   Q 733.78 613.10 726.54 628.62   Q 722.48 637.32 712.99 639.25   Q 708.77 640.11 702.23 639.80   Q 691.31 639.29 689.06 628.94   C 686.77 618.42 687.13 608.05 686.37 596.34   Q 685.86 588.32 682.75 580.55   Q 682.54 580.02 682.94 579.62   L 693.02 569.54   Q 693.42 569.14 693.71 569.61   C 696.90 574.66 697.34 581.72 697.27 587.75   Q 697.24 590.70 697.25 610.50   Q 697.25 615.31 698.32 619.16   Q 699.65 623.96 704.74 624.02   Q 709.99 624.09 714.74 623.72   Q 717.16 623.54 718.86 622.70   Z"></path>
  <path fill="#005da9" d="   M 355.10 592.75   Q 355.10 592.76 355.10 592.78   Q 355.10 592.81 355.08 592.83   Q 350.85 597.06 346.69 601.22   A 0.42 0.42 0.0 0 1 346.10 601.23   Q 342.88 598.18 339.52 595.19   Q 339.40 595.08 339.05 595.09   Q 338.70 595.10 338.58 595.22   Q 335.38 598.37 332.32 601.58   A 0.42 0.42 0.0 0 1 331.73 601.60   Q 327.36 597.66 322.92 593.64   Q 322.90 593.62 322.90 593.59   Q 322.90 593.57 322.90 593.56   Q 322.90 593.55 322.90 593.53   Q 322.90 593.50 322.92 593.48   Q 327.15 589.25 331.31 585.09   A 0.42 0.42 0.0 0 1 331.90 585.08   Q 335.12 588.13 338.48 591.12   Q 338.60 591.23 338.95 591.22   Q 339.30 591.21 339.42 591.10   Q 342.62 587.94 345.69 584.73   A 0.42 0.42 0.0 0 1 346.28 584.71   Q 350.64 588.66 355.08 592.67   Q 355.10 592.69 355.10 592.72   Q 355.10 592.74 355.10 592.75   Z"></path>
  <path fill="#005da9" d="   M 43.76 611.58   L 34.93 602.68   A 0.34 0.34 0.0 0 1 34.94 602.19   L 44.18 593.72   A 0.34 0.34 0.0 0 1 44.65 593.73   L 53.48 602.63   A 0.34 0.34 0.0 0 1 53.47 603.12   L 44.23 611.59   A 0.34 0.34 0.0 0 1 43.76 611.58   Z"></path>
  <path fill="#005da9" d="   M 250.26 622.73   A 1.38 1.38 0.0 0 0 251.03 620.89   Q 248.77 615.81 245.55 612.11   A 1.12 1.12 0.0 0 1 245.49 610.70   L 253.76 599.55   A 0.44 0.44 0.0 0 1 254.46 599.53   Q 265.85 613.75 257.12 630.18   Q 253.72 636.59 246.37 638.77   Q 237.74 641.34 229.06 638.39   Q 228.80 638.30 228.73 638.57   Q 225.00 655.45 212.70 667.96   Q 211.88 668.80 211.17 669.25   Q 210.75 669.53 210.26 669.42   Q 200.15 667.22 191.92 661.29   Q 191.40 660.91 191.99 660.65   C 200.41 656.87 208.24 652.55 214.96 646.46   C 216.89 644.72 219.37 641.79 219.88 639.30   Q 220.08 638.32 219.29 636.92   C 217.23 633.25 213.58 630.09 210.06 627.71   Q 209.50 627.33 209.80 626.73   L 217.13 612.18   Q 217.38 611.67 217.80 612.07   Q 219.49 613.68 224.65 619.34   Q 228.76 623.87 234.99 623.99   C 239.67 624.08 245.68 624.47 250.26 622.73   Z"></path>
  <path fill="#005da9" d="   M 73.53 644.08   Q 71.76 636.05 68.17 631.09   Q 67.48 630.14 64.64 626.65   Q 64.32 626.25 64.39 625.75   Q 64.55 624.61 65.22 622.97   Q 66.34 620.22 69.99 611.09   Q 70.43 610.00 71.15 610.92   C 77.22 618.62 82.53 629.61 81.80 639.53   Q 81.30 646.35 79.11 653.39   C 77.59 658.30 69.64 662.96 64.70 665.14   Q 49.40 671.86 35.24 668.27   Q 20.73 664.60 21.13 648.90   Q 21.23 644.88 24.00 638.49   Q 26.91 631.75 31.64 624.93   Q 33.14 622.77 35.42 624.09   L 36.29 624.59   Q 38.26 625.73 37.03 627.65   C 32.30 635.04 27.01 648.99 39.61 652.65   C 49.57 655.55 62.10 652.49 70.48 647.49   Q 72.21 646.45 73.34 644.97   Q 73.64 644.57 73.53 644.08   Z"></path>
  <path fill="#005da9" d="   M 264.48 656.05   Q 264.48 656.08 264.47 656.11   Q 264.47 656.17 264.41 656.22   Q 260.41 659.76 255.84 664.63   A 0.56 0.55 44.0 0 1 255.04 664.64   L 249.23 658.83   A 1.30 1.30 0.0 0 0 247.39 658.83   L 241.56 664.66   A 0.66 0.65 42.3 0 1 240.68 664.70   Q 236.14 660.88 232.67 657.57   Q 232.30 657.22 232.29 656.82   Q 232.28 656.42 232.63 656.05   Q 235.94 652.58 240.29 648.54   A 0.66 0.65 -45.0 0 1 241.17 648.54   L 247.28 654.09   A 1.30 1.30 0.0 0 0 249.11 654.00   L 254.64 647.91   A 0.56 0.55 -46.7 0 1 255.44 647.89   Q 260.24 652.53 264.40 655.88   Q 264.46 655.92 264.47 655.98   Q 264.48 656.01 264.48 656.05   Z"></path>
  <path fill="#005da9" d="   M 712.12 656.89   L 702.95 665.23   A 0.46 0.46 0.0 0 1 702.32 665.21   L 693.51 656.50   A 0.46 0.46 0.0 0 1 693.52 655.83   L 702.69 647.49   A 0.46 0.46 0.0 0 1 703.32 647.51   L 712.13 656.22   A 0.46 0.46 0.0 0 1 712.12 656.89   Z"></path>
  <path fill="#005da9" d="   M 140.21 656.08   Q 140.21 656.23 140.10 656.33   Q 132.75 663.74 132.07 664.42   A 0.65 0.64 -45.3 0 1 131.17 664.43   Q 127.78 661.19 124.57 658.52   Q 124.43 658.40 124.25 658.41   Q 124.07 658.41 123.94 658.54   Q 120.86 661.36 117.63 664.76   A 0.65 0.64 42.6 0 1 116.73 664.79   Q 116.02 664.14 108.32 657.10   Q 108.21 657.00 108.21 656.86   Q 108.20 656.71 108.31 656.61   Q 115.66 649.20 116.34 648.52   A 0.65 0.64 -45.3 0 1 117.24 648.51   Q 120.63 651.75 123.84 654.42   Q 123.98 654.54 124.16 654.53   Q 124.34 654.53 124.47 654.40   Q 127.55 651.58 130.78 648.18   A 0.65 0.64 42.6 0 1 131.68 648.15   Q 132.39 648.80 140.09 655.84   Q 140.21 655.94 140.21 656.08   Z"></path>
</svg>
