<?xml version="1.0" encoding="UTF-8" standalone="no"?>
<!DOCTYPE svg PUBLIC "-//W3C//DTD SVG 1.1//EN" "http://www.w3.org/Graphics/SVG/1.1/DTD/svg11.dtd">
<svg xmlns="http://www.w3.org/2000/svg" version="1.1" viewBox="0.00 0.00 1958.00 1544.00">
<path fill="#008a9f" d="
  M 788.89 467.90
  C 794.19 470.77 791.18 477.21 788.54 481.01
  Q 784.90 486.26 781.69 491.21
  Q 757.81 528.03 733.47 565.65
  Q 732.95 566.44 732.18 565.90
  C 656.23 512.86 573.47 467.49 484.42 443.18
  C 441.65 431.51 397.93 425.19 354.85 427.45
  C 330.20 428.75 305.80 432.99 282.78 441.03
  Q 224.77 461.27 185.04 508.95
  C 151.87 548.76 132.45 597.03 125.36 649.26
  Q 120.18 687.45 131.65 724.45
  Q 138.58 746.82 151.48 769.35
  C 174.35 809.27 206.98 842.79 246.71 865.37
  Q 286.83 888.16 332.53 892.73
  Q 342.48 893.72 352.50 893.52
  Q 374.39 893.07 395.75 889.15
  Q 410.25 886.49 425.72 883.48
  Q 543.14 860.67 637.20 786.86
  C 691.20 744.49 737.67 693.67 779.40 639.17
  C 828.18 575.47 870.72 508.25 911.21 437.89
  Q 916.16 429.29 921.39 420.69
  C 1003.92 285.11 1108.44 157.48 1247.22 76.36
  Q 1272.59 61.53 1306.25 47.10
  C 1341.76 31.86 1378.71 20.78 1416.55 15.29
  Q 1468.08 7.81 1517.43 16.15
  Q 1517.87 16.23 1517.88 16.68
  L 1519.56 290.68
  A 0.82 0.81 -17.5 0 1 1519.19 291.38
  Q 1514.48 294.46 1509.57 294.77
  Q 1498.63 295.46 1486.93 297.89
  Q 1438.16 308.03 1389.50 328.67
  C 1327.46 354.98 1270.12 389.59 1215.24 429.93
  Q 1148.24 479.18 1083.47 542.29
  Q 1047.49 577.35 1022.43 605.12
  Q 1000.59 629.32 978.70 653.54
  Q 945.73 690.03 907.75 728.99
  C 838.46 800.03 763.67 866.48 682.55 921.48
  C 619.21 964.43 550.51 998.31 476.14 1016.43
  Q 418.87 1030.38 359.92 1028.92
  Q 349.99 1028.68 339.82 1027.45
  C 255.05 1017.25 174.92 981.79 110.84 925.30
  C 49.19 870.94 10.38 793.21 4.02 711.24
  Q 3.28 701.76 2.41 692.13
  C 1.00 676.58 0.42 661.18 1.97 645.51
  Q 3.30 632.05 4.64 619.52
  C 11.70 553.27 33.29 486.31 74.19 434.37
  Q 80.37 426.51 87.67 418.48
  C 159.74 339.11 266.38 306.13 371.46 304.53
  Q 381.07 304.38 391.23 304.80
  C 482.81 308.61 571.05 337.21 651.71 379.92
  Q 719.92 416.03 785.21 465.54
  Q 786.90 466.82 788.89 467.90
  Z"
/>
<path fill="#008a9f" d="
  M 1562.32 299.13
  Q 1572.92 298.91 1583.34 299.10
  Q 1633.58 300.01 1677.85 309.15
  C 1702.19 314.17 1726.33 321.41 1749.23 331.15
  Q 1852.94 375.27 1908.79 475.31
  Q 1935.74 523.59 1947.67 577.60
  Q 1950.18 588.97 1952.38 600.42
  C 1955.44 616.36 1956.31 631.24 1955.88 646.87
  Q 1955.58 657.90 1955.47 668.10
  Q 1955.37 678.47 1954.42 688.08
  C 1948.21 750.84 1929.68 812.16 1896.97 865.40
  Q 1839.29 959.27 1735.49 1000.23
  Q 1681.84 1021.40 1622.28 1027.17
  Q 1598.65 1029.46 1572.94 1028.14
  Q 1526.35 1025.74 1478.54 1013.44
  C 1447.83 1005.54 1416.74 995.14 1386.73 982.54
  C 1312.87 951.56 1241.21 911.23 1175.16 865.93
  Q 1089.78 807.38 1008.47 736.11
  C 1007.16 734.97 1007.05 732.96 1006.51 731.41
  Q 1006.35 730.94 1006.67 730.56
  Q 1007.42 729.66 1008.25 728.76
  Q 1049.06 684.92 1090.63 643.51
  Q 1090.98 643.16 1091.40 643.43
  C 1100.58 649.41 1108.85 656.39 1117.54 663.59
  Q 1125.88 670.49 1133.17 676.08
  Q 1154.61 692.53 1176.83 709.14
  C 1226.86 746.55 1278.72 781.92 1332.52 813.55
  C 1377.33 839.89 1420.28 862.27 1466.32 878.73
  Q 1487.32 886.23 1511.38 890.30
  Q 1516.42 891.15 1521.61 890.72
  Q 1573.98 886.32 1616.86 857.80
  C 1662.25 827.61 1684.68 772.01 1680.49 718.75
  C 1678.84 697.73 1672.12 675.48 1660.41 657.37
  C 1640.01 625.82 1608.03 604.38 1572.81 589.92
  Q 1546.74 579.22 1517.73 572.29
  Q 1517.24 572.18 1517.24 571.67
  L 1517.84 301.91
  Q 1517.84 301.34 1518.41 301.30
  Q 1538.23 299.64 1562.32 299.13
  Z"
/>
<path fill="#4b4b4b" d="
  M 1205.60 1317.32
  A 0.25 0.25 0.0 0 0 1205.60 1317.67
  L 1294.42 1410.63
  A 1.87 1.86 -21.2 0 0 1295.75 1411.21
  Q 1324.70 1411.42 1355.97 1411.13
  Q 1366.44 1411.04 1370.47 1409.94
  C 1378.90 1407.64 1387.22 1401.54 1390.11 1393.19
  Q 1391.41 1389.42 1391.34 1382.14
  Q 1391.12 1358.65 1391.30 1335.28
  Q 1391.31 1334.66 1391.93 1334.68
  Q 1409.63 1335.17 1427.85 1334.95
  Q 1428.53 1334.95 1428.53 1335.62
  Q 1428.44 1367.41 1428.56 1400.38
  Q 1428.58 1407.33 1427.12 1412.73
  C 1422.42 1430.06 1406.76 1445.65 1389.06 1449.79
  Q 1383.48 1451.09 1374.73 1451.07
  Q 1324.34 1450.90 1274.88 1451.04
  Q 1274.30 1451.05 1273.87 1450.65
  Q 1270.10 1447.07 1265.33 1442.21
  Q 1212.35 1388.21 1154.14 1329.47
  C 1148.36 1323.63 1148.12 1309.25 1154.68 1303.20
  Q 1155.75 1302.21 1156.89 1301.03
  Q 1213.98 1241.74 1282.16 1171.86
  Q 1282.52 1171.50 1283.03 1171.50
  L 1343.99 1171.50
  Q 1345.14 1171.50 1344.35 1172.33
  L 1205.60 1317.32
  Z"
/>
<rect fill="#4b4b4b" x="1462.47" y="1171.50" width="50.28" height="219.00" rx="0.60"/>
<path fill="#4b4b4b" d="
  M 506.77 1223.74
  C 491.65 1223.73 486.45 1234.81 485.46 1248.29
  Q 484.81 1257.28 485.02 1268.93
  Q 485.07 1271.35 484.27 1273.48
  A 1.72 1.71 -79.6 0 1 482.67 1274.59
  L 441.46 1274.49
  Q 441.02 1274.49 441.02 1274.04
  Q 440.97 1251.83 441.03 1230.22
  C 441.09 1207.08 462.76 1188.36 483.89 1183.11
  Q 489.99 1181.59 501.78 1181.66
  Q 533.15 1181.85 563.93 1181.72
  A 0.32 0.32 0.0 0 1 564.25 1182.04
  L 564.26 1223.20
  Q 564.26 1223.74 563.72 1223.74
  Q 535.70 1223.75 506.77 1223.74
  Z"
/>
<path fill="#4b4b4b" d="
  M 689.51 1282.50
  Q 669.64 1282.49 650.29 1282.50
  A 0.29 0.29 0.0 0 1 650.00 1282.21
  L 650.00 1235.44
  Q 650.00 1234.74 650.70 1234.73
  Q 667.79 1234.58 686.92 1234.79
  C 719.35 1235.14 754.15 1243.56 781.32 1261.17
  Q 823.68 1288.61 830.24 1337.26
  Q 831.38 1345.76 831.30 1357.16
  Q 831.17 1375.79 831.29 1395.41
  A 0.59 0.58 -90.0 0 1 830.71 1396.00
  L 783.30 1396.00
  Q 782.74 1396.00 782.74 1395.44
  Q 782.75 1378.66 782.73 1364.85
  Q 782.71 1347.85 775.52 1331.67
  C 762.07 1301.40 731.95 1285.88 700.10 1283.15
  C 696.59 1282.85 693.05 1282.50 689.51 1282.50
  Z"
/>
<path fill="#4b4b4b" d="
  M 298.13 1406.81
  A 62.76 16.64 -86.9 0 0 298.12 1398.11
  Q 296.72 1337.38 295.32 1277.38
  Q 295.31 1276.75 295.94 1276.75
  L 335.96 1276.75
  A 0.30 0.29 -90.0 0 1 336.25 1277.05
  Q 336.24 1326.25 336.27 1374.76
  C 336.29 1390.87 343.47 1410.42 362.83 1410.83
  Q 383.21 1411.27 424.25 1411.28
  Q 425.75 1411.28 427.25 1411.28
  Q 458.35 1411.33 485.75 1411.63
  C 506.53 1411.87 525.61 1411.44 545.45 1411.48
  Q 557.12 1411.51 562.46 1409.95
  C 575.14 1406.24 585.06 1397.08 586.51 1383.66
  C 587.63 1373.30 585.98 1359.58 578.89 1351.63
  Q 572.79 1344.79 562.48 1344.31
  C 560.01 1344.19 557.57 1344.00 555.07 1344.00
  Q 497.99 1344.00 440.88 1343.99
  Q 440.19 1343.99 440.20 1343.30
  L 440.60 1299.27
  Q 440.60 1298.73 441.15 1298.73
  Q 498.96 1298.81 557.23 1298.69
  Q 566.90 1298.67 573.07 1300.02
  C 604.87 1306.99 627.20 1332.08 628.16 1365.10
  C 629.23 1401.74 619.38 1446.39 578.12 1455.89
  Q 572.16 1457.26 566.65 1457.26
  Q 464.06 1457.21 362.52 1457.29
  Q 354.41 1457.29 348.30 1456.28
  Q 329.20 1453.11 314.18 1440.04
  C 306.10 1433.02 299.20 1423.35 298.49 1412.44
  Q 298.13 1406.97 298.13 1406.81
  Z"
/>
<circle fill="#4b4b4b" cx="1321.37" cy="1315.40" r="32.44"/>
<path fill="#4b4b4b" d="
  M 1594.00 1407.78
  C 1604.24 1405.20 1614.34 1398.34 1617.99 1388.43
  Q 1619.36 1384.71 1619.33 1377.75
  Q 1619.23 1354.56 1619.21 1330.75
  Q 1619.21 1330.00 1619.96 1330.00
  L 1662.21 1330.00
  Q 1662.81 1330.00 1662.80 1330.60
  Q 1662.63 1358.83 1662.84 1387.00
  Q 1662.91 1397.39 1661.44 1404.38
  C 1656.51 1427.75 1637.47 1447.64 1614.28 1453.76
  Q 1609.23 1455.09 1600.98 1455.07
  Q 1532.70 1454.92 1462.80 1455.02
  A 0.30 0.30 0.0 0 1 1462.50 1454.72
  L 1462.52 1409.27
  A 0.23 0.23 0.0 0 1 1462.75 1409.04
  Q 1520.25 1408.91 1578.19 1409.09
  Q 1588.69 1409.12 1594.00 1407.78
  Z"
/>
<path fill="#4b4b4b" d="
  M 1055.25 1410.13
  Q 1055.87 1410.13 1056.50 1410.13
  Q 1087.71 1409.99 1116.00 1409.99
  Q 1117.37 1409.99 1118.75 1409.97
  Q 1144.50 1409.67 1169.19 1409.66
  Q 1176.90 1409.66 1185.80 1409.51
  Q 1193.44 1409.37 1201.86 1409.55
  Q 1202.49 1409.56 1202.91 1410.03
  L 1243.67 1454.36
  Q 1244.23 1454.98 1243.40 1454.98
  Q 1087.95 1455.03 934.60 1454.99
  Q 929.30 1454.98 923.53 1452.75
  C 903.99 1445.18 886.92 1429.40 882.49 1408.75
  Q 881.40 1403.69 881.43 1395.03
  Q 881.54 1367.27 881.58 1336.25
  Q 881.58 1335.56 882.27 1335.56
  L 921.93 1335.46
  A 0.36 0.36 0.0 0 1 922.29 1335.82
  Q 922.11 1358.95 922.37 1385.47
  C 922.47 1396.17 926.76 1405.60 937.16 1409.28
  Q 940.94 1410.62 949.00 1410.57
  Q 997.52 1410.25 1055.25 1410.13
  Z"
/>
<path fill="#4b4b4b" d="
  M 648.16 1411.59
  Q 648.58 1411.00 649.30 1411.00
  L 831.47 1411.00
  A 0.25 0.25 0.0 0 1 831.72 1411.24
  C 832.17 1426.29 830.72 1440.95 824.97 1454.24
  A 1.26 1.25 -78.1 0 1 823.82 1455.00
  L 618.09 1455.00
  Q 617.28 1455.00 617.75 1454.34
  L 648.16 1411.59
  Z"
/>
<path fill="#4b4b4b" d="
  M 1570.96 1544.00
  L 1562.41 1544.00
  Q 1556.30 1542.75 1553.73 1541.51
  C 1539.20 1534.51 1531.35 1519.51 1535.30 1503.89
  Q 1538.74 1490.30 1551.16 1483.26
  C 1557.70 1479.55 1566.45 1478.33 1573.71 1480.04
  C 1593.34 1484.67 1604.63 1505.10 1596.60 1524.25
  Q 1589.80 1540.47 1570.96 1544.00
  Z"
/>
</svg>
