<?xml version="1.0" encoding="UTF-8" standalone="no"?>
<svg xmlns="http://www.w3.org/2000/svg" version="1.1" viewBox="0.00 0.00 1915.00 1641.00">
  <path fill="#a88b53" d="   M 957.50 314.24   Q 957.55 314.24 957.60 314.23   Q 957.69 314.23 957.77 314.15   Q 1108.04 163.88 1158.77 113.01   Q 1160.79 110.98 1163.41 110.01   Q 1165.28 109.32 1168.71 109.32   Q 1316.45 109.25 1429.95 109.37   A 0.60 0.60 0.0 0 1 1430.55 109.97   Q 1430.65 550.75 1430.55 991.77   Q 1430.55 1007.47 1430.37 1054.94   A 0.44 0.43 -0.7 0 1 1429.94 1055.37   Q 1415.91 1055.74 1401.75 1055.81   Q 1381.15 1055.92 957.49 1055.91   Q 533.82 1055.90 513.22 1055.79   Q 499.06 1055.72 485.03 1055.35   A 0.44 0.43 0.7 0 1 484.60 1054.92   Q 484.42 1007.45 484.43 991.75   Q 484.34 550.73 484.46 109.95   A 0.60 0.60 0.0 0 1 485.06 109.35   Q 598.56 109.23 746.30 109.31   Q 749.73 109.31 751.60 110.00   Q 754.22 110.97 756.24 113.00   Q 806.97 163.87 957.23 314.15   Q 957.31 314.23 957.40 314.23   Q 957.45 314.24 957.50 314.24   Z   M 596.70 719.51   Q 598.61 714.81 601.76 710.75   Q 621.54 685.25 681.39 607.63   C 683.11 605.39 685.83 602.12 688.93 602.12   Q 756.13 602.13 805.93 602.17   Q 807.62 602.17 806.43 600.97   L 739.33 533.87   A 0.60 0.59 -46.0 0 1 739.32 533.03   Q 749.12 522.93 762.76 509.26   C 826.57 445.35 861.45 410.62 886.66 385.08   A 0.27 0.27 0.0 0 0 886.66 384.70   Q 852.81 350.70 714.80 212.75   Q 713.03 210.98 711.23 209.97   Q 709.57 209.03 706.93 209.04   Q 678.50 209.07 584.81 209.05   Q 584.09 209.05 584.09 209.77   L 584.09 955.49   A 0.65 0.65 0.0 0 0 584.74 956.14   L 1330.03 956.14   Q 1330.87 956.14 1330.87 955.30   L 1330.87 211.20   A 1.76 1.75 9.3 0 0 1329.67 209.54   Q 1328.63 209.20 1327.00 209.18   Q 1311.75 208.99 1208.64 209.04   Q 1205.65 209.04 1204.10 209.74   Q 1202.11 210.64 1200.25 212.50   Q 1061.45 351.38 1028.42 384.51   A 0.74 0.74 0.0 0 0 1028.42 385.55   Q 1089.45 445.95 1128.26 485.35   Q 1130.50 487.62 1133.32 487.64   Q 1140.20 487.68 1147.04 487.68   Q 1267.25 487.62 1283.50 487.72   Q 1310.72 487.89 1320.31 488.09   A 0.41 0.41 0.0 0 1 1320.63 488.74   Q 1317.85 492.42 1312.47 499.49   Q 1279.66 542.62 1231.15 604.93   A 1.10 1.09 -70.7 0 1 1230.29 605.35   L 1110.60 605.35   A 0.32 0.32 0.0 0 0 1110.37 605.90   L 1177.77 673.31   A 0.66 0.66 0.0 0 1 1177.84 674.17   Q 1174.41 678.81 1169.74 683.49   Q 972.33 881.19 964.02 889.77   Q 962.30 891.55 959.92 892.26   Q 958.09 892.80 956.77 891.48   Q 837.79 772.46 786.67 721.23   Q 785.80 720.36 784.57 720.36   C 726.06 720.25 660.32 720.61 597.02 719.99   Q 596.51 719.98 596.70 719.51   Z   M 957.70 455.71   Q 957.57 455.58 957.42 455.69   Q 956.52 456.35 955.68 457.19   Q 916.22 496.77 813.23 599.74   C 809.68 603.28 813.97 606.60 816.30 608.95   Q 856.22 649.11 958.79 751.53   Q 959.38 752.12 959.97 751.53   Q 1020.79 690.29 1099.19 612.19   Q 1103.03 608.37 1105.37 605.14   A 1.49 1.48 40.5 0 0 1105.21 603.22   L 957.70 455.71   Z"></path>
  <rect fill="#446272" x="1127.26" y="1161.09" width="32.06" height="25.04" rx="0.38"></rect>
  <path fill="#446272" d="   M 1499.47 1197.73   Q 1498.70 1198.34 1499.68 1198.38   Q 1505.34 1198.61 1513.00 1198.60   Q 1547.99 1198.56 1557.26 1198.65   Q 1569.93 1198.77 1580.37 1205.27   C 1594.24 1213.90 1601.44 1228.64 1600.89 1245.04   Q 1600.76 1248.66 1600.03 1257.20   A 1.22 1.21 -73.0 0 0 1600.63 1258.35   Q 1606.06 1261.50 1612.75 1261.69   Q 1626.11 1262.06 1648.32 1261.67   Q 1655.11 1261.56 1657.60 1256.78   Q 1658.89 1254.30 1658.93 1247.53   Q 1659.06 1227.47 1658.89 1201.06   A 0.43 0.43 0.0 0 1 1659.32 1200.63   L 1690.02 1200.63   Q 1690.65 1200.63 1690.65 1201.26   Q 1690.83 1238.09 1690.61 1254.02   C 1690.44 1266.55 1685.50 1279.48 1673.85 1285.79   Q 1666.14 1289.97 1656.00 1289.96   Q 1635.27 1289.94 1622.20 1289.91   Q 1606.07 1289.86 1603.31 1289.39   Q 1593.96 1287.78 1585.72 1281.27   Q 1585.34 1280.96 1584.96 1281.27   Q 1575.47 1289.02 1562.01 1289.73   Q 1554.72 1290.12 1549.52 1290.01   Q 1543.55 1289.90 1543.46 1289.90   Q 1490.44 1289.90 1437.42 1289.89   Q 1424.54 1289.89 1419.30 1288.52   Q 1404.62 1284.68 1394.84 1271.62   C 1382.29 1254.84 1385.60 1231.68 1396.90 1215.07   Q 1397.20 1214.63 1397.72 1214.73   Q 1404.69 1215.98 1409.18 1220.31   Q 1419.18 1229.96 1421.60 1232.18   Q 1421.80 1232.36 1421.69 1232.60   C 1419.26 1238.05 1416.29 1244.46 1417.98 1250.15   Q 1420.36 1258.14 1428.04 1260.71   Q 1431.45 1261.85 1437.77 1261.85   Q 1474.65 1261.81 1542.82 1261.84   Q 1552.93 1261.85 1557.00 1260.25   Q 1564.22 1257.40 1567.54 1249.11   Q 1569.81 1243.44 1567.06 1236.73   C 1563.72 1228.54 1556.69 1226.82 1548.50 1226.74   Q 1535.01 1226.61 1459.02 1226.72   A 0.29 0.28 -1.0 0 1 1458.73 1226.45   C 1458.34 1210.83 1462.32 1194.77 1472.33 1182.47   Q 1489.38 1161.51 1518.49 1161.12   Q 1524.61 1161.03 1553.97 1161.14   Q 1554.54 1161.14 1554.54 1161.72   L 1554.54 1188.29   Q 1554.54 1188.82 1554.01 1188.82   C 1546.19 1188.84 1531.10 1188.42 1519.61 1189.13   C 1511.51 1189.62 1505.52 1192.89 1499.47 1197.73   Z"></path>
  <rect fill="#446272" x="-15.88" y="-12.52" transform="translate(1669.45,1173.62) rotate(0.1)" width="31.76" height="25.04" rx="0.32"></rect>
  <path fill="#446272" d="   M 1807.30 1200.63   L 1838.28 1200.63   Q 1838.75 1200.63 1838.75 1201.10   Q 1838.81 1246.10 1838.81 1249.79   C 1838.78 1268.35 1832.45 1285.60 1811.97 1289.18   Q 1806.32 1290.17 1799.75 1290.10   Q 1797.21 1290.07 1757.24 1289.91   Q 1742.55 1289.85 1737.40 1288.45   Q 1719.54 1283.61 1715.29 1263.14   Q 1714.18 1257.77 1714.20 1250.35   Q 1714.40 1189.05 1714.32 1161.80   A 0.68 0.68 0.0 0 1 1715.00 1161.12   L 1745.01 1161.12   Q 1745.67 1161.12 1745.67 1161.78   Q 1745.52 1216.05 1745.69 1252.77   Q 1745.72 1257.97 1750.32 1260.40   Q 1752.29 1261.44 1756.39 1261.58   Q 1760.92 1261.74 1762.57 1261.76   Q 1787.53 1262.02 1796.50 1261.75   Q 1804.51 1261.51 1806.37 1255.28   Q 1806.88 1253.57 1807.00 1244.93   Q 1807.31 1222.93 1806.90 1201.03   A 0.40 0.40 0.0 0 1 1807.30 1200.63   Z"></path>
  <path fill="#446272" d="   M 426.09 1260.61   Q 425.07 1261.70 426.57 1261.72   Q 455.47 1261.98 474.51 1261.80   Q 481.35 1261.74 483.74 1260.62   Q 488.75 1258.27 488.99 1251.59   C 489.25 1244.62 488.81 1238.00 489.91 1231.94   C 493.00 1214.81 504.71 1199.88 522.03 1195.80   Q 533.60 1193.08 547.03 1194.75   C 568.01 1197.37 582.42 1213.19 585.64 1233.51   C 589.15 1255.66 578.30 1280.52 556.64 1288.97   Q 550.22 1291.48 541.70 1291.93   Q 532.05 1292.44 526.34 1291.39   Q 515.47 1289.37 506.39 1282.88   A 1.11 1.11 0.0 0 0 505.15 1282.85   C 500.33 1285.95 495.04 1288.64 489.43 1289.57   Q 487.61 1289.87 483.59 1289.88   Q 464.36 1289.92 411.50 1289.89   Q 403.92 1289.89 394.49 1286.74   Q 392.50 1286.08 389.34 1286.90   Q 381.28 1289.01 378.00 1289.43   Q 374.07 1289.94 366.42 1289.93   Q 282.39 1289.85 218.98 1289.92   Q 218.34 1289.92 218.34 1289.28   L 218.34 1262.03   Q 218.34 1261.83 218.54 1261.83   L 269.03 1261.83   Q 270.04 1261.83 270.05 1260.82   Q 270.16 1239.74 269.92 1229.14   Q 269.73 1221.12 262.43 1219.53   Q 260.21 1219.05 258.02 1220.50   C 254.45 1222.86 253.40 1225.89 251.83 1229.68   Q 251.59 1230.25 250.97 1230.25   L 222.48 1230.25   Q 221.89 1230.25 221.92 1229.66   Q 222.23 1223.48 224.28 1217.57   C 227.96 1206.95 238.24 1201.01 249.06 1199.51   Q 265.22 1197.26 277.53 1199.94   Q 287.63 1202.14 293.91 1208.40   Q 299.57 1214.06 300.98 1222.66   Q 302.16 1229.87 302.16 1235.53   Q 302.16 1236.15 301.98 1261.02   A 0.79 0.79 0.0 0 0 302.77 1261.81   L 356.70 1261.81   Q 358.53 1261.81 357.27 1260.49   Q 352.97 1255.95 348.49 1250.58   Q 344.16 1245.37 342.58 1240.32   Q 341.94 1238.29 342.73 1233.59   Q 343.62 1228.30 346.59 1221.17   Q 355.20 1200.50 376.66 1195.91   Q 388.26 1193.43 403.35 1195.36   Q 423.91 1198.00 434.50 1216.31   Q 439.77 1225.42 441.25 1236.31   C 441.57 1238.65 441.59 1240.09 440.45 1242.25   C 436.85 1249.10 431.52 1254.73 426.09 1260.61   Z   M 537.6700 1267.1600   A 24.63 16.37 90.0 0 0 554.0400 1242.5300   A 24.63 16.37 90.0 0 0 537.6700 1217.9000   A 24.63 16.37 90.0 0 0 521.3000 1242.5300   A 24.63 16.37 90.0 0 0 537.6700 1267.1600   Z   M 391.69 1252.75   Q 391.78 1252.75 391.87 1252.73   Q 391.88 1252.73 392.00 1252.63   Q 401.18 1245.00 407.89 1235.45   Q 408.50 1234.58 407.94 1233.68   C 404.67 1228.40 398.64 1221.07 391.81 1221.04   C 384.98 1221.02 378.89 1228.30 375.58 1233.56   Q 375.01 1234.45 375.62 1235.33   Q 382.25 1244.93 391.37 1252.63   Q 391.49 1252.73 391.50 1252.73   Q 391.59 1252.75 391.69 1252.75   Z"></path>
  <path fill="#446272" d="   M 997.18 1261.70   Q 998.12 1261.69 997.47 1261.01   Q 991.54 1254.83 986.77 1248.66   Q 983.27 1244.13 982.39 1241.31   C 981.61 1238.79 981.89 1234.33 982.64 1231.66   Q 986.02 1219.69 990.12 1213.62   Q 1000.76 1197.83 1019.35 1195.36   Q 1033.08 1193.54 1045.59 1195.73   C 1053.78 1197.15 1061.20 1200.81 1067.17 1207.09   Q 1079.17 1219.70 1081.08 1237.76   Q 1081.35 1240.25 1079.87 1242.88   C 1075.96 1249.86 1070.28 1255.63 1065.21 1261.24   A 0.32 0.32 0.0 0 0 1065.44 1261.77   Q 1099.50 1261.88 1107.75 1261.88   C 1116.12 1261.89 1124.15 1261.55 1127.17 1252.19   Q 1128.05 1249.46 1128.01 1244.00   Q 1127.91 1229.05 1127.94 1206.86   A 0.32 0.31 -0.0 0 1 1128.26 1206.55   L 1158.56 1206.55   A 0.90 0.90 0.0 0 1 1159.46 1207.47   Q 1159.00 1228.46 1159.55 1244.98   C 1159.77 1251.90 1163.12 1258.33 1170.13 1260.66   Q 1173.14 1261.66 1184.03 1261.77   Q 1197.76 1261.91 1214.14 1261.72   A 0.68 0.68 0.0 0 0 1214.81 1261.04   L 1214.81 1205.71   Q 1214.81 1205.24 1215.28 1205.24   L 1245.44 1205.24   A 0.34 0.34 0.0 0 1 1245.78 1205.61   L 1245.17 1214.41   Q 1245.10 1215.46 1245.93 1214.81   Q 1272.16 1194.29 1305.19 1199.46   Q 1326.08 1202.72 1339.32 1218.44   C 1348.14 1228.91 1349.37 1244.09 1346.64 1257.23   C 1343.34 1273.12 1329.78 1285.11 1314.42 1288.65   Q 1309.13 1289.87 1294.50 1289.87   Q 1185.04 1289.91 1175.25 1290.01   Q 1161.12 1290.15 1150.25 1280.87   Q 1149.69 1280.38 1149.15 1280.89   Q 1143.08 1286.57 1135.38 1288.67   Q 1131.05 1289.85 1120.02 1289.88   Q 1084.26 1289.98 1048.50 1289.88   Q 1045.28 1289.87 1034.39 1286.82   C 1033.11 1286.46 1031.06 1286.44 1029.60 1286.79   Q 1022.25 1288.58 1017.32 1289.51   Q 1015.40 1289.88 1013.10 1289.89   Q 1004.52 1289.94 956.33 1289.94   Q 945.39 1289.94 940.92 1288.59   Q 933.60 1286.38 927.45 1281.20   Q 927.03 1280.85 926.61 1281.18   Q 919.66 1286.62 912.16 1288.62   Q 907.48 1289.87 896.26 1289.88   Q 829.08 1289.95 815.39 1289.81   Q 813.47 1289.79 811.47 1289.68   Q 810.07 1289.61 807.49 1289.03   C 789.69 1284.97 775.19 1270.69 773.21 1252.05   Q 771.15 1232.56 782.43 1216.02   A 1.10 1.10 0.0 0 1 783.31 1215.55   Q 785.92 1215.50 787.98 1215.60   Q 789.38 1215.66 791.92 1217.92   Q 800.57 1225.58 807.40 1231.74   A 0.93 0.92 -56.6 0 1 807.62 1232.83   C 805.33 1237.63 802.83 1243.75 803.72 1248.84   C 805.14 1256.87 811.95 1261.66 819.84 1261.73   Q 851.63 1261.99 891.28 1261.74   Q 897.32 1261.71 899.73 1260.38   Q 902.76 1258.72 903.98 1255.35   Q 904.65 1253.48 904.73 1249.10   Q 905.00 1233.22 904.75 1201.18   Q 904.75 1200.64 905.29 1200.64   L 936.00 1200.64   Q 936.59 1200.64 936.59 1201.22   Q 936.57 1240.43 936.58 1243.27   Q 936.66 1255.85 946.47 1260.52   Q 948.54 1261.50 954.50 1261.64   Q 971.00 1262.03 997.18 1261.70   Z   M 1031.41 1252.69   Q 1031.49 1252.69 1031.57 1252.68   Q 1031.65 1252.66 1031.71 1252.62   Q 1040.53 1245.23 1047.36 1235.59   A 1.83 1.82 46.9 0 0 1047.42 1233.56   C 1044.08 1228.21 1040.08 1223.57 1034.03 1221.41   Q 1032.69 1220.93 1031.33 1220.94   Q 1029.98 1220.94 1028.64 1221.42   C 1022.60 1223.61 1018.62 1228.27 1015.31 1233.64   A 1.83 1.82 -47.2 0 0 1015.38 1235.67   Q 1022.26 1245.27 1031.11 1252.62   Q 1031.17 1252.66 1031.25 1252.68   Q 1031.33 1252.69 1031.41 1252.69   Z   M 1245.21 1260.51   Q 1245.05 1260.92 1244.97 1261.12   A 0.41 0.41 0.0 0 0 1245.35 1261.68   Q 1268.41 1261.99 1292.79 1261.79   Q 1299.10 1261.74 1302.03 1260.77   C 1315.58 1256.29 1320.72 1241.96 1308.96 1232.06   C 1302.04 1226.24 1292.27 1224.16 1283.50 1226.00   C 1265.57 1229.77 1251.90 1243.62 1245.21 1260.51   Z"></path>
  <path fill="#446272" d="   M 102.97 1226.26   C 97.53 1241.83 93.28 1258.76 101.65 1274.05   Q 108.85 1287.21 122.91 1292.87   Q 129.39 1295.48 136.56 1294.01   C 150.48 1291.16 161.48 1279.76 165.17 1266.38   Q 166.65 1260.99 166.58 1249.03   Q 166.51 1235.70 166.53 1201.11   A 0.47 0.47 0.0 0 1 167.00 1200.64   L 197.23 1200.64   A 0.59 0.58 0.0 0 1 197.82 1201.22   Q 197.94 1244.37 197.80 1260.74   C 197.66 1277.12 191.36 1293.72 179.62 1305.43   C 165.52 1319.50 147.12 1324.28 127.45 1323.51   Q 116.39 1323.07 107.96 1319.95   Q 92.78 1314.34 82.05 1301.79   Q 66.73 1283.85 66.10 1259.75   Q 65.65 1242.44 69.97 1225.99   Q 70.10 1225.48 70.63 1225.48   L 102.42 1225.48   Q 103.25 1225.48 102.97 1226.26   Z"></path>
  <path fill="#446272" d="   M 699.56 1290.42   A 0.28 0.27 15.7 0 0 699.32 1290.00   Q 693.08 1290.08 686.44 1289.88   Q 678.79 1289.64 673.73 1288.31   C 657.29 1283.99 644.03 1270.60 641.35 1253.46   C 638.06 1232.42 645.39 1212.88 665.95 1204.67   Q 675.56 1200.83 686.77 1200.72   Q 707.96 1200.50 734.00 1200.69   Q 734.40 1200.69 734.41 1201.09   Q 734.46 1239.44 734.39 1277.90   Q 734.38 1286.66 733.56 1291.05   Q 732.27 1297.91 729.07 1303.58   C 722.41 1315.37 708.88 1321.54 695.80 1322.81   Q 682.07 1324.14 668.19 1321.20   A 0.68 0.67 87.8 0 1 667.67 1320.71   L 660.55 1295.59   A 0.57 0.57 0.0 0 1 661.24 1294.88   Q 673.36 1298.01 683.52 1297.83   Q 690.50 1297.71 696.33 1293.62   Q 698.43 1292.15 699.56 1290.42   Z   M 702.40 1261.08   L 702.46 1227.46   A 0.78 0.78 0.0 0 0 701.68 1226.67   L 690.98 1226.66   A 17.76 17.42 0.1 0 0 673.19 1244.04   L 673.19 1244.38   A 17.76 17.42 0.1 0 0 690.92 1261.84   L 701.62 1261.85   A 0.78 0.78 0.0 0 0 702.40 1261.08   Z"></path>
  <rect fill="#446272" x="-16.04" y="-12.14" transform="translate(835.30,1215.45) rotate(-0.1)" width="32.08" height="24.28" rx="0.52"></rect>
  <rect fill="#446272" x="-15.65" y="-12.14" transform="translate(874.02,1215.43) rotate(0.1)" width="31.30" height="24.28" rx="0.66"></rect>
  <rect fill="#446272" x="117.63" y="1216.02" width="31.74" height="24.92" rx="0.38"></rect>
  <rect fill="#446272" x="1801.13" y="1298.53" width="31.74" height="24.92" rx="0.32"></rect>
  <path fill="#446272" d="   M 647.96 1465.91   L 647.96 1527.85   Q 647.96 1528.41 647.40 1528.41   L 631.09 1528.41   Q 630.47 1528.41 630.47 1527.79   L 630.47 1465.85   A 0.60 0.60 0.0 0 0 629.87 1465.25   L 620.46 1465.25   Q 619.90 1465.25 619.90 1464.69   L 619.90 1453.98   Q 619.90 1453.38 620.50 1453.38   L 629.87 1453.38   A 0.51 0.50 90.0 0 0 630.37 1452.87   Q 630.22 1443.88 632.21 1436.47   C 637.25 1417.76 655.85 1415.39 671.81 1419.57   Q 672.37 1419.71 672.29 1420.29   L 670.48 1432.16   Q 670.39 1432.74 669.83 1432.61   Q 668.15 1432.22 659.78 1430.25   Q 659.48 1430.18 658.57 1430.34   Q 657.97 1430.45 657.43 1430.71   C 649.39 1434.69 647.60 1444.22 647.62 1452.75   Q 647.63 1453.36 648.24 1453.36   L 665.01 1453.36   Q 665.69 1453.36 665.69 1454.03   L 665.69 1464.79   Q 665.69 1465.26 665.22 1465.26   L 648.61 1465.26   Q 647.96 1465.26 647.96 1465.91   Z"></path>
  <path fill="#446272" d="   M 458.81 1480.76   Q 458.81 1481.92 459.55 1481.02   Q 471.88 1466.13 477.27 1459.77   Q 478.46 1458.38 481.09 1455.75   Q 482.89 1453.95 484.55 1453.67   Q 486.62 1453.32 488.76 1453.27   Q 494.29 1453.16 503.45 1453.80   Q 504.25 1453.86 503.70 1454.45   L 476.05 1484.18   A 0.94 0.93 47.6 0 0 476.00 1485.39   Q 494.88 1509.77 507.54 1527.61   A 0.48 0.48 0.0 0 1 507.15 1528.37   L 487.05 1528.37   Q 486.56 1528.37 486.27 1527.97   L 463.76 1496.63   A 0.51 0.51 0.0 0 0 462.98 1496.58   L 459.49 1500.33   A 2.87 2.63 68.1 0 0 458.78 1502.21   L 458.78 1528.05   A 0.38 0.37 -90.0 0 1 458.41 1528.43   L 441.80 1528.43   A 0.38 0.38 0.0 0 1 441.42 1528.05   L 441.42 1419.75   Q 441.42 1419.38 441.80 1419.38   L 457.97 1419.38   A 0.84 0.84 0.0 0 1 458.81 1420.22   L 458.81 1480.76   Z"></path>
  <path fill="#446272" d="   M 881.52 1522.45   Q 881.20 1522.59 877.25 1524.88   C 864.32 1532.35 846.21 1532.18 835.37 1520.82   Q 829.27 1514.43 826.77 1504.32   Q 821.50 1483.05 832.51 1465.31   C 836.37 1459.10 844.02 1454.52 851.34 1452.94   Q 865.90 1449.79 879.65 1457.03   Q 880.08 1457.26 880.08 1456.78   L 880.08 1419.90   A 0.51 0.51 0.0 0 1 880.59 1419.39   L 896.81 1419.39   A 0.81 0.80 0.0 0 1 897.62 1420.19   Q 897.69 1452.43 897.44 1486.50   Q 897.34 1499.81 898.32 1527.92   Q 898.33 1528.44 897.81 1528.44   L 882.43 1528.44   A 0.49 0.49 0.0 0 1 881.94 1527.93   L 882.17 1522.66   Q 882.19 1522.17 881.52 1522.45   Z   M 843.00 1490.16   C 842.82 1498.80 845.17 1507.40 851.90 1513.05   C 864.02 1523.23 878.52 1512.13 879.80 1498.78   Q 880.08 1495.81 880.18 1490.90   Q 880.28 1485.99 880.11 1483.01   C 879.37 1469.62 865.32 1457.95 852.80 1467.64   C 845.85 1473.02 843.16 1481.52 843.00 1490.16   Z"></path>
  <path fill="#446272" d="   M 1282.47 1470.91   A 0.61 0.61 0.0 0 0 1282.67 1470.05   C 1273.74 1456.31 1271.79 1435.55 1288.73 1426.48   C 1297.80 1421.62 1312.65 1421.90 1321.20 1428.51   C 1325.85 1432.10 1328.58 1439.09 1328.65 1445.37   Q 1328.79 1458.26 1317.60 1466.61   Q 1313.01 1470.03 1307.64 1473.12   A 0.61 0.61 0.0 0 0 1307.48 1474.05   L 1328.02 1497.45   A 0.52 0.52 0.0 0 0 1328.88 1497.31   Q 1334.25 1484.78 1336.32 1471.76   Q 1336.42 1471.15 1337.04 1471.15   L 1352.72 1471.15   Q 1353.17 1471.15 1353.08 1471.58   C 1350.43 1485.27 1347.05 1497.75 1339.44 1509.15   A 0.79 0.79 0.0 0 0 1339.54 1510.15   Q 1348.34 1518.85 1355.50 1527.88   A 0.32 0.32 0.0 0 1 1355.25 1528.40   L 1335.23 1528.40   Q 1334.59 1528.40 1334.16 1527.92   L 1328.05 1520.95   A 0.60 0.59 -37.2 0 0 1327.27 1520.85   Q 1314.57 1529.51 1299.54 1529.76   C 1291.51 1529.89 1284.04 1528.98 1277.44 1525.08   C 1271.13 1521.35 1266.82 1515.78 1265.10 1508.58   C 1262.57 1498.03 1264.67 1486.74 1272.40 1478.82   Q 1276.70 1474.42 1282.47 1470.91   Z   M 1298.30 1463.43   C 1305.70 1459.32 1314.52 1452.25 1311.94 1442.65   Q 1310.42 1437.03 1305.27 1435.12   Q 1300.84 1433.49 1297.29 1436.56   C 1288.60 1444.10 1292.37 1454.97 1297.55 1463.23   Q 1297.84 1463.69 1298.30 1463.43   Z   M 1317.84 1509.66   L 1291.39 1480.48   A 0.24 0.24 0.0 0 0 1291.05 1480.47   L 1289.52 1481.86   A 22.25 19.10 -42.2 0 0 1285.87 1510.95   L 1286.98 1512.18   A 22.25 19.10 -42.2 0 0 1316.29 1511.39   L 1317.83 1510.00   A 0.24 0.24 0.0 0 0 1317.84 1509.66   Z"></path>
  <path fill="#446272" d="   M 251.70 1471.94   A 0.41 0.41 0.0 0 0 251.71 1472.67   Q 255.03 1474.33 259.17 1477.12   Q 264.66 1480.81 267.05 1486.89   Q 273.02 1502.07 264.47 1515.73   Q 260.70 1521.76 253.20 1524.71   Q 241.87 1529.16 227.50 1529.25   Q 215.54 1529.32 201.42 1528.24   Q 200.93 1528.20 200.93 1527.71   L 200.93 1426.47   Q 200.93 1425.90 201.49 1425.82   Q 218.16 1423.60 232.27 1423.91   C 240.77 1424.10 254.05 1426.72 259.74 1433.59   Q 264.46 1439.28 265.23 1446.32   Q 267.15 1463.84 251.70 1471.94   Z   M 218.38 1435.97   L 218.49 1467.47   A 0.25 0.25 0.0 0 0 218.74 1467.72   L 228.21 1467.69   A 19.70 15.57 -0.2 0 0 247.85 1452.05   L 247.85 1451.19   A 19.70 15.57 -0.2 0 0 228.09 1435.69   L 218.62 1435.72   A 0.25 0.25 0.0 0 0 218.38 1435.97   Z   M 218.46 1479.92   L 218.40 1517.06   A 0.41 0.41 0.0 0 0 218.81 1517.47   L 228.19 1517.49   A 22.97 18.02 0.1 0 0 251.19 1499.51   L 251.19 1497.59   A 22.97 18.02 0.1 0 0 228.25 1479.53   L 218.87 1479.51   A 0.41 0.41 0.0 0 0 218.46 1479.92   Z"></path>
  <path fill="#446272" d="   M 1416.00 1455.27   L 1411.81 1527.82   A 0.65 0.65 0.0 0 1 1411.16 1528.43   L 1395.22 1528.43   Q 1394.80 1528.43 1394.83 1528.00   L 1401.93 1425.22   A 0.32 0.32 0.0 0 1 1402.25 1424.92   L 1422.49 1424.92   Q 1423.09 1424.92 1423.28 1425.49   Q 1424.90 1430.21 1440.24 1474.35   Q 1444.48 1486.55 1448.39 1499.99   Q 1448.63 1500.83 1448.88 1499.99   Q 1452.51 1487.67 1458.64 1470.85   Q 1458.71 1470.68 1475.11 1425.38   Q 1475.27 1424.93 1475.75 1424.93   L 1495.89 1424.93   Q 1496.44 1424.93 1496.48 1425.48   L 1502.88 1527.88   Q 1502.91 1528.41 1502.38 1528.41   L 1486.16 1528.41   A 0.49 0.49 0.0 0 1 1485.67 1527.94   L 1481.47 1453.30   Q 1481.47 1453.24 1481.45 1453.29   Q 1470.26 1485.74 1454.85 1527.20   Q 1454.66 1527.72 1454.11 1527.72   L 1440.91 1527.72   Q 1440.31 1527.72 1440.12 1527.15   L 1416.17 1455.24   Q 1416.03 1454.81 1416.00 1455.27   Z"></path>
  <rect fill="#446272" x="-10.40" y="-9.07" transform="translate(1530.01,1433.98) rotate(-0.5)" width="20.80" height="18.14" rx="8.33"></rect>
  <rect fill="#446272" x="708.32" y="1424.95" width="17.54" height="103.52" rx="0.48"></rect>
  <path fill="#446272" d="   M 1082.01 1465.79   Q 1081.65 1493.76 1082.04 1504.25   Q 1082.08 1505.32 1082.40 1509.20   Q 1082.60 1511.69 1084.31 1513.61   Q 1086.50 1516.08 1089.65 1517.33   Q 1090.16 1517.53 1090.70 1517.42   L 1098.73 1515.71   Q 1099.43 1515.56 1099.47 1516.27   L 1100.18 1527.51   Q 1100.21 1528.01 1099.72 1528.12   Q 1089.93 1530.48 1080.57 1529.50   C 1075.39 1528.95 1070.51 1526.57 1067.96 1521.70   Q 1065.06 1516.17 1064.93 1511.01   Q 1064.47 1493.59 1064.94 1466.00   A 0.71 0.71 0.0 0 0 1064.23 1465.28   L 1053.96 1465.28   Q 1053.40 1465.28 1053.40 1464.73   L 1053.40 1453.98   Q 1053.40 1453.37 1054.01 1453.37   L 1063.99 1453.37   A 0.80 0.80 0.0 0 0 1064.79 1452.57   L 1064.79 1436.50   Q 1064.79 1435.94 1065.34 1435.80   Q 1074.64 1433.45 1081.15 1432.46   A 0.62 0.61 85.6 0 1 1081.85 1433.07   L 1081.85 1452.99   A 0.40 0.40 0.0 0 0 1082.25 1453.39   L 1099.92 1453.39   Q 1100.49 1453.39 1100.49 1453.95   L 1100.49 1464.77   Q 1100.49 1465.26 1100.00 1465.26   L 1082.55 1465.26   Q 1082.02 1465.26 1082.01 1465.79   Z"></path>
  <path fill="#446272" d="   M 1572.05 1459.19   A 0.46 0.46 0.0 0 0 1572.79 1459.59   C 1583.26 1451.68 1597.98 1449.11 1609.55 1455.21   C 1619.14 1460.27 1623.09 1470.76 1623.20 1481.56   Q 1623.29 1490.79 1623.26 1527.87   A 0.54 0.54 0.0 0 1 1622.72 1528.41   L 1606.23 1528.41   A 0.55 0.55 0.0 0 1 1605.68 1527.86   Q 1605.67 1495.31 1605.64 1488.13   Q 1605.60 1481.41 1604.77 1477.99   Q 1603.50 1472.69 1600.04 1468.89   Q 1596.55 1465.06 1591.13 1465.16   C 1583.68 1465.29 1577.58 1471.01 1575.31 1477.88   Q 1574.38 1480.71 1574.29 1486.73   Q 1574.08 1502.50 1574.43 1527.93   A 0.49 0.48 89.4 0 1 1573.95 1528.43   L 1557.26 1528.43   Q 1556.78 1528.43 1556.78 1527.94   C 1556.92 1495.42 1557.17 1476.54 1556.27 1453.92   Q 1556.25 1453.39 1556.78 1453.39   L 1571.76 1453.39   Q 1572.39 1453.39 1572.35 1454.01   L 1572.05 1459.19   Z"></path>
  <path fill="#446272" d="   M 322.95 1523.61   Q 311.34 1531.43 297.04 1529.54   Q 285.78 1528.05 280.96 1519.95   C 275.91 1511.47 276.96 1499.33 283.59 1491.81   C 288.79 1485.92 297.75 1482.64 305.71 1481.43   Q 313.25 1480.27 321.42 1479.98   A 0.54 0.54 0.0 0 0 321.93 1479.35   Q 321.12 1474.90 320.16 1472.44   C 316.50 1463.12 307.23 1462.33 298.81 1465.33   Q 292.98 1467.40 287.17 1469.80   A 0.55 0.54 70.0 0 1 286.45 1469.46   L 282.98 1459.05   Q 282.77 1458.42 283.35 1458.12   Q 300.26 1449.38 319.44 1452.90   Q 333.24 1455.43 337.30 1469.52   Q 338.85 1474.88 338.86 1481.04   Q 338.89 1498.66 339.01 1512.26   Q 339.08 1520.54 340.09 1527.97   A 0.41 0.40 86.3 0 1 339.69 1528.43   L 324.18 1528.43   A 0.53 0.53 0.0 0 1 323.65 1527.90   L 323.65 1523.98   A 0.45 0.45 0.0 0 0 322.95 1523.61   Z   M 321.15 1491.17   C 315.51 1491.54 309.95 1492.40 305.05 1494.27   Q 299.07 1496.55 296.76 1501.96   C 296.20 1503.26 294.81 1505.99 295.15 1507.60   Q 295.64 1509.94 298.85 1514.53   C 301.61 1518.49 307.22 1518.47 311.51 1516.55   Q 319.89 1512.78 321.56 1503.79   Q 321.94 1501.73 321.81 1497.71   Q 321.65 1492.44 321.63 1491.61   Q 321.61 1491.14 321.15 1491.17   Z"></path>
  <path fill="#446272" d="   M 372.47 1459.13   Q 374.19 1458.15 376.70 1456.73   Q 387.69 1450.47 401.06 1452.44   C 416.14 1454.67 422.73 1467.68 422.84 1482.29   Q 422.92 1492.95 422.91 1527.87   Q 422.91 1528.41 422.37 1528.41   L 406.01 1528.41   Q 405.39 1528.41 405.39 1527.79   Q 405.39 1487.15 405.36 1485.78   C 405.23 1479.82 403.91 1472.94 399.70 1468.85   C 393.25 1462.57 383.96 1464.86 378.65 1471.38   C 373.63 1477.53 373.92 1482.54 373.91 1491.00   Q 373.87 1515.84 374.05 1527.85   A 0.56 0.56 0.0 0 1 373.49 1528.42   L 356.78 1528.42   A 0.41 0.40 90.0 0 1 356.38 1528.01   C 356.59 1496.36 357.08 1478.55 355.92 1454.01   Q 355.89 1453.39 356.51 1453.39   L 371.17 1453.39   A 0.71 0.71 0.0 0 1 371.88 1454.10   L 371.88 1458.79   Q 371.88 1459.46 372.47 1459.13   Z"></path>
  <path fill="#446272" d="   M 540.96 1489.25   C 541.79 1468.01 554.62 1453.11 576.19 1452.08   C 589.15 1451.46 601.48 1454.73 609.04 1465.37   C 614.65 1473.26 616.84 1482.74 616.47 1492.49   C 615.63 1513.73 602.80 1528.63 581.23 1529.66   C 568.27 1530.28 555.94 1527.01 548.38 1516.37   C 542.77 1508.48 540.58 1499.00 540.96 1489.25   Z   M 578.4367 1517.5590   A 26.74 19.97 90.5 0 0 598.6392 1490.9943   A 26.74 19.97 90.5 0 0 578.9033 1464.0810   A 26.74 19.97 90.5 0 0 558.7008 1490.6457   A 26.74 19.97 90.5 0 0 578.4367 1517.5590   Z"></path>
  <path fill="#446272" d="   M 760.65 1459.25   A 0.42 0.41 73.4 0 0 761.31 1459.61   Q 775.25 1449.22 792.49 1452.98   C 802.09 1455.06 808.79 1463.42 810.73 1472.56   Q 811.82 1477.70 811.82 1485.25   Q 811.83 1522.15 811.88 1527.79   Q 811.89 1528.43 811.26 1528.43   L 794.81 1528.43   Q 794.31 1528.43 794.31 1527.93   Q 794.38 1492.71 794.27 1485.28   C 794.19 1479.58 792.72 1473.27 788.92 1469.21   C 779.77 1459.46 766.00 1468.44 763.53 1479.30   Q 762.80 1482.51 762.80 1489.57   Q 762.79 1508.79 762.90 1528.05   A 0.39 0.38 -90.0 0 1 762.52 1528.44   L 745.77 1528.44   A 0.43 0.43 0.0 0 1 745.34 1528.01   Q 745.58 1493.93 745.32 1468.85   Q 745.21 1458.27 744.89 1453.89   Q 744.85 1453.39 745.36 1453.39   L 760.23 1453.39   A 0.72 0.72 0.0 0 1 760.95 1454.15   L 760.65 1459.25   Z"></path>
  <path fill="#446272" d="   M 1040.60 1468.66   Q 1032.08 1465.31 1027.72 1464.40   Q 1018.85 1462.56 1015.05 1469.75   C 1011.88 1475.75 1017.96 1479.54 1022.92 1481.85   Q 1029.27 1484.81 1031.71 1485.87   Q 1037.03 1488.19 1039.89 1490.53   C 1050.24 1499.01 1049.61 1516.89 1039.04 1524.58   Q 1033.37 1528.70 1022.56 1529.69   Q 1008.39 1530.99 995.09 1525.15   Q 994.55 1524.91 994.70 1524.33   Q 996.15 1518.67 998.70 1512.64   A 0.63 0.63 0.0 0 1 999.51 1512.30   Q 1008.24 1515.68 1012.25 1517.00   C 1018.67 1519.12 1027.46 1517.77 1029.56 1510.57   C 1031.41 1504.22 1026.82 1500.69 1021.61 1498.14   C 1018.04 1496.39 1011.54 1494.06 1006.95 1491.27   C 998.14 1485.93 995.04 1476.85 998.30 1466.79   C 1002.09 1455.07 1014.46 1451.64 1025.50 1451.96   Q 1035.53 1452.25 1044.73 1456.36   Q 1045.23 1456.58 1045.05 1457.10   L 1041.08 1468.44   A 0.37 0.36 -69.2 0 1 1040.60 1468.66   Z"></path>
  <path fill="#446272" d="   M 1128.59 1459.82   C 1130.14 1458.66 1132.38 1456.44 1134.42 1455.31   Q 1142.44 1450.88 1151.97 1452.19   A 0.53 0.53 0.0 0 1 1152.43 1452.64   Q 1153.29 1458.78 1153.01 1465.71   Q 1152.99 1466.21 1152.49 1466.17   Q 1137.65 1464.98 1131.75 1478.79   Q 1130.31 1482.18 1130.15 1488.77   Q 1129.79 1504.43 1130.18 1527.76   A 0.67 0.67 0.0 0 1 1129.51 1528.44   L 1113.02 1528.44   A 0.46 0.45 90.0 0 1 1112.57 1527.98   Q 1112.67 1497.77 1112.67 1479.01   Q 1112.68 1466.35 1112.00 1453.74   A 0.32 0.32 0.0 0 1 1112.32 1453.40   L 1127.57 1453.40   Q 1128.23 1453.40 1128.19 1454.06   L 1127.82 1459.40   Q 1127.75 1460.45 1128.59 1459.82   Z"></path>
  <path fill="#446272" d="   M 1652.93 1494.94   Q 1653.97 1501.18 1656.91 1506.98   C 1661.48 1515.97 1672.88 1519.11 1682.53 1517.49   Q 1690.74 1516.11 1697.94 1513.66   Q 1698.51 1513.47 1698.63 1514.05   L 1700.95 1524.94   Q 1701.13 1525.76 1700.32 1525.99   Q 1685.83 1530.20 1672.57 1529.68   Q 1664.44 1529.36 1659.07 1527.68   C 1647.33 1524.01 1640.14 1515.45 1637.44 1503.34   Q 1634.77 1491.33 1637.55 1480.02   Q 1640.28 1468.95 1646.36 1462.30   C 1654.89 1452.96 1668.18 1450.55 1680.72 1452.71   Q 1688.15 1453.98 1692.87 1457.65   Q 1699.23 1462.58 1701.92 1469.91   Q 1706.07 1481.22 1705.00 1493.82   A 0.39 0.39 0.0 0 1 1704.61 1494.18   L 1653.57 1494.18   A 0.65 0.65 0.0 0 0 1652.93 1494.94   Z   M 1654.53 1479.04   Q 1653.72 1481.13 1653.44 1482.23   Q 1653.29 1482.82 1653.89 1482.83   Q 1667.82 1483.11 1688.13 1482.86   A 0.32 0.31 85.3 0 0 1688.44 1482.49   C 1686.77 1472.60 1680.92 1461.19 1668.74 1463.89   C 1661.84 1465.41 1657.11 1472.38 1654.53 1479.04   Z"></path>
  <path fill="#446272" d="   M 1194.10 1502.93   Q 1201.49 1482.37 1210.69 1453.96   A 0.82 0.81 8.7 0 1 1211.47 1453.40   L 1229.26 1453.40   A 0.48 0.48 0.0 0 1 1229.71 1454.05   Q 1221.88 1475.00 1205.45 1517.49   Q 1201.70 1527.19 1196.75 1536.52   C 1190.02 1549.19 1179.64 1560.70 1164.45 1561.74   A 0.71 0.71 0.0 0 1 1163.72 1561.23   L 1160.42 1549.57   Q 1160.27 1549.05 1160.77 1548.83   Q 1176.95 1541.95 1184.10 1525.81   A 2.14 2.13 -44.1 0 0 1184.13 1524.12   L 1156.12 1454.17   A 0.58 0.57 -10.9 0 1 1156.66 1453.38   L 1174.95 1453.38   A 0.38 0.37 -10.1 0 1 1175.30 1453.62   L 1193.52 1502.93   Q 1193.82 1503.73 1194.10 1502.93   Z"></path>
  <rect fill="#446272" x="1521.32" y="1453.40" width="17.38" height="75.04" rx="0.37"></rect>
  <path fill="#446272" d="   M 966.90 1522.51   A 0.40 0.40 0.0 0 0 966.26 1522.19   C 955.85 1530.10 940.94 1532.80 929.51 1526.59   C 919.21 1521.00 916.75 1509.31 916.67 1498.25   Q 916.63 1493.40 916.70 1453.96   A 0.57 0.56 -90.0 0 1 917.26 1453.39   L 933.75 1453.39   A 0.58 0.58 0.0 0 1 934.33 1453.98   Q 934.15 1483.39 934.28 1493.98   C 934.37 1501.12 935.01 1507.03 939.05 1512.27   Q 942.30 1516.49 948.19 1516.63   Q 954.24 1516.76 959.72 1511.22   Q 964.77 1506.11 964.89 1498.73   Q 964.99 1492.04 964.91 1454.00   Q 964.91 1453.39 965.51 1453.39   L 981.93 1453.39   Q 982.43 1453.39 982.44 1453.89   Q 982.68 1466.79 982.63 1469.00   Q 981.89 1502.65 983.22 1527.96   Q 983.24 1528.43 982.77 1528.43   L 967.40 1528.43   A 0.50 0.50 0.0 0 1 966.90 1527.93   L 966.90 1522.51   Z"></path>
</svg>
