<?xml version="1.0" encoding="UTF-8" standalone="no"?>
<!DOCTYPE svg PUBLIC "-//W3C//DTD SVG 1.1//EN" "http://www.w3.org/Graphics/SVG/1.1/DTD/svg11.dtd">
<svg xmlns="http://www.w3.org/2000/svg" version="1.1" viewBox="0.00 0.00 1539.00 2041.00">
<path fill="#006ab2" d="
  M 0.00 0.00
  L 485.69 0.00
  Q 485.70 372.31 485.71 744.63
  Q 485.71 744.75 485.78 744.76
  Q 485.95 744.80 485.95 744.64
  Q 489.61 672.34 531.62 613.50
  C 580.66 544.80 663.12 505.55 747.94 511.72
  Q 798.70 515.42 842.90 538.22
  C 900.52 567.94 943.90 618.90 964.06 680.45
  Q 974.27 711.60 975.52 744.34
  Q 975.53 744.57 975.76 744.56
  L 975.77 744.56
  Q 975.92 744.56 975.92 744.41
  Q 975.97 532.45 975.92 332.75
  C 975.91 283.97 967.45 232.77 942.03 190.39
  C 894.14 110.53 801.37 89.58 713.81 90.64
  Q 711.72 90.67 709.64 90.21
  A 0.95 0.94 29.2 0 1 709.18 88.61
  Q 710.44 87.40 711.90 86.54
  Q 738.31 70.98 768.57 58.69
  C 811.92 41.07 858.59 28.17 905.18 17.69
  Q 975.93 1.77 1047.29 0.00
  L 1070.58 0.00
  C 1181.20 2.29 1295.18 35.32 1372.58 118.38
  C 1435.11 185.47 1461.64 274.09 1461.64 364.53
  Q 1461.65 935.44 1461.65 1506.14
  A 0.53 0.53 0.0 0 1 1461.12 1506.67
  L 976.30 1506.66
  A 0.36 0.35 0.0 0 1 975.94 1506.31
  Q 975.94 1137.58 975.94 768.80
  Q 975.94 768.70 975.83 768.69
  L 975.82 768.69
  Q 975.64 768.68 975.63 768.86
  Q 975.06 776.65 974.38 783.35
  C 968.45 841.76 939.82 897.52 896.46 936.92
  Q 836.10 991.76 754.35 1000.26
  C 718.35 1004.00 680.80 998.88 647.47 986.78
  C 553.21 952.55 488.55 864.07 485.86 763.39
  Q 485.86 763.32 485.79 763.32
  L 485.78 763.32
  Q 485.69 763.32 485.69 763.41
  Q 485.69 974.49 485.68 1170.75
  C 485.67 1209.61 490.30 1247.91 503.72 1283.28
  Q 525.20 1339.92 572.37 1372.58
  C 604.71 1394.98 643.40 1406.88 682.60 1412.17
  Q 714.16 1416.42 748.79 1416.02
  Q 750.78 1416.00 752.51 1416.82
  A 0.55 0.54 31.4 0 1 752.71 1417.64
  Q 751.71 1418.94 750.28 1419.79
  Q 739.87 1425.96 729.59 1430.63
  Q 647.82 1467.73 562.86 1487.53
  C 485.90 1505.48 408.03 1511.70 330.67 1502.20
  C 250.88 1492.41 172.75 1463.63 112.90 1411.29
  Q 45.34 1352.22 18.18 1265.19
  Q 2.89 1216.17 0.61 1164.81
  Q 0.30 1157.78 0.00 1150.72
  L 0.00 0.00
  Z"
/>
<path fill="#006ab2" d="
  M 1304.54 1863.25
  Q 1304.30 1859.81 1302.29 1862.61
  Q 1293.55 1874.84 1285.66 1885.37
  Q 1281.95 1890.32 1276.84 1895.57
  Q 1248.45 1924.81 1211.35 1938.15
  Q 1203.02 1941.15 1192.75 1944.16
  Q 1137.09 1960.51 1080.49 1955.41
  Q 1065.77 1954.08 1054.90 1948.18
  C 1046.70 1943.73 1043.12 1934.06 1042.74 1925.52
  Q 1041.84 1905.56 1045.61 1884.85
  Q 1046.16 1881.87 1047.66 1879.21
  Q 1048.33 1878.03 1049.65 1877.83
  Q 1050.16 1877.75 1050.30 1878.25
  C 1051.59 1882.84 1051.25 1887.49 1052.73 1891.95
  C 1055.95 1901.63 1063.94 1906.52 1073.28 1908.92
  C 1091.09 1913.50 1109.78 1913.20 1128.72 1912.79
  Q 1175.49 1911.80 1215.65 1899.75
  C 1235.65 1893.74 1255.40 1884.53 1272.44 1872.32
  C 1290.20 1859.60 1302.40 1842.35 1308.13 1820.92
  Q 1311.47 1808.39 1314.65 1795.47
  Q 1315.64 1791.45 1318.23 1785.78
  Q 1324.43 1772.24 1331.21 1758.85
  C 1332.30 1756.70 1334.19 1755.13 1335.01 1752.86
  Q 1339.51 1740.52 1345.51 1732.39
  Q 1350.10 1726.17 1358.87 1717.89
  Q 1371.49 1705.97 1383.52 1695.79
  Q 1409.78 1673.56 1436.00 1651.12
  Q 1463.68 1627.43 1495.50 1594.77
  Q 1515.85 1573.88 1535.75 1553.13
  Q 1536.68 1552.15 1537.59 1551.01
  Q 1539.32 1548.83 1538.72 1551.55
  Q 1537.27 1558.19 1534.34 1563.99
  C 1529.82 1572.92 1524.84 1582.43 1518.87 1590.51
  Q 1505.47 1608.67 1491.80 1622.56
  Q 1478.95 1635.62 1462.07 1650.94
  Q 1444.47 1666.91 1426.55 1682.56
  Q 1411.55 1695.65 1385.46 1716.41
  C 1369.45 1729.15 1353.99 1742.37 1338.08 1755.57
  Q 1337.25 1756.26 1336.26 1756.72
  C 1334.72 1757.44 1335.26 1758.88 1334.98 1760.27
  Q 1330.15 1784.69 1325.32 1808.52
  Q 1323.26 1818.68 1322.09 1828.13
  C 1319.94 1845.56 1318.12 1863.57 1318.43 1881.28
  C 1318.68 1895.58 1324.96 1906.85 1340.45 1907.11
  C 1347.88 1907.24 1351.72 1892.57 1353.09 1886.96
  Q 1353.43 1885.55 1354.34 1884.39
  A 1.72 1.72 0.0 0 1 1357.33 1884.92
  Q 1358.07 1887.24 1357.64 1889.82
  C 1355.05 1905.47 1350.94 1920.90 1343.39 1934.74
  C 1338.90 1942.97 1331.93 1951.82 1321.40 1950.05
  C 1312.09 1948.48 1307.26 1942.57 1304.66 1934.02
  Q 1300.03 1918.77 1300.94 1901.74
  Q 1301.80 1885.66 1304.19 1868.73
  Q 1304.68 1865.28 1304.54 1863.25
  Z"
/>
<path fill="#006ab2" d="
  M 1287.58 1730.53
  Q 1280.92 1725.81 1274.91 1722.00
  Q 1273.01 1720.80 1270.64 1718.35
  Q 1269.50 1717.16 1270.26 1715.96
  Q 1270.74 1715.19 1270.81 1715.06
  Q 1277.03 1702.19 1287.43 1688.20
  Q 1288.42 1686.87 1289.46 1685.54
  Q 1289.81 1685.08 1290.32 1685.36
  Q 1297.99 1689.49 1304.76 1694.81
  C 1309.89 1698.84 1313.14 1704.82 1310.88 1711.25
  Q 1306.15 1724.69 1294.61 1732.01
  C 1292.22 1733.52 1290.04 1732.27 1287.58 1730.53
  Z"
/>
<path fill="#006ab2" d="
  M 240.38 1721.10
  C 241.63 1718.26 243.64 1715.31 245.60 1712.89
  Q 245.95 1712.46 246.23 1712.94
  Q 247.34 1714.79 247.12 1716.28
  Q 245.98 1724.05 245.21 1730.75
  Q 241.93 1759.40 238.19 1789.90
  C 236.20 1806.14 232.12 1820.50 225.37 1834.44
  C 222.39 1840.59 219.51 1847.13 216.02 1853.07
  C 213.38 1857.56 210.36 1863.15 206.35 1866.53
  Q 205.03 1867.64 204.10 1866.19
  C 203.39 1865.09 203.30 1863.87 203.69 1862.61
  C 210.83 1839.20 216.37 1817.67 219.16 1794.97
  Q 220.73 1782.16 222.10 1768.47
  Q 222.49 1764.55 223.90 1760.91
  C 225.35 1757.19 226.60 1753.30 228.17 1749.55
  Q 234.28 1735.00 240.38 1721.10
  Z"
/>
<path fill="#006ab2" d="
  M 365.80 1846.46
  Q 360.15 1858.04 353.66 1866.48
  Q 352.39 1868.14 350.44 1868.84
  Q 349.89 1869.03 349.64 1868.51
  C 349.03 1867.29 348.41 1866.29 348.85 1864.85
  C 355.17 1843.99 360.81 1822.73 363.76 1801.75
  Q 365.53 1789.22 367.32 1770.82
  Q 367.76 1766.38 369.12 1762.86
  Q 370.32 1759.75 371.47 1756.54
  Q 372.65 1753.24 373.97 1750.16
  Q 379.37 1737.53 384.61 1725.16
  C 386.12 1721.57 388.13 1718.36 390.43 1715.17
  Q 391.11 1714.23 391.75 1715.19
  Q 392.57 1716.42 392.42 1717.76
  C 391.71 1723.82 390.65 1729.96 390.00 1736.10
  Q 387.62 1758.64 384.66 1781.89
  Q 382.61 1798.08 381.94 1801.82
  Q 379.27 1816.76 373.38 1830.30
  Q 370.88 1836.04 365.80 1846.46
  Z"
/>
<path fill="#006ab2" d="
  M 675.94 1778.09
  C 680.58 1765.25 686.62 1751.42 692.35 1738.54
  Q 694.16 1734.47 697.51 1730.33
  Q 697.86 1729.90 698.22 1730.32
  Q 699.38 1731.66 699.17 1733.33
  C 698.29 1740.18 697.23 1746.79 696.51 1753.60
  Q 692.33 1792.93 689.00 1815.12
  Q 686.57 1831.26 679.78 1846.52
  C 674.45 1858.48 668.86 1870.32 660.93 1881.33
  Q 659.39 1883.47 657.15 1884.27
  A 0.58 0.57 -25.1 0 1 656.46 1884.03
  C 655.82 1882.93 655.21 1881.59 655.61 1880.28
  Q 660.63 1863.79 664.28 1849.24
  C 669.38 1828.95 672.00 1808.48 674.03 1786.58
  Q 674.43 1782.24 675.94 1778.09
  Z"
/>
<path fill="#006ab2" d="
  M 874.54 1905.54
  C 881.37 1911.22 889.36 1912.29 897.90 1910.64
  C 911.97 1907.92 914.28 1895.26 923.00 1886.53
  C 925.41 1884.11 928.68 1882.82 932.06 1884.35
  C 936.16 1886.20 942.41 1888.89 946.77 1887.58
  Q 947.31 1887.42 947.67 1886.98
  C 955.38 1877.36 960.30 1865.50 967.84 1855.69
  C 972.86 1849.16 979.86 1841.55 987.30 1837.43
  Q 993.82 1833.83 1001.83 1835.81
  Q 1011.04 1838.09 1011.50 1847.86
  C 1012.16 1861.77 1006.49 1875.27 998.43 1887.07
  C 983.72 1908.60 963.54 1923.78 936.43 1919.39
  C 930.44 1918.42 924.91 1915.41 919.55 1912.68
  A 1.15 1.14 -49.1 0 0 918.36 1912.77
  Q 915.55 1914.80 913.55 1917.83
  Q 908.08 1926.12 902.81 1934.14
  C 899.17 1939.70 893.21 1946.40 886.56 1948.48
  C 874.82 1952.16 861.19 1950.84 853.86 1939.98
  C 846.04 1928.38 844.43 1911.53 845.90 1897.99
  Q 851.19 1849.52 857.39 1803.82
  A 9.92 9.90 -30.9 0 1 857.93 1801.68
  Q 865.45 1781.94 873.87 1763.10
  C 874.12 1762.54 874.74 1761.91 875.32 1761.75
  Q 876.44 1761.44 876.27 1762.59
  Q 871.34 1796.54 866.69 1830.39
  Q 863.57 1853.14 863.00 1872.17
  C 862.63 1884.39 864.72 1897.39 874.54 1905.54
  Z
  M 956.99 1887.62
  C 973.93 1888.95 986.79 1879.74 996.63 1866.95
  C 1002.52 1859.28 989.55 1856.19 984.56 1856.11
  C 978.19 1856.00 971.38 1864.00 968.27 1868.82
  Q 962.52 1877.73 956.65 1886.93
  A 0.45 0.45 0.0 0 0 956.99 1887.62
  Z"
/>
<path fill="#006ab2" d="
  M 1386.31 1935.38
  Q 1381.66 1921.48 1382.05 1905.47
  Q 1382.20 1899.09 1383.57 1887.25
  Q 1388.19 1847.56 1393.37 1807.49
  Q 1393.95 1803.00 1395.46 1799.10
  Q 1402.61 1780.64 1410.59 1762.72
  Q 1410.76 1762.34 1411.09 1762.10
  Q 1411.21 1762.00 1411.31 1761.93
  A 0.96 0.96 0.0 0 1 1412.82 1762.86
  Q 1406.99 1802.24 1402.06 1839.84
  Q 1399.07 1862.67 1399.71 1882.74
  C 1400.12 1895.78 1406.27 1906.33 1420.69 1907.15
  C 1424.16 1907.35 1426.67 1905.32 1428.38 1902.51
  Q 1431.87 1896.78 1434.18 1887.34
  Q 1434.57 1885.74 1435.69 1884.52
  Q 1436.97 1883.13 1437.68 1883.88
  Q 1439.32 1885.61 1438.95 1888.24
  Q 1435.74 1911.15 1426.85 1930.36
  C 1423.76 1937.04 1418.75 1944.94 1412.26 1948.63
  Q 1408.46 1950.80 1403.22 1950.14
  Q 1390.71 1948.56 1386.31 1935.38
  Z"
/>
<path fill="#006ab2" d="
  M 0.00 1924.63
  L 0.00 1915.46
  C 1.52 1895.48 6.38 1875.76 14.86 1857.60
  Q 25.38 1835.07 38.94 1812.04
  Q 40.02 1810.20 41.94 1811.19
  A 0.84 0.84 0.0 0 1 42.39 1812.01
  Q 41.73 1820.32 40.39 1823.25
  C 33.12 1838.99 25.29 1854.84 19.84 1871.40
  Q 14.78 1886.79 17.99 1902.90
  C 22.00 1923.07 39.92 1932.99 59.01 1934.25
  C 71.10 1935.05 85.28 1934.15 96.74 1930.18
  Q 120.09 1922.09 135.41 1903.84
  C 146.53 1890.61 156.80 1875.61 157.31 1857.69
  Q 157.83 1839.06 158.40 1820.16
  C 158.62 1812.87 161.03 1805.53 163.51 1798.80
  Q 165.39 1793.66 168.21 1788.33
  C 171.66 1781.80 174.60 1775.09 178.86 1769.13
  A 0.43 0.43 0.0 0 1 179.55 1769.11
  Q 181.25 1771.23 180.86 1774.14
  Q 176.86 1803.54 176.84 1809.60
  C 176.81 1827.13 173.02 1843.95 169.19 1861.34
  Q 166.71 1872.57 163.95 1880.81
  Q 152.97 1913.59 129.10 1941.50
  Q 120.26 1951.82 109.27 1960.22
  C 92.72 1972.87 74.22 1979.18 52.80 1978.85
  C 34.82 1978.57 18.98 1971.81 9.35 1956.33
  Q 0.79 1942.55 0.00 1924.63
  Z"
/>
<path fill="#006ab2" d="
  M 525.05 1806.06
  Q 527.38 1802.49 529.68 1799.37
  Q 529.97 1798.97 530.41 1799.21
  Q 540.67 1804.94 546.86 1810.92
  C 554.59 1818.38 551.99 1826.87 546.96 1835.39
  Q 542.46 1843.00 535.08 1847.96
  Q 532.43 1849.74 529.87 1847.91
  Q 523.10 1843.06 516.49 1838.59
  Q 513.45 1836.53 510.84 1833.78
  Q 509.76 1832.66 510.48 1831.28
  Q 514.39 1823.76 518.54 1816.09
  C 520.45 1812.56 522.89 1809.38 525.05 1806.06
  Z"
/>
<path fill="#006ab2" d="
  M 467.12 1834.89
  Q 466.94 1834.56 467.10 1834.22
  Q 475.13 1816.97 486.62 1801.52
  Q 486.90 1801.14 487.31 1801.37
  Q 494.35 1805.26 501.78 1811.23
  C 507.04 1815.46 510.18 1821.88 507.97 1828.47
  Q 503.19 1842.74 491.88 1850.18
  Q 489.33 1851.85 486.85 1850.12
  Q 478.59 1844.36 470.54 1838.68
  Q 468.34 1837.12 467.12 1834.89
  Z"
/>
<path fill="#006ab2" d="
  M 793.48 1804.50
  C 801.04 1810.41 809.08 1817.57 813.76 1826.06
  Q 818.11 1833.94 819.44 1840.17
  C 820.22 1843.86 820.52 1847.54 820.97 1851.26
  Q 821.25 1853.65 821.11 1856.03
  C 819.53 1882.91 808.42 1907.40 790.31 1927.10
  Q 786.65 1931.08 782.48 1934.10
  C 777.44 1937.75 773.00 1941.12 767.50 1944.07
  Q 763.93 1945.97 760.35 1948.11
  Q 758.78 1949.05 756.07 1948.99
  Q 755.68 1948.98 755.63 1948.59
  Q 755.19 1945.16 756.98 1942.93
  C 763.56 1934.74 771.15 1927.23 778.58 1919.71
  C 782.55 1915.68 785.93 1910.92 789.26 1906.43
  Q 793.36 1900.92 796.89 1890.78
  C 800.14 1881.48 796.12 1873.05 790.39 1865.98
  Q 782.89 1856.72 773.26 1849.64
  Q 772.86 1849.35 772.76 1848.86
  Q 772.27 1846.63 773.24 1844.54
  Q 780.02 1829.92 787.00 1814.58
  C 788.59 1811.08 790.65 1807.91 792.71 1804.64
  Q 793.02 1804.14 793.48 1804.50
  Z"
/>
<path fill="#006ab2" d="
  M 98.51 1868.10
  A 1.90 1.89 45.2 0 1 96.65 1868.09
  Q 95.31 1867.30 93.96 1866.26
  Q 86.24 1860.30 75.26 1853.47
  Q 73.56 1852.41 72.42 1850.08
  C 71.82 1848.85 72.46 1847.83 72.93 1846.74
  Q 77.10 1836.93 81.75 1827.06
  Q 84.30 1821.66 91.81 1810.74
  Q 92.10 1810.32 92.58 1810.50
  C 99.90 1813.33 105.58 1818.05 111.44 1823.69
  C 119.00 1830.98 118.75 1843.06 113.48 1851.34
  Q 109.09 1858.25 103.44 1864.27
  Q 101.30 1866.55 98.51 1868.10
  Z"
/>
<path fill="#006ab2" d="
  M 253.29 1925.90
  C 248.39 1935.82 239.69 1943.12 228.93 1946.00
  Q 212.86 1950.31 199.72 1951.05
  Q 196.91 1951.21 194.54 1949.82
  A 2.08 2.07 -56.9 0 1 193.91 1946.83
  Q 194.86 1945.51 196.12 1944.51
  Q 205.13 1937.34 213.34 1932.12
  Q 227.89 1922.86 234.51 1918.00
  Q 241.26 1913.04 248.24 1906.05
  C 250.72 1903.57 252.14 1900.50 253.57 1897.39
  C 258.46 1886.74 263.00 1875.90 268.52 1865.56
  C 272.82 1857.49 279.64 1850.85 286.91 1847.16
  Q 295.50 1842.79 304.12 1838.10
  C 311.69 1833.98 314.80 1826.42 319.10 1819.54
  Q 320.02 1818.08 321.49 1816.87
  A 1.17 1.17 0.0 0 1 323.38 1817.51
  Q 323.86 1819.61 323.43 1821.44
  Q 319.52 1838.32 312.20 1852.76
  C 308.74 1859.58 304.32 1864.93 297.13 1868.29
  Q 289.73 1871.74 282.55 1875.53
  Q 278.09 1877.89 273.93 1882.20
  C 270.14 1886.12 266.38 1894.26 264.24 1899.90
  Q 257.83 1916.73 253.29 1925.90
  Z"
/>
<path fill="#006ab2" d="
  M 420.63 1944.06
  C 400.40 1942.72 370.24 1936.15 370.59 1909.53
  C 370.72 1899.28 373.03 1888.81 374.85 1878.65
  Q 376.45 1869.72 378.51 1863.27
  C 379.60 1859.85 383.56 1859.95 383.94 1863.96
  Q 384.56 1870.46 385.06 1875.94
  C 385.80 1883.91 395.54 1889.66 402.31 1891.87
  Q 420.77 1897.88 434.18 1899.22
  C 456.26 1901.42 482.25 1900.78 507.17 1899.00
  C 537.21 1896.84 568.02 1890.85 594.84 1877.89
  C 604.33 1873.30 614.17 1866.41 619.53 1857.53
  Q 621.89 1853.60 624.40 1850.49
  A 0.90 0.90 0.0 0 1 625.92 1850.67
  Q 627.02 1853.05 626.68 1855.28
  Q 625.88 1860.59 623.41 1867.02
  Q 619.32 1877.65 614.13 1887.42
  Q 605.91 1902.89 590.64 1912.10
  Q 569.86 1924.62 547.62 1931.10
  C 506.72 1943.02 463.53 1946.90 420.63 1944.06
  Z"
/>
<path fill="#006ab2" d="
  M 710.19 1935.93
  C 698.75 1943.01 686.24 1949.68 673.78 1952.79
  Q 671.60 1953.34 669.29 1953.17
  Q 668.70 1953.13 668.87 1952.56
  Q 670.19 1948.17 673.47 1945.13
  Q 679.60 1939.45 685.45 1935.09
  Q 691.69 1930.42 697.57 1925.35
  Q 711.55 1913.30 725.20 1900.20
  Q 726.70 1898.76 730.64 1893.48
  C 735.35 1887.18 738.88 1879.81 742.90 1873.18
  Q 745.37 1869.11 748.73 1866.06
  Q 749.17 1865.66 749.46 1866.18
  Q 750.24 1867.61 750.03 1869.75
  Q 749.43 1875.81 748.90 1877.29
  C 746.00 1885.37 743.08 1894.26 739.75 1901.42
  Q 735.70 1910.09 730.50 1917.49
  C 725.36 1924.80 718.08 1931.04 710.19 1935.93
  Z"
/>
<path fill="#006ab2" d="
  M 322.83 1971.07
  Q 329.15 1974.63 335.39 1980.27
  C 340.13 1984.57 342.03 1991.00 339.71 1997.10
  Q 334.39 2011.09 323.77 2017.83
  Q 321.29 2019.41 318.74 2017.62
  Q 311.55 2012.57 304.71 2007.85
  Q 302.06 2006.02 299.62 2003.36
  A 2.00 2.00 0.0 0 1 299.33 2001.05
  Q 302.70 1994.80 305.66 1989.12
  C 309.27 1982.17 314.13 1975.54 318.64 1969.02
  Q 318.96 1968.56 319.41 1968.89
  Q 321.07 1970.08 322.83 1971.07
  Z"
/>
<path fill="#006ab2" d="
  M 259.31 1997.33
  Q 265.89 1984.24 275.54 1971.29
  Q 275.85 1970.88 276.29 1971.13
  Q 286.65 1977.10 292.54 1982.77
  Q 298.43 1988.42 297.41 1995.75
  Q 296.77 2000.44 292.73 2007.35
  Q 288.29 2014.94 280.80 2019.94
  C 279.31 2020.93 277.56 2021.06 276.07 2020.05
  Q 266.61 2013.65 257.71 2007.03
  Q 255.16 2005.13 256.68 2002.35
  Q 258.04 1999.87 259.31 1997.33
  Z"
/>
<path fill="#006ab2" d="
  M 1396.82 2041.00
  L 1395.16 2041.00
  Q 1385.86 2035.19 1376.86 2028.89
  Q 1374.98 2027.58 1373.81 2025.67
  Q 1373.55 2025.23 1373.77 2024.77
  Q 1382.45 2007.42 1393.25 1993.76
  Q 1393.59 1993.33 1394.08 1993.59
  Q 1401.39 1997.53 1408.39 2002.93
  Q 1411.17 2005.07 1413.05 2007.86
  Q 1416.57 2013.10 1414.45 2019.39
  Q 1409.55 2033.94 1396.82 2041.00
  Z"
/>
</svg>
