<?xml version="1.0" encoding="UTF-8" standalone="no"?>
<svg xmlns="http://www.w3.org/2000/svg" version="1.1" viewBox="0.00 0.00 1942.00 1619.00">
  <g stroke-width="2.00" fill="none" stroke-linecap="butt">
    <path stroke="#916623" vector-effect="non-scaling-stroke" d="   M 757.81 354.82   C 797.59 319.63 854.32 302.51 905.62 320.36   Q 910.30 321.99 924.20 327.85   Q 948.83 338.22 967.42 348.16   Q 1019.84 376.20 1058.65 396.82   Q 1086.20 411.46 1114.51 422.25   Q 1126.08 426.65 1143.73 431.31   Q 1161.18 435.92 1178.23 435.29   Q 1192.82 434.76 1204.36 430.35   C 1225.85 422.14 1241.10 401.78 1248.41 380.17   Q 1254.06 363.47 1257.81 344.27   Q 1259.57 335.29 1260.29 325.82   Q 1261.12 314.86 1261.16 307.19   Q 1261.26 284.88 1261.15 217.26   Q 1261.13 206.68 1260.11 199.38   C 1257.79 182.78 1247.18 167.72 1233.94 157.85   Q 1221.25 148.39 1206.72 146.76   C 1199.81 145.98 1191.10 145.69 1183.00 145.69   Q 990.64 145.73 751.07 145.68   C 736.56 145.67 722.90 147.33 710.62 155.10   Q 690.30 167.96 682.14 190.55   Q 679.55 197.71 678.76 207.83   Q 678.05 216.88 678.09 225.52   Q 678.63 342.57 678.14 446.52   Q 678.13 449.07 677.92 458.35   Q 677.84 461.75 679.99 459.11   Q 682.60 455.91 684.91 451.92   Q 700.17 425.68 702.60 421.60   Q 725.13 383.73 757.81 354.82"></path>
    <path stroke="#916623" vector-effect="non-scaling-stroke" d="   M 1240.81 709.80   Q 1256.32 694.60 1260.22 673.72   Q 1261.40 667.38 1261.36 653.81   Q 1261.20 599.13 1261.14 421.79   Q 1261.14 420.10 1260.42 418.60   A 0.70 0.70 0.0 0 0 1259.33 418.38   C 1258.60 419.04 1257.76 419.87 1257.22 420.85   Q 1250.83 432.20 1239.47 451.22   C 1215.72 490.98 1182.80 527.27 1140.04 546.73   Q 1104.92 562.73 1067.05 560.07   Q 1056.15 559.31 1047.79 557.04   Q 1024.53 550.72 1000.82 539.90   Q 981.27 530.99 970.42 525.19   Q 928.82 502.98 900.99 488.38   Q 873.87 474.16 860.26 467.80   Q 829.42 453.37 795.03 444.46   C 780.37 440.67 766.96 439.25 753.04 441.31   Q 732.16 444.38 717.11 456.99   Q 710.39 462.62 703.91 471.92   Q 693.40 487.01 687.68 507.71   Q 677.55 544.40 678.05 580.00   Q 678.51 613.27 678.27 649.74   Q 678.18 663.91 679.06 669.70   C 682.61 693.03 696.68 713.27 718.54 722.81   Q 724.99 725.62 734.27 726.63   Q 745.25 727.82 755.52 727.83   Q 833.92 727.86 1178.50 727.87   Q 1186.88 727.87 1201.52 726.95   Q 1224.81 725.48 1240.81 709.80"></path>
  </g>
  <path fill="#d09e2b" d="   M 1279.90 673.85   A 72.57 72.57 0.0 0 1 1207.33 746.42   L 733.39 746.42   A 72.57 72.57 0.0 0 1 660.82 673.85   L 660.82 198.27   A 72.57 72.57 0.0 0 1 733.39 125.70   L 1207.33 125.70   A 72.57 72.57 0.0 0 1 1279.90 198.27   L 1279.90 673.85   Z   M 757.81 354.82   C 797.59 319.63 854.32 302.51 905.62 320.36   Q 910.30 321.99 924.20 327.85   Q 948.83 338.22 967.42 348.16   Q 1019.84 376.20 1058.65 396.82   Q 1086.20 411.46 1114.51 422.25   Q 1126.08 426.65 1143.73 431.31   Q 1161.18 435.92 1178.23 435.29   Q 1192.82 434.76 1204.36 430.35   C 1225.85 422.14 1241.10 401.78 1248.41 380.17   Q 1254.06 363.47 1257.81 344.27   Q 1259.57 335.29 1260.29 325.82   Q 1261.12 314.86 1261.16 307.19   Q 1261.26 284.88 1261.15 217.26   Q 1261.13 206.68 1260.11 199.38   C 1257.79 182.78 1247.18 167.72 1233.94 157.85   Q 1221.25 148.39 1206.72 146.76   C 1199.81 145.98 1191.10 145.69 1183.00 145.69   Q 990.64 145.73 751.07 145.68   C 736.56 145.67 722.90 147.33 710.62 155.10   Q 690.30 167.96 682.14 190.55   Q 679.55 197.71 678.76 207.83   Q 678.05 216.88 678.09 225.52   Q 678.63 342.57 678.14 446.52   Q 678.13 449.07 677.92 458.35   Q 677.84 461.75 679.99 459.11   Q 682.60 455.91 684.91 451.92   Q 700.17 425.68 702.60 421.60   Q 725.13 383.73 757.81 354.82   Z   M 1240.81 709.80   Q 1256.32 694.60 1260.22 673.72   Q 1261.40 667.38 1261.36 653.81   Q 1261.20 599.13 1261.14 421.79   Q 1261.14 420.10 1260.42 418.60   A 0.70 0.70 0.0 0 0 1259.33 418.38   C 1258.60 419.04 1257.76 419.87 1257.22 420.85   Q 1250.83 432.20 1239.47 451.22   C 1215.72 490.98 1182.80 527.27 1140.04 546.73   Q 1104.92 562.73 1067.05 560.07   Q 1056.15 559.31 1047.79 557.04   Q 1024.53 550.72 1000.82 539.90   Q 981.27 530.99 970.42 525.19   Q 928.82 502.98 900.99 488.38   Q 873.87 474.16 860.26 467.80   Q 829.42 453.37 795.03 444.46   C 780.37 440.67 766.96 439.25 753.04 441.31   Q 732.16 444.38 717.11 456.99   Q 710.39 462.62 703.91 471.92   Q 693.40 487.01 687.68 507.71   Q 677.55 544.40 678.05 580.00   Q 678.51 613.27 678.27 649.74   Q 678.18 663.91 679.06 669.70   C 682.61 693.03 696.68 713.27 718.54 722.81   Q 724.99 725.62 734.27 726.63   Q 745.25 727.82 755.52 727.83   Q 833.92 727.86 1178.50 727.87   Q 1186.88 727.87 1201.52 726.95   Q 1224.81 725.48 1240.81 709.80   Z"></path>
  <path fill="#512e1b" d="   M 757.81 354.82   Q 725.13 383.73 702.60 421.60   Q 700.17 425.68 684.91 451.92   Q 682.60 455.91 679.99 459.11   Q 677.84 461.75 677.92 458.35   Q 678.13 449.07 678.14 446.52   Q 678.63 342.57 678.09 225.52   Q 678.05 216.88 678.76 207.83   Q 679.55 197.71 682.14 190.55   Q 690.30 167.96 710.62 155.10   C 722.90 147.33 736.56 145.67 751.07 145.68   Q 990.64 145.73 1183.00 145.69   C 1191.10 145.69 1199.81 145.98 1206.72 146.76   Q 1221.25 148.39 1233.94 157.85   C 1247.18 167.72 1257.79 182.78 1260.11 199.38   Q 1261.13 206.68 1261.15 217.26   Q 1261.26 284.88 1261.16 307.19   Q 1261.12 314.86 1260.29 325.82   Q 1259.57 335.29 1257.81 344.27   Q 1254.06 363.47 1248.41 380.17   C 1241.10 401.78 1225.85 422.14 1204.36 430.35   Q 1192.82 434.76 1178.23 435.29   Q 1161.18 435.92 1143.73 431.31   Q 1126.08 426.65 1114.51 422.25   Q 1086.20 411.46 1058.65 396.82   Q 1019.84 376.20 967.42 348.16   Q 948.83 338.22 924.20 327.85   Q 910.30 321.99 905.62 320.36   C 854.32 302.51 797.59 319.63 757.81 354.82   Z"></path>
  <path fill="#512e1b" d="   M 1240.81 709.80   Q 1224.81 725.48 1201.52 726.95   Q 1186.88 727.87 1178.50 727.87   Q 833.92 727.86 755.52 727.83   Q 745.25 727.82 734.27 726.63   Q 724.99 725.62 718.54 722.81   C 696.68 713.27 682.61 693.03 679.06 669.70   Q 678.18 663.91 678.27 649.74   Q 678.51 613.27 678.05 580.00   Q 677.55 544.40 687.68 507.71   Q 693.40 487.01 703.91 471.92   Q 710.39 462.62 717.11 456.99   Q 732.16 444.38 753.04 441.31   C 766.96 439.25 780.37 440.67 795.03 444.46   Q 829.42 453.37 860.26 467.80   Q 873.87 474.16 900.99 488.38   Q 928.82 502.98 970.42 525.19   Q 981.27 530.99 1000.82 539.90   Q 1024.53 550.72 1047.79 557.04   Q 1056.15 559.31 1067.05 560.07   Q 1104.92 562.73 1140.04 546.73   C 1182.80 527.27 1215.72 490.98 1239.47 451.22   Q 1250.83 432.20 1257.22 420.85   C 1257.76 419.87 1258.60 419.04 1259.33 418.38   A 0.70 0.70 0.0 0 1 1260.42 418.60   Q 1261.14 420.10 1261.14 421.79   Q 1261.20 599.13 1261.36 653.81   Q 1261.40 667.38 1260.22 673.72   Q 1256.32 694.60 1240.81 709.80   Z"></path>
  <path fill="#512e1b" d="   M 872.52 917.41   Q 865.73 929.33 862.05 935.52   Q 860.60 937.96 858.42 935.77   Q 849.13 926.43 845.09 916.54   C 843.94 913.72 843.78 910.08 844.55 907.04   Q 846.51 899.30 850.41 893.43   C 858.09 881.91 869.86 882.02 882.07 884.42   Q 891.91 886.36 907.79 889.14   Q 922.19 891.65 936.29 890.06   Q 940.76 889.56 947.03 886.76   Q 949.99 885.43 962.22 879.45   Q 963.55 878.80 964.69 878.85   Q 965.52 878.89 965.39 879.71   Q 963.68 890.65 960.17 899.94   Q 955.39 912.60 942.46 916.94   Q 933.28 920.03 923.96 921.07   Q 918.81 921.65 911.80 920.71   Q 891.95 918.03 883.09 917.16   Q 877.70 916.63 874.02 916.56   A 1.70 1.69 -74.4 0 0 872.52 917.41   Z"></path>
  <path fill="#512e1b" d="   M 1244.45 1119.62   A 0.58 0.58 0.0 0 0 1243.48 1119.84   Q 1241.70 1125.32 1240.42 1128.69   Q 1231.18 1152.97 1210.26 1166.74   Q 1198.78 1174.30 1183.10 1178.32   Q 1158.26 1184.69 1130.50 1186.53   Q 1095.97 1188.82 1063.06 1183.99   Q 1049.24 1181.96 1038.06 1178.50   C 1019.06 1172.62 1002.88 1159.81 994.29 1141.72   C 986.44 1125.17 985.12 1106.38 987.62 1088.09   Q 990.51 1066.97 997.82 1047.37   A 1.35 1.35 0.0 0 1 998.91 1046.52   Q 1005.53 1045.75 1011.88 1048.76   A 1.81 1.80 16.3 0 1 1012.90 1050.61   Q 1011.61 1061.48 1011.20 1072.25   C 1010.96 1078.67 1011.19 1085.69 1012.95 1091.64   Q 1017.05 1105.52 1028.56 1114.70   C 1038.30 1122.48 1048.96 1126.02 1062.02 1129.16   Q 1088.08 1135.42 1115.00 1134.32   Q 1142.20 1133.22 1170.06 1127.34   C 1185.77 1124.02 1200.75 1119.54 1214.30 1112.55   A 1.16 1.16 0.0 0 0 1214.81 1111.00   C 1206.24 1093.45 1195.09 1078.93 1181.55 1065.01   Q 1163.40 1046.34 1145.31 1028.08   C 1142.71 1025.46 1140.89 1022.45 1139.76 1018.81   Q 1136.30 1007.74 1137.30 994.00   Q 1139.07 969.71 1159.33 956.81   Q 1162.92 954.53 1170.24 951.53   Q 1177.26 948.65 1177.38 948.60   Q 1245.41 920.00 1312.03 900.58   Q 1313.89 900.04 1314.73 899.97   A 0.88 0.87 85.5 0 1 1315.68 900.79   Q 1315.80 902.84 1314.92 905.45   Q 1312.96 911.21 1309.05 919.31   Q 1306.43 924.75 1298.70 938.45   Q 1294.91 945.16 1288.21 946.97   Q 1276.96 950.00 1241.23 961.65   Q 1211.00 971.51 1186.22 982.48   Q 1176.44 986.80 1167.58 991.46   A 1.23 1.22 -35.4 0 0 1167.25 993.38   Q 1190.03 1017.80 1214.05 1039.95   Q 1215.41 1041.21 1282.53 1103.18   Q 1289.42 1109.55 1296.87 1115.12   C 1311.35 1125.96 1330.43 1131.58 1348.57 1132.58   Q 1357.07 1133.05 1368.50 1131.56   Q 1382.71 1129.71 1402.01 1125.26   A 0.94 0.93 84.1 0 0 1402.74 1124.36   Q 1402.85 1116.91 1400.49 1110.00   Q 1398.07 1102.89 1394.65 1096.86   Q 1391.72 1091.67 1385.86 1081.78   Q 1381.75 1074.83 1380.21 1067.56   C 1379.93 1066.21 1380.66 1065.34 1381.27 1064.22   Q 1391.59 1045.23 1405.17 1028.41   Q 1405.92 1027.48 1406.80 1026.80   A 0.82 0.82 0.0 0 1 1407.99 1027.00   Q 1422.37 1049.24 1430.28 1072.20   Q 1433.92 1082.76 1435.36 1094.30   C 1438.03 1115.72 1432.63 1137.61 1420.44 1155.15   C 1410.72 1169.14 1396.34 1177.88 1379.36 1182.60   Q 1340.94 1193.25 1302.31 1179.17   Q 1296.60 1177.09 1293.58 1174.91   Q 1280.14 1165.22 1269.55 1151.51   Q 1253.94 1131.31 1250.48 1126.61   Q 1248.30 1123.66 1244.45 1119.62   Z"></path>
  <path fill="#512e1b" d="   M 1579.54 1125.32   C 1581.84 1124.76 1584.15 1123.26 1583.42 1120.58   Q 1581.14 1112.23 1577.70 1105.30   Q 1572.31 1094.45 1560.66 1072.41   Q 1559.19 1069.62 1559.76 1066.59   Q 1560.12 1064.65 1561.99 1061.41   Q 1571.34 1045.25 1582.85 1030.25   Q 1584.32 1028.34 1585.60 1027.78   Q 1588.05 1026.72 1589.64 1029.44   C 1605.14 1056.08 1616.52 1086.94 1614.52 1118.24   C 1613.15 1139.60 1603.42 1159.88 1585.64 1172.02   Q 1580.00 1175.86 1570.43 1178.91   Q 1557.15 1183.13 1543.77 1185.02   Q 1524.90 1187.68 1506.59 1185.14   Q 1495.42 1183.59 1487.35 1180.03   Q 1468.70 1171.81 1460.68 1151.38   Q 1457.72 1143.83 1455.61 1130.72   Q 1454.54 1124.06 1454.22 1110.75   Q 1453.88 1097.01 1453.13 1072.24   Q 1452.82 1062.15 1452.25 1052.27   Q 1449.19 999.58 1447.89 986.62   Q 1445.81 965.88 1445.15 955.56   Q 1445.01 953.30 1446.86 951.12   Q 1454.15 942.53 1462.18 934.94   Q 1469.82 927.71 1478.11 923.74   Q 1478.66 923.48 1478.89 924.04   Q 1479.29 925.03 1479.56 927.34   Q 1482.35 951.17 1483.69 975.28   Q 1484.14 983.34 1484.20 995.28   Q 1484.36 1031.08 1484.30 1098.87   Q 1484.29 1105.67 1484.79 1108.61   Q 1485.68 1113.80 1487.73 1118.02   C 1490.87 1124.51 1495.67 1127.33 1502.87 1128.99   Q 1513.50 1131.46 1528.04 1131.62   Q 1552.76 1131.91 1579.54 1125.32   Z"></path>
  <path fill="#512e1b" d="   M 894.35 1185.49   C 891.84 1185.84 890.65 1181.65 890.60 1179.73   Q 890.48 1174.94 890.69 1171.75   Q 892.83 1139.23 893.66 1116.09   Q 893.89 1109.60 893.40 1094.60   Q 891.78 1045.07 890.18 1022.76   Q 889.16 1008.69 884.60 970.30   C 884.12 966.24 883.55 960.56 885.36 956.06   Q 886.44 953.37 890.21 949.32   Q 901.46 937.24 912.08 927.34   Q 913.44 926.07 915.27 926.07   Q 920.10 926.06 920.55 931.00   Q 921.25 938.76 921.68 946.00   Q 923.83 982.13 925.49 1019.51   Q 927.91 1074.21 924.05 1125.52   C 923.49 1132.90 922.82 1140.47 920.48 1147.34   Q 913.33 1168.30 896.71 1183.92   Q 895.15 1185.38 894.35 1185.49   Z"></path>
  <path fill="#512e1b" d="   M 598.42 1143.02   A 0.49 0.47 25.9 0 0 597.70 1143.25   Q 589.25 1168.87 564.46 1178.86   Q 548.76 1185.19 529.31 1185.68   C 511.81 1186.12 496.53 1179.66 488.13 1164.13   Q 483.18 1154.99 481.62 1143.44   Q 479.47 1127.51 480.77 1103.74   Q 480.99 1099.80 484.16 1099.68   Q 488.11 1099.53 497.04 1099.62   A 2.24 2.24 0.0 0 1 499.22 1101.48   C 501.34 1113.88 504.41 1124.58 517.69 1128.91   C 537.83 1135.47 559.32 1129.27 577.47 1118.75   C 581.19 1116.60 585.03 1114.27 585.04 1109.75   Q 585.07 1094.28 581.88 1078.66   Q 580.54 1072.10 576.68 1059.37   Q 568.85 1033.56 565.46 1023.30   C 563.91 1018.60 564.53 1016.13 567.02 1011.74   Q 575.12 997.44 585.28 985.52   C 586.60 983.97 589.62 982.00 591.82 982.89   Q 594.03 983.78 594.58 985.95   Q 605.49 1029.39 615.70 1086.53   Q 617.32 1095.61 620.68 1105.58   C 627.18 1124.92 643.92 1132.49 663.24 1132.05   C 674.85 1131.79 686.87 1129.29 697.01 1123.51   C 700.24 1121.67 703.10 1119.58 705.41 1116.54   C 710.95 1109.23 713.71 1101.34 717.08 1092.06   Q 719.63 1085.01 726.66 1079.91   Q 733.42 1075.01 741.13 1072.90   A 1.02 1.01 89.2 0 1 742.38 1074.12   Q 740.37 1082.49 739.42 1091.49   Q 738.27 1102.49 740.10 1108.95   Q 743.55 1121.14 756.31 1126.17   Q 764.25 1129.30 774.35 1130.97   Q 782.95 1132.40 792.84 1132.15   Q 817.88 1131.51 842.66 1123.87   Q 844.65 1123.25 844.19 1121.46   Q 840.68 1107.60 832.66 1092.85   Q 830.34 1088.56 821.71 1073.73   Q 819.14 1069.31 821.43 1064.80   Q 830.27 1047.39 841.58 1033.35   Q 844.98 1029.14 847.27 1026.87   Q 848.44 1025.71 849.27 1027.14   Q 859.31 1044.42 866.47 1061.33   Q 885.48 1106.21 865.94 1148.43   Q 861.07 1158.96 855.12 1165.07   Q 847.15 1173.26 836.92 1177.39   Q 813.07 1187.01 786.28 1187.04   C 771.10 1187.06 756.26 1184.09 743.02 1178.04   Q 729.13 1171.70 719.00 1158.69   A 0.89 0.89 0.0 0 0 717.69 1158.59   C 713.23 1162.73 707.63 1168.63 702.65 1172.30   Q 685.98 1184.57 664.78 1186.48   Q 650.48 1187.76 636.74 1183.05   Q 614.84 1175.54 604.10 1155.00   Q 602.79 1152.48 598.77 1143.53   Q 598.59 1143.13 598.42 1143.02   Z"></path>
  <path fill="#512e1b" d="   M 325.80 1129.09   C 323.43 1105.67 328.16 1081.77 339.75 1061.23   Q 349.85 1043.36 363.02 1027.25   Q 365.20 1024.58 366.65 1017.00   Q 367.89 1010.51 368.66 1002.95   Q 369.24 997.30 371.17 991.71   Q 372.02 989.25 374.46 990.42   Q 379.80 993.01 387.15 998.40   C 395.90 1004.81 403.05 1010.38 412.00 1017.23   Q 428.05 1029.50 440.84 1043.39   C 450.05 1053.39 457.25 1064.74 460.31 1077.82   Q 462.50 1087.17 462.51 1095.51   Q 462.52 1104.30 461.00 1115.50   Q 459.02 1130.15 452.97 1143.44   Q 442.01 1167.57 418.33 1178.77   Q 399.41 1187.73 377.45 1185.14   C 358.43 1182.90 341.61 1171.94 332.87 1155.07   Q 327.35 1144.42 325.80 1129.09   Z   M 362.63 1122.69   C 369.21 1127.65 377.58 1129.60 385.42 1130.35   Q 394.55 1131.24 401.16 1130.18   Q 421.17 1126.96 435.55 1111.49   C 436.63 1110.34 437.41 1108.54 436.83 1106.78   C 433.39 1096.35 425.86 1086.39 417.83 1079.07   Q 403.32 1065.82 383.92 1055.79   A 1.60 1.58 38.9 0 0 382.17 1055.97   Q 369.41 1066.42 359.49 1080.00   C 353.16 1088.69 348.36 1098.90 351.91 1109.08   Q 354.52 1116.57 362.63 1122.69   Z"></path>
  <path fill="#512e1b" d="   M 1310.68 1071.52   C 1312.72 1064.63 1316.32 1059.74 1321.40 1052.85   Q 1326.37 1046.11 1332.12 1039.52   A 1.23 1.22 -57.1 0 1 1333.54 1039.21   Q 1334.73 1039.73 1336.90 1041.20   Q 1353.50 1052.43 1367.78 1066.00   C 1369.07 1067.22 1369.02 1068.60 1368.28 1070.24   Q 1361.06 1086.36 1348.40 1098.35   A 2.00 2.00 0.0 0 1 1345.94 1098.58   Q 1327.68 1086.90 1310.95 1072.44   A 0.90 0.88 29.2 0 1 1310.68 1071.52   Z"></path>
  <path fill="#512e1b" d="   M 691.72 1069.75   Q 691.69 1072.12 688.25 1077.99   Q 681.44 1089.60 673.07 1096.84   Q 670.28 1099.25 667.13 1097.16   Q 650.97 1086.37 637.05 1074.19   Q 635.45 1072.79 634.85 1071.85   Q 633.99 1070.52 634.89 1068.88   Q 643.32 1053.48 656.58 1039.44   A 0.52 0.52 0.0 0 1 657.21 1039.35   Q 676.22 1050.57 690.45 1066.02   Q 691.76 1067.44 691.72 1069.75   Z"></path>
  <path fill="#512e1b" d="   M 788.67 1217.51   A 0.45 0.45 0.0 0 0 789.30 1217.50   Q 797.72 1208.95 810.01 1196.78   Q 811.59 1195.22 813.58 1196.77   Q 825.91 1206.34 838.56 1222.26   C 840.06 1224.15 842.65 1228.12 841.05 1230.33   Q 831.26 1243.83 817.43 1254.15   Q 815.85 1255.33 814.39 1253.70   Q 813.92 1253.17 813.83 1253.08   Q 809.28 1248.55 794.24 1233.49   A 1.24 1.23 -44.8 0 0 792.49 1233.49   L 772.25 1253.73   A 2.81 2.81 0.0 0 1 768.28 1253.73   Q 755.26 1240.71 740.08 1225.61   Q 739.11 1224.65 738.28 1223.47   A 1.07 1.06 49.8 0 1 738.39 1222.11   Q 751.07 1209.33 763.50 1197.00   Q 764.10 1196.40 765.79 1196.14   Q 766.29 1196.07 766.73 1196.31   Q 768.38 1197.21 770.11 1198.95   Q 784.40 1213.35 788.67 1217.51   Z"></path>
  <path fill="#512e1b" d="   M 1543.63 1254.19   L 1512.75 1230.74   A 5.41 5.41 0.0 0 1 1511.63 1223.27   L 1529.80 1198.12   A 5.41 5.41 0.0 0 1 1537.63 1197.12   L 1567.41 1221.72   A 5.41 5.41 0.0 0 1 1568.37 1229.03   L 1551.31 1253.02   A 5.41 5.41 0.0 0 1 1543.63 1254.19   Z"></path>
  <path fill="#512e1b" d="   M 957.12 1402.69   Q 957.12 1409.03 957.04 1413.97   A 1.05 1.04 0.3 0 1 955.99 1415.00   L 912.98 1415.00   A 0.78 0.78 0.0 0 0 912.20 1415.78   L 912.20 1464.38   A 1.16 1.16 0.0 0 0 913.36 1465.54   L 962.63 1465.54   Q 963.99 1465.54 963.99 1466.91   L 963.99 1489.01   Q 963.99 1490.23 962.78 1490.28   Q 923.89 1492.04 885.22 1490.30   A 0.86 0.86 0.0 0 1 884.39 1489.44   Q 884.36 1479.63 884.31 1402.73   Q 884.28 1325.83 884.30 1316.02   A 0.86 0.86 0.0 0 1 885.12 1315.15   Q 923.79 1313.37 962.68 1315.09   Q 963.89 1315.14 963.90 1316.36   L 963.92 1338.46   Q 963.92 1339.83 962.56 1339.83   L 913.29 1339.88   A 1.16 1.16 0.0 0 0 912.13 1341.05   L 912.19 1389.65   A 0.78 0.78 0.0 0 0 912.97 1390.42   L 955.98 1390.38   A 1.05 1.04 -0.3 0 1 957.03 1391.41   Q 957.11 1396.35 957.12 1402.69   Z"></path>
  <path fill="#512e1b" d="   M 1244.12 1398.98   Q 1246.05 1401.11 1247.91 1403.00   Q 1258.44 1413.72 1259.01 1431.64   C 1259.38 1443.06 1258.95 1453.18 1255.26 1463.96   C 1250.18 1478.78 1238.91 1487.54 1223.02 1489.75   Q 1197.97 1493.24 1172.14 1490.35   A 0.54 0.53 3.7 0 1 1171.67 1489.82   L 1171.67 1316.45   A 1.05 1.04 88.3 0 1 1172.65 1315.40   Q 1189.75 1314.36 1208.28 1314.35   C 1219.75 1314.34 1233.05 1316.56 1242.49 1323.46   C 1250.62 1329.39 1255.87 1340.02 1257.96 1349.88   Q 1259.89 1358.91 1259.29 1367.76   Q 1258.07 1385.61 1244.16 1398.06   A 0.64 0.64 0.0 0 0 1244.12 1398.98   Z   M 1199.47 1341.15   L 1199.71 1385.29   A 1.43 1.43 0.0 0 0 1201.14 1386.71   L 1214.35 1386.64   A 18.19 18.16 89.7 0 0 1232.42 1368.35   L 1232.36 1357.73   A 18.19 18.16 89.7 0 0 1214.11 1339.64   L 1200.90 1339.71   A 1.43 1.43 0.0 0 0 1199.47 1341.15   Z   M 1199.74 1412.33   L 1199.48 1463.13   A 2.35 2.35 0.0 0 0 1201.81 1465.50   L 1213.79 1465.56   A 18.86 18.35 -89.7 0 0 1232.24 1446.80   L 1232.34 1429.02   A 18.86 18.35 -89.7 0 0 1214.09 1410.06   L 1202.11 1410.00   A 2.35 2.35 0.0 0 0 1199.74 1412.33   Z"></path>
  <path fill="#512e1b" d="   M 473.44 1491.50   Q 466.83 1491.50 461.36 1490.90   A 1.81 1.81 0.0 0 1 459.75 1489.12   Q 459.57 1470.05 459.62 1429.26   Q 459.64 1417.86 457.85 1412.47   Q 456.06 1407.06 453.93 1401.02   Q 449.91 1389.59 429.02 1330.77   Q 425.38 1320.52 424.25 1316.96   A 1.55 1.55 0.0 0 1 425.63 1314.94   Q 437.76 1314.11 450.21 1315.36   Q 453.15 1315.65 453.94 1318.56   Q 462.68 1350.50 472.18 1378.08   Q 472.66 1379.48 473.36 1379.48   Q 474.05 1379.48 474.53 1378.08   Q 483.99 1350.48 492.68 1318.53   Q 493.47 1315.62 496.41 1315.33   Q 508.86 1314.06 520.99 1314.87   A 1.55 1.55 0.0 0 1 522.37 1316.89   Q 521.25 1320.45 517.62 1330.70   Q 496.82 1389.56 492.82 1400.99   Q 490.69 1407.03 488.91 1412.45   Q 487.13 1417.84 487.17 1429.24   Q 487.28 1470.03 487.13 1489.10   A 1.81 1.81 0.0 0 1 485.52 1490.88   Q 480.05 1491.49 473.44 1491.50   Z"></path>
  <path fill="#512e1b" d="   M 680.56 1407.22   Q 677.79 1399.27 674.55 1392.32   Q 673.78 1390.68 673.77 1392.49   Q 673.42 1459.10 673.11 1487.27   Q 673.10 1487.70 672.90 1490.13   A 1.01 1.01 0.0 0 1 671.89 1491.06   L 647.30 1491.06   A 1.97 1.97 0.0 0 1 645.33 1489.09   L 645.33 1316.29   Q 645.33 1315.42 646.19 1315.33   Q 657.57 1314.10 668.97 1314.88   Q 672.32 1315.11 673.41 1318.12   Q 679.78 1335.59 680.55 1337.65   Q 683.07 1344.36 687.75 1356.31   Q 698.56 1383.89 703.67 1398.55   Q 706.44 1406.50 709.68 1413.45   Q 710.45 1415.09 710.46 1413.28   Q 710.81 1346.67 711.12 1318.50   Q 711.13 1318.07 711.33 1315.64   A 1.01 1.01 0.0 0 1 712.34 1314.71   L 736.93 1314.71   A 1.97 1.97 0.0 0 1 738.90 1316.68   L 738.90 1489.48   Q 738.90 1490.35 738.04 1490.44   Q 726.66 1491.67 715.26 1490.89   Q 711.91 1490.66 710.82 1487.65   Q 704.45 1470.18 703.68 1468.12   Q 701.16 1461.41 696.48 1449.46   Q 685.67 1421.88 680.56 1407.22   Z"></path>
  <path fill="#512e1b" d="   M 768.60 1319.06   A 4.67 4.67 0.0 0 1 773.29 1314.41   L 810.77 1314.54   A 44.15 44.14 0.2 0 1 854.76 1358.83   L 854.45 1447.61   A 44.15 44.14 0.2 0 1 810.15 1491.60   L 772.67 1491.47   A 4.67 4.67 0.0 0 1 768.02 1486.78   L 768.60 1319.06   Z   M 795.82 1341.42   L 795.82 1464.98   A 1.82 1.82 0.0 0 0 797.64 1466.80   L 809.23 1466.80   A 18.79 18.47 90.0 0 0 827.70 1448.01   L 827.70 1358.39   A 18.79 18.47 -90.0 0 0 809.23 1339.60   L 797.64 1339.60   A 1.82 1.82 0.0 0 0 795.82 1341.42   Z"></path>
  <path fill="#512e1b" d="   M 1462.87 1416.35   Q 1463.67 1417.34 1463.67 1416.07   L 1463.67 1315.23   A 0.58 0.58 0.0 0 1 1464.25 1314.65   L 1489.09 1314.65   Q 1490.56 1314.65 1490.56 1316.12   L 1490.56 1489.04   A 1.00 1.00 0.0 0 1 1489.79 1490.01   Q 1480.06 1492.22 1470.26 1491.31   C 1467.86 1491.08 1465.39 1490.02 1464.05 1487.61   Q 1462.18 1484.26 1460.86 1480.65   Q 1442.95 1431.93 1427.18 1392.81   Q 1426.13 1390.20 1425.94 1393.01   Q 1425.73 1396.04 1425.76 1399.07   Q 1426.05 1434.12 1425.89 1457.56   Q 1425.82 1467.54 1425.06 1489.44   Q 1425.02 1490.85 1423.61 1490.90   Q 1410.68 1491.42 1398.48 1490.93   A 1.64 1.64 0.0 0 1 1396.90 1489.29   L 1396.90 1316.69   A 1.38 1.37 87.0 0 1 1398.13 1315.32   Q 1407.61 1314.31 1417.71 1314.63   Q 1421.33 1314.74 1423.35 1316.06   Q 1425.40 1317.39 1426.80 1321.12   Q 1458.09 1404.36 1461.32 1413.40   Q 1461.99 1415.27 1462.87 1416.35   Z"></path>
  <path fill="#512e1b" d="   M 359.57 1456.00   Q 357.98 1466.98 354.31 1482.27   Q 353.11 1487.28 352.00 1489.24   Q 351.27 1490.54 348.96 1490.89   Q 338.30 1492.50 327.02 1490.67   A 1.10 1.10 0.0 0 1 326.09 1489.55   Q 326.29 1483.50 327.66 1477.69   Q 349.30 1385.74 361.11 1334.15   Q 363.12 1325.36 366.46 1315.69   A 1.44 1.43 9.3 0 1 367.82 1314.72   L 387.05 1314.72   A 2.23 2.22 -6.5 0 1 389.22 1316.44   L 429.58 1489.03   A 1.33 1.32 -10.8 0 1 428.48 1490.64   Q 416.10 1492.42 402.95 1490.58   Q 402.45 1490.51 402.22 1490.07   Q 401.60 1488.89 401.31 1487.23   Q 397.90 1468.13 395.64 1455.81   A 1.72 1.71 -5.0 0 0 393.95 1454.40   L 361.42 1454.40   A 1.88 1.87 -85.7 0 0 359.57 1456.00   Z   M 365.05 1426.19   A 2.05 2.05 0.0 0 0 367.05 1428.66   L 387.53 1428.73   A 2.05 2.05 0.0 0 0 389.54 1426.27   L 379.48 1376.72   A 2.05 2.05 0.0 0 0 375.46 1376.71   L 365.05 1426.19   Z"></path>
  <path fill="#512e1b" d="   M 569.32 1314.78   Q 574.44 1314.78 580.30 1315.51   Q 580.81 1315.57 580.99 1316.04   Q 581.50 1317.33 582.20 1320.31   Q 598.20 1388.58 621.02 1486.53   Q 621.43 1488.30 621.35 1489.48   Q 621.26 1491.02 619.72 1491.02   L 595.73 1491.02   A 1.01 1.01 0.0 0 1 594.75 1490.24   L 586.67 1455.69   A 1.15 1.14 88.7 0 0 585.78 1454.83   Q 584.23 1454.53 582.50 1454.47   Q 575.91 1454.25 569.32 1454.25   Q 562.73 1454.25 556.14 1454.47   Q 554.41 1454.53 552.86 1454.83   A 1.15 1.14 -88.7 0 0 551.97 1455.69   L 543.89 1490.24   A 1.01 1.01 0.0 0 1 542.91 1491.02   L 518.92 1491.02   Q 517.38 1491.02 517.29 1489.48   Q 517.21 1488.30 517.62 1486.53   Q 540.44 1388.58 556.44 1320.31   Q 557.14 1317.33 557.65 1316.04   Q 557.83 1315.57 558.34 1315.51   Q 564.20 1314.78 569.32 1314.78   Z   M 557.44 1426.79   A 1.59 1.59 0.0 0 0 559.00 1428.69   L 579.80 1428.62   A 1.59 1.59 0.0 0 0 581.35 1426.71   L 570.77 1374.86   A 1.59 1.59 0.0 0 0 567.65 1374.87   L 557.44 1426.79   Z"></path>
  <path fill="#512e1b" d="   M 1037.05 1390.36   Q 1046.43 1390.36 1051.60 1390.33   A 1.26 1.26 0.0 0 0 1052.85 1389.07   L 1052.85 1316.62   Q 1052.85 1315.64 1053.83 1315.51   Q 1066.52 1313.86 1078.80 1315.34   A 1.15 1.15 0.0 0 1 1079.81 1316.48   L 1079.81 1489.55   Q 1079.81 1490.64 1078.73 1490.77   Q 1066.04 1492.26 1054.22 1490.36   Q 1052.39 1490.07 1052.45 1488.21   Q 1053.55 1452.34 1052.32 1414.69   A 1.09 1.08 -0.8 0 0 1051.23 1413.64   Q 1048.72 1413.64 1037.05 1413.64   Q 1025.39 1413.64 1022.88 1413.64   A 1.09 1.08 0.8 0 0 1021.79 1414.69   Q 1020.57 1452.34 1021.67 1488.21   Q 1021.73 1490.07 1019.90 1490.36   Q 1008.08 1492.27 995.39 1490.78   Q 994.31 1490.65 994.31 1489.56   L 994.27 1316.49   A 1.15 1.15 0.0 0 1 995.28 1315.35   Q 1007.56 1313.87 1020.25 1315.51   Q 1021.23 1315.64 1021.23 1316.62   L 1021.25 1389.07   A 1.26 1.26 0.0 0 0 1022.50 1390.33   Q 1027.67 1390.36 1037.05 1390.36   Z"></path>
  <path fill="#512e1b" d="   M 1328.11 1314.65   Q 1333.69 1314.65 1339.17 1315.12   A 1.03 1.01 -3.4 0 1 1340.08 1315.91   Q 1355.96 1384.95 1372.52 1454.58   Q 1374.59 1463.25 1376.36 1471.95   Q 1378.45 1482.17 1379.92 1489.39   Q 1380.20 1490.74 1378.83 1490.87   Q 1367.84 1491.97 1356.21 1490.99   Q 1353.59 1490.77 1353.08 1488.57   Q 1347.45 1464.11 1345.52 1455.96   A 1.99 1.98 83.6 0 0 1343.62 1454.43   Q 1337.87 1454.36 1328.16 1454.37   Q 1318.45 1454.37 1312.70 1454.44   A 1.99 1.98 -83.7 0 0 1310.80 1455.97   Q 1308.88 1464.13 1303.27 1488.59   Q 1302.76 1490.79 1300.14 1491.01   Q 1288.51 1492.00 1277.52 1490.91   Q 1276.15 1490.78 1276.43 1489.43   Q 1277.89 1482.21 1279.98 1471.99   Q 1281.74 1463.29 1283.80 1454.61   Q 1300.31 1384.97 1316.13 1315.92   A 1.03 1.01 3.4 0 1 1317.04 1315.13   Q 1322.52 1314.65 1328.11 1314.65   Z   M 1316.04 1427.17   A 1.24 1.24 0.0 0 0 1317.25 1428.66   L 1338.86 1428.77   A 1.24 1.24 0.0 0 0 1340.08 1427.30   L 1329.56 1373.27   A 1.24 1.24 0.0 0 0 1327.13 1373.26   L 1316.04 1427.17   Z"></path>
  <path fill="#512e1b" d="   M 1548.37 1391.11   A 0.22 0.22 0.0 0 0 1548.79 1391.19   L 1585.30 1316.47   A 3.00 2.99 -77.6 0 1 1587.90 1314.80   Q 1599.05 1314.49 1611.12 1314.90   Q 1612.46 1314.95 1612.13 1316.25   C 1611.36 1319.26 1609.41 1323.23 1606.28 1330.05   Q 1603.66 1335.78 1600.01 1342.42   Q 1586.84 1366.45 1580.83 1379.89   Q 1577.82 1386.65 1580.83 1394.72   Q 1598.10 1441.04 1614.48 1488.54   A 1.34 1.34 0.0 0 1 1613.45 1490.30   Q 1601.70 1492.41 1589.48 1490.95   C 1585.74 1490.50 1585.44 1488.71 1584.30 1485.18   Q 1573.58 1451.77 1562.86 1418.37   Q 1562.60 1417.55 1562.26 1416.98   A 0.61 0.61 0.0 0 0 1561.24 1416.93   Q 1555.47 1424.80 1550.76 1433.53   C 1547.91 1438.82 1548.07 1444.84 1548.01 1453.58   Q 1547.89 1472.67 1548.54 1488.68   A 1.62 1.61 -4.5 0 1 1547.10 1490.36   Q 1534.39 1491.78 1521.38 1490.84   A 1.44 1.43 2.2 0 1 1520.05 1489.41   L 1520.05 1315.96   A 1.20 1.20 0.0 0 1 1521.25 1314.76   L 1547.18 1314.76   A 0.91 0.91 0.0 0 1 1548.09 1315.67   Q 1548.23 1388.53 1548.27 1389.63   Q 1548.30 1390.34 1548.37 1391.11   Z"></path>
</svg>
