<?xml version="1.0" encoding="UTF-8" standalone="no"?>
<!DOCTYPE svg PUBLIC "-//W3C//DTD SVG 1.1//EN" "http://www.w3.org/Graphics/SVG/1.1/DTD/svg11.dtd">
<svg xmlns="http://www.w3.org/2000/svg" version="1.1" viewBox="0.00 0.00 500.00 500.00">
<circle fill="#dd0000" cx="329.02" cy="53.57" r="28.72"/>
<circle fill="#dd0000" cx="255.88" cy="74.25" r="28.73"/>
<circle fill="#dd0000" cx="188.61" cy="106.37" r="28.73"/>
<path fill="#dd0000" d="
  M 254.61 220.44
  L 255.73 267.68
  Q 255.76 268.75 256.69 268.21
  C 268.28 261.42 279.60 253.58 288.09 243.67
  C 294.45 236.25 299.35 224.55 285.47 221.12
  Q 282.19 220.31 279.50 220.17
  Q 268.38 219.61 254.61 220.44
  L 253.66 172.95
  Q 253.64 171.93 254.66 171.90
  Q 272.64 171.36 290.84 174.76
  C 320.74 180.35 343.27 204.40 340.29 235.46
  C 338.55 253.61 327.01 271.45 313.36 283.60
  Q 306.32 289.87 297.78 295.46
  C 265.65 316.50 228.42 331.61 191.49 343.48
  Q 158.59 354.06 123.57 364.44
  Q 123.07 364.59 123.06 364.07
  L 122.27 317.90
  A 0.74 0.74 0.0 0 1 122.80 317.18
  Q 145.35 310.46 167.39 303.86
  C 195.99 295.28 225.92 283.85 252.80 270.38
  Q 253.72 269.92 254.42 269.13
  Q 254.86 268.64 254.20 268.64
  Q 237.23 268.63 218.34 264.20
  C 193.36 258.33 170.60 243.07 167.07 216.75
  C 163.14 187.37 182.34 162.48 205.60 147.16
  Q 224.48 134.73 247.30 125.20
  Q 273.83 114.12 301.95 105.95
  Q 338.97 95.20 378.54 86.66
  Q 379.09 86.54 379.10 87.11
  L 379.78 132.70
  A 0.92 0.91 -6.6 0 1 379.06 133.60
  Q 335.16 143.17 296.86 154.59
  C 274.42 161.28 251.46 170.51 231.93 184.45
  C 224.94 189.44 211.64 200.43 212.60 209.92
  C 213.42 218.03 227.98 219.25 233.97 219.60
  Q 244.21 220.19 254.61 220.44
  Z"
/>
<path fill="#dd0000" d="
  M 320.15 425.03
  A 0.77 0.77 0.0 0 0 318.97 425.13
  C 315.61 430.01 310.71 433.11 304.51 433.11
  Q 282.68 433.11 261.05 433.06
  Q 259.45 433.06 259.44 431.45
  L 259.39 415.25
  A 0.49 0.49 0.0 0 1 259.88 414.76
  Q 282.75 414.76 306.27 414.75
  C 314.75 414.75 316.27 409.23 316.32 402.30
  Q 316.35 398.87 316.03 395.84
  Q 315.16 387.38 314.35 378.17
  A 1.71 1.69 65.7 0 1 314.86 376.80
  L 326.05 366.03
  A 0.92 0.92 0.0 0 1 327.61 366.70
  Q 327.43 383.94 327.35 401.40
  Q 327.32 408.01 328.83 410.36
  Q 331.65 414.73 337.65 414.75
  Q 345.17 414.78 351.66 414.74
  A 0.72 0.72 0.0 0 1 352.39 415.46
  L 352.39 432.49
  A 0.62 0.62 0.0 0 1 351.77 433.11
  Q 342.31 433.13 333.77 433.05
  Q 327.34 432.99 321.96 427.61
  C 321.25 426.91 320.87 425.75 320.15 425.03
  Z"
/>
<path fill="#dd0000" d="
  M 369.43 405.00
  C 369.36 412.03 374.36 414.70 380.58 414.78
  Q 388.32 414.89 395.84 414.65
  Q 396.79 414.62 396.78 415.57
  L 396.73 432.58
  A 0.57 0.57 0.0 0 1 396.15 433.15
  Q 386.77 433.03 377.38 433.11
  Q 368.72 433.19 363.10 426.43
  C 358.29 420.63 357.73 414.77 358.04 407.28
  Q 358.64 393.12 356.34 379.31
  Q 356.07 377.64 357.24 376.46
  Q 362.55 371.10 368.23 365.93
  A 0.81 0.80 -21.3 0 1 369.58 366.52
  Q 369.60 386.22 369.43 405.00
  Z"
/>
<path fill="#dd0000" d="
  M 108.48 431.03
  C 109.22 442.64 105.85 454.44 96.37 461.81
  C 86.09 469.81 73.71 465.70 62.99 461.32
  C 62.19 461.00 62.01 460.32 62.09 459.53
  Q 62.16 458.96 62.72 458.85
  C 77.27 456.17 98.80 451.86 100.80 433.36
  C 101.55 426.43 95.55 423.37 90.96 419.77
  C 88.89 418.15 87.20 415.69 88.11 412.90
  C 89.55 408.45 92.42 404.09 95.14 400.31
  A 1.04 1.04 0.0 0 1 96.85 400.33
  Q 101.13 406.68 106.87 411.25
  Q 112.20 415.49 119.18 414.74
  A 0.87 0.87 0.0 0 0 119.95 413.85
  C 119.62 400.39 124.04 390.61 135.20 382.86
  C 138.39 380.64 140.40 383.32 141.85 385.80
  C 147.57 395.58 151.89 407.28 147.88 418.48
  Q 144.11 428.98 132.86 429.79
  A 1.02 1.01 -15.8 0 0 132.03 431.27
  C 134.81 436.57 138.63 443.02 143.64 446.42
  A 1.49 1.49 0.0 0 0 145.90 445.61
  Q 147.27 441.03 147.89 436.29
  C 148.75 429.72 150.60 424.99 155.36 420.40
  C 159.52 416.39 163.92 414.70 169.60 414.71
  Q 214.14 414.80 251.65 414.72
  Q 252.19 414.72 252.19 415.26
  L 252.12 431.99
  Q 252.12 433.12 250.99 433.12
  Q 208.12 433.13 168.88 433.06
  C 164.23 433.05 154.26 432.45 153.26 438.98
  C 152.32 445.13 155.26 449.84 157.95 455.05
  C 159.35 457.75 161.03 463.18 157.55 465.23
  C 143.60 473.45 131.78 455.67 127.11 445.20
  Q 124.54 439.42 122.92 432.49
  A 1.47 1.47 0.0 0 0 121.34 431.37
  Q 115.14 432.00 109.30 430.37
  A 0.65 0.64 -83.6 0 0 108.48 431.03
  Z
  M 141.11 411.55
  C 140.30 406.60 137.82 400.41 133.90 397.06
  A 0.92 0.91 -52.4 0 0 132.55 397.24
  Q 127.61 404.45 127.87 414.08
  A 0.82 0.82 0.0 0 0 128.71 414.88
  Q 134.95 414.72 140.22 413.00
  Q 141.29 412.66 141.11 411.55
  Z"
/>
<path fill="#dd0000" d="
  M 282.85 401.66
  C 281.02 399.25 277.49 397.35 279.46 393.50
  C 281.81 388.90 287.48 382.96 293.13 384.86
  C 294.89 385.45 299.26 388.54 297.07 390.69
  A 2.26 2.25 -57.6 0 1 294.75 391.21
  C 291.59 390.12 288.73 389.08 285.54 391.12
  C 284.33 391.90 284.14 393.37 284.87 394.56
  C 288.57 400.60 293.90 397.97 298.89 396.08
  Q 300.27 395.56 300.15 397.02
  L 299.87 400.73
  Q 299.80 401.67 298.88 401.85
  C 294.51 402.70 289.63 404.54 286.44 407.74
  Q 284.75 409.43 282.96 410.94
  Q 281.11 412.49 279.36 410.81
  Q 278.38 409.87 277.76 408.75
  Q 276.39 406.29 278.81 404.86
  Q 280.47 403.88 282.45 403.10
  A 0.94 0.93 60.7 0 0 282.85 401.66
  Z"
/>
<ellipse fill="#dd0000" cx="0.00" cy="0.00" transform="translate(192.72,398.91) rotate(3.3)" rx="9.07" ry="8.88"/>
<circle fill="#dd0000" cx="218.29" cy="398.90" r="8.96"/>
<circle fill="#dd0000" cx="243.11" cy="398.91" r="8.98"/>
<circle fill="#dd0000" cx="343.29" cy="398.88" r="8.97"/>
<circle fill="#dd0000" cx="383.26" cy="457.81" r="8.99"/>
</svg>
