<?xml version="1.0" encoding="UTF-8" standalone="no"?>
<!DOCTYPE svg PUBLIC "-//W3C//DTD SVG 1.1//EN" "http://www.w3.org/Graphics/SVG/1.1/DTD/svg11.dtd">
<svg xmlns="http://www.w3.org/2000/svg" version="1.1" viewBox="0.00 0.00 256.00 256.00">
<circle fill="#652d90" cx="41.07" cy="40.82" r="39.43"/>
<path fill="#652d90" d="
  M 1.70 251.78
  C 40.64 170.38 79.60 88.26 119.27 5.00
  C 120.15 3.16 124.69 0.04 126.82 2.59
  Q 127.63 3.57 127.34 4.90
  Q 100.78 126.55 74.28 248.14
  C 73.71 250.76 73.12 254.44 69.57 254.44
  Q 36.19 254.40 3.38 254.44
  A 1.86 1.86 0.0 0 1 1.70 251.78
  Z"
/>
<path fill="#652d90" d="
  M 167.46 4.73
  L 113.78 250.91
  A 4.56 4.55 -83.9 0 1 109.33 254.50
  L 90.60 254.50
  A 2.60 2.60 0.0 0 1 88.06 251.35
  L 141.74 5.16
  A 4.45 4.45 0.0 0 1 146.10 1.66
  L 164.99 1.66
  A 2.53 2.53 0.0 0 1 167.46 4.73
  Z"
/>
<path fill="#652d90" d="
  M 128.53 249.86
  C 146.30 168.29 164.01 86.82 181.90 5.15
  A 4.52 4.51 6.1 0 1 186.32 1.59
  Q 217.48 1.60 251.09 1.57
  Q 252.00 1.57 252.86 1.83
  C 254.51 2.34 253.91 4.26 253.37 5.38
  Q 195.26 127.39 137.13 249.39
  C 135.76 252.27 134.03 254.26 130.81 254.41
  C 127.84 254.54 128.10 251.84 128.53 249.86
  Z"
/>
<circle fill="#652d90" cx="214.73" cy="214.66" r="39.42"/>
</svg>
