<?xml version="1.0" encoding="UTF-8" standalone="no"?>
<svg xmlns="http://www.w3.org/2000/svg" version="1.1" viewBox="0.00 0.00 1773.00 1773.00">
  <path fill="#036c10" d="   M 1175.93 892.68   Q 1097.01 972.09 1090.62 978.62   Q 1068.74 1000.98 1049.64 1020.20   A 4.56 4.53 22.7 0 1 1046.34 1021.54   C 1039.73 1021.41 1032.30 1021.78 1026.56 1021.78   Q 982.41 1021.77 938.26 1021.90   Q 928.85 1021.93 918.25 1022.08   Q 830.09 1023.33 735.07 1022.98   C 731.00 1022.97 728.85 1022.13 725.82 1019.36   Q 715.53 1009.95 697.89 992.37   Q 614.37 909.09 509.86 806.14   C 503.88 800.25 504.05 795.10 504.07 785.94   Q 504.18 746.54 503.92 710.00   Q 503.55 659.05 503.42 563.50   Q 503.42 562.70 503.26 543.52   Q 503.00 513.02 503.08 489.08   Q 503.10 484.68 505.58 479.87   Q 507.65 475.87 515.86 467.61   Q 593.03 390.03 669.86 312.12   Q 708.87 272.57 718.52 263.52   Q 722.06 260.20 724.74 257.93   A 5.28 5.26 24.2 0 1 728.08 256.67   Q 752.59 256.19 771.00 256.07   Q 783.52 255.99 893.03 256.02   Q 904.10 256.02 913.01 255.39   C 924.61 254.57 935.95 253.93 947.35 253.90   Q 1017.68 253.70 1039.31 254.17   Q 1042.73 254.25 1047.02 258.09   Q 1061.29 270.84 1076.24 286.00   C 1135.07 345.63 1205.21 414.14 1266.64 474.29   Q 1271.09 478.65 1271.09 485.53   Q 1271.15 791.78 1270.97 793.81   Q 1270.86 795.00 1270.38 795.97   Q 1268.33 800.12 1264.18 804.18   Q 1252.11 816.03 1175.93 892.68   Z   M 1154.49 564.54   Q 1154.08 549.90 1154.72 534.32   Q 1154.96 528.58 1150.88 524.39   Q 1123.40 496.20 1096.50 469.63   Q 1047.81 421.54 1001.81 375.29   C 998.63 372.09 996.57 370.67 992.24 370.66   Q 841.08 370.47 806.01 370.74   Q 794.20 370.84 780.31 370.78   Q 778.00 370.77 776.49 371.32   Q 774.40 372.08 773.12 373.37   Q 751.98 394.52 668.95 478.70   Q 652.58 495.29 635.90 511.91   Q 632.73 515.07 622.68 526.18   C 618.31 531.01 618.91 534.04 618.88 541.49   Q 618.52 641.95 619.43 742.41   C 619.48 747.70 619.33 751.15 622.65 754.44   Q 742.85 873.20 772.09 901.76   Q 778.08 907.61 786.49 907.75   Q 793.85 907.87 805.66 907.13   Q 813.77 906.62 824.84 906.61   Q 868.98 906.56 882.75 906.35   Q 883.99 906.34 887.50 906.33   Q 946.28 906.26 988.82 905.96   Q 993.60 905.92 998.32 905.55   Q 1000.59 905.36 1001.70 904.21   Q 1076.14 826.99 1151.87 752.39   C 1153.25 751.03 1154.68 749.20 1154.68 747.48   Q 1154.61 714.70 1154.69 579.04   Q 1154.69 572.00 1154.49 564.54   Z"></path>
  <path fill="#036c10" d="   M 991.60 638.65   A 0.92 0.90 -53.5 0 0 991.45 637.59   Q 921.22 565.97 856.33 501.25   C 841.00 485.97 824.48 468.64 812.06 454.92   A 2.29 2.29 0.0 0 1 811.92 452.02   Q 812.78 450.87 813.81 449.81   Q 822.91 440.39 887.58 374.60   A 2.84 2.84 0.0 0 1 891.61 374.57   Q 905.12 387.98 928.70 411.75   Q 1019.06 502.84 1107.74 592.37   Q 1134.89 619.78 1150.70 636.76   Q 1152.34 638.52 1150.71 640.44   Q 1134.59 659.34 1118.10 675.97   Q 1105.64 688.53 1104.04 690.19   Q 1086.77 707.97 1069.54 725.79   Q 1067.69 727.70 1064.84 728.41   Q 1063.29 728.80 1059.63 728.80   Q 1010.45 728.81 905.50 728.68   Q 904.98 728.67 904.75 728.57   A 0.55 0.55 0.0 0 1 904.59 727.69   Q 945.63 685.88 986.61 644.12   C 988.03 642.67 990.64 640.45 991.60 638.65   Z"></path>
  <path fill="#036c10" d="   M 785.81 637.47   A 1.56 1.56 0.0 0 0 785.72 639.55   Q 791.21 646.27 795.83 650.91   Q 889.51 745.20 963.18 819.66   Q 964.55 821.05 965.20 822.14   A 2.22 2.21 52.0 0 1 964.88 824.82   L 889.18 901.87   A 3.52 3.51 -45.1 0 1 884.18 901.88   L 625.10 640.67   Q 623.44 639.00 624.97 637.22   Q 637.96 622.09 651.64 607.64   Q 670.56 587.63 705.76 551.26   C 708.64 548.27 710.98 547.61 715.37 547.61   Q 806.39 547.61 870.53 547.62   A 1.59 1.58 -15.4 0 1 871.89 548.39   Q 872.41 549.26 871.34 550.34   Q 834.68 587.55 785.81 637.47   Z"></path>
  <path fill="#036c10" d="   M 1414.67 1052.33   C 1432.97 1037.09 1454.26 1019.75 1473.85 1003.43   Q 1481.62 996.95 1488.85 990.22   Q 1506.72 973.56 1521.74 959.25   Q 1526.82 954.40 1528.41 953.02   A 0.85 0.84 -51.1 0 1 1529.38 952.91   Q 1530.17 953.34 1529.82 954.34   Q 1527.42 961.34 1523.58 967.37   Q 1515.50 980.05 1503.92 991.43   Q 1478.19 1016.74 1453.83 1035.84   Q 1408.47 1071.42 1391.81 1084.06   Q 1390.60 1084.97 1389.38 1084.65   A 1.39 1.38 21.6 0 1 1388.51 1082.65   Q 1393.50 1073.37 1400.02 1065.89   Q 1404.30 1060.97 1414.67 1052.33   Z"></path>
  <path fill="#036c10" d="   M 1384.26 1013.25   Q 1390.07 1017.46 1394.72 1022.76   Q 1398.93 1027.57 1397.53 1033.72   Q 1395.65 1042.00 1390.03 1048.20   C 1383.61 1055.28 1373.56 1044.97 1370.10 1039.58   Q 1369.82 1039.14 1370.00 1038.65   Q 1374.86 1025.44 1382.63 1013.55   A 1.15 1.15 0.0 0 1 1384.26 1013.25   Z"></path>
  <path fill="#036c10" d="   M 1182.39 1070.13   Q 1177.16 1064.90 1180.45 1057.05   Q 1184.28 1047.91 1190.19 1041.46   C 1191.34 1040.20 1192.82 1039.71 1194.60 1040.52   C 1200.28 1043.08 1205.32 1048.89 1205.83 1055.33   Q 1206.07 1058.37 1204.32 1062.58   Q 1201.20 1070.13 1196.31 1076.55   Q 1194.89 1078.42 1192.46 1077.07   Q 1188.44 1074.82 1187.16 1073.91   Q 1183.66 1071.40 1182.39 1070.13   Z"></path>
  <path fill="#036c10" d="   M 1157.68 1045.22   C 1161.98 1037.32 1167.62 1042.95 1171.52 1047.29   C 1177.78 1054.28 1175.82 1060.91 1172.17 1068.89   Q 1170.06 1073.48 1166.58 1077.59   Q 1165.49 1078.86 1163.13 1078.09   Q 1155.94 1075.72 1149.54 1068.46   Q 1148.77 1067.58 1148.47 1066.89   Q 1148.18 1066.22 1148.55 1065.15   Q 1151.68 1056.23 1157.68 1045.22   Z"></path>
  <path fill="#036c10" d="   M 1365.96 1164.19   A 0.79 0.79 0.0 0 0 1364.61 1163.80   Q 1358.86 1169.96 1350.18 1181.42   C 1347.10 1185.48 1342.59 1189.92 1338.43 1193.34   Q 1317.26 1210.73 1290.62 1218.34   Q 1273.11 1223.35 1250.79 1225.96   Q 1230.83 1228.30 1211.33 1226.47   Q 1200.40 1225.45 1191.31 1219.74   Q 1189.51 1218.61 1187.88 1215.57   Q 1186.20 1212.45 1185.69 1207.15   Q 1184.26 1192.50 1187.94 1177.13   A 0.83 0.83 0.0 0 1 1189.35 1176.75   Q 1189.63 1177.04 1189.95 1177.77   Q 1191.94 1182.34 1193.70 1185.32   C 1197.51 1191.76 1203.33 1194.40 1210.45 1196.05   Q 1213.54 1196.77 1215.94 1197.00   Q 1256.32 1200.86 1294.67 1191.26   C 1309.95 1187.43 1324.93 1181.37 1338.20 1173.20   C 1350.16 1165.84 1360.16 1154.70 1365.82 1141.58   Q 1367.31 1138.11 1369.11 1130.74   Q 1370.36 1125.63 1371.98 1119.75   Q 1375.71 1106.18 1383.74 1094.16   Q 1384.95 1092.33 1385.53 1094.52   Q 1385.57 1094.67 1385.33 1095.85   Q 1379.41 1124.67 1376.22 1148.74   Q 1374.03 1165.27 1375.27 1179.32   Q 1375.65 1183.65 1378.44 1187.34   C 1381.63 1191.56 1387.22 1193.22 1392.25 1192.83   C 1394.21 1192.68 1395.27 1191.12 1395.91 1189.41   C 1396.89 1186.74 1398.25 1182.33 1400.44 1179.87   A 1.00 0.96 -80.0 0 1 1400.74 1179.65   Q 1402.70 1178.73 1402.38 1181.00   C 1400.56 1193.95 1397.07 1206.33 1389.86 1216.36   Q 1383.83 1224.77 1374.07 1221.86   Q 1369.66 1220.55 1367.66 1215.81   Q 1365.27 1210.16 1364.65 1204.93   Q 1363.69 1196.86 1363.62 1192.62   C 1363.47 1184.13 1364.76 1176.11 1365.97 1165.50   Q 1366.06 1164.72 1365.96 1164.19   Z"></path>
  <path fill="#036c10" d="   M 1447.27 1192.93   C 1448.79 1192.87 1449.72 1191.70 1450.41 1190.40   Q 1452.49 1186.46 1455.84 1180.36   Q 1457.40 1177.54 1457.68 1180.75   Q 1457.73 1181.38 1457.44 1183.22   Q 1455.37 1196.21 1449.96 1208.97   C 1448.39 1212.66 1446.71 1216.51 1443.92 1219.08   Q 1437.44 1225.03 1428.40 1220.95   Q 1423.67 1218.81 1422.02 1212.46   Q 1418.98 1200.79 1420.19 1186.35   Q 1422.71 1156.31 1426.21 1133.18   Q 1428.03 1121.15 1430.12 1115.01   Q 1433.16 1106.04 1437.49 1097.88   A 0.99 0.99 0.0 0 1 1439.20 1097.83   Q 1439.76 1098.75 1439.45 1100.25   Q 1432.57 1133.59 1430.48 1168.01   Q 1430.17 1173.08 1431.08 1178.88   C 1432.50 1187.90 1437.93 1193.27 1447.27 1192.93   Z"></path>
  <path fill="#036c10" d="   M 905.07 1198.68   Q 903.30 1201.04 897.49 1209.20   Q 892.21 1216.62 889.02 1218.90   Q 881.23 1224.46 870.56 1222.00   C 860.94 1219.78 857.62 1208.80 857.33 1199.74   Q 857.03 1190.21 857.38 1186.31   Q 860.71 1149.31 862.73 1134.99   Q 865.38 1116.16 873.85 1098.94   Q 874.23 1098.18 875.40 1097.84   A 0.69 0.69 0.0 0 1 876.28 1098.62   Q 872.24 1123.06 869.42 1148.27   Q 867.94 1161.58 867.70 1170.76   Q 867.37 1183.66 875.66 1191.60   C 882.47 1198.13 893.39 1198.87 899.92 1192.03   Q 903.40 1188.39 908.15 1181.16   C 909.27 1179.46 910.66 1178.94 912.81 1179.06   Q 915.64 1179.22 925.57 1179.95   A 2.14 2.13 14.5 0 0 927.65 1178.73   Q 934.72 1163.75 946.13 1151.43   Q 950.51 1146.71 954.37 1145.43   C 958.18 1144.16 963.37 1143.76 967.26 1145.27   Q 968.05 1145.58 968.40 1147.10   Q 971.70 1161.19 964.52 1174.01   Q 961.70 1179.04 957.60 1184.53   C 948.11 1197.20 933.13 1204.09 917.45 1200.55   Q 912.47 1199.42 906.84 1198.05   A 1.71 1.70 -64.5 0 0 905.07 1198.68   Z   M 933.23 1179.67   Q 933.06 1180.22 933.52 1180.57   Q 933.93 1180.87 934.58 1180.79   Q 951.75 1178.91 960.77 1164.34   A 1.66 1.66 0.0 0 0 960.52 1162.28   C 958.37 1160.17 954.71 1156.90 951.42 1157.42   Q 948.81 1157.84 946.55 1159.69   Q 937.13 1167.41 933.23 1179.67   Z"></path>
  <path fill="#036c10" d="   M 1154.77 1185.47   A 1.03 1.03 0.0 0 0 1153.91 1184.00   L 1136.97 1182.85   Q 1135.82 1182.77 1135.72 1181.62   Q 1134.06 1163.42 1145.29 1149.88   Q 1148.51 1146.00 1151.01 1145.10   Q 1154.71 1143.76 1158.89 1144.63   Q 1160.58 1144.98 1161.99 1146.78   Q 1166.28 1152.24 1168.54 1154.85   Q 1168.86 1155.23 1169.33 1155.06   Q 1172.03 1154.11 1173.46 1152.19   Q 1174.59 1150.65 1174.67 1147.60   Q 1174.79 1143.17 1174.80 1142.81   C 1175.06 1131.48 1179.16 1120.14 1185.29 1110.81   Q 1185.98 1109.75 1187.35 1108.97   A 0.81 0.81 0.0 0 1 1188.56 1109.64   Q 1189.14 1124.60 1187.07 1140.82   Q 1185.98 1149.35 1180.22 1157.82   Q 1170.16 1172.64 1163.47 1186.46   Q 1161.28 1190.99 1159.31 1195.45   C 1155.39 1204.28 1149.63 1210.76 1140.92 1214.42   Q 1128.40 1219.66 1113.23 1221.67   Q 1111.75 1221.86 1110.94 1221.61   A 0.50 0.50 0.0 0 1 1110.81 1220.71   Q 1118.05 1215.96 1135.61 1204.86   Q 1145.05 1198.90 1151.68 1190.44   Q 1153.56 1188.05 1154.77 1185.47   Z"></path>
  <path fill="#036c10" d="   M 403.46 1140.75   Q 400.24 1165.90 399.35 1170.78   Q 396.88 1184.31 390.18 1197.19   Q 385.76 1205.69 380.09 1214.85   A 0.78 0.78 0.0 0 1 378.70 1214.72   Q 377.44 1211.50 378.71 1207.76   C 383.80 1192.74 387.49 1177.23 389.04 1161.58   Q 389.19 1160.00 389.84 1153.26   C 390.48 1146.75 392.07 1140.99 394.39 1134.94   C 396.91 1128.35 400.84 1119.42 404.48 1112.46   Q 405.10 1111.28 406.41 1111.64   A 0.65 0.65 0.0 0 1 406.88 1112.34   Q 405.26 1126.64 403.46 1140.75   Z"></path>
  <path fill="#036c10" d="   M 514.51 1159.55   Q 513.14 1168.93 511.52 1176.20   C 508.81 1188.39 503.34 1199.79 495.98 1210.71   Q 494.28 1213.22 493.16 1213.79   Q 490.86 1214.94 491.61 1212.46   Q 498.35 1190.06 501.97 1167.77   Q 502.29 1165.82 504.41 1151.87   Q 506.14 1140.48 507.46 1136.10   Q 511.01 1124.30 518.78 1112.51   A 0.89 0.89 0.0 0 1 519.21 1112.17   Q 520.11 1111.83 520.01 1113.00   Q 517.98 1135.81 514.51 1159.55   Z"></path>
  <path fill="#036c10" d="   M 736.36 1113.95   Q 738.33 1110.46 738.21 1114.47   Q 737.71 1131.00 735.87 1148.65   Q 733.00 1176.25 720.69 1201.70   C 718.71 1205.79 715.37 1211.63 711.72 1213.77   A 0.87 0.87 0.0 0 1 710.45 1212.77   Q 714.88 1198.34 717.73 1185.43   Q 719.47 1177.52 720.34 1169.54   C 721.04 1163.11 721.83 1154.98 723.30 1148.23   Q 727.30 1129.95 736.36 1113.95   Z"></path>
  <path fill="#036c10" d="   M 273.85 1145.62   Q 271.76 1150.32 262.09 1170.31   Q 256.03 1182.85 255.50 1197.07   C 255.00 1210.73 261.99 1223.23 276.01 1226.34   Q 307.91 1233.40 331.47 1212.23   Q 340.36 1204.24 347.40 1192.40   Q 350.49 1187.19 352.17 1181.02   Q 353.42 1176.44 353.27 1168.90   Q 353.09 1160.46 353.19 1151.77   C 353.24 1146.99 354.00 1142.17 355.60 1137.57   Q 359.57 1126.19 366.22 1115.50   Q 366.84 1114.52 367.57 1114.54   A 0.64 0.63 -85.4 0 1 368.17 1115.25   Q 366.99 1126.32 363.89 1156.00   C 361.38 1180.03 353.95 1202.97 340.32 1223.06   Q 332.91 1233.98 323.15 1242.14   Q 304.00 1258.14 278.78 1257.69   Q 259.08 1257.35 249.60 1240.70   Q 244.51 1231.75 244.19 1220.00   Q 243.66 1200.67 251.11 1182.56   Q 258.88 1163.63 269.85 1145.81   Q 270.78 1144.30 272.54 1144.21   Q 272.74 1144.20 272.96 1144.21   Q 274.47 1144.24 273.85 1145.62   Z"></path>
  <path fill="#036c10" d="   M 643.19 1132.71   L 637.67 1147.13   A 7.07 7.07 0.0 0 1 626.91 1150.32   L 619.22 1144.72   A 7.07 7.07 0.0 0 1 616.92 1136.14   L 624.24 1119.65   A 7.07 7.07 0.0 0 1 636.30 1118.21   L 642.20 1125.87   A 7.07 7.07 0.0 0 1 643.19 1132.71   Z"></path>
  <path fill="#036c10" d="   M 613.51 1133.70   L 607.71 1149.34   A 6.78 6.78 0.0 0 1 597.19 1152.34   L 588.73 1145.75   A 6.78 6.78 0.0 0 1 586.75 1137.51   L 594.49 1121.10   A 6.78 6.78 0.0 0 1 605.69 1119.49   L 612.22 1126.85   A 6.78 6.78 0.0 0 1 613.51 1133.70   Z"></path>
  <path fill="#036c10" d="   M 821.57 1123.30   C 830.86 1130.77 837.91 1140.56 838.19 1153.03   Q 839.18 1196.62 802.39 1218.40   Q 799.52 1220.10 796.01 1220.66   A 0.92 0.92 0.0 0 1 795.01 1219.41   Q 795.42 1218.38 795.75 1218.01   Q 808.64 1203.55 814.84 1196.27   C 819.54 1190.76 822.30 1186.17 823.30 1179.52   Q 824.27 1173.05 820.21 1168.21   Q 820.04 1168.01 808.29 1153.88   Q 807.02 1152.36 807.50 1150.26   Q 810.88 1135.35 820.73 1123.39   A 0.60 0.60 0.0 0 1 821.57 1123.30   Z"></path>
  <path fill="#036c10" d="   M 1282.11 1149.64   C 1282.65 1145.95 1283.46 1141.41 1285.27 1137.45   C 1287.64 1132.26 1292.40 1130.28 1297.77 1133.00   A 0.85 0.85 0.0 0 1 1297.82 1134.49   Q 1294.18 1136.64 1291.70 1138.44   C 1288.99 1140.41 1288.53 1144.43 1287.63 1148.20   Q 1287.03 1150.67 1285.86 1152.54   Q 1280.04 1161.74 1269.44 1156.76   Q 1268.40 1156.27 1268.32 1156.06   Q 1267.79 1154.66 1268.96 1154.39   L 1280.04 1151.87   A 2.70 2.67 -2.4 0 0 1282.11 1149.64   Z"></path>
  <path fill="#036c10" d="   M 450.95 1180.72   C 446.75 1189.56 443.41 1198.10 440.00 1205.52   Q 435.36 1215.62 424.86 1218.76   Q 413.24 1222.25 399.86 1222.34   A 0.74 0.74 0.0 0 1 399.29 1221.12   Q 401.79 1218.19 404.85 1215.84   Q 412.79 1209.72 417.63 1206.86   Q 424.58 1202.76 428.67 1199.40   Q 438.38 1191.42 442.39 1182.63   Q 448.79 1168.63 450.68 1164.94   Q 453.57 1159.29 459.34 1155.13   Q 461.13 1153.83 474.86 1144.35   Q 481.00 1140.11 485.53 1134.89   Q 488.59 1131.37 487.70 1135.95   Q 485.90 1145.21 481.64 1154.11   Q 478.09 1161.54 471.07 1165.07   Q 463.78 1168.75 458.23 1172.45   C 455.31 1174.39 452.62 1177.22 450.95 1180.72   Z"></path>
  <path fill="#036c10" d="   M 324.14 1163.49   Q 323.05 1172.07 315.97 1178.29   Q 312.17 1181.63 307.46 1179.34   Q 300.14 1175.79 295.19 1169.66   A 1.84 1.82 -59.9 0 1 294.81 1168.20   Q 296.44 1158.58 301.74 1150.10   Q 304.18 1146.20 306.77 1144.85   Q 310.27 1143.02 314.79 1145.69   Q 325.60 1152.09 324.14 1163.49   Z"></path>
  <path fill="#036c10" d="   M 1062.04 1190.33   Q 1062.71 1190.51 1063.94 1190.18   Q 1070.39 1188.46 1075.07 1184.30   Q 1083.23 1177.05 1091.41 1171.23   Q 1102.44 1163.37 1105.33 1160.89   Q 1110.47 1156.46 1117.60 1148.53   Q 1119.57 1146.35 1119.69 1149.28   C 1119.75 1150.59 1118.76 1153.36 1118.40 1154.39   Q 1113.21 1169.37 1102.11 1177.13   Q 1085.23 1188.91 1065.93 1202.71   A 7.30 7.24 -63.1 0 1 1061.89 1204.05   Q 1059.45 1204.10 1053.52 1204.50   C 1047.87 1204.88 1044.60 1206.72 1039.91 1210.76   C 1032.26 1217.38 1025.61 1222.90 1016.42 1224.90   Q 1012.46 1225.76 1006.69 1224.88   Q 1001.58 1224.11 996.93 1223.08   Q 991.65 1221.93 989.75 1221.59   Q 987.87 1221.27 982.46 1223.72   Q 975.55 1226.85 968.55 1229.78   Q 967.58 1230.19 966.98 1230.26   A 0.36 0.36 0.0 0 1 966.63 1229.73   Q 978.05 1208.65 999.79 1198.75   Q 1002.19 1197.66 1007.54 1197.68   Q 1011.48 1197.69 1024.64 1199.43   Q 1029.79 1200.11 1032.51 1199.14   Q 1036.32 1197.78 1039.41 1193.91   C 1040.50 1192.55 1041.63 1191.28 1041.01 1189.66   C 1038.65 1183.47 1034.80 1182.75 1029.25 1181.57   A 1.87 1.86 25.3 0 1 1028.18 1178.58   Q 1029.76 1176.60 1032.71 1174.67   Q 1044.92 1166.65 1058.52 1169.30   Q 1063.72 1170.32 1065.34 1175.67   Q 1065.47 1176.12 1065.33 1176.56   L 1061.39 1189.14   Q 1061.09 1190.08 1062.04 1190.33   Z"></path>
  <path fill="#036c10" d="   M 571.74 1222.51   Q 560.53 1222.33 552.07 1221.21   C 540.77 1219.73 527.72 1216.31 524.94 1203.61   Q 524.20 1200.24 524.75 1194.38   Q 525.69 1184.15 529.59 1169.64   Q 530.11 1167.70 530.45 1167.00   Q 531.63 1164.55 532.15 1167.18   C 533.62 1174.63 534.86 1180.39 541.95 1184.38   Q 551.36 1189.68 561.01 1191.05   Q 569.22 1192.21 577.01 1192.37   Q 591.53 1192.66 606.75 1192.54   Q 644.93 1192.22 679.32 1177.12   Q 682.46 1175.74 688.10 1170.84   Q 693.53 1166.12 698.36 1160.36   Q 698.98 1159.62 699.36 1159.51   Q 700.41 1159.19 700.23 1160.27   Q 698.04 1173.69 691.44 1184.61   C 685.96 1193.66 678.13 1199.77 668.79 1204.54   C 655.08 1211.53 640.31 1215.39 624.35 1218.34   Q 608.22 1221.33 591.49 1222.09   Q 579.51 1222.63 571.74 1222.51   Z"></path>
  <path fill="#036c10" d="   M 750.98 1208.73   Q 762.39 1199.61 768.28 1194.03   Q 770.63 1191.80 775.54 1185.88   C 779.80 1180.75 783.15 1174.22 786.76 1169.06   Q 789.65 1164.92 789.01 1169.93   C 785.57 1196.86 764.90 1217.31 738.88 1223.60   Q 737.85 1223.85 737.33 1223.87   A 1.25 1.25 0.0 0 1 736.40 1221.73   Q 743.02 1215.09 750.98 1208.73   Z"></path>
  <path fill="#036c10" d="   M 482.92 1256.35   C 484.99 1258.89 485.77 1260.36 486.05 1263.55   C 486.75 1271.27 480.29 1280.60 474.36 1285.40   A 2.16 2.16 0.0 0 1 471.76 1285.48   Q 466.07 1281.45 461.35 1276.55   Q 458.21 1273.27 459.76 1268.98   Q 463.54 1258.58 470.73 1247.73   A 1.56 1.56 0.0 0 1 472.88 1247.29   Q 478.55 1250.99 482.92 1256.35   Z"></path>
  <path fill="#036c10" d="   M 448.55 1284.00   C 445.03 1287.77 440.29 1286.40 436.63 1283.48   Q 432.15 1279.90 429.80 1276.52   Q 428.79 1275.05 429.43 1272.71   Q 432.75 1260.65 440.38 1250.27   A 1.47 1.45 -63.5 0 1 441.97 1249.73   C 446.58 1251.09 451.23 1253.87 453.54 1258.02   Q 455.25 1261.11 455.30 1266.40   Q 455.41 1276.67 448.55 1284.00   Z"></path>
  <path fill="#036c10" d="   M 1452.59 1267.63   L 1449.20 1280.82   A 8.19 8.19 0.0 0 1 1436.23 1285.23   L 1429.86 1280.27   A 8.19 8.19 0.0 0 1 1427.43 1270.45   L 1434.30 1255.20   A 8.19 8.19 0.0 0 1 1449.34 1255.44   L 1452.23 1262.47   A 8.19 8.19 0.0 0 1 1452.59 1267.63   Z"></path>
  <path fill="#036c10" d="   M 513.8524 1374.5426   A 31.27 31.27 0.0 0 1 482.0951 1405.3176   L 476.6758 1405.2324   A 31.27 31.27 0.0 0 1 445.9008 1373.4751   L 446.1876 1355.2174   A 31.27 31.27 0.0 0 1 477.9449 1324.4424   L 483.3642 1324.5276   A 31.27 31.27 0.0 0 1 514.1392 1356.2849   L 513.8524 1374.5426   Z   M 479.8141 1387.6791   A 22.45 14.03 90.5 0 0 494.0395 1365.3524   A 22.45 14.03 90.5 0 0 480.2059 1342.7809   A 22.45 14.03 90.5 0 0 465.9805 1365.1076   A 22.45 14.03 90.5 0 0 479.8141 1387.6791   Z"></path>
  <path fill="#036c10" d="   M 1095.2212 1374.2672   A 31.05 31.05 0.0 0 1 1064.0090 1405.1542   L 1058.3691 1405.1247   A 31.05 31.05 0.0 0 1 1027.4821 1373.9125   L 1027.5788 1355.4328   A 31.05 31.05 0.0 0 1 1058.7910 1324.5458   L 1064.4309 1324.5753   A 31.05 31.05 0.0 0 1 1095.3179 1355.7875   L 1095.2212 1374.2672   Z   M 1061.1621 1387.6297   A 22.52 14.13 90.3 0 0 1075.4098 1365.1840   A 22.52 14.13 90.3 0 0 1061.3979 1342.5903   A 22.52 14.13 90.3 0 0 1047.1502 1365.0360   A 22.52 14.13 90.3 0 0 1061.1621 1387.6297   Z"></path>
  <path fill="#036c10" d="   M 573.00 1369.22   Q 576.98 1375.16 578.67 1378.01   Q 585.75 1389.92 588.95 1403.18   Q 589.09 1403.76 588.50 1403.81   Q 577.32 1404.72 567.05 1403.72   Q 566.48 1403.66 566.26 1403.14   Q 560.71 1389.82 554.11 1377.66   Q 552.35 1374.41 550.37 1371.86   A 1.05 1.05 0.0 0 0 548.65 1371.93   C 546.25 1375.67 545.89 1381.38 545.87 1385.71   Q 545.83 1395.92 546.04 1402.44   A 1.86 1.86 0.0 0 1 544.18 1404.36   L 526.58 1404.36   A 1.76 1.76 0.0 0 1 524.82 1402.60   L 524.82 1327.25   A 1.07 1.06 87.3 0 1 525.78 1326.19   Q 543.14 1324.43 560.50 1325.50   C 568.76 1326.01 578.34 1326.59 582.43 1335.30   Q 584.37 1339.44 584.64 1343.78   Q 585.20 1352.89 583.96 1358.02   Q 583.35 1360.57 579.92 1363.20   Q 576.86 1365.53 573.27 1367.90   Q 572.47 1368.42 573.00 1369.22   Z   M 559.62 1356.05   A 3.26 3.26 0.0 0 0 562.21 1353.70   L 563.95 1347.46   A 3.26 3.26 0.0 0 0 561.24 1343.35   L 549.22 1341.75   A 3.26 3.26 0.0 0 0 545.53 1345.02   L 545.65 1354.60   A 3.26 3.26 0.0 0 0 549.46 1357.77   L 559.62 1356.05   Z"></path>
  <path fill="#036c10" d="   M 264.44 1385.70   L 297.09 1386.34   Q 298.59 1386.36 298.59 1387.86   L 298.59 1402.48   A 1.79 1.78 -90.0 0 1 296.81 1404.27   L 244.97 1404.27   Q 243.14 1404.27 243.14 1402.43   L 243.14 1327.00   A 1.60 1.57 57.3 0 1 243.27 1326.37   Q 243.81 1325.10 245.81 1325.12   Q 288.95 1325.59 296.40 1325.74   A 1.43 1.43 0.0 0 1 297.80 1327.13   Q 298.06 1334.65 297.53 1341.51   A 1.52 1.51 -87.7 0 1 296.02 1342.91   L 265.51 1342.91   A 1.50 1.50 0.0 0 0 264.01 1344.31   L 263.41 1353.04   A 1.44 1.43 -88.1 0 0 264.84 1354.57   L 292.84 1354.57   Q 294.82 1354.57 294.82 1356.55   L 294.82 1369.75   A 1.58 1.58 0.0 0 1 293.24 1371.33   L 264.97 1371.33   A 1.51 1.50 0.0 0 0 263.46 1372.83   L 263.46 1384.70   A 1.00 1.00 0.0 0 0 264.44 1385.70   Z"></path>
  <path fill="#036c10" d="   M 338.98 1347.83   Q 347.91 1332.33 350.77 1327.61   Q 352.04 1325.54 355.27 1325.34   Q 362.09 1324.94 370.54 1325.88   A 2.21 2.21 0.0 0 1 372.21 1329.17   Q 364.73 1342.25 354.83 1359.34   C 353.70 1361.30 352.82 1362.77 353.72 1364.91   Q 355.04 1368.04 356.39 1370.38   C 362.03 1380.17 368.61 1390.24 372.89 1400.72   Q 373.05 1401.11 373.22 1402.42   A 1.63 1.63 0.0 0 1 371.64 1404.26   Q 362.33 1404.51 356.50 1404.34   C 353.30 1404.24 351.31 1402.65 349.61 1399.73   Q 343.17 1388.64 340.69 1384.61   Q 340.01 1383.52 339.64 1383.34   A 1.84 1.83 27.2 0 0 337.29 1384.08   L 326.83 1402.13   A 4.05 4.05 0.0 0 1 323.51 1404.14   Q 314.57 1404.55 304.14 1404.11   A 0.93 0.93 0.0 0 1 303.28 1402.97   Q 303.70 1401.19 304.97 1399.01   Q 316.61 1379.05 323.56 1366.80   C 325.33 1363.68 324.48 1361.14 322.67 1357.99   Q 307.86 1332.23 306.25 1329.28   Q 305.73 1328.34 305.61 1327.67   A 2.06 2.06 0.0 0 1 307.62 1325.25   Q 310.24 1325.22 320.73 1325.20   C 325.58 1325.20 327.56 1326.31 329.99 1330.55   Q 334.46 1338.33 338.17 1347.77   A 0.45 0.45 0.0 0 0 338.98 1347.83   Z"></path>
  <path fill="#036c10" d="   M 402.09 1376.17   L 402.09 1402.64   Q 402.09 1403.95 400.78 1403.95   L 381.49 1403.95   Q 380.84 1403.95 380.84 1403.30   L 380.84 1326.31   Q 380.84 1325.87 381.28 1325.81   Q 384.19 1325.42 387.15 1325.36   Q 404.00 1325.03 415.50 1325.32   Q 418.83 1325.40 423.62 1326.68   C 435.63 1329.90 437.47 1340.51 437.25 1351.81   C 437.06 1361.69 434.07 1369.66 424.84 1373.52   Q 421.02 1375.12 413.99 1375.49   Q 410.00 1375.70 402.73 1375.54   A 0.63 0.63 0.0 0 0 402.09 1376.17   Z   M 415.9989 1345.5755   A 3.43 3.43 0.0 0 0 412.5332 1342.1816   L 405.1136 1342.2593   A 3.43 3.43 0.0 0 0 401.7197 1345.7250   L 401.8211 1355.4045   A 3.43 3.43 0.0 0 0 405.2868 1358.7984   L 412.7064 1358.7207   A 3.43 3.43 0.0 0 0 416.1003 1355.2550   L 415.9989 1345.5755   Z"></path>
  <path fill="#036c10" d="   M 622.01 1325.22   Q 644.21 1325.25 652.01 1325.59   A 1.37 1.37 0.0 0 1 653.32 1326.96   L 653.32 1344.43   Q 653.32 1345.44 652.30 1345.44   L 634.00 1345.44   A 1.55 1.55 0.0 0 0 632.45 1346.99   L 632.45 1402.82   A 1.36 1.36 0.0 0 1 631.16 1404.18   Q 626.85 1404.41 621.89 1404.40   Q 616.93 1404.40 612.62 1404.15   A 1.36 1.36 0.0 0 1 611.33 1402.79   L 611.50 1346.96   A 1.55 1.55 0.0 0 0 609.95 1345.40   L 591.65 1345.35   Q 590.63 1345.35 590.64 1344.34   L 590.69 1326.87   A 1.37 1.37 0.0 0 1 592.00 1325.50   Q 599.80 1325.18 622.01 1325.22   Z"></path>
  <path fill="#036c10" d="   M 692.66 1328.29   A 3.06 3.06 0.0 0 1 695.70 1325.22   L 722.56 1325.07   A 31.89 31.52 89.7 0 1 754.25 1356.80   L 754.33 1372.40   A 31.89 31.52 89.7 0 1 722.98 1404.45   L 696.12 1404.59   A 3.06 3.06 0.0 0 1 693.04 1401.55   L 692.66 1328.29   Z   M 713.45 1346.33   L 713.31 1384.13   A 2.01 2.01 0.0 0 0 715.32 1386.14   L 720.01 1386.16   A 14.62 13.08 -89.8 0 0 733.14 1371.58   L 733.18 1359.00   A 14.62 13.08 -89.8 0 0 720.15 1344.34   L 715.46 1344.32   A 2.01 2.01 0.0 0 0 713.45 1346.33   Z"></path>
  <path fill="#036c10" d="   M 861.15 1377.80   A 0.75 0.75 0.0 0 0 862.21 1377.32   Q 868.13 1354.13 874.00 1330.99   C 875.65 1324.49 879.00 1325.28 884.94 1325.23   Q 889.04 1325.19 894.14 1325.49   A 2.13 2.12 86.7 0 1 896.10 1327.25   Q 896.22 1327.98 895.75 1329.52   Q 893.46 1337.01 872.78 1403.07   A 1.72 1.72 0.0 0 1 871.14 1404.27   L 852.07 1404.27   Q 849.35 1404.27 848.53 1401.68   Q 837.76 1367.63 826.99 1333.51   Q 826.16 1330.86 825.25 1330.28   C 822.46 1328.48 820.47 1330.77 820.32 1333.54   Q 820.30 1333.88 819.91 1342.08   A 0.91 0.91 0.0 0 1 818.98 1342.95   Q 803.64 1342.51 788.78 1343.15   Q 785.96 1343.27 785.95 1346.01   Q 785.95 1351.27 786.03 1352.74   Q 786.15 1354.85 788.26 1354.85   L 816.06 1354.85   Q 817.42 1354.85 817.42 1356.20   L 817.42 1369.42   A 1.91 1.91 0.0 0 1 815.51 1371.33   L 788.34 1371.33   A 2.68 2.67 1.2 0 0 785.66 1373.89   Q 785.55 1376.61 785.63 1381.91   Q 785.66 1384.07 787.12 1385.13   Q 787.91 1385.71 790.13 1385.84   Q 804.72 1386.72 820.36 1386.09   A 0.66 0.66 0.0 0 1 821.04 1386.75   L 821.04 1403.75   A 0.53 0.53 0.0 0 1 820.51 1404.28   L 766.47 1404.28   Q 765.54 1404.28 765.44 1403.37   Q 765.12 1400.40 764.99 1396.28   Q 763.88 1362.28 765.12 1326.63   A 1.03 1.03 0.0 0 1 766.10 1325.63   Q 776.23 1325.09 790.53 1325.20   Q 797.48 1325.25 816.69 1325.92   C 826.25 1326.25 835.02 1325.57 844.05 1325.10   Q 846.18 1324.99 846.75 1327.05   Q 854.26 1354.17 860.30 1376.46   Q 860.58 1377.51 861.15 1377.80   Z"></path>
  <path fill="#036c10" d="   M 923.67 1371.77   L 923.67 1385.29   Q 923.67 1386.18 924.56 1386.18   L 958.03 1386.18   A 0.86 0.85 -90.0 0 1 958.88 1387.04   L 958.88 1403.13   A 1.14 1.14 0.0 0 1 957.74 1404.27   L 903.75 1404.27   A 0.80 0.80 0.0 0 1 902.95 1403.47   L 902.95 1327.19   A 1.11 1.11 0.0 0 1 903.99 1326.08   Q 931.25 1324.18 957.82 1326.21   A 0.85 0.84 -87.8 0 1 958.60 1327.06   L 958.60 1341.98   A 0.83 0.83 0.0 0 1 957.77 1342.81   L 926.42 1342.81   A 2.69 2.68 1.9 0 0 923.74 1345.31   L 923.21 1353.12   A 1.38 1.37 -88.0 0 0 924.58 1354.59   L 953.88 1354.59   Q 955.55 1354.59 955.55 1356.27   L 955.55 1370.01   A 1.32 1.32 0.0 0 1 954.23 1371.33   L 924.11 1371.33   A 0.44 0.44 0.0 0 0 923.67 1371.77   Z"></path>
  <path fill="#036c10" d="   M 990.51 1382.93   Q 990.52 1384.63 992.22 1384.63   L 1021.26 1384.63   A 1.73 1.73 0.0 0 1 1022.99 1386.36   L 1022.99 1402.75   A 1.22 1.21 -0.0 0 1 1021.77 1403.96   L 971.07 1403.96   A 1.26 1.26 0.0 0 1 969.81 1402.70   L 969.81 1326.70   A 1.24 1.24 0.0 0 1 971.05 1325.46   L 989.26 1325.46   Q 990.12 1325.46 990.34 1326.29   Q 990.53 1327.01 990.52 1328.77   Q 990.37 1361.70 990.51 1382.93   Z"></path>
  <path fill="#036c10" d="   M 1127.65 1376.50   L 1127.65 1403.16   A 0.80 0.79 -90.0 0 1 1126.86 1403.96   L 1107.45 1403.96   Q 1106.93 1403.96 1106.93 1403.43   L 1106.93 1326.25   Q 1106.93 1325.70 1107.48 1325.66   Q 1118.22 1325.03 1134.25 1325.18   Q 1142.46 1325.26 1147.19 1326.36   Q 1158.92 1329.08 1162.02 1339.26   Q 1164.80 1348.37 1162.21 1358.72   Q 1158.62 1373.05 1144.56 1375.02   Q 1136.92 1376.09 1128.73 1375.50   Q 1127.65 1375.42 1127.65 1376.50   Z   M 1127.10 1345.39   L 1127.12 1355.87   A 3.21 3.21 0.0 0 0 1130.33 1359.08   L 1135.01 1359.07   A 8.08 7.89 89.9 0 0 1142.89 1350.98   L 1142.89 1350.24   A 8.08 7.89 89.9 0 0 1134.99 1342.17   L 1130.31 1342.18   A 3.21 3.21 0.0 0 0 1127.10 1345.39   Z"></path>
  <path fill="#036c10" d="   M 1192.90 1357.90   Q 1191.48 1353.59 1191.44 1358.26   L 1191.11 1402.74   A 1.12 1.12 0.0 0 1 1189.99 1403.85   L 1174.67 1403.85   A 1.19 1.19 0.0 0 1 1173.48 1402.66   L 1173.48 1326.25   A 1.04 1.04 0.0 0 1 1174.52 1325.21   L 1199.96 1325.21   A 0.64 0.64 0.0 0 1 1200.58 1325.70   L 1210.29 1368.33   A 0.53 0.52 -44.9 0 0 1211.31 1368.33   Q 1216.22 1347.99 1220.12 1327.39   A 2.06 2.04 -86.3 0 1 1222.00 1325.72   Q 1234.49 1324.90 1247.33 1325.88   A 0.91 0.90 -88.0 0 1 1248.17 1326.79   L 1248.17 1403.35   A 1.04 1.03 0.0 0 1 1247.13 1404.38   L 1232.56 1404.38   Q 1232.02 1404.38 1231.83 1403.88   Q 1231.39 1402.65 1231.26 1400.00   Q 1230.13 1377.01 1231.29 1352.94   Q 1231.31 1352.55 1230.97 1352.35   L 1230.60 1352.14   A 0.59 0.59 0.0 0 0 1229.73 1352.54   Q 1224.62 1378.11 1218.70 1402.78   A 1.78 1.78 0.0 0 1 1217.09 1404.15   Q 1210.09 1404.66 1203.81 1404.20   A 1.90 1.90 0.0 0 1 1202.08 1402.64   Q 1198.97 1385.07 1194.50 1364.51   Q 1193.38 1359.38 1192.90 1357.90   Z"></path>
  <path fill="#036c10" d="   M 1316.19 1387.30   L 1316.18 1403.40   A 1.00 1.00 0.0 0 1 1315.17 1404.40   L 1261.09 1404.05   A 1.00 1.00 0.0 0 1 1260.10 1403.05   L 1260.12 1326.67   A 1.00 1.00 0.0 0 1 1261.11 1325.67   L 1313.99 1325.30   A 1.00 1.00 0.0 0 1 1315.00 1326.26   L 1315.56 1341.71   A 1.00 1.00 0.0 0 1 1314.57 1342.74   L 1281.78 1342.90   A 1.00 1.00 0.0 0 0 1280.78 1343.86   L 1280.40 1353.34   A 1.00 1.00 0.0 0 0 1281.39 1354.38   L 1311.78 1354.82   A 1.00 1.00 0.0 0 1 1312.77 1355.84   L 1312.46 1370.33   A 1.00 1.00 0.0 0 1 1311.47 1371.31   L 1281.61 1371.46   A 1.00 1.00 0.0 0 0 1280.62 1372.46   L 1280.60 1384.70   A 1.00 1.00 0.0 0 0 1281.58 1385.70   L 1315.21 1386.30   A 1.00 1.00 0.0 0 1 1316.19 1387.30   Z"></path>
  <path fill="#036c10" d="   M 1366.38 1359.82   Q 1367.96 1362.44 1369.67 1363.97   Q 1370.84 1365.01 1370.84 1363.45   L 1370.84 1326.65   A 1.28 1.28 0.0 0 1 1372.12 1325.37   L 1388.67 1325.37   A 1.53 1.52 -0.0 0 1 1390.20 1326.89   L 1390.20 1403.11   A 0.76 0.74 -3.5 0 1 1389.53 1403.85   Q 1382.35 1404.66 1374.03 1404.28   Q 1370.25 1404.11 1368.22 1400.15   Q 1360.45 1385.03 1354.03 1374.82   Q 1350.90 1369.85 1350.84 1369.75   Q 1349.27 1367.13 1347.56 1365.60   Q 1346.39 1364.56 1346.39 1366.12   L 1346.39 1402.92   A 1.28 1.28 0.0 0 1 1345.11 1404.20   L 1328.56 1404.20   A 1.53 1.52 0.0 0 1 1327.03 1402.68   L 1327.03 1326.46   A 0.76 0.74 -3.5 0 1 1327.70 1325.72   Q 1334.88 1324.91 1343.20 1325.29   Q 1346.98 1325.46 1349.01 1329.42   Q 1356.78 1344.54 1363.20 1354.75   Q 1366.33 1359.72 1366.38 1359.82   Z"></path>
  <path fill="#036c10" d="   M 1429.90 1325.21   Q 1446.83 1325.14 1459.53 1325.80   Q 1461.07 1325.88 1461.07 1327.43   L 1461.07 1344.03   A 1.42 1.41 -90.0 0 1 1459.66 1345.45   L 1442.17 1345.45   A 1.87 1.87 0.0 0 0 1440.30 1347.32   Q 1440.42 1375.85 1440.42 1399.25   Q 1440.42 1400.60 1440.28 1402.86   Q 1440.20 1404.22 1438.84 1404.26   Q 1434.50 1404.40 1430.23 1404.41   Q 1425.96 1404.44 1421.62 1404.33   Q 1420.26 1404.30 1420.17 1402.94   Q 1420.01 1400.68 1420.00 1399.33   Q 1419.81 1375.93 1419.69 1347.40   A 1.87 1.87 0.0 0 0 1417.81 1345.55   L 1400.32 1345.69   A 1.42 1.41 89.5 0 1 1398.90 1344.29   L 1398.76 1327.69   Q 1398.75 1326.14 1400.29 1326.04   Q 1412.98 1325.28 1429.90 1325.21   Z"></path>
  <path fill="#036c10" d="   M 873.1300 1482.0942   A 31.25 31.25 0.0 0 1 842.1538 1513.6157   L 836.9340 1513.6612   A 31.25 31.25 0.0 0 1 805.4125 1482.6851   L 805.2500 1464.0658   A 31.25 31.25 0.0 0 1 836.2262 1432.5443   L 841.4460 1432.4988   A 31.25 31.25 0.0 0 1 872.9675 1463.4749   L 873.1300 1482.0942   Z   M 839.3062 1495.6795   A 22.38 14.12 89.6 0 0 853.2697 1473.2014   A 22.38 14.12 89.6 0 0 838.9938 1450.9205   A 22.38 14.12 89.6 0 0 825.0303 1473.3986   A 22.38 14.12 89.6 0 0 839.3062 1495.6795   Z"></path>
  <path fill="#036c10" d="   M 665.54 1474.67   A 0.78 0.57 -67.8 0 0 666.67 1473.98   L 666.09 1434.92   A 1.06 1.06 0.0 0 1 667.15 1433.84   L 684.70 1433.84   Q 685.34 1433.84 685.34 1434.48   L 685.34 1512.36   Q 685.34 1512.95 684.75 1512.95   L 667.10 1512.95   A 0.70 0.69 75.0 0 1 666.50 1512.60   Q 644.15 1474.05 643.71 1473.28   Q 642.91 1471.89 642.17 1472.65   A 0.57 0.56 -24.8 0 0 642.03 1473.02   L 642.03 1511.07   A 0.63 0.62 0.0 0 1 641.40 1511.69   L 623.06 1511.69   Q 622.26 1511.69 622.26 1510.89   L 622.26 1434.93   A 0.88 0.88 0.0 0 1 623.14 1434.05   L 641.96 1434.05   A 0.96 0.95 -14.1 0 1 642.80 1434.55   L 665.54 1474.67   Z"></path>
  <path fill="#036c10" d="   M 1076.47 1510.06   A 0.66 0.65 -53.2 0 0 1077.64 1509.89   L 1101.08 1435.15   A 1.48 1.48 0.0 0 1 1102.49 1434.12   L 1123.61 1434.12   A 1.69 1.68 -8.7 0 1 1125.22 1435.30   Q 1143.82 1494.08 1147.90 1507.14   Q 1148.51 1509.08 1148.34 1510.26   A 1.63 1.63 0.0 0 1 1146.73 1511.66   L 1130.37 1511.66   A 3.86 3.86 0.0 0 1 1126.69 1508.96   L 1124.03 1500.53   A 1.63 1.62 -8.1 0 0 1122.50 1499.39   Q 1110.66 1499.23 1107.24 1499.51   C 1101.23 1500.01 1099.99 1505.73 1098.55 1510.20   A 1.94 1.94 0.0 0 1 1096.76 1511.54   Q 1083.55 1511.87 1070.00 1512.60   Q 1064.85 1512.88 1054.40 1511.17   C 1052.97 1510.94 1052.37 1510.03 1051.95 1508.80   C 1048.72 1499.27 1045.11 1489.25 1038.06 1482.36   Q 1036.41 1480.74 1034.58 1479.81   A 1.00 1.00 0.0 0 0 1033.13 1480.70   L 1033.13 1511.28   A 0.41 0.40 -0.0 0 1 1032.72 1511.68   L 1013.49 1511.68   Q 1012.88 1511.68 1012.86 1511.07   Q 1011.19 1473.45 1012.87 1435.38   Q 1012.92 1434.18 1014.13 1434.16   Q 1024.89 1434.01 1044.00 1433.68   Q 1047.25 1433.62 1053.04 1434.16   Q 1058.67 1434.68 1061.76 1436.23   Q 1069.14 1439.91 1071.14 1447.36   Q 1076.41 1466.96 1059.93 1477.10   A 0.72 0.71 53.8 0 0 1059.77 1478.19   Q 1071.12 1491.12 1076.07 1509.19   Q 1076.20 1509.65 1076.47 1510.06   Z   M 1033.08 1451.38   L 1033.06 1464.54   A 0.91 0.91 0.0 0 0 1033.97 1465.46   L 1044.01 1465.47   A 6.67 5.80 0.1 0 0 1050.69 1459.69   L 1050.69 1456.31   A 6.67 5.80 0.1 0 0 1044.03 1450.49   L 1033.99 1450.48   A 0.91 0.91 0.0 0 0 1033.08 1451.38   Z   M 1106.40 1481.31   A 0.84 0.84 0.0 0 0 1107.23 1482.35   L 1119.07 1482.21   A 0.84 0.84 0.0 0 0 1119.87 1481.15   L 1113.67 1458.22   A 0.84 0.84 0.0 0 0 1112.04 1458.24   L 1106.40 1481.31   Z"></path>
  <path fill="#036c10" d="   M 1176.00 1472.88   Q 1175.41 1486.72 1175.33 1504.58   Q 1175.32 1507.26 1175.10 1510.85   A 0.88 0.87 1.7 0 1 1174.22 1511.67   L 1156.97 1511.67   A 0.73 0.72 -0.0 0 1 1156.24 1510.95   L 1156.24 1435.23   Q 1156.24 1434.07 1157.41 1434.00   Q 1165.07 1433.58 1173.22 1434.33   C 1176.03 1434.59 1177.57 1436.41 1178.95 1439.00   Q 1184.09 1448.66 1190.69 1459.97   Q 1193.95 1465.55 1198.21 1470.45   Q 1200.08 1472.61 1200.08 1469.75   L 1200.08 1435.34   A 1.34 1.33 -90.0 0 1 1201.41 1434.00   L 1218.21 1434.00   A 1.42 1.41 -89.4 0 1 1219.62 1435.45   Q 1218.66 1473.39 1220.15 1511.38   Q 1220.21 1512.84 1218.74 1512.84   L 1201.90 1512.84   A 2.73 2.70 -14.8 0 1 1199.54 1511.48   L 1177.10 1472.61   Q 1176.08 1470.85 1176.00 1472.88   Z"></path>
  <path fill="#036c10" d="   M 531.58 1469.72   A 0.92 0.91 42.1 0 0 531.65 1471.00   C 533.61 1472.81 536.77 1475.30 538.45 1477.78   C 543.04 1484.50 543.12 1493.35 539.89 1500.67   C 535.65 1510.29 524.40 1512.88 514.25 1512.88   Q 496.90 1512.89 481.36 1512.72   A 1.05 1.05 0.0 0 1 480.32 1511.67   L 480.32 1435.60   A 1.33 1.32 89.6 0 1 481.62 1434.27   Q 497.71 1433.92 514.17 1433.94   Q 524.02 1433.95 527.96 1435.48   C 536.25 1438.70 540.42 1446.85 539.57 1455.63   Q 539.11 1460.42 535.79 1464.77   Q 534.79 1466.08 531.58 1469.72   Z   M 517.5018 1453.0360   A 1.93 1.93 0.0 0 0 515.5684 1451.1093   L 503.3484 1451.1307   A 1.93 1.93 0.0 0 0 501.4218 1453.0640   L 501.4382 1462.4840   A 1.93 1.93 0.0 0 0 503.3716 1464.4107   L 515.5916 1464.3893   A 1.93 1.93 0.0 0 0 517.5182 1462.4560   L 517.5018 1453.0360   Z   M 501.50 1482.69   L 501.25 1492.13   A 3.37 3.37 0.0 0 0 504.53 1495.58   L 504.98 1495.59   A 16.98 7.70 1.5 0 0 522.16 1488.34   L 522.18 1487.56   A 16.98 7.70 1.5 0 0 505.40 1479.42   L 504.95 1479.41   A 3.37 3.37 0.0 0 0 501.50 1482.69   Z"></path>
  <path fill="#036c10" d="   M 569.37 1500.71   Q 568.17 1504.69 566.80 1508.82   Q 565.97 1511.33 563.24 1511.72   Q 561.35 1511.99 548.08 1511.66   Q 546.73 1511.62 546.10 1511.04   Q 545.13 1510.12 545.50 1508.74   Q 555.20 1472.71 568.67 1434.59   A 0.90 0.90 0.0 0 1 569.52 1433.98   L 590.05 1433.98   A 2.47 2.46 -8.6 0 1 592.41 1435.71   L 616.33 1511.50   A 1.05 1.05 0.0 0 1 615.25 1512.87   L 596.13 1511.57   Q 594.34 1511.45 593.78 1509.74   Q 592.48 1505.72 591.44 1503.12   Q 589.86 1499.16 585.23 1499.19   Q 581.68 1499.20 570.96 1499.49   A 1.72 1.71 7.3 0 0 569.37 1500.71   Z   M 573.56 1480.77   A 1.33 1.33 0.0 0 0 574.87 1482.41   L 585.48 1482.28   A 1.33 1.33 0.0 0 0 586.74 1480.60   L 581.19 1460.03   A 1.33 1.33 0.0 0 0 578.61 1460.06   L 573.56 1480.77   Z"></path>
  <path fill="#036c10" d="   M 720.59 1458.92   A 1.06 1.06 0.0 0 0 722.42 1459.26   Q 731.12 1448.72 739.84 1436.10   Q 741.30 1433.99 745.28 1433.98   Q 757.53 1433.95 765.49 1434.07   Q 766.77 1434.08 767.04 1434.26   Q 768.40 1435.14 767.40 1436.42   L 746.94 1462.47   A 2.76 2.74 -39.6 0 0 746.65 1465.42   Q 765.11 1501.88 768.92 1509.68   Q 769.28 1510.41 769.25 1510.75   A 1.43 0.97 1.3 0 1 767.87 1511.64   Q 756.59 1511.74 745.35 1511.62   C 743.80 1511.60 743.20 1510.79 742.70 1509.35   Q 737.97 1495.81 731.45 1482.94   A 1.34 1.34 0.0 0 0 729.28 1482.64   Q 719.55 1493.06 719.78 1508.05   Q 719.81 1510.21 719.74 1511.18   Q 719.71 1511.68 719.21 1511.68   L 699.85 1511.68   A 0.29 0.29 0.0 0 1 699.56 1511.39   L 699.56 1436.10   Q 699.56 1434.13 701.53 1434.13   L 719.45 1434.13   A 0.77 0.77 0.0 0 1 720.22 1434.90   Q 720.17 1452.35 720.42 1457.72   Q 720.46 1458.53 720.59 1458.92   Z"></path>
  <path fill="#036c10" d="   M 905.28 1452.22   L 905.13 1463.54   A 0.82 0.82 0.0 0 0 905.95 1464.37   L 929.54 1464.42   A 0.82 0.82 0.0 0 1 930.36 1465.22   L 930.60 1479.42   A 0.82 0.82 0.0 0 1 929.79 1480.25   L 905.91 1480.65   A 0.82 0.82 0.0 0 0 905.10 1481.47   L 905.20 1510.87   A 0.82 0.82 0.0 0 1 904.39 1511.69   L 885.20 1511.87   A 0.82 0.82 0.0 0 1 884.37 1511.05   L 884.37 1434.83   A 0.82 0.82 0.0 0 1 885.19 1434.01   L 933.61 1433.97   A 0.82 0.82 0.0 0 1 934.43 1434.76   L 934.95 1450.29   A 0.82 0.82 0.0 0 1 934.14 1451.14   L 906.09 1451.41   A 0.82 0.82 0.0 0 0 905.28 1452.22   Z"></path>
  <rect fill="#036c10" x="976.80" y="1434.12" width="20.72" height="77.56" rx="0.81"></rect>
</svg>
