<?xml version="1.0" encoding="UTF-8" standalone="no"?>
<svg xmlns="http://www.w3.org/2000/svg" version="1.1" viewBox="0.00 0.00 2000.00 1200.00">
  <g stroke-width="2.00" fill="none" stroke-linecap="butt">
    <path stroke="#77a22a" vector-effect="non-scaling-stroke" d="   M 1645.46 702.65   Q 1654.58 686.72 1661.34 669.58"></path>
    <path stroke="#77a22a" vector-effect="non-scaling-stroke" d="   M 1388.84 538.79   Q 1380.13 554.08 1373.41 570.84"></path>
  </g>
  <path fill="#000000" d="   M 428.72 538.82   Q 428.18 533.51 431.13 527.72   Q 446.24 498.00 468.34 473.59   Q 483.32 457.04 500.46 441.96   C 520.68 424.16 541.62 407.50 564.03 393.21   Q 604.90 367.15 647.24 341.98   Q 733.52 290.70 816.43 242.17   Q 885.88 201.52 948.63 161.88   Q 967.08 150.22 996.33 130.57   Q 1014.96 118.06 1033.76 103.76   Q 1053.13 89.04 1066.63 74.39   Q 1070.31 70.40 1077.94 63.98   A 0.24 0.24 0.0 0 1 1078.34 64.20   C 1075.28 84.48 1064.34 102.81 1049.11 116.36   Q 1037.94 126.29 1025.45 135.93   Q 989.23 163.89 948.58 191.05   Q 883.08 234.80 805.67 282.18   C 733.19 326.53 650.55 376.38 573.26 424.26   Q 554.47 435.91 537.60 446.97   Q 528.28 453.08 521.17 458.36   Q 493.55 478.88 468.40 502.90   Q 451.29 519.25 441.22 529.97   Q 436.13 535.39 429.16 539.06   A 0.30 0.30 0.0 0 1 428.72 538.82   Z"></path>
  <path fill="#095f3c" d="   M 1645.46 702.65   Q 1654.58 686.72 1661.34 669.58   C 1653.15 719.02 1630.49 767.00 1595.40 802.92   Q 1566.27 832.74 1528.47 850.20   Q 1507.07 860.09 1483.47 866.42   Q 1460.43 872.60 1432.98 875.38   Q 1370.47 881.70 1312.47 870.05   Q 1287.76 865.09 1263.27 855.08   Q 1196.01 827.59 1155.97 767.95   C 1136.48 738.91 1122.83 706.03 1114.39 671.15   Q 1104.01 628.24 1103.92 586.80   Q 1103.71 478.77 1103.92 215.28   Q 1103.93 204.94 1104.46 200.99   Q 1106.82 183.53 1124.05 180.86   Q 1129.36 180.04 1138.84 180.04   Q 1298.69 180.12 1579.59 180.07   Q 1589.17 180.06 1596.00 180.78   Q 1612.59 182.53 1625.87 192.19   Q 1632.89 197.30 1640.42 204.93   Q 1685.22 250.38 1736.14 301.71   Q 1737.76 303.34 1738.32 305.40   Q 1739.42 309.42 1735.34 310.83   Q 1731.60 312.13 1727.27 312.30   C 1714.09 312.82 1698.50 312.59 1685.92 312.60   Q 1524.78 312.69 1280.75 312.62   C 1273.27 312.62 1266.77 315.64 1263.98 322.98   C 1261.10 330.52 1260.72 338.12 1260.71 346.75   Q 1260.71 485.80 1260.68 610.75   Q 1260.68 623.75 1261.21 630.74   Q 1265.36 685.41 1296.39 730.87   Q 1321.09 767.05 1357.93 789.80   Q 1388.07 808.42 1424.15 815.22   Q 1433.97 817.08 1443.97 817.77   Q 1486.76 820.74 1526.86 809.07   Q 1562.75 798.62 1591.98 774.73   Q 1626.73 746.33 1645.46 702.65   Z"></path>
  <path fill="#000000" d="   M 954.12 427.51   Q 955.42 433.19 954.93 440.25   C 953.64 458.76 950.43 477.19 941.96 493.71   C 935.17 506.96 922.60 520.05 906.24 512.24   Q 898.99 508.78 894.95 501.27   Q 889.25 490.68 887.21 477.75   Q 885.54 467.12 884.99 458.74   Q 882.91 427.44 885.09 394.51   Q 886.43 374.34 888.46 350.00   C 889.40 338.64 891.98 326.77 897.32 316.72   C 902.03 307.85 904.86 300.66 908.92 289.48   Q 909.63 287.54 911.49 287.96   A 1.16 1.11 80.9 0 1 912.22 288.51   Q 913.11 290.11 912.88 292.52   Q 908.70 337.06 904.31 391.92   C 903.37 403.66 903.25 413.10 905.74 423.29   Q 907.47 430.40 911.98 438.18   C 916.56 446.08 925.61 448.34 934.27 446.47   C 940.08 445.21 943.55 442.59 946.46 437.28   C 949.08 432.50 950.05 430.12 953.28 427.25   A 0.51 0.51 0.0 0 1 954.12 427.51   Z"></path>
  <path fill="#000000" d="   M 812.24 395.32   Q 811.84 395.04 801.66 388.50   C 798.56 386.51 795.78 384.03 796.63 380.14   Q 797.79 374.88 799.99 369.98   Q 807.38 353.51 816.39 339.40   Q 816.85 338.67 820.53 334.03   C 823.05 330.86 830.39 333.51 833.35 334.93   Q 846.31 341.16 853.55 354.37   Q 859.20 364.67 854.45 375.77   Q 848.41 389.90 837.48 401.49   Q 835.27 403.83 831.44 405.71   A 2.43 2.42 -45.1 0 1 829.34 405.72   Q 822.52 402.47 812.24 395.32   Z"></path>
  <path fill="#095f3c" d="   M 1388.84 538.79   Q 1380.13 554.08 1373.41 570.84   Q 1379.73 533.88 1395.95 500.19   Q 1436.11 416.81 1522.21 383.19   C 1555.50 370.19 1593.25 363.75 1629.26 362.74   Q 1645.46 362.29 1663.13 362.91   C 1698.07 364.15 1732.71 370.30 1765.62 382.69   Q 1828.78 406.48 1869.02 458.38   Q 1894.67 491.47 1909.80 533.22   Q 1927.87 583.12 1930.64 638.53   Q 1931.08 647.22 1931.08 658.51   Q 1931.08 671.18 1931.10 1030.00   C 1931.10 1043.61 1927.80 1055.82 1912.65 1058.87   Q 1905.32 1060.34 1901.03 1060.34   Q 1576.58 1060.35 1456.28 1060.34   Q 1441.47 1060.33 1431.26 1057.98   C 1417.34 1054.78 1406.16 1046.84 1396.30 1036.87   Q 1319.79 959.46 1301.00 940.51   C 1299.09 938.59 1293.68 933.13 1297.49 930.48   Q 1299.75 928.91 1303.27 928.31   Q 1308.88 927.35 1316.04 927.35   Q 1720.86 927.45 1755.04 927.56   Q 1759.07 927.57 1762.83 925.90   C 1773.74 921.05 1774.20 905.14 1774.19 895.00   Q 1774.07 786.59 1774.21 629.00   Q 1774.22 615.72 1773.73 609.05   Q 1769.84 556.31 1740.19 511.66   Q 1717.03 476.78 1682.50 453.80   Q 1652.85 434.06 1616.51 426.02   Q 1606.44 423.80 1596.74 422.83   Q 1557.37 418.91 1518.65 428.17   C 1488.37 435.42 1460.64 449.32 1437.50 470.25   Q 1405.65 499.07 1388.84 538.79   Z"></path>
  <path fill="#000000" d="   M 754.84 546.45   A 0.43 0.42 -68.5 0 0 754.34 546.67   C 727.14 602.26 688.65 652.01 640.98 690.23   Q 595.72 726.52 541.70 749.93   C 470.83 780.63 394.28 794.27 317.26 797.52   Q 271.22 799.47 226.00 796.74   Q 193.05 794.76 160.27 788.71   Q 137.80 784.56 117.05 777.25   Q 99.33 771.01 86.66 761.23   Q 80.98 756.84 76.20 749.80   C 71.12 742.31 69.95 734.41 70.62 725.04   Q 71.32 715.17 72.93 706.00   C 73.70 701.62 75.77 695.61 81.40 696.64   Q 84.68 697.25 87.48 699.35   Q 107.34 714.26 131.41 722.09   C 155.73 730.00 180.92 735.11 207.09 737.90   Q 225.93 739.90 238.09 740.62   Q 269.18 742.44 297.59 743.83   Q 311.62 744.52 317.58 744.53   Q 347.21 744.58 385.98 739.38   Q 460.79 729.35 531.31 702.77   C 572.13 687.39 611.76 667.01 646.83 640.82   Q 666.73 625.95 684.58 607.84   C 716.26 575.70 739.54 536.80 750.84 493.26   C 753.69 482.29 756.04 468.42 758.33 457.82   C 759.93 450.43 767.33 423.32 777.22 422.79   C 780.57 422.61 782.64 425.93 782.81 428.97   C 783.11 433.98 781.45 437.11 779.10 443.33   Q 777.31 448.04 776.45 453.49   C 775.18 461.50 777.03 471.20 785.02 474.70   C 792.41 477.94 800.96 474.92 805.55 468.46   Q 807.13 466.24 808.31 461.78   C 809.65 456.68 810.91 448.44 816.57 448.37   C 820.39 448.33 824.13 453.54 825.54 456.78   C 830.49 468.15 828.41 480.57 826.04 492.05   C 821.84 512.47 810.95 534.10 791.55 543.57   Q 774.51 551.89 754.84 546.45   Z"></path>
  <path fill="#e4e418" d="   M 1661.34 669.58   Q 1654.58 686.72 1645.46 702.65   Q 1643.17 705.15 1641.22 707.82   Q 1637.51 712.85 1637.48 712.89   Q 1599.23 761.22 1537.95 770.33   Q 1503.45 775.46 1467.65 763.28   Q 1433.10 751.52 1407.05 723.98   Q 1380.88 696.32 1370.87 658.79   Q 1361.58 623.97 1369.45 588.06   Q 1371.36 579.33 1373.41 570.84   Q 1380.13 554.08 1388.84 538.79   Q 1400.26 522.63 1409.61 513.36   Q 1447.06 476.20 1499.06 469.51   Q 1532.97 465.15 1566.42 476.49   C 1638.44 500.90 1680.55 574.63 1666.37 649.10   Q 1664.96 656.50 1661.34 669.58   Z"></path>
  <path fill="#000000" d="   M 938.29 591.50   C 933.87 602.49 926.79 613.32 917.42 621.15   Q 915.73 622.56 913.38 622.45   Q 911.89 622.39 908.64 620.29   Q 893.70 610.63 889.44 608.13   C 886.74 606.54 882.17 603.32 880.53 600.39   Q 879.97 599.39 880.27 597.60   Q 881.27 591.58 881.97 590.02   Q 888.82 574.73 897.65 559.63   C 899.79 555.98 902.37 552.50 905.17 549.91   Q 905.81 549.32 907.02 549.34   Q 914.94 549.52 921.68 554.20   C 930.83 560.55 939.19 570.09 940.16 581.50   Q 940.53 585.94 938.29 591.50   Z"></path>
  <path fill="#000000" d="   M 811.76 729.45   Q 811.59 727.92 810.68 729.17   Q 803.40 739.14 794.95 747.94   Q 788.53 754.61 780.37 759.11   C 775.54 761.76 771.40 762.61 766.06 763.27   Q 761.88 763.79 759.52 765.98   Q 758.40 767.01 756.54 771.87   Q 745.82 799.86 734.71 818.98   Q 708.24 864.52 669.18 901.18   Q 646.77 922.21 624.98 937.97   Q 571.78 976.46 509.44 1002.44   Q 434.38 1033.72 354.23 1045.92   C 309.12 1052.78 261.66 1054.39 216.98 1049.12   Q 191.72 1046.14 166.31 1038.97   Q 143.81 1032.63 123.98 1022.69   Q 107.89 1014.63 93.68 1003.08   Q 75.54 988.32 69.13 964.41   Q 67.68 959.02 67.47 955.71   C 67.12 950.01 69.56 942.51 76.54 943.18   C 79.74 943.49 82.60 944.59 85.81 946.21   Q 116.87 961.86 150.13 972.10   Q 225.27 995.21 303.74 994.65   Q 312.72 994.59 323.74 994.07   Q 429.95 989.07 528.67 949.42   Q 581.63 928.15 627.41 894.43   Q 631.28 891.58 643.17 882.13   C 668.90 861.69 696.40 840.53 714.23 812.99   Q 729.23 789.84 733.77 781.75   C 738.46 773.38 742.88 764.72 744.31 755.46   C 745.03 750.79 744.15 746.73 743.18 740.90   Q 740.66 725.84 755.01 723.30   Q 759.52 722.51 767.42 723.41   Q 767.89 723.47 783.25 725.35   Q 785.01 725.57 788.24 725.12   C 795.16 724.17 802.10 719.55 806.56 714.52   Q 815.73 704.19 822.14 690.62   Q 825.21 684.12 834.79 663.30   Q 837.27 657.92 840.69 655.71   Q 844.21 653.44 846.43 657.55   Q 849.63 663.48 848.82 671.31   Q 848.43 675.08 846.64 688.52   Q 846.20 691.88 847.15 697.12   Q 848.49 704.52 854.76 704.47   C 864.71 704.38 870.64 691.09 873.70 683.35   C 875.26 679.41 876.70 677.31 881.18 678.11   C 887.69 679.26 892.32 685.70 894.94 691.83   Q 899.46 702.41 896.78 714.06   Q 895.08 721.40 892.86 726.65   Q 886.64 741.34 874.87 754.12   C 871.29 758.02 867.70 761.23 863.34 763.45   C 849.39 770.54 834.11 766.68 823.62 755.71   Q 813.46 745.09 811.76 729.45   Z"></path>
  <path fill="#000000" d="   M 1012.98 697.59   A 0.38 0.38 0.0 0 0 1013.60 697.55   Q 1021.81 684.20 1031.74 670.49   Q 1035.50 665.31 1037.55 663.88   Q 1037.96 663.60 1038.46 663.56   C 1043.17 663.20 1049.65 667.12 1053.50 670.06   C 1059.38 674.56 1065.03 680.13 1068.30 686.92   Q 1071.52 693.60 1069.30 700.84   C 1065.60 712.91 1057.13 724.08 1047.87 733.14   C 1045.85 735.12 1042.78 737.27 1039.72 737.01   Q 1038.15 736.88 1034.18 733.78   Q 1032.13 732.18 1020.53 722.42   Q 1015.21 717.94 1011.29 715.35   A 1.00 0.99 31.2 0 0 1009.87 715.69   C 1003.28 727.45 996.81 739.12 986.71 746.20   Q 981.83 749.62 976.53 745.40   Q 965.60 736.69 955.78 729.47   Q 954.38 728.45 950.13 724.11   A 0.75 0.75 0.0 0 1 949.98 723.29   Q 953.13 716.04 957.21 708.71   Q 964.04 696.47 972.30 683.55   Q 975.56 678.45 979.59 674.15   A 1.09 1.08 -60.0 0 1 980.69 673.85   Q 988.15 676.06 993.31 679.55   Q 1004.69 687.26 1012.98 697.59   Z"></path>
  <path fill="#000000" d="   M 985.18 925.11   A 0.41 0.40 -21.9 0 0 985.82 925.38   Q 1006.15 910.55 1020.70 890.96   Q 1024.45 885.91 1025.65 883.00   C 1028.32 876.55 1026.38 867.14 1018.25 866.30   Q 1014.37 865.90 1010.17 867.14   Q 1004.85 868.72 1000.52 869.75   C 994.46 871.19 989.13 870.56 983.58 867.08   C 978.63 863.99 971.70 858.09 972.38 851.58   Q 973.20 843.73 976.90 834.90   Q 985.73 813.80 996.37 797.12   Q 999.79 791.77 1004.41 786.43   Q 1007.49 782.87 1011.11 780.78   C 1016.54 777.65 1025.64 779.83 1030.59 782.52   C 1050.64 793.42 1056.35 818.45 1055.58 839.33   Q 1054.90 857.95 1049.42 873.70   C 1039.80 901.35 1021.14 925.70 999.70 945.70   C 993.29 951.67 988.45 955.65 984.31 961.75   Q 982.48 964.44 980.39 970.14   C 974.34 986.62 966.61 1002.50 955.49 1016.73   Q 950.25 1023.44 943.95 1028.27   Q 939.42 1031.75 929.83 1036.12   Q 904.88 1047.48 878.79 1052.36   Q 873.48 1053.35 870.69 1048.74   Q 870.42 1048.30 870.66 1047.84   Q 872.71 1044.04 875.61 1042.35   Q 908.06 1023.44 936.57 999.31   C 944.27 992.79 952.04 985.80 958.15 977.41   C 959.71 975.27 962.82 971.09 958.56 969.68   Q 957.97 969.49 956.51 970.08   Q 951.88 971.95 951.45 972.11   Q 940.20 976.15 929.85 972.99   Q 919.51 969.84 914.14 961.71   C 907.64 951.89 910.65 939.51 913.79 928.57   Q 914.54 925.99 918.06 916.67   Q 923.76 901.61 931.45 888.50   Q 932.82 886.15 937.49 881.24   C 944.93 873.40 956.92 876.67 964.72 882.16   Q 972.72 887.80 977.45 898.05   Q 983.13 910.36 985.18 925.11   Z"></path>
  <path fill="#000000" d="   M 817.25 1040.27   Q 822.37 1014.92 824.87 988.34   Q 827.39 961.51 834.29 883.59   Q 834.83 877.49 838.03 866.29   Q 840.98 855.97 846.67 842.68   Q 852.15 829.90 860.34 812.65   Q 862.08 808.97 865.01 807.81   A 0.65 0.65 0.0 0 1 865.90 808.48   C 864.96 817.04 862.98 825.68 861.87 834.55   C 857.77 867.43 854.68 900.90 850.01 948.04   Q 849.45 953.78 847.89 965.00   C 844.37 990.45 836.08 1016.03 821.59 1037.11   Q 820.30 1038.99 818.15 1040.80   Q 816.94 1041.81 817.25 1040.27   Z"></path>
  <path fill="#000000" d="   M 414.68 911.43   Q 411.87 915.01 407.75 918.25   C 406.56 919.19 404.60 920.30 402.69 919.49   Q 398.49 917.72 397.78 917.24   Q 390.89 912.56 376.73 903.49   C 373.55 901.46 369.78 898.74 370.35 894.87   Q 370.99 890.49 373.62 884.68   Q 382.04 866.03 390.58 853.35   Q 393.39 849.18 395.29 847.79   C 397.94 845.84 403.86 848.05 407.00 849.54   C 417.87 854.73 427.37 865.09 429.87 877.02   Q 430.42 879.63 429.87 882.67   C 427.97 893.10 421.84 902.32 414.68 911.43   Z"></path>
  <path fill="#000000" d="   M 720.93 1009.82   A 0.27 0.27 0.0 0 0 721.37 1009.80   Q 724.44 1005.00 732.13 992.89   Q 738.06 983.55 745.25 976.16   A 1.81 1.80 -64.6 0 1 746.75 975.62   C 753.39 976.37 758.23 979.56 763.71 984.09   C 770.36 989.57 776.68 996.50 777.96 1004.92   C 779.04 1012.05 774.57 1021.27 770.63 1027.39   Q 766.60 1033.63 759.57 1041.58   Q 756.03 1045.60 752.86 1047.85   Q 748.20 1051.16 743.70 1047.56   Q 733.08 1039.06 730.50 1036.76   Q 724.38 1031.30 718.92 1027.59   A 0.62 0.62 0.0 0 0 718.03 1027.81   Q 711.16 1040.41 703.48 1050.24   Q 697.42 1058.00 690.61 1060.66   Q 690.17 1060.83 689.74 1060.65   Q 686.42 1059.28 684.49 1057.82   Q 669.64 1046.56 657.99 1037.25   A 1.06 1.06 0.0 0 1 657.67 1036.03   Q 660.31 1029.28 664.47 1021.71   Q 669.45 1012.64 679.37 996.64   Q 683.19 990.48 687.13 986.72   A 2.02 2.01 -62.4 0 1 688.83 986.18   Q 693.47 986.86 699.34 990.56   Q 711.93 998.50 720.93 1009.82   Z"></path>
</svg>
