<?xml version="1.0" encoding="UTF-8" standalone="no"?>
<!DOCTYPE svg PUBLIC "-//W3C//DTD SVG 1.1//EN" "http://www.w3.org/Graphics/SVG/1.1/DTD/svg11.dtd">
<svg xmlns="http://www.w3.org/2000/svg" version="1.1" viewBox="0.00 0.00 1671.00 1254.00">
<path fill="#f06135" d="
  M 1238.37 923.13
  L 400.24 923.13
  A 0.70 0.70 0.0 0 1 399.54 922.43
  L 399.54 84.94
  A 0.70 0.70 0.0 0 1 400.24 84.24
  L 1238.36 84.24
  A 0.70 0.70 0.0 0 1 1239.06 84.94
  L 1239.07 922.43
  A 0.70 0.70 0.0 0 1 1238.37 923.13
  Z
  M 520.54 204.64
  A 0.55 0.55 0.0 0 0 519.99 205.19
  L 519.99 801.94
  A 0.55 0.55 0.0 0 0 520.54 802.49
  L 1118.16 802.49
  A 0.55 0.55 0.0 0 0 1118.71 801.94
  L 1118.72 205.18
  A 0.55 0.55 0.0 0 0 1118.17 204.63
  L 520.54 204.64
  Z"
/>
<path fill="#f06135" d="
  M 819.56 383.82
  L 1095.83 494.34
  A 0.62 0.62 0.0 0 1 1096.22 494.92
  L 1096.28 622.78
  A 0.62 0.62 0.0 0 1 1095.43 623.36
  L 819.56 513.11
  A 0.62 0.62 0.0 0 0 819.10 513.11
  L 543.21 623.34
  A 0.62 0.62 0.0 0 1 542.36 622.76
  L 542.41 494.92
  A 0.62 0.62 0.0 0 1 542.80 494.34
  L 819.10 383.82
  A 0.62 0.62 0.0 0 1 819.56 383.82
  Z"
/>
<path fill="#f06135" d="
  M 573.36 1111.71
  Q 573.23 1111.27 572.86 1110.90
  Q 551.61 1089.62 530.38 1068.35
  Q 530.01 1067.98 530.38 1067.61
  L 577.11 1020.83
  Q 577.69 1020.25 578.52 1020.25
  L 615.28 1020.25
  Q 616.01 1020.25 615.49 1020.77
  L 568.38 1067.87
  A 0.73 0.73 0.0 0 0 568.39 1068.90
  L 611.02 1111.55
  Q 611.44 1111.97 612.04 1111.96
  Q 621.75 1111.80 631.38 1111.93
  Q 634.25 1111.96 636.93 1110.31
  Q 638.44 1109.38 639.12 1107.50
  Q 640.23 1104.44 640.23 1101.75
  Q 640.23 1084.25 640.23 1066.61
  A 0.52 0.52 0.0 0 1 640.75 1066.09
  L 666.52 1066.11
  Q 667.00 1066.11 667.00 1066.59
  Q 666.96 1087.53 666.98 1108.47
  C 666.99 1111.24 669.21 1112.50 671.43 1113.49
  C 673.80 1114.54 677.21 1113.91 679.75 1113.69
  Q 682.57 1113.46 682.56 1110.63
  L 682.50 1067.05
  Q 682.50 1066.10 683.45 1066.10
  L 708.79 1066.10
  A 0.81 0.80 -83.9 0 1 709.57 1067.08
  Q 709.40 1067.83 709.39 1068.57
  Q 709.30 1087.18 709.36 1106.77
  Q 709.37 1110.62 711.85 1112.40
  Q 713.60 1113.66 716.86 1113.78
  Q 719.23 1113.86 722.27 1113.68
  Q 725.03 1113.52 725.05 1110.84
  Q 725.16 1088.44 725.08 1066.38
  A 0.27 0.27 0.0 0 1 725.35 1066.11
  L 751.52 1066.10
  A 0.33 0.32 90.0 0 1 751.84 1066.43
  Q 751.78 1086.50 751.79 1106.88
  C 751.79 1108.43 752.39 1109.83 752.89 1111.29
  A 3.54 3.54 0.0 0 0 756.02 1113.69
  C 757.91 1113.80 759.22 1114.61 761.20 1114.60
  Q 770.79 1114.57 779.06 1114.61
  Q 781.62 1114.62 784.57 1112.77
  A 1.37 1.33 -9.8 0 0 785.15 1111.97
  Q 785.61 1110.12 786.07 1108.13
  Q 786.43 1106.56 786.39 1104.81
  Q 786.19 1096.43 786.38 1087.87
  Q 786.47 1084.24 787.90 1080.77
  Q 791.77 1071.43 802.01 1067.46
  Q 805.71 1066.03 809.72 1066.07
  Q 822.24 1066.19 835.50 1065.98
  Q 841.07 1065.90 845.25 1067.41
  Q 856.21 1071.38 860.08 1082.18
  Q 861.00 1084.74 861.09 1087.11
  C 861.18 1089.71 861.79 1092.20 861.74 1094.90
  Q 861.55 1105.28 861.63 1115.20
  Q 861.64 1116.76 861.28 1118.31
  Q 860.97 1119.64 860.90 1121.06
  C 860.65 1125.52 858.43 1130.10 855.15 1133.61
  Q 847.86 1141.45 836.15 1141.38
  Q 825.24 1141.32 813.27 1141.44
  C 805.31 1141.52 799.16 1140.09 793.39 1134.61
  A 1.63 1.63 0.0 0 0 791.16 1134.60
  Q 784.10 1141.14 773.45 1141.34
  Q 764.87 1141.50 758.33 1141.28
  Q 752.32 1141.08 744.07 1137.24
  Q 741.94 1136.24 739.19 1133.55
  Q 738.71 1133.08 738.17 1133.46
  C 733.29 1136.92 728.89 1139.56 722.80 1140.80
  C 713.73 1142.67 703.72 1138.91 696.42 1133.45
  Q 696.06 1133.18 695.69 1133.44
  C 681.63 1143.45 666.82 1144.29 652.86 1133.66
  Q 652.35 1133.28 651.85 1133.66
  Q 648.75 1136.00 644.77 1137.60
  Q 641.91 1138.75 638.64 1138.74
  Q 580.70 1138.72 523.17 1138.72
  C 519.57 1138.72 516.33 1137.59 512.89 1136.76
  Q 512.26 1136.61 512.05 1137.22
  Q 510.70 1141.31 508.55 1145.74
  C 503.32 1156.54 493.16 1166.37 481.15 1169.45
  C 478.01 1170.26 474.87 1171.07 471.56 1171.07
  Q 455.73 1171.06 441.04 1170.99
  Q 436.28 1170.97 430.25 1168.96
  Q 425.32 1167.32 421.04 1164.42
  Q 406.33 1154.46 401.61 1137.06
  Q 400.24 1131.99 400.26 1125.70
  Q 400.34 1096.94 400.29 1066.79
  Q 400.29 1066.11 400.97 1066.11
  L 426.26 1066.09
  Q 427.10 1066.09 427.10 1066.93
  Q 427.03 1097.06 427.05 1128.03
  C 427.06 1134.77 431.20 1138.92 436.61 1142.02
  C 438.64 1143.19 440.85 1143.35 443.10 1143.92
  Q 444.22 1144.21 445.36 1144.22
  Q 457.04 1144.33 467.59 1144.18
  Q 470.54 1144.14 473.61 1143.12
  Q 483.35 1139.87 485.84 1131.88
  Q 486.78 1128.86 486.66 1118.35
  Q 486.36 1091.13 486.55 1066.54
  Q 486.55 1066.11 486.98 1066.11
  L 512.55 1066.09
  Q 513.36 1066.09 513.36 1066.91
  Q 513.25 1083.80 513.34 1102.72
  Q 513.38 1110.47 520.58 1110.99
  C 521.74 1111.07 522.38 1111.91 523.43 1111.90
  Q 548.24 1111.81 573.18 1111.96
  A 0.19 0.19 0.0 0 0 573.36 1111.71
  Z
  M 836.4640 1094.4955
  A 7.18 7.18 0.0 0 0 829.2590 1087.3406
  L 818.1191 1087.3795
  A 7.18 7.18 0.0 0 0 810.9642 1094.5846
  L 811.0160 1109.4245
  A 7.18 7.18 0.0 0 0 818.2210 1116.5794
  L 829.3609 1116.5405
  A 7.18 7.18 0.0 0 0 836.5158 1109.3354
  L 836.4640 1094.4955
  Z"
/>
<path fill="#f06135" d="
  M 1028.06 1111.68
  A 0.34 0.33 -43.3 0 0 1028.08 1111.19
  L 984.91 1068.06
  Q 984.31 1067.46 985.05 1067.04
  C 985.80 1066.62 986.53 1066.33 987.14 1065.72
  Q 1009.15 1043.72 1031.86 1021.00
  Q 1032.62 1020.24 1033.69 1020.24
  L 1069.55 1020.24
  A 0.24 0.24 0.0 0 1 1069.72 1020.64
  L 1022.56 1067.78
  A 0.31 0.30 44.3 0 0 1022.57 1068.22
  L 1065.91 1111.60
  A 1.09 1.05 -21.8 0 0 1066.67 1111.91
  Q 1080.31 1111.86 1092.56 1111.87
  Q 1097.44 1111.88 1099.41 1107.89
  Q 1100.39 1105.91 1100.43 1100.96
  Q 1100.56 1083.98 1100.40 1066.66
  A 0.57 0.57 0.0 0 1 1100.97 1066.09
  L 1127.27 1066.09
  A 0.55 0.54 -90.0 0 1 1127.81 1066.64
  Q 1127.74 1085.25 1127.82 1104.84
  C 1127.83 1108.34 1127.25 1111.67 1126.80 1115.16
  Q 1126.53 1117.21 1125.93 1118.92
  Q 1120.87 1133.25 1107.71 1137.44
  Q 1103.47 1138.79 1097.35 1138.78
  Q 1007.70 1138.67 913.17 1138.75
  Q 908.88 1138.75 903.85 1136.92
  Q 900.32 1135.63 897.73 1133.59
  Q 890.26 1127.70 887.17 1118.77
  Q 885.34 1113.47 885.43 1105.32
  Q 885.59 1091.39 885.43 1078.85
  Q 885.43 1078.25 886.03 1078.25
  L 911.30 1078.23
  Q 912.23 1078.23 912.23 1079.16
  Q 912.24 1091.76 912.25 1105.43
  Q 912.25 1108.15 913.73 1110.81
  Q 913.97 1111.24 914.44 1111.36
  C 915.25 1111.56 915.99 1111.88 916.85 1111.88
  Q 972.21 1111.86 1027.43 1111.91
  Q 1027.79 1111.91 1028.06 1111.68
  Z"
/>
<path fill="#f06135" d="
  M 1160.40 1130.91
  C 1155.94 1127.06 1153.09 1121.27 1152.32 1115.40
  Q 1151.63 1110.17 1151.61 1104.25
  Q 1151.44 1059.99 1151.55 1020.75
  Q 1151.55 1020.25 1152.05 1020.25
  L 1177.72 1020.24
  Q 1178.29 1020.24 1178.29 1020.81
  Q 1178.21 1060.45 1178.33 1099.92
  C 1178.33 1101.79 1179.10 1103.30 1179.04 1105.19
  C 1178.98 1107.12 1180.20 1109.45 1181.94 1110.23
  C 1187.57 1112.74 1194.45 1111.82 1200.54 1111.92
  Q 1202.38 1111.95 1204.13 1111.46
  C 1205.61 1111.05 1207.77 1111.20 1208.91 1110.15
  Q 1211.55 1107.72 1211.55 1103.98
  Q 1211.54 1086.97 1211.55 1066.81
  Q 1211.55 1066.11 1212.25 1066.11
  L 1238.53 1066.08
  A 0.46 0.46 0.0 0 1 1238.99 1066.54
  Q 1238.87 1085.20 1238.97 1102.30
  Q 1238.99 1105.23 1238.57 1108.07
  C 1238.20 1110.53 1238.43 1112.88 1237.69 1115.27
  Q 1232.45 1132.37 1216.51 1137.42
  Q 1211.77 1138.93 1206.54 1138.81
  Q 1196.66 1138.59 1186.87 1138.82
  Q 1178.91 1139.00 1173.46 1137.59
  Q 1165.90 1135.65 1160.40 1130.91
  Z"
/>
<rect fill="#f06135" x="-12.72" y="-13.09" transform="translate(456.89,1055.53) rotate(-0.1)" width="25.44" height="26.18" rx="0.67"/>
<rect fill="#f06135" x="1064.08" y="1042.49" width="25.38" height="26.14" rx="0.72"/>
<rect fill="#f06135" x="-12.69" y="-12.70" transform="translate(1195.35,1158.34) rotate(-0.2)" width="25.38" height="25.40" rx="0.27"/>
</svg>
