<?xml version="1.0" encoding="UTF-8" standalone="no"?>
<svg xmlns="http://www.w3.org/2000/svg" version="1.1" viewBox="0.00 0.00 750.00 750.00">
  <path stroke="#657a8a" stroke-width="2.00" fill="none" stroke-linecap="butt" vector-effect="non-scaling-stroke" d="   M 458.26 247.36   L 458.81 183.38   A 1.07 1.07 0.0 0 0 457.80 182.30   C 439.98 181.38 421.84 181.22 404.27 182.96   Q 313.39 191.95 237.64 243.67"></path>
  <path fill="#224d6d" d="   M 458.26 247.36   L 458.81 183.38   A 1.07 1.07 0.0 0 0 457.80 182.30   C 439.98 181.38 421.84 181.22 404.27 182.96   Q 313.39 191.95 237.64 243.67   L 236.40 169.76   A 0.69 0.68 89.6 0 1 237.08 169.06   Q 271.65 168.66 305.76 164.80   C 362.02 158.44 418.24 142.72 462.93 106.62   Q 492.39 82.81 515.32 50.05   Q 527.09 33.22 538.53 13.00   Q 538.80 12.52 538.90 12.43   Q 539.66 11.72 539.44 12.72   Q 539.14 14.12 539.06 15.75   Q 538.45 27.62 538.40 39.50   Q 538.38 43.76 538.62 125.50   Q 538.69 148.16 538.37 162.21   A 4.17 4.12 -29.3 0 1 537.80 164.19   Q 524.52 186.62 506.67 205.66   Q 484.75 229.04 458.26 247.36   Z"></path>
  <path fill="#a7a7a7" d="   M 458.26 247.36   L 458.25 324.03   Q 458.25 324.53 457.75 324.56   Q 436.58 325.59 428.64 326.13   C 371.35 330.08 313.15 341.09 261.81 367.79   C 227.51 385.63 197.53 410.91 174.87 442.11   Q 160.97 461.25 150.14 482.73   A 0.19 0.19 0.0 0 1 149.79 482.63   Q 156.00 407.09 159.73 331.78   C 159.91 328.19 159.92 324.77 161.88 321.62   Q 162.50 320.64 166.31 315.03   Q 193.65 274.82 235.18 245.82   Q 235.69 245.47 236.37 244.74   Q 236.96 244.10 237.64 243.67   Q 313.39 191.95 404.27 182.96   C 421.84 181.22 439.98 181.38 457.80 182.30   A 1.07 1.07 0.0 0 1 458.81 183.38   L 458.26 247.36   Z"></path>
  <ellipse fill="#224d6d" cx="0.00" cy="0.00" transform="translate(375.65,415.83) rotate(-0.8)" rx="67.68" ry="67.45"></ellipse>
  <path fill="#224d6d" d="   M 573.68 635.10   Q 573.21 635.16 572.75 635.77   Q 571.87 636.94 567.10 643.63   Q 563.56 648.58 561.22 651.29   Q 544.69 670.40 518.25 679.21   Q 485.17 690.24 450.73 687.67   Q 446.35 687.34 442.79 686.48   C 436.50 684.95 430.88 682.69 428.92 676.26   Q 427.50 671.64 427.68 666.06   Q 427.96 656.87 429.29 649.08   Q 429.72 646.56 430.68 645.01   Q 431.97 642.91 432.37 645.34   C 432.90 648.58 433.21 651.87 434.56 654.21   Q 437.13 658.70 442.32 660.48   C 449.94 663.11 458.11 663.63 466.07 663.72   C 484.57 663.92 502.87 662.14 520.61 657.37   Q 530.95 654.60 539.36 650.57   Q 551.52 644.74 558.34 639.34   C 569.98 630.11 574.85 618.71 578.02 604.51   Q 579.50 597.90 581.24 593.82   Q 585.78 583.20 588.70 578.20   Q 592.32 572.00 593.77 568.28   Q 596.12 562.22 602.44 555.94   Q 607.21 551.18 615.54 544.29   Q 616.18 543.76 651.20 515.52   C 657.88 510.14 664.36 504.52 669.13 500.12   Q 687.68 483.00 708.39 462.18   Q 710.05 460.51 709.42 462.78   Q 708.97 464.41 707.67 467.20   Q 702.70 477.91 694.71 487.47   C 689.30 493.95 683.56 500.17 676.81 506.21   Q 650.33 529.90 635.71 540.95   Q 618.58 553.89 592.16 574.67   Q 591.76 574.98 591.67 575.47   Q 588.76 591.01 587.29 597.78   Q 582.20 621.19 581.92 644.04   C 581.83 651.77 583.99 659.16 592.54 660.34   C 596.18 660.84 597.86 658.50 599.35 655.10   Q 600.18 653.22 601.48 648.26   Q 601.71 647.36 602.62 647.54   Q 602.77 647.57 602.89 647.59   Q 604.14 647.80 604.00 649.05   Q 602.81 659.80 598.84 669.86   C 596.80 675.03 592.86 682.91 587.38 684.32   Q 582.08 685.68 577.59 681.54   Q 574.97 679.12 573.56 673.28   C 570.69 661.39 572.52 648.49 574.24 635.67   A 0.50 0.50 0.0 0 0 573.68 635.10   Z"></path>
  <path fill="#224d6d" d="   M 589.01 512.11   C 592.69 514.42 599.20 519.11 600.47 523.46   C 602.52 530.54 597.17 539.28 592.03 543.67   C 590.70 544.81 589.79 544.63 588.51 543.65   Q 582.33 538.91 578.24 535.12   A 1.79 1.79 0.0 0 1 577.81 533.10   Q 582.68 521.71 588.42 512.25   A 0.42 0.42 0.0 0 1 589.01 512.11   Z"></path>
  <path fill="#224d6d" d="   M 173.13 662.80   Q 171.68 663.55 170.93 664.96   Q 164.14 677.72 158.29 687.54   C 154.07 694.62 146.68 703.37 138.08 702.06   C 131.97 701.14 137.00 694.01 139.15 691.53   Q 140.19 690.34 143.88 686.97   Q 154.89 676.93 162.52 663.29   Q 168.72 652.22 171.39 646.91   Q 172.60 644.49 176.14 641.15   Q 180.49 637.03 187.10 638.49   Q 189.09 638.93 203.60 642.36   Q 215.63 645.20 226.76 645.99   Q 242.48 647.10 262.27 646.48   Q 268.72 646.28 282.23 645.19   C 323.78 641.85 364.09 630.89 401.33 612.54   C 428.18 599.30 454.81 582.11 479.88 566.38   Q 489.80 560.15 503.90 553.12   Q 510.08 550.04 515.81 548.55   A 0.74 0.74 0.0 0 1 516.70 549.52   Q 513.33 558.79 506.39 565.89   C 505.06 567.25 502.37 568.60 500.31 569.28   Q 490.19 572.60 483.45 577.19   C 471.28 585.47 455.08 596.08 440.81 606.25   Q 427.21 615.94 415.08 622.58   Q 382.60 640.34 357.49 650.28   Q 331.93 660.39 300.47 666.20   Q 275.03 670.89 242.87 671.63   Q 222.58 672.10 200.35 668.87   Q 185.41 666.70 174.10 662.73   Q 173.60 662.55 173.13 662.80   Z"></path>
  <path fill="#224d6d" d="   M 131.47 647.05   A 2.15 2.13 -80.8 0 0 133.38 645.66   L 137.24 635.30   A 1.17 1.17 0.0 0 1 138.70 634.60   Q 144.54 636.53 144.79 643.00   Q 145.18 653.43 139.63 662.88   C 132.82 674.47 120.03 674.75 113.62 662.76   C 109.91 655.83 110.85 646.12 111.76 638.29   Q 114.78 612.17 117.92 590.20   Q 118.33 587.30 118.94 585.67   Q 121.88 577.74 128.37 564.17   Q 128.60 563.70 129.13 563.68   Q 129.27 563.67 129.39 563.71   Q 129.83 563.85 129.76 564.30   Q 125.62 591.18 123.49 607.00   Q 121.91 618.72 121.58 629.50   Q 121.45 633.76 122.64 638.42   Q 123.99 643.73 129.07 646.40   Q 130.39 647.10 131.47 647.05   Z"></path>
  <path fill="#224d6d" d="   M 645.63 660.13   C 649.99 661.04 651.73 659.38 653.37 655.35   Q 654.43 652.78 655.68 648.32   A 1.17 1.15 30.2 0 1 657.61 647.83   L 657.85 648.07   Q 658.25 648.46 658.18 649.05   Q 656.40 664.83 649.36 677.13   C 647.44 680.47 644.43 684.16 640.26 684.47   C 624.97 685.63 625.77 661.99 626.89 651.93   Q 630.71 617.53 632.21 607.17   Q 632.89 602.40 634.54 598.02   Q 636.73 592.17 641.49 581.23   Q 641.93 580.23 642.22 579.98   Q 643.67 578.71 643.39 580.61   Q 640.70 598.91 637.55 622.54   Q 635.76 635.99 636.26 647.30   C 636.52 653.34 639.11 658.75 645.63 660.13   Z"></path>
  <path fill="#224d6d" d="   M 50.39 672.42   Q 46.92 674.34 42.59 678.03   Q 42.27 678.29 41.86 678.41   Q 41.45 678.52 41.25 678.57   A 1.11 1.11 0.0 0 1 39.86 677.47   C 39.98 673.72 43.17 668.97 45.43 666.09   Q 47.69 663.21 50.55 659.90   Q 56.83 652.63 65.19 648.92   C 67.52 647.88 70.00 647.39 72.94 648.00   C 79.14 649.27 84.66 648.71 88.94 643.69   Q 89.58 642.94 94.42 637.02   A 1.09 1.08 -30.5 0 1 96.33 637.51   Q 96.75 639.82 96.01 641.82   Q 92.22 652.01 86.98 659.95   Q 82.13 667.31 73.85 670.47   C 66.04 673.45 58.37 667.99 50.39 672.42   Z"></path>
  <path fill="#224d6d" d="   M 91.44 705.72   C 98.09 710.31 104.45 714.73 102.24 723.03   Q 99.90 731.82 92.93 737.17   C 91.83 738.01 90.51 738.02 89.35 737.19   Q 83.69 733.15 78.82 728.79   C 77.74 727.81 77.45 726.90 78.09 725.43   Q 82.74 714.66 89.09 705.12   A 0.81 0.80 -57.0 0 1 90.20 704.88   Q 90.50 705.08 91.44 705.72   Z"></path>
  <path fill="#224d6d" d="   M 638.75 732.78   Q 636.54 731.05 633.70 728.18   A 1.85 1.83 -56.8 0 1 633.30 726.20   Q 637.84 714.95 643.76 705.63   Q 644.15 705.02 644.76 705.42   C 648.69 707.99 655.02 712.73 656.16 717.17   Q 656.96 720.29 655.55 724.55   Q 653.09 732.06 647.11 737.08   Q 645.81 738.18 644.27 737.00   Q 639.63 733.47 638.75 732.78   Z"></path>
  <path fill="#224d6d" d="   M 64.17 706.46   Q 70.08 709.97 74.20 714.55   Q 77.80 718.54 76.38 723.93   Q 73.94 733.14 66.56 738.97   A 2.14 2.14 0.0 0 1 64.02 739.05   Q 57.17 734.28 51.95 729.50   A 1.50 1.49 -57.3 0 1 51.59 727.82   Q 56.39 716.57 62.96 706.74   Q 63.44 706.02 64.17 706.46   Z"></path>
</svg>
