<?xml version="1.0" encoding="UTF-8" standalone="no"?>
<!DOCTYPE svg PUBLIC "-//W3C//DTD SVG 1.1//EN" "http://www.w3.org/Graphics/SVG/1.1/DTD/svg11.dtd">
<svg xmlns="http://www.w3.org/2000/svg" version="1.1" viewBox="0.00 0.00 1024.00 935.00">
<path fill="#2f428d" d="
  M 669.09 346.89
  L 770.63 147.08
  Q 770.93 146.48 771.30 147.04
  Q 780.26 160.41 787.82 174.70
  Q 788.09 175.22 787.80 175.73
  L 662.44 392.02
  A 0.91 0.91 0.0 0 0 662.53 393.06
  Q 665.78 396.91 670.05 399.93
  Q 670.60 400.31 670.95 399.76
  L 798.92 199.37
  Q 799.21 198.90 799.43 199.42
  Q 805.50 213.94 810.21 229.84
  Q 810.39 230.45 810.02 230.97
  L 683.27 407.27
  Q 682.97 407.70 682.96 408.22
  Q 682.90 414.68 683.61 421.62
  Q 683.79 423.44 684.92 422.00
  L 815.71 254.46
  Q 816.22 253.81 816.38 254.62
  Q 819.51 270.32 821.10 286.51
  Q 821.15 287.04 820.80 287.44
  Q 758.24 359.10 695.35 431.09
  Q 694.03 432.60 693.35 434.29
  C 692.34 436.79 689.77 437.47 688.05 439.44
  Q 677.55 451.48 667.21 463.33
  A 3.06 3.03 66.2 0 0 666.45 465.32
  Q 666.37 470.34 665.12 475.06
  Q 664.98 475.57 665.40 475.88
  Q 666.37 476.60 667.20 475.72
  Q 744.51 394.22 821.89 312.63
  Q 822.38 312.12 822.39 312.82
  Q 822.52 328.53 820.88 345.18
  Q 820.83 345.74 820.42 346.12
  L 682.01 476.82
  Q 681.47 477.33 682.21 477.32
  C 685.87 477.25 687.73 480.24 687.32 483.79
  Q 687.23 484.64 687.87 484.08
  L 816.16 373.36
  Q 816.83 372.78 816.66 373.65
  Q 813.48 389.59 808.62 405.08
  Q 808.48 405.55 808.09 405.85
  L 613.51 555.94
  Q 612.73 556.54 613.71 556.49
  C 615.93 556.37 618.98 557.04 620.90 555.68
  Q 710.72 491.80 799.66 428.53
  Q 800.41 428.00 800.06 428.85
  Q 793.74 444.12 785.97 458.38
  A 2.15 2.14 88.4 0 1 785.22 459.18
  L 631.78 556.07
  Q 631.20 556.44 631.89 556.43
  Q 634.98 556.42 638.25 556.51
  Q 640.07 556.56 642.14 555.36
  Q 707.50 517.49 772.75 479.67
  Q 773.51 479.23 773.02 479.97
  Q 751.36 512.93 721.50 539.65
  Q 721.04 540.06 721.54 540.42
  L 742.60 555.63
  A 1.07 1.06 18.2 0 1 743.04 556.49
  L 743.04 619.58
  Q 743.04 620.21 742.42 620.21
  L 306.76 620.15
  Q 306.13 620.15 306.13 619.51
  L 306.13 558.49
  A 0.97 0.97 0.0 0 1 306.51 557.72
  L 324.63 543.68
  Q 325.13 543.29 324.65 542.87
  Q 294.97 517.23 272.78 484.88
  Q 272.20 484.03 273.12 484.51
  Q 340.40 520.01 408.66 556.03
  Q 410.61 557.06 412.55 557.00
  Q 416.03 556.88 419.32 556.91
  Q 420.45 556.92 419.47 556.36
  Q 340.86 511.05 261.42 465.30
  Q 259.88 464.41 259.01 462.86
  Q 251.23 449.05 244.93 434.57
  Q 244.61 433.86 245.27 434.28
  L 432.88 556.68
  Q 433.30 556.95 433.80 556.94
  L 440.23 556.87
  Q 441.00 556.86 440.37 556.41
  L 236.49 411.77
  Q 235.98 411.41 235.78 410.82
  Q 230.61 395.51 227.06 379.47
  Q 226.89 378.69 227.51 379.19
  Q 336.65 466.10 449.74 556.11
  C 451.32 557.37 454.17 556.82 456.04 556.88
  Q 457.15 556.91 456.31 556.19
  L 223.00 354.23
  Q 222.58 353.86 222.51 353.30
  Q 220.46 336.38 220.15 320.99
  Q 220.13 320.20 220.70 320.75
  L 464.23 556.35
  Q 464.72 556.82 465.40 556.82
  L 469.48 556.82
  Q 470.18 556.82 469.70 556.31
  L 221.30 294.18
  A 1.56 1.52 26.1 0 1 220.88 293.01
  Q 222.03 277.06 224.93 260.89
  Q 225.06 260.20 225.51 260.73
  L 476.22 556.48
  A 0.94 0.93 69.7 0 0 476.93 556.81
  L 479.32 556.82
  Q 479.92 556.82 479.54 556.36
  L 229.67 241.51
  A 1.31 1.30 32.9 0 1 229.42 240.37
  Q 233.49 224.42 239.14 209.38
  A 0.28 0.28 0.0 0 1 239.63 209.32
  L 485.08 556.37
  A 1.07 1.04 71.8 0 0 485.94 556.82
  L 489.29 556.82
  A 0.24 0.24 0.0 0 0 489.49 556.45
  L 251.00 183.20
  Q 250.65 182.65 250.94 182.05
  Q 258.01 167.71 266.72 153.98
  Q 267.09 153.40 267.43 154.00
  L 399.06 387.52
  Q 399.46 388.23 399.91 387.55
  Q 402.09 384.27 406.47 382.59
  A 0.45 0.44 -16.8 0 0 406.75 382.08
  Q 405.92 378.08 404.28 374.80
  C 401.64 369.51 399.75 363.94 397.06 358.66
  Q 386.72 338.39 376.17 317.64
  Q 375.92 317.14 375.44 316.85
  C 372.72 315.25 369.66 313.66 367.79 311.11
  C 365.23 307.62 362.95 303.44 363.19 298.85
  Q 363.22 298.32 362.99 297.84
  C 361.96 295.74 360.93 293.52 358.95 292.09
  Q 357.00 290.68 356.13 288.62
  C 353.77 283.02 350.85 276.85 351.05 270.37
  Q 351.12 268.42 349.94 266.11
  Q 316.07 199.61 282.11 132.91
  Q 281.81 132.32 282.21 131.80
  Q 292.03 119.01 303.27 107.15
  Q 303.60 106.80 303.79 107.23
  L 323.54 151.98
  Q 323.87 152.72 324.09 151.94
  Q 324.86 149.19 324.95 146.25
  C 325.18 139.36 333.92 138.37 338.82 137.70
  Q 339.45 137.62 339.22 137.03
  L 320.95 90.81
  Q 320.74 90.30 321.15 89.94
  Q 333.27 79.16 346.37 69.78
  Q 346.89 69.41 347.09 70.01
  L 375.79 156.26
  Q 375.98 156.82 376.55 156.65
  Q 379.10 155.87 380.81 153.71
  Q 386.34 146.78 393.07 141.20
  A 0.46 0.46 0.0 0 0 393.21 140.73
  L 368.94 55.78
  Q 368.79 55.27 369.25 55.00
  Q 382.95 46.90 398.06 40.11
  Q 398.54 39.90 398.65 40.41
  Q 409.13 86.77 420.40 136.25
  Q 420.87 138.33 422.02 139.99
  C 424.04 142.90 425.99 146.15 426.04 149.76
  C 426.07 151.95 427.16 153.66 427.39 155.72
  C 428.11 162.28 423.72 162.42 419.06 163.83
  A 0.93 0.93 0.0 0 0 418.41 164.54
  C 417.23 170.41 420.19 175.67 420.58 181.40
  Q 420.98 187.23 422.64 193.10
  Q 423.02 194.43 424.38 194.81
  C 431.33 196.75 437.45 198.66 443.84 202.82
  Q 452.65 208.56 462.67 213.80
  C 468.69 216.94 476.43 215.73 482.84 216.65
  C 490.44 217.74 496.91 211.29 504.51 213.23
  Q 506.75 213.80 509.05 214.87
  A 1.38 1.38 0.0 0 0 510.23 214.87
  L 514.60 212.85
  Q 514.99 212.67 515.03 212.23
  Q 515.25 209.49 514.74 207.28
  Q 514.25 205.17 514.14 203.22
  Q 514.03 201.04 513.15 199.07
  C 510.01 191.93 508.14 185.78 508.51 177.54
  C 508.71 172.92 510.82 168.99 512.16 164.73
  Q 512.56 163.47 511.39 164.10
  C 506.12 166.94 502.41 164.92 500.76 159.67
  Q 499.12 154.47 496.62 149.42
  Q 494.58 145.30 496.94 141.79
  A 0.40 0.40 0.0 0 0 496.83 141.23
  Q 494.98 140.05 494.89 138.12
  Q 494.87 137.55 494.30 137.55
  L 487.21 137.55
  Q 486.63 137.55 486.58 136.96
  L 475.79 17.53
  Q 475.76 17.20 476.09 17.15
  Q 492.65 14.70 508.58 14.07
  Q 509.08 14.05 509.10 14.55
  L 514.09 157.75
  Q 514.10 158.29 514.50 158.66
  C 520.65 164.58 514.52 169.13 514.71 175.60
  Q 514.90 182.46 515.18 188.14
  Q 515.35 191.58 517.57 196.63
  Q 517.80 197.16 518.34 196.95
  C 523.38 194.98 528.39 190.35 532.20 186.57
  Q 532.73 186.04 532.74 185.28
  L 533.72 14.53
  Q 533.73 14.05 534.21 14.07
  Q 551.12 14.83 566.71 17.18
  Q 567.04 17.23 567.02 17.56
  L 557.28 176.97
  Q 557.18 178.59 558.76 178.20
  L 574.26 174.33
  Q 574.74 174.21 574.79 173.71
  L 589.92 22.26
  Q 589.98 21.68 590.55 21.82
  Q 606.28 25.55 621.87 30.99
  A 0.27 0.27 0.0 0 1 622.05 31.28
  L 597.14 190.99
  A 0.35 0.35 0.0 0 0 597.49 191.40
  L 612.41 191.36
  Q 612.95 191.36 613.05 190.83
  L 642.20 39.78
  Q 642.33 39.10 642.96 39.38
  Q 657.87 46.04 671.83 54.10
  A 0.55 0.54 -68.4 0 1 672.08 54.69
  L 634.69 203.70
  Q 634.59 204.12 634.94 204.36
  C 639.04 207.18 643.60 210.97 648.50 211.97
  Q 649.05 212.08 649.21 211.54
  L 691.31 66.97
  A 0.36 0.36 0.0 0 1 691.85 66.78
  Q 704.92 75.73 717.56 86.56
  A 0.75 0.75 0.0 0 1 717.78 87.39
  Q 682.63 187.26 647.35 287.43
  Q 646.50 289.84 646.60 292.42
  C 646.97 301.61 648.27 311.16 649.00 319.84
  Q 649.11 321.13 649.59 319.92
  L 735.54 103.78
  A 0.21 0.20 -56.2 0 1 735.88 103.71
  Q 747.45 115.49 757.61 128.31
  A 0.45 0.43 -53.4 0 1 757.67 128.78
  L 662.08 335.28
  Q 661.49 336.55 662.45 337.57
  C 665.17 340.45 669.10 342.08 668.76 346.80
  Q 668.70 347.65 669.09 346.89
  Z
  M 660.31 471.84
  Q 660.83 471.10 660.94 470.25
  C 661.31 467.15 661.21 464.03 662.05 460.96
  Q 663.11 457.02 664.01 453.05
  C 665.06 448.35 668.78 446.07 671.34 442.59
  C 673.63 439.47 676.09 437.24 679.74 435.94
  Q 684.04 434.41 687.99 432.87
  Q 689.44 432.31 687.96 431.81
  C 682.12 429.87 678.77 426.68 678.30 420.24
  Q 677.84 414.01 677.74 407.65
  Q 677.71 406.31 676.44 406.72
  C 671.93 408.18 669.01 405.69 665.67 403.08
  C 661.90 400.13 658.10 396.78 656.57 392.43
  Q 654.86 387.59 653.31 384.03
  C 650.76 378.21 650.47 372.86 649.75 366.94
  C 649.13 361.87 653.24 361.23 655.36 357.69
  C 656.24 356.22 657.93 355.29 659.62 355.26
  Q 662.01 355.22 664.03 353.71
  Q 664.56 353.31 664.39 352.67
  Q 663.55 349.54 663.71 346.28
  Q 663.74 345.63 663.25 345.20
  C 661.92 344.02 660.33 343.02 659.27 341.59
  C 656.25 337.51 652.38 335.68 648.31 333.14
  Q 644.18 330.56 643.95 326.60
  C 643.75 323.07 644.00 319.47 643.54 315.92
  Q 642.24 305.90 641.77 295.84
  C 641.53 290.87 640.18 286.30 637.76 281.93
  C 635.55 277.97 634.00 274.19 637.09 270.05
  Q 642.87 262.27 646.96 254.63
  Q 650.25 248.47 650.19 241.90
  Q 650.09 231.22 650.50 219.35
  A 1.81 1.79 8.2 0 0 649.14 217.55
  C 645.16 216.56 641.62 215.15 638.19 212.79
  C 632.33 208.76 626.86 205.76 623.14 199.36
  C 621.61 196.73 617.74 196.25 615.01 196.36
  Q 603.81 196.82 593.95 196.18
  Q 590.61 195.97 589.05 193.45
  C 587.58 191.06 589.15 188.04 586.95 186.01
  C 583.97 183.23 577.94 178.61 573.47 179.77
  Q 567.57 181.29 561.22 182.86
  Q 558.11 183.63 555.56 182.85
  Q 550.87 181.41 545.16 182.13
  A 2.98 2.95 -71.1 0 0 543.43 182.99
  Q 535.92 190.59 527.84 197.19
  Q 524.51 199.92 519.87 201.90
  Q 519.34 202.12 519.46 202.68
  C 520.26 206.42 522.13 217.22 517.44 217.90
  Q 515.57 218.18 513.93 219.13
  C 509.92 221.45 506.81 219.76 502.94 218.41
  Q 501.57 217.93 500.10 218.38
  Q 495.16 219.87 490.26 221.43
  Q 487.91 222.18 485.24 222.10
  Q 476.57 221.83 467.50 220.89
  C 465.03 220.63 462.51 219.83 460.31 218.69
  Q 449.59 213.14 441.68 207.86
  C 435.44 203.71 429.63 202.09 422.96 199.98
  Q 418.48 198.57 415.44 195.17
  C 412.36 191.73 411.27 186.02 409.61 181.59
  C 408.68 179.09 408.63 176.41 408.23 173.79
  A 3.54 3.53 -81.4 0 0 406.29 171.15
  Q 403.41 169.75 400.74 168.02
  C 393.79 163.52 397.47 157.11 399.14 151.21
  C 399.85 148.69 398.60 147.24 397.43 145.27
  Q 397.06 144.66 396.51 145.09
  C 391.99 148.57 388.14 152.78 384.53 157.22
  Q 382.66 159.54 380.28 160.56
  Q 374.66 162.98 368.46 166.08
  Q 364.28 168.16 361.49 168.33
  C 356.43 168.62 350.98 165.72 348.30 161.61
  Q 346.13 158.29 345.05 153.99
  Q 343.91 149.46 341.20 145.23
  A 2.94 2.84 25.5 0 1 340.78 144.11
  L 340.63 143.22
  Q 340.52 142.52 339.83 142.65
  L 332.46 144.02
  A 2.80 2.78 88.3 0 0 330.20 146.43
  Q 329.68 150.75 328.59 155.22
  C 327.72 158.80 328.09 163.03 329.25 166.33
  C 331.99 174.15 333.90 182.39 336.43 190.00
  Q 339.77 200.05 341.39 208.53
  Q 342.00 211.72 343.07 213.98
  Q 344.80 217.63 345.42 221.62
  C 345.62 222.87 346.58 224.02 347.52 224.78
  Q 354.13 230.19 360.51 236.67
  Q 361.85 238.03 361.81 240.14
  Q 361.72 244.05 361.75 247.92
  Q 361.77 251.37 360.39 256.42
  C 359.88 258.31 359.45 259.78 357.66 260.90
  Q 355.85 262.03 355.93 264.03
  C 356.11 268.59 355.73 273.64 357.46 278.03
  Q 358.93 281.77 360.23 285.33
  Q 360.87 287.09 362.28 288.20
  Q 365.56 290.75 367.75 296.03
  C 368.70 298.32 368.01 300.45 368.91 302.81
  Q 371.39 309.32 377.58 312.18
  Q 382.91 314.64 388.80 317.09
  C 391.72 318.30 396.60 320.58 396.73 323.70
  Q 397.20 335.11 399.43 346.97
  Q 399.52 347.48 399.87 347.87
  C 403.47 351.90 403.17 356.88 404.32 361.31
  Q 405.52 365.92 410.16 375.27
  Q 410.47 375.90 410.96 375.39
  Q 412.25 374.01 414.06 373.15
  C 416.40 372.04 418.21 369.99 420.11 368.12
  C 422.57 365.72 427.88 363.87 431.12 366.77
  Q 436.91 371.93 444.17 372.08
  C 448.57 372.17 451.49 374.57 452.17 378.99
  Q 453.14 385.25 456.75 390.51
  C 459.28 394.21 461.52 398.20 463.55 402.20
  Q 465.57 406.17 469.26 410.60
  Q 474.40 416.76 479.90 423.17
  A 3.24 3.23 -13.2 0 0 481.57 424.20
  C 485.29 425.09 488.56 426.33 491.50 428.91
  C 495.17 432.13 499.52 435.87 504.47 436.06
  Q 508.91 436.23 512.33 437.44
  C 517.11 439.14 515.37 445.09 521.81 445.47
  Q 529.75 445.93 537.16 446.14
  C 538.87 446.19 540.58 446.15 542.06 445.15
  Q 549.59 440.11 559.98 435.89
  C 564.11 434.20 569.77 432.33 573.92 434.78
  C 578.75 437.64 585.34 441.62 586.83 447.44
  Q 588.09 452.39 589.08 457.84
  Q 589.29 459.03 590.23 459.74
  Q 594.33 462.85 598.26 464.53
  Q 601.66 465.97 607.29 466.83
  C 614.86 467.97 622.61 468.55 630.08 468.94
  Q 634.24 469.15 638.33 470.41
  Q 643.38 471.97 648.86 472.87
  C 652.36 473.44 655.76 474.61 659.22 475.43
  Q 659.97 475.60 659.97 474.83
  L 659.98 472.88
  Q 659.98 472.31 660.31 471.84
  Z
  M 655.83 372.99
  L 662.09 360.66
  Q 662.40 360.07 661.74 360.15
  L 660.23 360.32
  Q 659.63 360.39 659.32 360.91
  Q 657.79 363.48 655.19 365.26
  Q 654.69 365.60 654.77 366.21
  L 655.70 372.96
  A 0.07 0.07 0.0 0 0 655.83 372.99
  Z
  M 522.99 451.00
  C 517.14 451.16 513.25 448.29 510.83 443.11
  Q 510.34 442.05 509.17 442.00
  Q 503.05 441.74 499.06 440.46
  C 495.06 439.16 490.85 435.52 487.40 432.59
  C 483.84 429.57 478.86 430.31 475.78 426.72
  Q 470.35 420.39 463.44 412.09
  C 462.05 410.42 460.74 408.42 459.76 406.52
  Q 456.24 399.71 452.12 393.35
  C 449.79 389.74 447.82 385.78 447.14 381.51
  Q 446.90 380.00 446.45 378.61
  A 1.06 1.06 0.0 0 0 445.69 377.90
  Q 443.25 377.35 440.67 377.12
  C 435.99 376.72 431.21 374.14 427.85 371.06
  A 1.14 1.10 -27.2 0 0 426.92 370.78
  Q 424.38 371.18 422.46 373.34
  Q 419.70 376.44 416.47 378.03
  Q 413.91 379.29 413.01 381.95
  C 412.16 384.46 410.45 386.31 408.03 387.41
  Q 404.53 389.02 401.87 393.34
  Q 401.55 393.85 401.96 394.29
  C 404.42 396.95 405.02 400.22 407.20 403.00
  Q 410.21 406.83 412.76 410.84
  C 414.73 413.94 417.58 416.29 420.01 419.06
  Q 421.70 420.99 424.79 422.31
  Q 430.73 424.84 436.66 428.25
  C 439.84 430.07 443.19 431.46 445.27 434.43
  Q 448.68 439.29 451.71 444.91
  Q 453.76 448.71 453.57 452.95
  Q 453.24 460.31 454.20 467.53
  A 1.03 1.03 0.0 0 0 454.95 468.39
  Q 457.77 469.13 460.02 470.89
  Q 460.56 471.32 461.07 470.85
  C 463.79 468.37 466.96 466.33 470.75 468.27
  C 475.50 470.70 480.15 474.18 481.20 479.53
  Q 482.43 485.84 481.18 491.10
  A 0.32 0.31 8.0 0 0 481.48 491.49
  L 523.21 492.73
  Q 523.71 492.74 524.04 492.35
  Q 525.45 490.71 526.39 488.74
  C 527.63 486.15 529.73 485.03 532.17 483.88
  Q 534.88 482.61 536.60 479.62
  C 539.19 475.14 544.83 473.98 549.36 472.56
  Q 552.47 471.58 553.16 468.74
  Q 554.36 463.79 557.58 457.30
  Q 558.84 454.74 560.85 453.53
  C 563.50 451.93 569.30 449.18 571.56 452.90
  C 572.94 455.17 574.87 458.92 574.10 461.74
  Q 571.37 471.63 570.49 481.23
  Q 570.44 481.82 570.94 482.12
  C 574.98 484.53 577.64 488.15 581.44 491.15
  C 583.43 492.73 585.12 494.71 588.00 494.17
  Q 597.11 492.43 606.76 492.41
  Q 627.47 492.35 647.26 492.43
  C 657.35 492.47 667.38 491.52 677.41 491.18
  Q 679.72 491.11 681.97 489.49
  Q 682.40 489.17 682.39 488.64
  L 682.26 482.98
  Q 682.25 482.22 681.50 482.33
  Q 672.73 483.58 664.36 480.92
  Q 663.82 480.74 663.26 480.86
  Q 660.22 481.47 657.67 480.69
  Q 652.18 479.01 647.47 478.18
  Q 642.36 477.27 638.79 476.18
  C 632.37 474.21 626.92 474.11 620.61 473.77
  Q 612.93 473.36 603.45 471.64
  Q 598.61 470.77 595.25 469.14
  Q 591.64 467.40 587.75 464.76
  Q 584.85 462.79 584.10 459.90
  Q 582.95 455.52 581.88 449.81
  Q 581.32 446.84 579.19 445.11
  Q 575.59 442.19 571.42 439.56
  C 570.21 438.79 568.70 438.75 567.36 439.15
  Q 558.94 441.64 549.68 446.82
  C 546.71 448.48 544.37 450.64 540.82 451.32
  Q 536.69 452.11 531.93 451.36
  C 529.00 450.90 525.93 450.92 522.99 451.00
  Z
  M 433.92 432.46
  L 420.89 425.92
  A 0.09 0.09 0.0 0 0 420.77 426.04
  L 494.24 556.38
  Q 494.52 556.87 495.08 556.83
  L 497.29 556.68
  Q 497.85 556.64 497.60 556.14
  Q 477.13 515.97 456.68 475.75
  C 456.30 475.02 455.84 474.08 455.01 473.81
  C 452.49 473.01 450.18 472.13 449.49 469.26
  Q 448.63 465.70 448.45 461.10
  A 7.56 7.54 30.5 0 0 447.65 458.03
  L 435.35 433.89
  Q 434.87 432.94 433.92 432.46
  Z
  M 560.33 463.52
  C 557.98 467.93 558.66 473.48 553.35 476.28
  A 1.70 1.70 0.0 0 0 552.46 477.53
  L 540.21 556.06
  A 0.56 0.56 0.0 0 0 540.80 556.71
  L 541.83 556.64
  Q 542.46 556.60 542.57 555.98
  Q 551.48 509.85 560.45 463.46
  Q 560.46 463.41 560.44 463.36
  Q 560.41 463.32 560.38 463.35
  Q 560.35 463.38 560.35 463.42
  Q 560.35 463.47 560.33 463.52
  Z
  M 476.34 495.87
  Q 475.31 492.63 476.28 489.45
  C 477.55 485.28 475.23 481.18 473.78 477.41
  C 472.96 475.30 470.84 474.13 468.96 473.05
  Q 467.21 472.03 465.98 473.52
  Q 465.65 473.93 465.86 474.41
  L 501.98 556.24
  A 0.85 0.84 78.3 0 0 502.73 556.74
  L 504.54 556.76
  A 0.39 0.39 0.0 0 0 504.91 556.22
  L 481.58 497.20
  Q 481.35 496.62 480.72 496.60
  L 477.14 496.48
  A 0.88 0.87 81.9 0 1 476.34 495.87
  Z
  M 540.11 483.54
  C 539.59 484.55 538.44 485.38 538.37 486.58
  Q 536.23 521.61 534.11 556.21
  A 0.45 0.45 0.0 0 0 534.58 556.69
  L 535.95 556.65
  Q 536.54 556.63 536.60 556.04
  L 544.17 480.26
  Q 544.24 479.54 543.61 479.90
  Q 541.27 481.25 540.11 483.54
  Z
  M 565.28 480.26
  Q 555.75 518.39 546.23 556.23
  Q 546.13 556.65 546.56 556.66
  L 548.26 556.66
  A 0.58 0.58 0.0 0 0 548.82 556.24
  L 568.83 487.54
  Q 569.00 486.94 568.43 486.68
  Q 564.51 484.93 565.54 479.84
  Q 565.56 479.74 565.46 479.72
  Q 565.41 479.70 565.38 479.76
  Q 565.36 479.80 565.36 479.85
  Q 565.33 480.06 565.28 480.26
  Z
  M 530.31 492.02
  C 529.18 494.02 528.39 495.43 526.35 497.07
  A 1.13 1.11 69.6 0 0 525.94 497.98
  L 527.97 556.21
  Q 527.98 556.70 528.47 556.68
  L 530.17 556.63
  A 0.42 0.42 0.0 0 0 530.58 556.21
  L 530.95 492.19
  Q 530.96 490.87 530.31 492.02
  Z
  M 552.72 556.18
  A 0.35 0.35 0.0 0 0 553.06 556.65
  L 555.23 556.64
  A 0.35 0.35 0.0 0 0 555.56 556.42
  L 579.42 496.42
  A 0.35 0.35 0.0 0 0 579.32 496.03
  L 575.55 492.81
  A 0.35 0.35 0.0 0 0 574.99 492.96
  L 552.72 556.18
  Z
  M 598.25 556.54
  L 603.21 556.55
  A 1.92 1.89 -65.2 0 0 604.46 556.08
  L 672.96 496.96
  Q 673.62 496.39 672.75 496.44
  L 661.34 497.10
  Q 660.49 497.15 659.86 497.74
  L 598.07 556.09
  Q 597.59 556.54 598.25 556.54
  Z
  M 495.08 497.25
  A 0.31 0.31 0.0 0 0 494.80 497.02
  L 489.59 496.83
  A 0.31 0.31 0.0 0 0 489.28 497.23
  L 509.01 556.53
  A 0.31 0.31 0.0 0 0 509.30 556.74
  L 511.68 556.75
  A 0.31 0.31 0.0 0 0 511.98 556.35
  L 495.08 497.25
  Z
  M 517.74 556.75
  A 0.36 0.36 0.0 0 0 518.10 556.33
  L 506.97 497.65
  A 0.36 0.36 0.0 0 0 506.63 497.36
  L 502.75 497.24
  A 0.36 0.36 0.0 0 0 502.39 497.68
  L 515.74 556.44
  A 0.36 0.36 0.0 0 0 516.08 556.72
  L 517.74 556.75
  Z
  M 521.71 556.39
  A 0.39 0.39 0.0 0 0 522.11 556.73
  L 524.05 556.69
  A 0.39 0.39 0.0 0 0 524.43 556.26
  L 519.18 498.07
  A 0.39 0.39 0.0 0 0 518.81 497.72
  L 514.35 497.57
  A 0.39 0.39 0.0 0 0 513.95 498.02
  L 521.71 556.39
  Z
  M 608.24 497.96
  A 0.33 0.33 0.0 0 0 607.95 497.45
  L 601.37 497.71
  A 0.33 0.33 0.0 0 0 601.10 497.88
  L 567.34 556.12
  A 0.33 0.33 0.0 0 0 567.62 556.62
  L 570.60 556.61
  A 0.33 0.33 0.0 0 0 570.88 556.46
  L 608.24 497.96
  Z
  M 579.68 556.59
  A 0.31 0.31 0.0 0 0 579.92 556.47
  L 625.65 497.93
  A 0.31 0.31 0.0 0 0 625.39 497.43
  L 618.48 497.61
  A 0.31 0.31 0.0 0 0 618.24 497.73
  L 576.25 556.13
  A 0.31 0.31 0.0 0 0 576.50 556.62
  L 579.68 556.59
  Z
  M 586.51 556.55
  L 590.02 556.54
  Q 590.55 556.54 590.92 556.15
  L 646.43 497.63
  A 0.06 0.06 0.0 0 0 646.39 497.53
  L 637.55 497.58
  Q 637.28 497.58 637.10 497.79
  L 586.26 556.01
  Q 585.79 556.55 586.51 556.55
  Z
  M 591.64 499.31
  A 0.34 0.34 0.0 0 0 591.29 498.81
  L 586.26 499.48
  A 0.34 0.34 0.0 0 0 585.99 499.67
  L 559.85 556.13
  A 0.34 0.34 0.0 0 0 560.17 556.62
  L 562.33 556.56
  A 0.34 0.34 0.0 0 0 562.62 556.38
  L 591.64 499.31
  Z
  M 736.55 563.80
  A 0.46 0.46 0.0 0 0 736.09 563.34
  L 314.07 563.34
  A 0.46 0.46 0.0 0 0 313.61 563.80
  L 313.61 612.54
  A 0.46 0.46 0.0 0 0 314.07 613.00
  L 736.09 613.00
  A 0.46 0.46 0.0 0 0 736.55 612.54
  L 736.55 563.80
  Z"
/>
<path fill="#2f428d" d="
  M 419.17 31.56
  C 429.53 27.94 439.89 24.68 450.18 22.30
  Q 450.71 22.18 450.79 22.72
  L 466.01 137.25
  A 0.26 0.26 0.0 0 1 465.75 137.55
  L 439.27 137.55
  Q 438.73 137.55 438.62 137.01
  L 418.77 32.26
  Q 418.67 31.74 419.17 31.56
  Z"
/>
<path fill="#2f428d" d="
  M 571.54 274.31
  Q 563.24 265.86 552.99 259.72
  Q 552.50 259.42 552.08 259.83
  L 549.41 262.43
  Q 548.98 262.85 548.44 262.60
  Q 540.58 259.06 532.34 258.01
  Q 531.76 257.94 531.61 257.37
  L 530.66 253.72
  Q 530.51 253.16 529.94 253.15
  Q 518.13 252.86 506.40 255.75
  Q 505.85 255.88 505.85 256.44
  L 505.81 260.06
  Q 505.81 260.75 505.16 260.98
  Q 496.81 263.96 489.46 269.73
  Q 488.98 270.10 488.61 269.63
  L 476.93 255.01
  A 0.39 0.39 0.0 0 1 477.00 254.46
  Q 502.37 234.92 534.29 238.45
  C 557.68 241.03 578.51 255.11 590.63 274.94
  Q 604.67 297.91 600.98 326.48
  Q 600.31 331.69 601.08 338.79
  Q 602.11 348.39 608.57 353.99
  C 613.75 358.47 620.31 362.01 626.51 365.56
  Q 627.08 365.88 626.78 366.45
  L 616.09 387.51
  Q 615.96 387.77 615.71 387.63
  C 604.64 381.67 592.76 372.12 587.59 360.86
  Q 584.39 353.88 583.20 345.58
  C 582.78 342.65 579.71 339.44 578.05 337.03
  Q 577.76 336.61 577.95 336.13
  Q 580.31 330.32 581.35 324.18
  A 0.86 0.85 88.0 0 1 582.00 323.48
  L 585.59 322.66
  Q 586.24 322.51 586.28 321.84
  Q 586.96 309.44 584.44 298.39
  Q 584.33 297.87 583.79 297.84
  L 580.03 297.64
  Q 579.45 297.61 579.27 297.06
  Q 576.19 287.52 569.88 279.47
  A 0.83 0.82 40.8 0 1 569.81 278.57
  L 571.67 275.26
  Q 571.96 274.74 571.54 274.31
  Z"
/>
<path fill="#2f428d" d="
  M 518.61 376.40
  Q 530.63 376.92 542.06 374.25
  Q 542.62 374.12 542.64 373.54
  L 542.77 369.78
  Q 542.78 369.25 543.29 369.07
  Q 551.04 366.34 557.31 361.83
  Q 557.85 361.44 558.26 361.96
  L 569.67 376.55
  Q 570.04 377.03 569.54 377.37
  Q 543.04 395.79 511.65 390.70
  C 490.07 387.19 470.93 373.90 459.41 355.48
  Q 444.85 332.20 448.61 303.09
  Q 449.43 296.77 448.16 288.80
  C 446.05 275.51 433.61 270.27 423.08 264.14
  Q 422.54 263.83 422.82 263.27
  L 433.36 242.51
  Q 433.65 241.95 434.20 242.25
  Q 450.67 251.29 459.39 264.21
  Q 465.03 272.57 466.39 283.53
  C 466.77 286.57 469.84 289.80 471.61 292.31
  Q 471.93 292.77 471.72 293.29
  Q 469.40 298.97 468.40 304.65
  Q 468.31 305.19 467.77 305.30
  L 464.02 306.11
  Q 463.42 306.24 463.38 306.84
  Q 462.58 318.84 464.85 330.23
  Q 464.98 330.89 465.65 330.93
  L 469.28 331.16
  Q 469.92 331.20 470.10 331.81
  Q 472.71 340.56 478.47 348.48
  A 0.78 0.77 -47.9 0 1 478.51 349.33
  L 476.47 352.70
  Q 476.19 353.16 476.55 353.56
  Q 484.39 362.32 494.55 368.82
  Q 495.05 369.14 495.48 368.74
  L 498.23 366.21
  Q 498.68 365.79 499.23 366.06
  Q 507.51 370.14 516.12 371.44
  Q 516.81 371.55 516.97 372.22
  L 517.86 375.78
  Q 518.00 376.37 518.61 376.40
  Z"
/>
<path fill="#2f428d" d="
  M 529.69 265.77
  Q 538.07 266.59 545.05 269.86
  Q 545.97 270.30 546.91 270.64
  A 0.91 0.90 -56.2 0 0 547.84 270.45
  L 552.81 265.77
  Q 553.21 265.40 553.68 265.68
  Q 560.59 269.75 566.36 275.59
  Q 566.56 275.79 566.42 276.04
  L 562.65 282.40
  Q 562.37 282.88 562.72 283.31
  Q 569.20 291.17 572.19 301.08
  Q 572.37 301.66 572.97 301.71
  L 579.81 302.22
  Q 580.45 302.27 580.58 302.89
  Q 582.19 310.33 581.87 318.52
  Q 581.85 319.09 581.29 319.21
  L 574.26 320.69
  Q 573.72 320.80 573.65 321.35
  Q 572.46 330.59 567.74 339.02
  Q 567.46 339.53 567.83 339.97
  L 572.37 345.35
  Q 572.72 345.77 572.42 346.23
  Q 568.18 352.69 562.07 358.19
  Q 561.67 358.54 561.24 358.25
  L 555.24 354.26
  Q 554.75 353.94 554.28 354.29
  Q 547.31 359.53 539.44 361.90
  Q 538.83 362.09 538.80 362.73
  L 538.53 369.57
  Q 538.50 370.24 537.85 370.38
  Q 530.00 372.05 522.12 371.86
  Q 521.55 371.84 521.42 371.29
  L 519.75 364.48
  Q 519.60 363.86 518.97 363.79
  Q 509.59 362.63 501.78 358.39
  Q 501.25 358.10 500.80 358.51
  L 495.62 363.16
  Q 495.17 363.57 494.67 363.24
  Q 488.08 359.05 482.45 353.18
  Q 482.05 352.76 482.35 352.28
  L 486.09 346.24
  Q 486.40 345.73 486.04 345.26
  Q 479.98 337.48 477.49 328.64
  Q 477.33 328.06 476.74 328.02
  L 469.70 327.55
  Q 469.22 327.52 469.12 327.04
  Q 467.43 318.92 467.77 311.11
  Q 467.79 310.64 468.25 310.54
  L 475.22 309.05
  A 0.94 0.94 0.0 0 0 475.95 308.26
  Q 476.99 300.65 480.04 294.10
  Q 480.28 293.57 479.87 293.17
  L 474.99 288.27
  Q 474.56 287.84 474.86 287.32
  Q 478.68 280.58 484.19 274.60
  Q 484.56 274.19 485.05 274.46
  L 491.29 277.90
  Q 491.81 278.18 492.25 277.80
  Q 499.80 271.16 509.35 267.98
  A 0.83 0.82 -8.2 0 0 509.92 267.23
  L 510.15 260.27
  Q 510.17 259.73 510.69 259.59
  Q 518.37 257.67 526.53 257.68
  Q 527.01 257.69 527.12 258.15
  L 528.83 265.02
  Q 528.99 265.70 529.69 265.77
  Z
  M 519.89 341.53
  C 512.56 339.65 507.21 335.28 501.67 330.24
  Q 500.87 329.51 499.84 329.36
  Q 498.26 329.13 498.30 330.73
  C 498.70 347.42 511.75 358.20 528.17 356.38
  Q 545.55 354.45 550.44 336.89
  Q 551.31 333.76 551.24 330.49
  A 1.23 1.23 0.0 0 0 549.60 329.36
  Q 548.35 329.79 547.42 330.68
  C 542.31 335.52 537.10 339.32 530.52 341.38
  Q 529.43 341.72 529.43 340.58
  L 529.43 335.18
  Q 529.43 334.25 530.31 333.96
  C 539.28 330.94 547.56 324.90 547.07 314.77
  C 546.98 312.86 545.10 311.39 543.52 313.03
  Q 541.60 315.01 539.76 317.11
  Q 535.79 321.65 528.25 323.27
  Q 527.59 323.41 527.59 322.73
  L 527.59 314.47
  Q 527.59 313.81 528.20 313.57
  Q 535.09 310.87 538.80 305.99
  C 541.07 303.01 538.78 299.26 535.26 301.62
  Q 531.95 303.85 528.15 304.96
  Q 527.19 305.24 527.19 304.24
  L 527.19 297.94
  Q 527.19 296.76 528.34 296.51
  C 531.67 295.77 534.53 293.49 535.17 290.01
  Q 535.44 288.52 533.87 288.02
  A 1.87 1.84 41.1 0 0 532.53 288.10
  C 529.51 289.47 525.52 292.12 522.34 290.48
  Q 519.41 288.96 516.53 287.99
  A 1.51 1.51 0.0 0 0 514.57 289.11
  C 513.73 293.01 518.58 295.96 522.15 296.80
  A 0.36 0.34 -84.0 0 1 522.42 297.15
  L 522.41 304.88
  Q 522.41 305.13 522.17 305.08
  Q 518.16 304.19 514.54 301.71
  Q 513.11 300.73 511.41 301.03
  Q 510.82 301.14 510.49 301.64
  C 507.36 306.35 517.90 312.22 521.41 313.57
  A 0.92 0.91 -79.9 0 1 522.00 314.43
  L 521.99 322.74
  Q 521.99 323.32 521.41 323.23
  C 514.41 322.09 510.52 318.16 506.21 313.04
  A 1.98 1.97 42.9 0 0 503.10 313.15
  Q 502.47 314.02 502.46 315.18
  C 502.41 325.42 510.85 331.27 519.93 334.21
  Q 520.13 334.27 520.13 334.48
  L 520.10 341.36
  A 0.17 0.17 0.0 0 1 519.89 341.53
  Z"
/>
<rect fill="#2f428d" x="-2.35" y="-2.34" transform="translate(695.53,572.30) rotate(42.9)" width="4.70" height="4.68" rx="0.54"/>
<path fill="#2f428d" d="
  M 685.25 595.70
  C 684.07 598.57 681.67 599.88 678.64 599.86
  Q 672.87 599.82 667.84 599.74
  C 659.74 599.61 660.51 589.37 661.92 584.45
  Q 662.44 582.64 663.26 584.33
  Q 663.77 585.37 663.55 586.96
  A 1.97 1.93 -56.2 0 0 663.77 588.14
  C 665.58 591.47 668.19 591.09 672.09 591.14
  Q 675.49 591.19 679.26 591.12
  A 3.59 3.58 -1.3 0 0 682.79 587.43
  L 682.39 573.78
  Q 682.39 573.47 682.63 573.28
  L 686.19 570.51
  A 0.14 0.14 0.0 0 1 686.41 570.62
  Q 686.25 578.50 686.63 585.34
  Q 686.95 591.06 692.52 591.11
  C 693.98 591.12 696.08 591.31 697.39 590.72
  Q 699.39 589.80 697.85 588.24
  L 694.58 584.92
  Q 694.21 584.54 694.46 584.07
  L 697.24 578.83
  A 0.59 0.59 0.0 0 1 698.26 578.79
  C 701.38 583.77 702.64 589.70 699.76 594.82
  C 697.00 599.72 688.70 602.71 685.86 595.70
  Q 685.56 594.95 685.25 595.70
  Z"
/>
<path fill="#2f428d" d="
  M 637.01 589.72
  Q 635.10 590.58 637.18 590.82
  Q 641.88 591.36 647.39 590.95
  Q 648.12 590.90 648.66 590.35
  A 1.35 1.35 0.0 0 0 648.67 588.48
  L 645.57 585.21
  Q 644.88 584.48 645.35 583.59
  L 647.78 579.02
  Q 648.35 577.95 649.00 578.96
  C 652.28 584.05 653.45 590.77 649.68 595.90
  Q 646.67 599.99 641.27 599.82
  C 636.81 599.69 634.31 596.96 633.52 592.63
  A 0.42 0.42 0.0 0 0 632.81 592.41
  Q 630.63 594.62 628.43 596.97
  C 625.37 600.23 619.80 600.40 615.88 599.31
  Q 610.70 597.87 610.38 591.74
  Q 610.00 584.40 609.86 576.33
  Q 609.85 575.54 610.33 574.91
  Q 611.77 573.01 613.32 571.49
  Q 614.46 570.37 614.48 571.96
  L 614.66 588.56
  A 2.60 2.59 -0.2 0 0 617.25 591.12
  Q 622.22 591.13 626.96 591.08
  Q 629.88 591.05 632.09 589.42
  A 0.50 0.50 0.0 0 0 631.99 588.55
  C 630.34 587.87 627.50 586.60 625.69 586.82
  Q 624.98 586.91 624.60 587.55
  Q 624.31 588.06 623.92 588.49
  Q 622.15 590.49 622.35 587.83
  C 622.52 585.48 623.44 580.57 626.50 580.23
  C 630.43 579.78 636.19 582.00 640.02 583.01
  Q 641.24 583.32 640.98 584.55
  L 640.03 589.06
  A 1.22 1.22 0.0 0 1 638.51 589.98
  Q 637.22 589.62 637.01 589.72
  Z"
/>
<path fill="#2f428d" d="
  M 647.81 573.07
  L 649.47 571.29
  A 0.56 0.56 0.0 0 1 650.27 571.27
  L 652.67 573.58
  A 0.56 0.56 0.0 0 1 652.68 574.37
  L 650.34 576.75
  A 0.56 0.56 0.0 0 1 649.54 576.75
  L 647.84 575.02
  A 0.56 0.56 0.0 0 0 647.03 575.03
  L 645.37 576.81
  A 0.56 0.56 0.0 0 1 644.57 576.83
  L 642.16 574.52
  A 0.56 0.56 0.0 0 1 642.15 573.73
  L 644.49 571.35
  A 0.56 0.56 0.0 0 1 645.29 571.35
  L 647.00 573.08
  A 0.56 0.56 0.0 0 0 647.81 573.07
  Z"
/>
<path fill="#2f428d" d="
  M 723.28 588.83
  Q 722.03 586.80 719.84 585.15
  Q 719.29 584.74 719.61 584.13
  L 722.45 578.79
  A 0.56 0.55 43.1 0 1 723.41 578.76
  C 726.34 583.33 727.87 589.42 725.16 594.41
  Q 721.32 601.49 712.23 599.40
  C 707.67 598.35 706.36 594.43 706.29 590.30
  Q 706.17 583.63 705.90 576.62
  Q 705.86 575.51 706.57 574.67
  L 709.24 571.51
  Q 710.52 569.99 710.54 571.98
  L 710.70 588.09
  Q 710.73 591.19 713.84 591.15
  L 722.08 591.03
  A 1.44 1.44 0.0 0 0 723.28 588.83
  Z"
/>
<path fill="#2f428d" d="
  M 672.21 576.29
  C 673.91 578.51 675.01 577.34 677.08 577.05
  Q 677.95 576.92 677.50 577.67
  Q 677.36 577.91 677.23 578.16
  Q 677.03 578.53 676.66 578.69
  Q 673.37 580.19 669.76 581.66
  Q 668.78 582.06 669.39 581.20
  Q 670.09 580.20 671.22 579.61
  Q 671.97 579.22 671.34 578.66
  L 670.62 578.01
  Q 669.64 577.12 670.40 576.04
  Q 672.33 573.27 674.98 573.50
  Q 675.60 573.56 676.03 574.01
  L 676.49 574.51
  Q 677.04 575.10 676.23 575.20
  L 672.50 575.61
  A 0.43 0.42 -22.1 0 0 672.21 576.29
  Z"
/>
<path fill="#2f428d" d="
  M 336.80 579.80
  L 336.81 602.03
  A 0.37 0.37 0.0 0 1 336.44 602.40
  L 331.59 602.40
  A 0.37 0.37 0.0 0 1 331.22 602.03
  L 331.22 579.80
  A 0.37 0.37 0.0 0 0 330.85 579.43
  L 325.58 579.43
  A 0.37 0.37 0.0 0 1 325.21 579.06
  L 325.20 575.26
  A 0.37 0.37 0.0 0 1 325.57 574.89
  L 342.44 574.89
  A 0.37 0.37 0.0 0 1 342.81 575.26
  L 342.80 579.06
  A 0.37 0.37 0.0 0 1 342.43 579.43
  L 337.17 579.43
  A 0.37 0.37 0.0 0 0 336.80 579.80
  Z"
/>
<path fill="#2f428d" d="
  M 351.09 585.91
  L 359.72 585.91
  A 0.31 0.31 0.0 0 1 360.03 586.22
  L 360.02 590.14
  A 0.31 0.31 0.0 0 1 359.71 590.45
  L 351.09 590.45
  A 0.31 0.31 0.0 0 0 350.78 590.76
  L 350.78 597.55
  A 0.31 0.31 0.0 0 0 351.09 597.86
  L 360.68 597.86
  A 0.31 0.31 0.0 0 1 360.99 598.17
  L 360.96 602.09
  A 0.31 0.31 0.0 0 1 360.65 602.40
  L 345.51 602.40
  A 0.31 0.31 0.0 0 1 345.20 602.09
  L 345.20 575.20
  A 0.31 0.31 0.0 0 1 345.51 574.89
  L 360.29 574.89
  A 0.31 0.31 0.0 0 1 360.60 575.20
  L 360.60 579.12
  A 0.31 0.31 0.0 0 1 360.29 579.43
  L 351.09 579.43
  A 0.31 0.31 0.0 0 0 350.78 579.74
  L 350.78 585.60
  A 0.31 0.31 0.0 0 0 351.09 585.91
  Z"
/>
<path fill="#2f428d" d="
  M 367.71 596.99
  C 368.41 599.80 372.30 599.23 372.34 596.70
  Q 372.50 586.08 372.42 575.18
  Q 372.42 574.86 372.74 574.86
  L 377.71 574.87
  Q 377.98 574.87 377.98 575.14
  Q 377.99 584.03 378.02 594.14
  C 378.04 598.97 376.52 602.37 371.28 602.86
  Q 362.23 603.69 362.42 594.65
  Q 362.44 593.67 363.42 593.67
  L 366.55 593.66
  Q 367.71 593.66 367.59 594.81
  Q 367.46 595.99 367.71 596.99
  Z"
/>
<path fill="#2f428d" d="
  M 386.71 596.88
  L 385.56 602.11
  A 0.36 0.36 0.0 0 1 385.21 602.39
  L 380.19 602.41
  A 0.36 0.36 0.0 0 1 379.84 601.96
  L 386.94 575.14
  A 0.36 0.36 0.0 0 1 387.29 574.87
  L 393.58 574.87
  A 0.36 0.36 0.0 0 1 393.93 575.14
  L 401.03 601.96
  A 0.36 0.36 0.0 0 1 400.68 602.41
  L 395.66 602.39
  A 0.36 0.36 0.0 0 1 395.31 602.11
  L 394.16 596.88
  A 0.36 0.36 0.0 0 0 393.81 596.60
  L 387.06 596.60
  A 0.36 0.36 0.0 0 0 386.71 596.88
  Z
  M 387.78 591.77
  A 0.25 0.25 0.0 0 0 388.02 592.07
  L 392.52 592.09
  Q 393.14 592.09 393.01 591.49
  L 390.68 580.50
  Q 390.46 579.47 390.24 580.50
  L 387.78 591.77
  Z"
/>
<path fill="#2f428d" d="
  M 416.60 588.66
  A 0.08 0.07 -46.5 0 0 416.60 588.80
  Q 419.87 589.85 420.16 592.70
  Q 420.52 596.25 420.64 599.81
  C 420.66 600.39 420.95 601.27 421.32 601.74
  Q 421.82 602.39 421.00 602.39
  L 416.68 602.40
  Q 415.22 602.40 415.15 600.94
  L 414.83 593.56
  Q 414.73 591.37 412.58 590.97
  Q 411.21 590.72 409.62 590.73
  Q 408.65 590.73 408.65 591.69
  L 408.65 602.17
  Q 408.65 602.39 408.43 602.39
  L 403.31 602.40
  A 0.21 0.21 0.0 0 1 403.10 602.19
  L 403.10 575.46
  Q 403.10 574.86 403.70 574.86
  Q 408.74 574.83 413.80 574.93
  Q 419.80 575.05 420.57 580.80
  Q 421.37 586.74 416.60 588.66
  Z
  M 408.62 579.42
  L 408.66 586.48
  A 0.42 0.42 0.0 0 0 409.08 586.89
  L 411.63 586.88
  A 3.49 3.44 -0.3 0 0 415.10 583.42
  L 415.10 582.40
  A 3.49 3.44 -0.3 0 0 411.59 578.98
  L 409.04 578.99
  A 0.42 0.42 0.0 0 0 408.62 579.42
  Z"
/>
<path fill="#2f428d" d="
  M 429.63 596.88
  L 428.47 602.11
  A 0.36 0.36 0.0 0 1 428.12 602.39
  L 423.10 602.39
  A 0.36 0.36 0.0 0 1 422.75 601.94
  L 429.86 575.14
  A 0.36 0.36 0.0 0 1 430.21 574.87
  L 436.49 574.86
  A 0.36 0.36 0.0 0 1 436.84 575.13
  L 443.94 601.95
  A 0.36 0.36 0.0 0 1 443.59 602.40
  L 438.57 602.39
  A 0.36 0.36 0.0 0 1 438.22 602.11
  L 437.07 596.88
  A 0.36 0.36 0.0 0 0 436.72 596.60
  L 429.98 596.60
  A 0.36 0.36 0.0 0 0 429.63 596.88
  Z
  M 433.64 580.74
  Q 433.38 579.50 433.10 580.74
  L 430.75 591.48
  Q 430.62 592.07 431.23 592.07
  L 435.35 592.09
  Q 436.05 592.09 435.90 591.41
  L 433.64 580.74
  Z"
/>
<path fill="#2f428d" d="
  M 483.00 588.07
  Q 488.19 589.83 487.16 596.06
  Q 486.24 601.62 480.67 602.18
  Q 476.46 602.60 469.97 602.37
  Q 469.37 602.35 469.37 601.75
  L 469.37 575.23
  A 0.37 0.37 0.0 0 1 469.75 574.86
  Q 473.70 574.90 478.22 574.86
  Q 487.29 574.78 486.32 583.22
  Q 485.95 586.36 482.98 587.58
  Q 482.34 587.84 483.00 588.07
  Z
  M 474.90 579.39
  L 474.92 585.75
  A 0.40 0.40 0.0 0 0 475.32 586.15
  L 477.55 586.14
  A 3.37 3.07 -0.2 0 0 480.91 583.06
  L 480.91 582.04
  A 3.37 3.07 -0.2 0 0 477.53 578.98
  L 475.30 578.99
  A 0.40 0.40 0.0 0 0 474.90 579.39
  Z
  M 474.89 590.35
  L 474.91 597.99
  A 0.34 0.34 0.0 0 0 475.25 598.33
  L 477.74 598.32
  A 3.81 3.74 -0.1 0 0 481.54 594.57
  L 481.54 593.73
  A 3.81 3.74 -0.1 0 0 477.72 590.00
  L 475.23 590.01
  A 0.34 0.34 0.0 0 0 474.89 590.35
  Z"
/>
<path fill="#2f428d" d="
  M 503.01 596.61
  L 496.21 596.61
  A 0.34 0.34 0.0 0 0 495.88 596.88
  L 494.74 602.12
  A 0.34 0.34 0.0 0 1 494.41 602.39
  L 489.33 602.41
  A 0.34 0.34 0.0 0 1 489.00 601.98
  L 496.12 575.12
  A 0.34 0.34 0.0 0 1 496.45 574.87
  L 502.77 574.87
  A 0.34 0.34 0.0 0 1 503.10 575.12
  L 510.22 601.98
  A 0.34 0.34 0.0 0 1 509.89 602.41
  L 504.81 602.39
  A 0.34 0.34 0.0 0 1 504.48 602.12
  L 503.34 596.88
  A 0.34 0.34 0.0 0 0 503.01 596.61
  Z
  M 499.33 580.75
  L 497.03 591.50
  Q 496.91 592.08 497.50 592.08
  L 501.74 592.08
  Q 502.32 592.08 502.20 591.51
  L 499.87 580.75
  Q 499.60 579.50 499.33 580.75
  Z"
/>
<path fill="#2f428d" d="
  M 525.47 592.71
  L 525.47 575.30
  A 0.48 0.48 0.0 0 1 525.95 574.82
  L 530.20 574.83
  Q 530.57 574.83 530.57 575.20
  L 530.57 601.64
  Q 530.57 602.36 529.86 602.36
  L 524.80 602.36
  Q 524.21 602.36 524.02 601.80
  L 517.91 584.58
  Q 517.39 583.11 517.39 584.67
  L 517.39 601.99
  Q 517.39 602.36 517.01 602.36
  L 512.63 602.35
  Q 512.30 602.35 512.30 602.02
  L 512.30 575.51
  Q 512.30 574.82 512.99 574.82
  L 517.84 574.82
  Q 518.65 574.83 518.92 575.59
  L 525.02 592.79
  Q 525.47 594.08 525.47 592.71
  Z"
/>
<path fill="#2f428d" d="
  M 540.57 585.14
  L 546.98 575.05
  Q 547.10 574.87 547.31 574.87
  Q 552.91 574.87 552.92 574.87
  Q 553.08 574.87 553.00 575.00
  Q 549.38 580.81 545.91 586.19
  A 0.97 0.93 -43.0 0 0 545.86 587.14
  L 553.81 602.18
  A 0.14 0.13 -14.3 0 1 553.69 602.38
  L 547.91 602.41
  Q 547.69 602.41 547.59 602.21
  L 542.38 591.81
  Q 542.08 591.21 541.64 591.71
  Q 540.04 593.54 540.00 595.33
  Q 539.93 598.44 540.01 602.09
  Q 540.01 602.40 539.71 602.40
  L 534.79 602.40
  Q 534.43 602.40 534.43 602.04
  L 534.43 575.22
  Q 534.43 574.86 534.78 574.86
  L 539.79 574.87
  Q 539.96 574.87 539.96 575.04
  L 540.01 584.98
  Q 540.02 586.01 540.57 585.14
  Z"
/>
<path fill="#2f428d" d="
  M 577.66 578.70
  L 576.01 580.49
  A 0.56 0.56 0.0 0 1 575.22 580.52
  L 572.79 578.22
  A 0.56 0.56 0.0 0 1 572.77 577.42
  L 575.13 575.04
  A 0.56 0.56 0.0 0 1 575.93 575.05
  L 577.63 576.79
  A 0.56 0.56 0.0 0 0 578.44 576.78
  L 580.10 574.98
  A 0.56 0.56 0.0 0 1 580.89 574.95
  L 583.32 577.25
  A 0.56 0.56 0.0 0 1 583.33 578.05
  L 580.98 580.43
  A 0.56 0.56 0.0 0 1 580.18 580.42
  L 578.47 578.68
  A 0.56 0.56 0.0 0 0 577.66 578.70
  Z"
/>
<path fill="#2f428d" d="
  M 454.00 579.80
  L 453.99 602.03
  A 0.37 0.37 0.0 0 1 453.62 602.40
  L 448.80 602.40
  A 0.37 0.37 0.0 0 1 448.43 602.03
  L 448.43 579.80
  A 0.37 0.37 0.0 0 0 448.06 579.43
  L 442.80 579.43
  A 0.37 0.37 0.0 0 1 442.43 579.06
  L 442.41 575.26
  A 0.37 0.37 0.0 0 1 442.78 574.89
  L 459.65 574.89
  A 0.37 0.37 0.0 0 1 460.02 575.26
  L 460.00 579.06
  A 0.37 0.37 0.0 0 1 459.63 579.43
  L 454.37 579.43
  A 0.37 0.37 0.0 0 0 454.00 579.80
  Z"
/>
<path fill="#2f428d" d="
  M 590.50 590.25
  A 0.73 0.73 0.0 0 0 590.92 589.02
  L 588.58 586.60
  Q 588.04 586.05 588.42 585.38
  L 590.71 581.35
  A 0.59 0.59 0.0 0 1 591.67 581.26
  C 596.05 586.39 595.24 594.12 589.05 597.50
  C 583.62 600.46 576.08 600.14 570.31 599.52
  C 563.10 598.76 563.63 590.66 564.37 585.21
  Q 564.51 584.17 565.28 583.51
  Q 565.52 583.31 565.87 583.37
  A 0.60 0.59 7.3 0 1 566.37 584.01
  Q 565.79 590.16 572.07 590.76
  Q 580.79 591.60 590.50 590.25
  Z"
/>
<path fill="#2f428d" d="
  M 602.84 596.48
  A 1.64 1.62 -45.7 0 0 602.83 594.72
  Q 601.21 592.26 599.27 590.56
  Q 598.24 589.66 598.87 588.46
  L 601.30 583.77
  Q 601.98 582.45 602.70 583.75
  Q 607.99 593.28 604.89 603.83
  C 603.11 609.92 596.65 608.75 592.16 607.57
  A 0.48 0.47 -58.6 0 1 591.97 606.76
  Q 596.09 603.00 600.12 599.60
  Q 601.75 598.22 602.84 596.48
  Z"
/>
<rect fill="#2f428d" x="-2.34" y="-2.34" transform="translate(631.07,605.72) rotate(43.3)" width="4.68" height="4.68" rx="0.62"/>
<rect fill="#2f428d" x="-2.36" y="-2.31" transform="translate(722.03,606.25) rotate(43.1)" width="4.72" height="4.62" rx="0.55"/>
<path fill="#2f428d" d="
  M 542.58 759.51
  Q 542.38 758.95 542.14 759.49
  C 536.72 771.71 524.04 780.47 511.00 783.22
  Q 504.93 784.50 494.79 784.43
  Q 453.95 784.16 414.65 784.44
  Q 401.51 784.53 396.12 783.19
  C 377.85 778.65 365.67 762.84 365.67 743.90
  Q 365.68 693.75 365.68 641.61
  Q 365.68 641.28 366.00 641.28
  L 403.46 641.28
  A 0.18 0.17 90.0 0 1 403.63 641.46
  Q 403.77 682.84 403.63 729.83
  Q 403.60 736.87 405.02 739.53
  C 407.90 744.98 412.67 747.41 418.60 747.39
  Q 455.11 747.24 494.32 747.41
  Q 500.75 747.43 504.15 745.97
  Q 512.93 742.21 515.50 733.49
  Q 516.81 729.02 516.24 722.09
  Q 516.20 721.60 515.70 721.60
  L 434.28 722.11
  Q 433.70 722.12 433.70 721.53
  L 434.20 683.52
  Q 434.21 683.00 434.73 683.00
  L 543.96 683.00
  Q 544.55 683.00 544.55 683.59
  Q 544.50 713.68 544.54 737.73
  C 544.55 743.78 548.46 747.51 554.19 747.50
  Q 606.01 747.38 652.99 747.49
  Q 653.29 747.49 653.29 747.79
  L 653.29 783.71
  Q 653.29 784.10 652.90 784.10
  Q 614.39 784.06 573.41 784.07
  C 558.44 784.07 547.34 773.02 542.58 759.51
  Z"
/>
<path fill="#2f428d" d="
  M 176.36 677.36
  C 175.79 690.83 164.08 699.61 151.24 698.83
  C 143.68 698.36 136.39 693.38 132.84 686.62
  C 127.88 677.17 129.84 665.72 137.73 658.56
  C 151.38 646.17 174.65 654.10 176.28 672.93
  Q 176.40 674.30 176.65 672.95
  Q 179.21 659.11 191.22 654.19
  C 206.94 647.76 223.05 659.77 223.05 676.03
  C 223.04 693.22 204.65 704.00 189.52 696.50
  C 181.65 692.61 177.93 685.98 176.56 677.35
  Q 176.41 676.40 176.36 677.36
  Z"
/>
<path fill="#2f428d" d="
  M 613.09 677.62
  C 610.45 702.46 576.86 706.93 568.17 683.72
  C 560.28 662.67 584.41 643.93 603.04 656.55
  Q 611.40 662.21 613.13 673.12
  Q 613.29 674.15 613.39 673.11
  Q 613.86 668.37 616.03 664.69
  Q 624.05 651.12 639.80 652.77
  C 652.38 654.09 661.10 666.65 659.47 678.75
  C 657.39 694.31 640.43 703.85 626.06 696.48
  Q 614.97 690.80 613.25 677.61
  Q 613.16 676.94 613.09 677.62
  Z"
/>
<path fill="#2f428d" d="
  M 692.78 823.10
  C 690.04 836.62 680.77 846.89 667.60 850.89
  Q 663.04 852.28 653.15 852.28
  Q 568.05 852.29 491.36 852.21
  A 0.45 0.45 0.0 0 1 490.91 851.76
  L 490.91 816.28
  Q 490.91 815.72 491.48 815.72
  Q 579.31 815.73 665.15 815.72
  C 671.87 815.72 675.67 809.78 675.66 803.72
  Q 675.63 755.96 675.66 708.85
  Q 675.66 708.28 676.23 708.28
  L 709.79 708.28
  Q 710.34 708.28 710.34 708.83
  Q 710.43 757.44 710.32 803.25
  C 710.30 810.58 714.35 815.78 722.01 815.76
  Q 752.29 815.68 788.24 815.73
  Q 788.86 815.73 788.86 816.36
  L 788.86 851.65
  Q 788.86 852.25 788.25 852.25
  Q 757.01 852.33 728.03 852.24
  C 710.52 852.18 696.79 839.84 693.17 823.10
  Q 692.97 822.16 692.78 823.10
  Z"
/>
<path fill="#2f428d" d="
  M 850.45 804.96
  C 850.46 810.28 854.52 814.10 859.68 814.11
  Q 891.44 814.16 922.27 814.12
  A 0.38 0.37 90.0 0 1 922.64 814.50
  L 922.64 850.76
  A 0.31 0.31 0.0 0 1 922.33 851.07
  Q 888.64 851.08 852.25 851.07
  C 834.07 851.06 818.58 838.94 813.72 821.43
  Q 812.26 816.18 812.32 802.19
  Q 812.51 757.01 812.37 708.80
  Q 812.36 708.14 813.03 708.14
  L 849.78 708.13
  Q 850.45 708.13 850.45 708.80
  Q 850.41 757.05 850.45 804.96
  Z"
/>
<path fill="#2f428d" d="
  M 78.99 759.39
  Q 59.54 748.48 58.00 725.07
  A 0.56 0.55 88.1 0 1 58.55 724.47
  Q 168.29 724.40 272.36 724.50
  Q 276.57 724.51 280.98 724.74
  Q 281.50 724.77 281.50 725.29
  L 281.46 763.68
  Q 281.46 764.18 280.96 764.18
  Q 185.93 764.20 97.96 764.18
  Q 87.52 764.18 78.99 759.39
  Z"
/>
<path fill="#2f428d" d="
  M 293.47 801.98
  C 299.64 802.02 304.32 798.72 304.31 792.12
  Q 304.28 759.57 304.32 724.93
  A 0.32 0.31 0.0 0 1 304.64 724.62
  L 343.44 724.60
  Q 343.92 724.60 343.92 725.08
  Q 343.92 768.35 343.90 809.05
  C 343.90 822.76 334.60 834.72 321.69 838.95
  Q 316.47 840.66 303.12 840.51
  Q 279.89 840.25 257.07 840.39
  A 0.50 0.50 0.0 0 1 256.57 839.89
  L 256.54 802.24
  A 0.29 0.29 0.0 0 1 256.83 801.95
  Q 274.37 801.85 293.47 801.98
  Z"
/>
<circle fill="#2f428d" cx="762.52" cy="752.62" r="23.23"/>
<circle fill="#2f428d" cx="431.17" cy="833.54" r="23.23"/>
<circle fill="#2f428d" cx="881.06" cy="897.73" r="23.23"/>
</svg>
