<?xml version="1.0" encoding="UTF-8" standalone="no"?>
<svg xmlns="http://www.w3.org/2000/svg" version="1.1" viewBox="0.00 0.00 1080.00 1080.00">
  <path fill="#20bdbe" d="   M 589.43 208.31   Q 547.20 191.53 504.00 203.84   C 499.82 205.03 495.75 206.64 491.29 208.32   Q 490.75 208.52 490.54 207.98   L 435.84 64.12   A 0.42 0.42 0.0 0 1 435.97 63.64   Q 469.73 37.18 476.64 31.89   C 488.48 22.84 500.31 14.66 513.65 8.65   Q 532.32 0.26 551.16 3.07   C 563.46 4.91 575.92 10.78 586.53 17.77   Q 598.60 25.72 608.55 33.72   Q 626.51 48.18 643.93 62.04   Q 644.18 62.23 644.07 62.53   L 589.88 208.11   Q 589.76 208.44 589.43 208.31   Z"></path>
  <path fill="#20bdbe" d="   M 266.57 255.09   Q 267.59 220.06 268.39 199.45   Q 269.09 181.40 272.28 164.54   Q 274.63 152.11 280.09 140.86   C 287.67 125.23 301.22 113.82 317.46 106.43   Q 333.29 99.23 357.96 92.93   Q 375.98 88.33 394.98 83.12   Q 395.30 83.04 395.46 83.33   L 470.04 218.73   Q 470.30 219.18 469.86 219.47   Q 427.68 247.82 412.59 295.81   Q 411.41 299.56 410.99 300.58   Q 410.78 301.07 410.28 300.91   L 266.80 255.41   A 0.34 0.34 0.0 0 1 266.57 255.09   Z"></path>
  <path fill="#20bdbe" d="   M 684.00 83.53   Q 732.25 96.93 733.55 97.29   Q 755.08 103.28 772.70 112.71   Q 790.39 122.18 801.04 140.75   C 807.70 152.36 810.89 167.42 812.25 181.33   Q 813.56 194.74 813.77 205.05   Q 814.55 244.30 814.83 253.44   A 0.39 0.38 80.0 0 1 814.57 253.82   L 670.02 300.87   A 0.31 0.31 0.0 0 1 669.62 300.66   Q 654.69 248.73 610.45 219.24   Q 610.22 219.09 610.35 218.84   L 683.52 83.73   A 0.42 0.42 0.0 0 1 684.00 83.53   Z"></path>
  <ellipse fill="#818285" cx="0.00" cy="0.00" transform="translate(540.00,340.10) rotate(90.0)" rx="102.40" ry="97.44"></ellipse>
  <path fill="#20bdbe" d="   M 674.27 324.09   L 823.19 299.51   Q 823.64 299.43 823.83 299.86   Q 841.45 341.38 847.56 356.80   Q 854.16 373.45 857.42 391.10   Q 861.66 414.06 852.91 434.82   C 845.21 453.11 829.70 468.49 815.15 481.40   Q 807.40 488.28 779.09 513.03   Q 778.75 513.33 778.37 513.07   L 650.74 421.85   Q 650.34 421.57 650.61 421.16   Q 679.21 376.98 674.07 324.34   A 0.23 0.23 0.0 0 1 674.27 324.09   Z"></path>
  <path fill="#20bdbe" d="   M 430.11 421.83   L 303.75 513.57   Q 303.51 513.75 303.28 513.54   Q 269.54 483.32 265.63 479.75   Q 254.46 469.56 246.57 460.79   C 232.83 445.53 222.85 429.04 221.43 408.44   C 220.46 394.50 223.51 380.13 228.15 366.63   Q 232.26 354.66 236.31 345.31   Q 248.33 317.58 255.43 301.02   Q 255.64 300.54 256.16 300.62   L 406.02 324.15   Q 406.52 324.23 406.48 324.75   Q 401.63 377.53 430.18 421.42   Q 430.34 421.66 430.11 421.83   Z"></path>
  <path fill="#20bdbe" d="   M 750.25 549.37   Q 739.20 571.12 731.00 587.99   Q 721.79 606.95 711.34 623.09   C 701.61 638.12 688.54 650.70 671.60 656.40   C 659.44 660.48 645.57 660.85 632.54 659.26   Q 619.26 657.63 608.28 655.29   Q 600.12 653.55 563.69 645.64   Q 563.15 645.52 563.11 644.97   L 551.28 481.70   Q 551.24 481.10 551.84 481.03   Q 601.29 475.76 635.83 439.62   Q 636.22 439.22 636.63 439.61   L 750.19 549.00   A 0.31 0.31 0.0 0 1 750.25 549.37   Z"></path>
  <path fill="#20bdbe" d="   M 457.81 451.73   Q 489.09 477.13 529.26 481.04   A 0.24 0.23 -86.2 0 1 529.47 481.29   L 518.81 644.20   Q 518.79 644.47 518.52 644.53   Q 475.95 653.22 468.48 654.69   Q 449.78 658.37 433.30 658.81   C 415.53 659.28 398.78 654.66 385.30 643.16   C 371.57 631.44 362.11 615.39 353.81 598.95   Q 349.77 590.95 330.56 551.38   Q 330.32 550.89 330.71 550.50   L 444.04 439.74   Q 444.45 439.34 444.85 439.75   Q 451.81 446.87 457.81 451.73   Z"></path>
  <path fill="#818285" d="   M 272.35 836.70   Q 265.25 830.14 256.59 824.48   C 253.47 822.44 250.17 818.79 251.21 815.17   Q 252.76 809.78 258.06 806.54   C 271.55 798.30 290.30 794.46 304.49 803.51   Q 310.08 807.08 311.52 813.50   C 312.95 819.91 310.37 824.62 305.85 828.80   Q 304.25 830.27 301.31 831.72   Q 299.19 832.77 290.28 837.00   A 0.59 0.59 0.0 0 0 290.11 837.95   Q 296.96 844.92 306.53 847.63   Q 310.36 848.71 317.19 848.61   C 324.28 848.50 331.56 848.90 337.56 846.09   C 343.27 843.41 338.22 837.04 335.55 833.70   Q 329.95 826.71 322.46 819.44   A 0.47 0.47 0.0 0 1 322.38 818.86   L 337.09 794.41   A 1.53 1.52 36.5 0 1 339.42 794.07   Q 346.27 800.25 349.82 808.81   Q 359.44 832.09 352.19 855.75   C 350.03 862.80 345.54 870.95 340.11 875.33   Q 332.66 881.34 325.43 881.85   Q 316.30 882.51 309.75 882.06   C 297.64 881.22 289.12 870.62 284.29 860.29   Q 282.56 856.60 282.37 856.27   Q 282.10 855.79 281.93 856.31   C 276.79 871.46 268.44 881.53 251.56 882.11   Q 244.67 882.35 236.50 881.79   C 226.15 881.07 219.38 873.67 216.05 864.01   Q 212.27 853.06 212.18 840.26   Q 211.88 795.70 209.54 757.22   Q 209.50 756.63 209.98 756.28   L 231.81 740.43   Q 233.25 739.39 233.77 741.08   Q 234.41 743.14 234.40 746.03   Q 233.96 820.97 233.87 832.79   Q 233.83 839.40 236.11 843.72   Q 238.19 847.68 243.77 848.30   C 254.46 849.47 265.52 845.82 272.39 837.36   Q 272.68 837.01 272.35 836.70   Z"></path>
  <path fill="#818285" d="   M 1080.00 830.46   L 1080.00 839.72   Q 1079.21 851.57 1074.43 862.18   C 1069.45 873.26 1060.40 881.44 1047.78 882.11   Q 1044.27 882.30 1036.11 882.08   Q 1028.24 881.87 1024.65 880.33   C 1014.73 876.08 1010.14 865.82 1008.42 855.80   Q 1006.73 846.00 1006.71 838.26   Q 1006.59 797.75 1004.14 757.48   Q 1004.11 756.98 1004.51 756.67   Q 1013.70 749.61 1024.23 741.74   Q 1025.20 741.02 1027.13 740.13   A 0.88 0.88 0.0 0 1 1028.37 740.80   Q 1028.79 743.56 1028.79 743.66   Q 1028.87 752.92 1028.62 833.36   Q 1028.60 840.33 1031.05 844.16   Q 1033.61 848.16 1039.30 848.43   Q 1048.37 848.87 1055.99 847.96   C 1060.22 847.46 1067.37 845.61 1064.15 839.52   Q 1062.08 835.59 1058.47 831.40   Q 1053.15 825.22 1047.31 819.51   A 0.63 0.62 -52.2 0 1 1047.22 818.75   L 1061.85 794.42   A 1.47 1.47 0.0 0 1 1064.01 794.01   C 1070.65 799.10 1075.23 808.65 1077.46 817.02   Q 1079.37 824.18 1080.00 830.46   Z"></path>
  <path fill="#818285" d="   M 875.49 790.14   A 0.36 0.36 0.0 0 0 875.29 790.66   Q 885.40 809.26 894.63 824.74   Q 901.29 835.93 911.04 844.12   Q 913.87 846.50 921.35 848.17   Q 923.20 848.59 932.67 848.57   Q 953.76 848.52 955.75 848.50   Q 962.12 848.42 967.52 846.30   C 973.81 843.83 968.69 837.21 965.84 833.65   Q 960.08 826.47 952.91 819.53   Q 952.54 819.17 952.80 818.72   L 967.43 794.41   A 1.46 1.45 -55.4 0 1 969.57 794.01   C 975.62 798.78 979.87 806.80 982.22 814.26   Q 989.92 838.63 980.35 861.40   C 976.40 870.80 969.19 878.56 959.17 881.26   Q 955.97 882.12 948.78 882.18   C 935.86 882.28 926.27 882.67 915.52 880.21   Q 907.35 878.34 901.32 872.77   Q 893.80 865.83 888.87 857.01   Q 888.23 855.87 887.90 857.14   Q 884.83 868.76 876.54 875.03   C 868.95 880.77 859.73 882.13 850.03 882.15   Q 800.30 882.25 793.00 882.08   C 780.14 881.79 766.38 879.63 755.18 873.64   Q 754.73 873.40 754.88 872.91   L 764.06 843.98   A 0.38 0.38 0.0 0 1 764.57 843.74   Q 770.41 846.14 776.70 847.09   Q 786.58 848.58 795.27 848.66   Q 812.72 848.83 849.01 848.72   Q 858.55 848.69 866.02 847.84   Q 870.93 847.28 874.78 845.56   Q 878.11 844.06 876.92 840.63   Q 875.30 836.01 870.84 828.45   Q 863.05 815.24 854.29 802.05   Q 853.19 800.40 853.16 798.70   Q 853.14 796.72 853.31 795.02   Q 854.56 783.05 858.10 772.77   A 2.21 2.19 -89.9 0 1 859.45 771.41   L 944.08 742.07   A 2.34 2.34 0.0 0 1 947.18 744.28   L 947.18 764.79   Q 947.18 765.29 946.71 765.45   L 875.49 790.14   Z"></path>
  <path fill="#818285" d="   M 982.26 766.46   L 969.71 780.09   A 2.26 2.26 0.0 0 1 966.44 780.15   L 953.18 766.85   A 2.26 2.26 0.0 0 1 953.14 763.71   L 965.92 750.10   A 2.26 2.26 0.0 0 1 969.18 750.06   L 982.21 763.35   A 2.26 2.26 0.0 0 1 982.26 766.46   Z"></path>
  <path fill="#818285" d="   M 360.08 773.64   Q 360.09 774.48 359.45 775.19   Q 352.75 782.60 347.79 787.85   A 1.81 1.80 -45.5 0 1 345.19 787.88   Q 338.29 780.90 333.72 776.39   Q 333.70 776.37 333.66 776.38   Q 333.64 776.39 333.62 776.38   Q 333.60 776.39 333.58 776.38   Q 333.54 776.37 333.52 776.39   Q 329.10 781.04 322.43 788.24   A 1.81 1.80 43.7 0 1 319.83 788.29   Q 314.70 783.21 307.77 776.01   Q 307.11 775.33 307.09 774.49   Q 307.08 773.66 307.72 772.95   Q 314.42 765.54 319.38 760.29   A 1.81 1.80 -45.5 0 1 321.98 760.26   Q 328.88 767.24 333.45 771.75   Q 333.47 771.77 333.51 771.76   Q 333.53 771.75 333.55 771.75   Q 333.57 771.75 333.59 771.76   Q 333.63 771.77 333.65 771.75   Q 338.07 767.09 344.75 759.90   A 1.81 1.80 43.7 0 1 347.35 759.84   Q 352.47 764.93 359.41 772.12   Q 360.07 772.81 360.08 773.64   Z"></path>
  <path fill="#818285" d="   M 728.38 774.44   Q 728.39 775.33 727.87 775.90   Q 722.12 782.22 716.41 788.32   Q 714.81 790.04 713.16 788.36   Q 706.76 781.85 702.08 777.19   Q 702.08 777.18 701.98 777.18   Q 701.94 777.18 701.92 777.19   Q 701.90 777.18 701.86 777.18   Q 701.76 777.19 701.76 777.20   Q 697.24 782.01 691.05 788.72   Q 689.45 790.45 687.80 788.78   Q 681.90 782.87 675.95 776.74   Q 675.41 776.18 675.39 775.30   Q 675.38 774.41 675.90 773.84   Q 681.65 767.52 687.36 761.42   Q 688.96 759.70 690.61 761.38   Q 697.01 767.89 701.69 772.55   Q 701.69 772.56 701.79 772.56   Q 701.83 772.56 701.85 772.56   Q 701.87 772.56 701.91 772.56   Q 702.01 772.55 702.01 772.54   Q 706.53 767.74 712.72 761.02   Q 714.32 759.29 715.97 760.96   Q 721.87 766.87 727.82 773.00   Q 728.36 773.56 728.38 774.44   Z"></path>
  <path fill="#818285" d="   M 480.66 856.18   Q 480.38 855.49 480.15 856.20   C 475.92 869.62 468.06 880.30 453.06 881.83   Q 448.97 882.25 441.53 882.23   Q 433.87 882.21 430.13 880.91   Q 418.75 876.95 415.13 864.40   Q 414.18 861.13 411.77 852.05   Q 411.60 851.40 411.33 852.01   C 409.40 856.31 407.41 861.35 404.12 863.90   Q 403.72 864.21 403.22 864.21   Q 399.95 864.23 396.59 863.39   Q 384.72 860.45 374.70 854.87   Q 371.76 853.23 369.35 850.59   Q 365.75 846.62 367.49 840.59   Q 369.25 834.50 372.44 827.95   C 374.09 824.57 375.48 822.00 378.44 819.86   C 386.68 813.91 396.20 808.48 403.99 804.15   Q 404.50 803.87 404.43 803.31   L 403.18 792.49   Q 403.12 791.99 403.41 791.56   Q 416.24 772.28 417.78 770.52   Q 418.57 769.62 418.91 769.38   Q 420.78 768.02 421.66 770.14   Q 421.94 770.81 422.14 771.85   Q 422.42 773.36 429.36 825.17   Q 430.33 832.42 432.19 839.17   C 434.94 849.16 442.56 849.45 451.56 848.04   Q 463.06 846.23 470.79 837.35   A 0.42 0.42 0.0 0 0 470.75 836.77   Q 463.71 830.41 454.08 823.85   C 444.23 817.13 451.64 808.71 459.01 805.00   Q 470.45 799.23 479.76 798.47   C 489.58 797.66 503.08 800.14 508.14 809.14   C 512.17 816.29 510.00 823.64 504.09 828.83   Q 502.41 830.31 499.24 831.87   Q 496.39 833.27 488.47 837.08   A 0.53 0.52 -35.1 0 0 488.32 837.92   Q 495.56 845.20 505.29 847.76   Q 508.23 848.53 513.33 848.61   Q 518.48 848.69 521.49 848.46   C 531.29 847.75 531.91 839.76 533.85 831.63   Q 534.14 830.40 535.38 828.92   C 537.28 826.65 540.12 828.04 540.83 830.46   C 542.58 836.50 542.16 846.49 551.30 848.26   C 558.58 849.66 565.18 847.95 567.18 840.19   Q 568.76 834.11 569.27 831.31   Q 569.60 829.49 571.49 827.96   A 1.40 1.39 -63.6 0 1 572.43 827.64   Q 575.82 827.72 576.80 831.52   Q 577.18 833.03 577.99 837.79   C 579.75 848.16 592.62 849.50 600.91 848.38   C 606.87 847.57 607.58 842.13 606.08 837.18   Q 604.31 831.33 597.82 822.45   A 0.73 0.72 43.8 0 1 597.80 821.62   Q 607.26 807.66 608.03 806.35   Q 608.98 804.72 610.30 804.09   A 1.66 1.66 0.0 0 1 612.54 804.94   Q 621.37 825.79 618.89 848.43   C 617.40 861.98 610.41 880.51 594.49 882.09   C 585.77 882.95 578.02 878.08 574.84 869.47   Q 574.57 868.75 574.28 869.46   Q 572.34 874.24 567.47 877.94   C 557.99 885.14 545.27 882.89 538.64 873.11   Q 537.05 870.78 536.71 870.32   Q 536.37 869.87 536.13 870.39   C 533.35 876.50 526.24 882.06 519.26 882.20   Q 516.92 882.25 507.99 882.12   Q 503.78 882.06 498.26 879.09   C 490.26 874.78 484.09 864.56 480.66 856.18   Z   M 385.83 832.44   Q 385.88 832.77 386.28 833.00   Q 396.76 839.00 409.67 840.43   Q 410.16 840.48 410.11 839.99   Q 409.93 838.35 408.75 829.40   Q 407.56 820.45 407.31 818.82   Q 407.23 818.34 406.77 818.51   Q 394.67 823.26 386.12 831.78   Q 385.79 832.10 385.83 832.44   Z"></path>
  <path fill="#818285" d="   M 0.00 874.01   L 0.00 863.88   Q 1.14 845.43 8.71 828.80   Q 9.01 828.13 10.98 826.01   C 14.57 822.16 18.62 825.14 17.73 829.77   Q 15.72 840.20 14.67 846.01   C 12.65 857.18 13.57 867.01 23.27 873.78   C 30.25 878.66 39.79 881.34 48.36 882.28   Q 74.98 885.17 100.67 874.93   Q 104.25 873.50 108.43 870.40   Q 118.55 862.91 112.92 851.09   Q 110.25 845.50 107.17 841.13   Q 99.86 830.77 89.78 820.07   Q 89.43 819.70 89.67 819.26   L 103.61 793.53   A 2.66 2.66 0.0 0 1 107.90 792.99   C 116.02 801.74 120.71 814.34 123.46 826.40   C 127.61 844.58 127.21 865.39 120.10 883.12   C 114.26 897.66 101.55 907.44 86.28 912.04   Q 71.98 916.34 54.09 916.32   C 41.52 916.31 29.25 914.14 18.95 907.52   Q 1.80 896.50 0.00 874.01   Z"></path>
  <path fill="#818285" d="   M 683.32 883.28   Q 681.07 883.25 665.75 882.82   Q 657.78 882.60 650.75 881.05   Q 647.03 880.22 642.59 877.91   Q 631.62 872.21 632.89 858.98   C 634.07 846.77 637.76 834.37 641.83 823.69   C 646.54 811.34 653.91 799.09 668.54 803.02   C 686.57 807.85 693.64 832.02 695.36 848.08   Q 695.41 848.55 695.88 848.55   Q 709.62 848.65 722.26 848.47   C 727.27 848.40 742.05 847.66 736.35 838.52   C 732.16 831.80 725.70 825.24 720.03 819.49   Q 719.67 819.13 719.93 818.69   L 734.49 794.49   A 1.60 1.60 0.0 0 1 736.95 794.13   Q 743.88 800.47 747.50 809.38   Q 757.40 833.71 748.67 858.47   C 745.11 868.56 737.49 878.26 726.83 881.13   Q 723.19 882.11 715.09 882.15   Q 713.19 882.16 695.41 882.21   Q 694.91 882.22 694.84 882.71   C 691.70 904.93 684.62 929.42 668.10 945.55   Q 667.76 945.88 667.40 945.58   L 643.69 925.26   Q 643.22 924.85 643.75 924.53   C 654.13 918.16 663.99 911.86 671.81 903.85   Q 680.45 895.01 683.72 883.83   Q 683.88 883.29 683.32 883.28   Z   M 677.50 847.95   C 674.85 840.30 667.93 832.71 659.52 832.55   Q 649.99 832.37 648.48 841.54   C 647.63 846.68 654.05 848.32 657.79 848.95   Q 668.16 850.67 676.67 849.33   Q 677.90 849.13 677.50 847.95   Z"></path>
  <path fill="#818285" d="   M 189.76 880.03   Q 188.76 880.03 177.03 880.28   C 163.50 880.56 138.58 878.44 139.19 859.17   Q 139.24 857.47 140.69 849.42   Q 143.91 831.44 150.59 816.38   Q 154.56 807.40 160.84 802.37   Q 165.77 798.40 173.23 799.65   C 192.11 802.80 200.08 829.57 201.66 845.52   Q 204.62 875.34 197.08 902.29   Q 190.56 925.60 174.11 943.85   A 0.52 0.51 41.0 0 1 173.39 943.89   L 149.26 923.21   A 0.43 0.42 -40.4 0 1 149.32 922.52   C 166.00 912.62 184.38 899.58 190.16 880.55   Q 190.32 880.03 189.76 880.03   Z   M 170.26 846.73   Q 177.12 847.01 183.76 846.75   A 0.37 0.37 0.0 0 0 184.09 846.26   C 181.32 838.13 172.79 828.15 163.25 830.20   Q 156.72 831.60 155.07 837.81   Q 153.77 842.70 158.11 844.47   Q 162.95 846.44 170.26 846.73   Z"></path>
  <path fill="#818285" d="   M 60.77 844.97   L 47.50 831.68   A 2.27 2.27 0.0 0 1 47.45 828.53   L 60.21 814.92   A 2.27 2.27 0.0 0 1 63.49 814.89   L 76.52 828.15   A 2.27 2.27 0.0 0 1 76.57 831.28   L 64.04 844.91   A 2.27 2.27 0.0 0 1 60.77 844.97   Z"></path>
  <path fill="#818285" d="   M 1051.35 890.84   L 1064.68 904.35   A 2.11 2.11 0.0 0 1 1064.72 907.27   L 1051.88 921.07   A 2.11 2.11 0.0 0 1 1048.82 921.11   L 1035.66 907.62   A 2.11 2.11 0.0 0 1 1035.61 904.72   L 1048.29 890.89   A 2.11 2.11 0.0 0 1 1051.35 890.84   Z"></path>
  <path fill="#818285" d="   M 116.94 1080.00   L 109.05 1080.00   Q 86.34 1078.02 81.97 1055.75   Q 81.13 1051.47 81.50 1043.29   C 82.05 1031.35 88.08 1020.83 99.80 1016.57   Q 105.85 1014.37 114.76 1014.67   C 136.27 1015.41 145.26 1031.75 143.62 1051.62   Q 142.94 1059.88 139.70 1065.86   Q 132.95 1078.28 116.94 1080.00   Z   M 99.95 1047.39   C 99.96 1055.64 101.95 1065.33 112.54 1065.32   C 123.13 1065.30 125.10 1055.61 125.09 1047.36   C 125.08 1039.11 123.09 1029.42 112.49 1029.43   C 101.90 1029.45 99.94 1039.14 99.95 1047.39   Z"></path>
  <path fill="#818285" d="   M 182.51 1080.00   L 174.04 1080.00   Q 170.72 1079.62 167.51 1079.05   Q 159.43 1077.61 154.93 1071.06   Q 150.96 1065.28 150.54 1058.26   A 0.24 0.23 -3.8 0 1 150.76 1058.02   L 167.56 1056.80   Q 168.12 1056.76 168.24 1057.31   C 169.49 1063.15 171.49 1066.95 177.97 1067.48   Q 181.39 1067.75 184.02 1066.09   C 187.31 1064.00 187.96 1059.69 185.10 1056.90   Q 183.22 1055.07 179.79 1054.19   C 168.34 1051.26 153.73 1048.22 152.78 1034.20   C 152.15 1024.81 158.86 1017.66 167.92 1015.65   Q 174.68 1014.16 181.90 1014.70   C 193.78 1015.60 201.67 1020.60 203.06 1033.05   Q 203.11 1033.44 202.71 1033.47   L 186.14 1034.67   Q 185.59 1034.71 185.50 1034.17   Q 184.18 1026.08 175.78 1026.43   C 169.74 1026.67 167.28 1033.45 174.41 1035.40   Q 184.67 1038.21 187.40 1039.01   Q 190.98 1040.04 193.78 1041.33   C 201.48 1044.88 205.97 1051.73 204.95 1060.26   Q 203.25 1074.57 189.23 1078.75   Q 187.40 1079.30 182.51 1080.00   Z"></path>
  <path fill="#818285" d="   M 279.67 1032.07   L 272.31 1032.07   Q 271.82 1032.07 271.82 1031.58   L 271.82 1015.00   Q 271.82 1014.57 272.25 1014.57   L 289.18 1014.57   Q 289.64 1014.57 289.64 1015.03   Q 289.70 1030.11 289.70 1030.28   Q 289.51 1044.34 275.82 1049.63   Q 275.57 1049.73 275.46 1049.49   L 271.93 1042.26   A 0.24 0.23 64.5 0 1 272.04 1041.94   Q 279.74 1038.31 280.22 1032.67   Q 280.28 1032.07 279.67 1032.07   Z"></path>
  <path fill="#818285" d="   M 506.66 1032.21   Q 505.49 1032.01 499.20 1032.04   Q 498.68 1032.04 498.68 1031.51   L 498.68 1015.18   A 0.61 0.61 0.0 0 1 499.29 1014.57   L 515.99 1014.57   Q 516.47 1014.57 516.47 1015.05   Q 516.66 1028.70 516.59 1030.78   Q 516.13 1044.01 503.57 1049.30   Q 502.45 1049.77 501.91 1048.68   L 499.16 1043.03   Q 498.56 1041.80 499.86 1041.38   Q 501.22 1040.94 503.55 1039.06   Q 506.59 1036.60 507.09 1032.80   Q 507.16 1032.30 506.66 1032.21   Z"></path>
  <path fill="#818285" d="   M 681.98 1080.00   L 674.04 1080.00   C 658.39 1078.87 648.68 1069.10 646.76 1054.17   C 644.74 1038.46 648.97 1021.57 665.76 1016.25   Q 671.91 1014.30 680.27 1014.69   C 694.03 1015.35 704.31 1022.78 707.55 1036.52   C 709.49 1044.77 709.23 1054.85 706.19 1062.59   Q 700.19 1077.83 681.98 1080.00   Z   M 664.92 1047.39   C 664.93 1055.66 666.95 1065.33 677.52 1065.32   C 688.08 1065.30 690.08 1055.63 690.07 1047.36   C 690.06 1039.09 688.04 1029.42 677.47 1029.43   C 666.91 1029.45 664.91 1039.12 664.92 1047.39   Z"></path>
  <path fill="#818285" d="   M 49.91 1015.63   Q 76.12 1015.63 77.77 1015.75   Q 78.26 1015.79 78.26 1016.28   L 78.26 1030.82   Q 78.26 1031.38 77.70 1031.38   L 59.61 1031.38   Q 59.25 1031.38 59.25 1031.73   L 59.25 1078.71   A 0.28 0.28 0.0 0 1 58.97 1078.99   Q 54.35 1079.00 49.91 1079.00   Q 45.47 1079.00 40.85 1078.99   A 0.28 0.28 0.0 0 1 40.57 1078.71   L 40.57 1031.73   Q 40.57 1031.38 40.21 1031.38   L 22.12 1031.38   Q 21.56 1031.38 21.56 1030.82   L 21.56 1016.28   Q 21.56 1015.79 22.05 1015.75   Q 23.70 1015.63 49.91 1015.63   Z"></path>
  <path fill="#818285" d="   M 233.13 1029.58   L 233.12 1038.92   A 0.33 0.33 0.0 0 0 233.45 1039.25   L 261.60 1039.24   A 0.33 0.33 0.0 0 1 261.93 1039.57   L 261.93 1051.85   A 0.33 0.33 0.0 0 1 261.60 1052.18   L 233.46 1052.18   A 0.33 0.33 0.0 0 0 233.13 1052.51   L 233.13 1064.24   A 0.33 0.33 0.0 0 0 233.46 1064.57   L 264.79 1064.57   A 0.33 0.33 0.0 0 1 265.12 1064.90   L 265.13 1078.67   A 0.33 0.33 0.0 0 1 264.80 1079.00   L 214.70 1079.00   A 0.33 0.33 0.0 0 1 214.37 1078.67   L 214.37 1015.96   A 0.33 0.33 0.0 0 1 214.70 1015.63   L 263.85 1015.63   A 0.33 0.33 0.0 0 1 264.18 1015.96   L 264.18 1028.92   A 0.33 0.33 0.0 0 1 263.85 1029.25   L 233.46 1029.25   A 0.33 0.33 0.0 0 0 233.13 1029.58   Z"></path>
  <path fill="#818285" d="   M 317.18 1052.52   L 317.18 1064.23   A 0.34 0.34 0.0 0 0 317.52 1064.57   L 348.84 1064.57   A 0.34 0.34 0.0 0 1 349.18 1064.91   L 349.18 1078.66   A 0.34 0.34 0.0 0 1 348.84 1079.00   L 298.76 1079.00   A 0.34 0.34 0.0 0 1 298.42 1078.66   L 298.43 1015.97   A 0.34 0.34 0.0 0 1 298.77 1015.63   L 347.91 1015.63   A 0.34 0.34 0.0 0 1 348.25 1015.97   L 348.25 1028.91   A 0.34 0.34 0.0 0 1 347.91 1029.25   L 317.53 1029.25   A 0.34 0.34 0.0 0 0 317.19 1029.59   L 317.17 1038.90   A 0.34 0.34 0.0 0 0 317.51 1039.24   L 345.65 1039.24   A 0.34 0.34 0.0 0 1 345.99 1039.58   L 346.00 1051.84   A 0.34 0.34 0.0 0 1 345.66 1052.18   L 317.52 1052.18   A 0.34 0.34 0.0 0 0 317.18 1052.52   Z"></path>
  <path fill="#818285" d="   M 411.31 1015.63   Q 425.28 1015.63 439.26 1015.62   A 0.37 0.37 0.0 0 1 439.63 1015.99   L 439.63 1030.97   A 0.41 0.40 0.0 0 1 439.22 1031.37   L 421.24 1031.37   Q 420.63 1031.37 420.63 1031.99   L 420.63 1078.28   Q 420.63 1078.83 420.08 1078.86   Q 417.77 1079.00 411.31 1079.00   Q 404.86 1079.00 402.55 1078.86   Q 402.00 1078.83 402.00 1078.28   L 402.00 1031.99   Q 402.00 1031.37 401.39 1031.37   L 383.41 1031.37   A 0.41 0.40 0.0 0 1 383.00 1030.97   L 383.00 1015.99   A 0.37 0.37 0.0 0 1 383.37 1015.62   Q 397.35 1015.63 411.31 1015.63   Z"></path>
  <path fill="#818285" d="   M 478.99 1068.57   L 458.48 1068.57   A 0.33 0.33 0.0 0 0 458.16 1068.81   L 455.26 1078.76   A 0.33 0.33 0.0 0 1 454.94 1079.00   L 436.59 1078.99   A 0.33 0.33 0.0 0 1 436.28 1078.55   L 458.74 1015.85   A 0.33 0.33 0.0 0 1 459.05 1015.63   L 478.99 1015.62   A 0.33 0.33 0.0 0 1 479.30 1015.84   L 501.67 1078.56   A 0.33 0.33 0.0 0 1 501.36 1079.00   L 482.49 1078.99   A 0.33 0.33 0.0 0 1 482.17 1078.75   L 479.31 1068.81   A 0.33 0.33 0.0 0 0 478.99 1068.57   Z   M 462.32 1054.44   A 0.30 0.30 0.0 0 0 462.60 1054.82   L 474.90 1054.82   A 0.30 0.30 0.0 0 0 475.18 1054.44   L 469.04 1033.22   A 0.30 0.30 0.0 0 0 468.46 1033.22   L 462.32 1054.44   Z"></path>
  <path fill="#818285" d="   M 541.29 1068.79   L 538.38 1078.78   A 0.30 0.30 0.0 0 1 538.09 1079.00   L 519.68 1078.99   A 0.30 0.30 0.0 0 1 519.39 1078.59   L 541.88 1015.83   A 0.30 0.30 0.0 0 1 542.16 1015.63   L 562.15 1015.62   A 0.30 0.30 0.0 0 1 562.43 1015.82   L 584.81 1078.60   A 0.30 0.30 0.0 0 1 584.52 1079.00   L 565.61 1078.99   A 0.30 0.30 0.0 0 1 565.32 1078.77   L 562.42 1068.80   A 0.30 0.30 0.0 0 0 562.13 1068.58   L 541.58 1068.57   A 0.30 0.30 0.0 0 0 541.29 1068.79   Z   M 551.87 1054.82   Q 554.94 1054.82 557.99 1054.82   A 0.32 0.31 -8.1 0 0 558.30 1054.42   Q 555.21 1043.61 552.01 1032.74   Q 551.98 1032.62 551.90 1032.62   Q 551.81 1032.62 551.78 1032.74   Q 548.56 1043.60 545.45 1054.41   A 0.32 0.31 8.2 0 0 545.76 1054.81   Q 548.81 1054.81 551.87 1054.82   Z"></path>
  <path fill="#818285" d="   M 613.08 1060.45   Q 613.14 1060.45 613.18 1060.42   Q 613.29 1060.38 613.29 1060.37   L 626.33 1015.97   Q 626.44 1015.58 626.84 1015.58   L 645.27 1015.58   A 0.38 0.37 9.7 0 1 645.63 1016.08   L 623.30 1078.42   Q 623.12 1078.92 622.59 1078.93   Q 619.27 1078.99 613.12 1079.00   Q 606.97 1079.01 603.65 1078.97   Q 603.12 1078.96 602.93 1078.46   L 580.37 1016.20   A 0.38 0.37 -9.9 0 1 580.73 1015.70   L 599.16 1015.63   Q 599.56 1015.63 599.67 1016.02   L 612.88 1060.37   Q 612.88 1060.38 612.99 1060.42   Q 613.03 1060.45 613.08 1060.45   Z"></path>
  <path fill="#818285" d="   M 754.06 1043.21   Q 755.46 1045.37 758.38 1049.89   A 0.22 0.21 28.9 0 0 758.78 1049.78   L 758.78 1016.09   A 0.33 0.32 90.0 0 1 759.10 1015.76   L 776.06 1015.76   A 0.32 0.31 -90.0 0 1 776.37 1016.08   L 776.37 1078.51   Q 776.37 1079.14 775.74 1079.14   L 759.49 1079.14   Q 758.93 1079.14 758.62 1078.67   Q 754.13 1071.78 741.13 1051.69   Q 739.73 1049.53 736.81 1045.01   A 0.22 0.21 28.9 0 0 736.41 1045.12   L 736.41 1078.81   A 0.33 0.32 90.0 0 1 736.09 1079.14   L 719.13 1079.14   A 0.32 0.31 -90.0 0 1 718.82 1078.82   L 718.82 1016.39   Q 718.82 1015.76 719.45 1015.76   L 735.70 1015.76   Q 736.26 1015.76 736.57 1016.23   Q 741.06 1023.12 754.06 1043.21   Z"></path>
  <path fill="#818285" d="   M 860.93 1045.56   Q 871.70 1048.57 872.44 1059.57   C 872.99 1067.83 868.50 1075.58 860.30 1077.58   C 856.92 1078.41 851.24 1079.00 847.32 1079.00   Q 829.07 1079.00 817.36 1079.01   Q 816.82 1079.01 816.82 1078.46   L 816.82 1016.25   Q 816.82 1015.74 817.33 1015.74   Q 848.52 1015.47 853.99 1015.74   C 864.45 1016.25 871.31 1024.40 869.35 1034.91   Q 868.10 1041.65 860.88 1044.97   Q 860.10 1045.33 860.93 1045.56   Z   M 835.66 1028.75   L 835.58 1040.14   A 0.27 0.27 0.0 0 0 835.85 1040.42   L 845.30 1040.48   A 6.06 5.48 0.4 0 0 851.40 1035.05   L 851.40 1034.07   A 6.06 5.48 0.4 0 0 845.38 1028.54   L 835.93 1028.48   A 0.27 0.27 0.0 0 0 835.66 1028.75   Z   M 835.60 1052.90   L 835.66 1065.04   A 0.28 0.28 0.0 0 0 835.94 1065.32   L 846.77 1065.26   A 6.99 5.85 -0.3 0 0 853.73 1059.37   L 853.73 1058.37   A 6.99 5.85 -0.3 0 0 846.71 1052.56   L 835.88 1052.62   A 0.28 0.28 0.0 0 0 835.60 1052.90   Z"></path>
  <path fill="#818285" d="   M 896.60 1068.81   L 893.72 1078.75   A 0.33 0.33 0.0 0 1 893.40 1078.99   L 875.03 1079.00   A 0.33 0.33 0.0 0 1 874.72 1078.56   L 897.19 1015.85   A 0.33 0.33 0.0 0 1 897.50 1015.63   L 917.44 1015.63   A 0.33 0.33 0.0 0 1 917.75 1015.85   L 940.11 1078.56   A 0.33 0.33 0.0 0 1 939.80 1079.00   L 920.94 1079.00   A 0.33 0.33 0.0 0 1 920.62 1078.76   L 917.76 1068.82   A 0.33 0.33 0.0 0 0 917.44 1068.58   L 896.92 1068.57   A 0.33 0.33 0.0 0 0 896.60 1068.81   Z   M 900.76 1054.42   A 0.31 0.31 0.0 0 0 901.06 1054.82   L 913.32 1054.82   A 0.31 0.31 0.0 0 0 913.62 1054.42   L 907.49 1033.26   A 0.31 0.31 0.0 0 0 906.89 1033.26   L 900.76 1054.42   Z"></path>
  <path fill="#818285" d="   M 981.51 1043.24   Q 983.72 1046.44 985.63 1049.63   Q 986.12 1050.44 986.12 1049.50   L 986.12 1016.25   Q 986.12 1015.63 986.74 1015.63   L 1003.11 1015.63   Q 1003.73 1015.63 1003.73 1016.24   L 1003.73 1078.51   Q 1003.73 1079.00 1003.24 1079.00   L 986.79 1079.00   Q 986.22 1079.00 985.91 1078.52   Q 969.73 1053.36 968.36 1051.39   Q 966.16 1048.19 964.25 1045.00   Q 963.76 1044.19 963.76 1045.13   L 963.76 1078.38   Q 963.76 1079.00 963.14 1079.00   L 946.77 1079.00   Q 946.15 1079.00 946.15 1078.39   L 946.15 1016.12   Q 946.15 1015.63 946.64 1015.63   L 963.09 1015.63   Q 963.66 1015.63 963.97 1016.11   Q 980.15 1041.27 981.51 1043.24   Z"></path>
  <path fill="#818285" d="   M 1080.00 1078.62   L 1080.00 1078.95   L 1057.54 1078.94   Q 1057.05 1078.94 1056.84 1078.50   L 1044.69 1053.61   Q 1044.44 1053.08 1044.04 1053.51   L 1035.18 1063.10   Q 1034.83 1063.48 1034.83 1064.00   L 1034.83 1078.41   Q 1034.83 1079.00 1034.24 1079.00   L 1016.75 1079.00   Q 1016.17 1079.00 1016.17 1078.42   L 1016.17 1016.30   Q 1016.17 1015.62 1016.85 1015.62   L 1034.25 1015.62   Q 1034.82 1015.62 1034.82 1016.19   L 1034.82 1038.70   Q 1034.82 1039.44 1035.29 1038.86   L 1053.91 1016.04   A 1.16 1.13 19.1 0 1 1054.80 1015.62   L 1078.04 1015.62   Q 1079.11 1015.62 1078.39 1016.41   L 1057.47 1039.03   Q 1057.09 1039.44 1057.38 1039.93   L 1080.00 1078.62   Z"></path>
</svg>
