<?xml version="1.0" encoding="UTF-8" standalone="no"?>
<svg xmlns="http://www.w3.org/2000/svg" version="1.1" viewBox="0.00 0.00 750.00 750.00">
  <path fill="#d52229" d="   M 391.99 163.16   Q 389.19 152.77 382.58 143.73   C 381.77 142.63 380.71 142.51 379.50 142.49   Q 353.47 142.01 251.58 139.55   Q 250.78 139.53 251.19 138.84   L 276.63 95.72   A 1.01 0.98 -73.6 0 1 277.50 95.23   L 410.29 98.29   Q 410.93 98.31 411.23 98.87   L 473.19 212.15   A 1.16 1.16 0.0 0 1 473.23 213.19   Q 462.87 235.98 447.73 255.99   Q 447.45 256.36 447.30 256.49   A 0.43 0.43 0.0 0 1 446.62 256.38   L 418.80 206.40   A 1.76 1.75 -12.5 0 0 417.40 205.51   Q 377.28 202.40 341.26 202.69   Q 306.62 202.96 263.50 205.47   Q 261.54 205.59 261.00 206.51   Q 211.84 290.13 198.52 313.17   A 0.23 0.23 0.0 0 1 198.14 313.20   Q 183.44 295.11 173.24 275.07   Q 172.78 274.17 172.61 273.38   Q 172.49 272.82 172.78 272.33   L 235.65 165.78   Q 235.87 165.40 236.31 165.39   L 391.84 163.34   A 0.15 0.14 -7.2 0 0 391.99 163.16   Z"></path>
  <path fill="#d52229" d="   M 464.36 344.97   A 0.41 0.41 0.0 0 0 464.63 345.56   Q 475.56 348.21 486.51 346.59   Q 487.05 346.51 487.33 346.04   L 553.46 233.97   A 0.16 0.16 0.0 0 1 553.74 233.97   L 579.36 277.84   Q 579.59 278.24 579.36 278.63   L 511.83 393.07   A 1.06 1.04 14.7 0 1 510.92 393.59   L 381.05 392.29   A 0.15 0.12 -8.0 0 1 380.96 392.24   Q 365.43 371.45 355.46 347.78   A 0.07 0.07 0.0 0 1 355.53 347.68   L 413.34 347.68   A 1.47 1.45 -71.5 0 0 414.51 347.09   Q 416.15 344.84 417.81 342.31   Q 445.04 300.73 467.99 256.27   Q 477.17 238.47 490.15 212.09   A 2.00 1.96 -47.4 0 0 490.09 210.22   L 427.84 103.61   A 0.32 0.26 67.5 0 1 427.98 103.15   Q 450.77 99.22 473.96 100.06   A 2.29 2.28 -13.8 0 1 475.85 101.20   L 538.10 207.79   A 0.91 0.90 44.7 0 1 538.11 208.67   Q 497.27 284.05 471.19 331.96   Q 467.56 338.64 464.36 344.97   Z"></path>
  <path fill="#d52229" d="   M 269.58 317.46   Q 262.75 324.44 258.28 333.80   Q 257.83 334.75 257.54 335.90   Q 257.32 336.79 257.97 337.96   Q 272.17 363.42 320.53 450.39   Q 320.95 451.15 320.08 451.15   L 269.75 450.64   A 0.99 0.99 0.0 0 1 268.88 450.12   L 204.69 334.81   A 1.96 1.96 0.0 0 1 204.72 332.85   Q 242.86 269.31 270.20 223.69   Q 271.22 221.98 272.80 221.82   Q 297.30 219.31 322.25 222.44   A 0.41 0.41 0.0 0 1 322.55 223.05   Q 312.59 239.97 293.95 271.46   Q 293.02 273.04 293.69 274.43   Q 312.84 314.22 339.62 357.61   Q 352.29 378.13 371.16 406.51   Q 372.46 408.46 374.99 408.45   Q 421.37 408.34 496.70 408.24   A 0.51 0.51 0.0 0 1 497.18 408.93   Q 488.86 430.86 476.30 450.31   Q 475.81 451.07 474.25 451.06   Q 399.06 450.71 350.93 450.62   Q 350.48 450.62 350.25 450.23   L 270.02 317.51   A 0.28 0.28 0.0 0 0 269.58 317.46   Z"></path>
  <circle fill="#00aeef" cx="370.76" cy="274.97" r="49.46"></circle>
  <path fill="#d52229" d="   M 538.53 513.64   A 0.30 0.30 0.0 0 1 538.92 513.92   Q 538.90 516.63 536.51 518.32   Q 533.19 520.67 529.99 521.74   Q 504.83 530.16 479.38 536.41   A 0.48 0.47 -6.1 0 1 478.79 535.94   L 478.87 532.19   Q 478.89 531.20 479.85 530.95   Q 509.66 523.18 538.53 513.64   Z"></path>
  <path fill="#d52229" d="   M 271.55 520.91   L 214.47 537.82   A 0.49 0.49 0.0 0 1 213.85 537.29   L 214.42 533.19   A 0.49 0.49 0.0 0 1 214.76 532.79   L 273.45 514.94   A 0.49 0.49 0.0 0 1 274.04 515.60   L 271.86 520.63   A 0.49 0.49 0.0 0 1 271.55 520.91   Z"></path>
  <path fill="#d52229" d="   M 163.24 601.14   Q 162.74 601.84 161.33 603.59   Q 155.70 610.60 141.94 626.44   A 0.24 0.23 19.7 0 1 141.76 626.52   L 101.07 627.06   Q 99.92 627.07 100.64 626.18   L 117.12 605.59   A 2.13 2.12 -70.3 0 1 118.77 604.80   L 145.66 604.80   A 1.40 1.38 -71.3 0 0 146.77 604.24   Q 153.30 595.49 163.97 582.88   Q 164.03 582.81 165.20 581.31   C 167.71 578.10 172.93 575.78 174.09 581.88   C 175.81 590.87 180.39 604.01 190.63 605.83   Q 201.30 607.73 212.35 604.09   Q 215.21 603.14 217.45 600.07   C 224.45 590.46 222.15 579.13 212.40 572.73   Q 205.27 568.04 195.89 566.69   A 0.64 0.64 0.0 0 1 195.40 565.79   Q 201.13 553.04 207.99 541.25   A 1.39 1.37 -77.9 0 1 209.02 540.57   Q 217.53 539.55 226.26 537.51   Q 250.12 531.92 272.99 524.12   Q 273.54 523.93 273.45 524.51   Q 271.56 536.42 265.06 546.54   Q 263.87 548.39 260.35 549.57   Q 246.55 554.22 229.92 555.57   Q 228.05 555.72 226.49 556.62   A 2.42 2.41 54.2 0 0 225.89 560.33   Q 227.91 562.59 232.87 567.94   Q 237.14 572.54 238.84 576.68   C 242.23 584.90 238.72 595.76 234.32 603.12   A 0.46 0.45 15.6 0 0 234.71 603.81   L 317.96 603.81   Q 318.65 603.81 318.30 604.41   Q 311.00 617.04 302.41 626.76   A 2.72 2.71 20.8 0 1 300.38 627.67   Q 237.28 627.68 228.00 627.70   Q 225.92 627.70 225.48 626.66   Q 224.21 623.64 222.00 620.83   A 1.81 1.81 0.0 0 0 219.12 620.87   Q 218.47 621.77 215.29 626.28   C 212.28 630.54 192.65 627.68 187.67 626.84   C 184.66 626.33 181.72 625.21 179.26 623.31   Q 168.27 614.78 163.80 601.22   A 0.32 0.32 0.0 0 0 163.24 601.14   Z"></path>
  <path fill="#d52229" d="   M 591.97 608.33   Q 586.08 617.53 578.65 624.90   Q 577.24 626.29 575.53 626.31   Q 535.56 626.64 489.03 626.32   A 0.33 0.33 0.0 0 1 488.77 625.80   Q 496.55 615.20 506.95 605.68   Q 507.67 605.02 508.80 605.06   C 532.52 605.77 552.31 605.36 581.01 604.73   C 581.84 604.71 582.64 604.54 583.20 603.89   C 589.51 596.48 591.85 586.97 585.83 578.74   C 579.78 570.49 569.61 566.80 559.61 565.42   A 0.41 0.41 0.0 0 1 559.32 564.79   L 574.70 540.70   A 2.91 2.88 9.5 0 1 576.47 539.45   L 640.73 524.20   A 0.67 0.67 0.0 0 1 641.50 525.11   Q 636.81 536.46 629.23 545.99   C 627.22 548.51 626.79 549.34 623.64 550.06   Q 608.16 553.65 592.59 559.54   A 0.70 0.70 0.0 0 0 592.26 560.58   Q 597.33 568.10 600.35 576.09   Q 600.38 576.15 602.79 584.36   Q 605.65 594.14 612.44 601.30   C 615.34 604.38 618.72 605.01 623.75 605.01   Q 642.83 605.00 648.46 605.03   A 0.49 0.49 0.0 0 1 648.89 605.74   Q 643.30 616.74 636.41 626.15   C 634.27 629.07 627.11 629.05 624.49 628.71   Q 603.69 625.95 592.59 608.34   Q 592.28 607.85 591.97 608.33   Z"></path>
  <path fill="#d52229" d="   M 495.07 557.76   A 0.35 0.34 66.6 0 0 494.85 558.32   C 505.00 570.87 509.48 586.13 501.27 601.02   Q 493.19 615.65 479.33 623.75   Q 476.47 625.42 473.27 625.79   Q 463.75 626.91 453.78 626.01   Q 449.84 625.66 445.55 622.42   Q 435.31 614.67 430.85 601.31   A 0.36 0.35 -36.7 0 0 430.22 601.22   Q 421.25 614.09 410.93 626.07   A 1.18 1.17 19.8 0 1 410.03 626.49   L 367.32 627.05   Q 366.31 627.07 366.94 626.27   L 383.65 605.41   A 1.71 1.71 0.0 0 1 385.01 604.76   Q 398.86 604.92 410.78 604.76   C 412.59 604.74 413.26 604.75 414.35 603.18   Q 422.62 591.29 431.22 580.48   C 433.11 578.12 438.42 574.99 439.74 579.77   Q 441.54 586.30 442.59 589.22   C 444.66 595.00 449.09 602.70 454.91 604.99   Q 456.57 605.65 458.68 605.96   Q 468.79 607.47 481.23 604.63   Q 487.13 603.28 489.49 597.76   C 494.35 586.40 485.86 576.57 476.32 571.73   Q 469.48 568.27 461.87 567.01   A 0.70 0.70 0.0 0 1 461.34 566.04   Q 466.79 553.48 473.70 541.27   A 2.00 1.99 -77.5 0 1 475.26 540.27   Q 508.42 537.22 539.15 524.71   A 0.35 0.34 83.8 0 1 539.62 525.09   Q 538.03 534.15 533.93 542.20   Q 532.49 545.03 530.54 547.30   Q 529.18 548.88 523.26 551.02   Q 509.65 555.95 495.07 557.76   Z"></path>
  <path fill="#d52229" d="   M 673.38 602.75   A 0.63 0.63 0.0 0 0 674.02 603.38   L 709.95 602.91   Q 710.39 602.90 710.23 603.31   Q 705.44 615.29 697.09 624.95   Q 696.64 625.46 695.96 625.47   Q 684.71 625.59 680.82 625.60   Q 672.89 625.61 669.80 624.62   C 663.69 622.66 658.18 616.45 656.07 610.40   Q 655.21 607.91 655.28 602.03   Q 655.59 578.06 655.69 543.16   A 2.87 2.86 70.4 0 1 656.72 540.98   L 672.46 527.87   Q 673.38 527.11 673.38 528.30   L 673.38 602.75   Z"></path>
  <path fill="#d52229" d="   M 102.43 566.77   Q 105.66 569.44 107.12 570.88   C 113.52 577.17 118.69 587.03 116.64 596.05   Q 116.01 598.84 112.14 603.65   Q 102.56 615.56 91.32 626.30   A 3.45 3.41 15.1 0 1 89.87 627.12   C 74.30 631.44 56.21 627.97 45.74 615.12   C 38.49 606.23 38.96 594.60 44.20 584.74   Q 47.42 578.66 53.23 576.87   A 0.95 0.94 57.8 0 1 54.15 577.08   C 56.47 579.23 52.72 584.33 52.60 587.04   Q 52.37 592.35 55.11 595.69   C 61.25 603.17 70.71 605.69 80.25 606.57   C 86.17 607.12 92.52 605.88 97.17 602.12   C 102.58 597.73 104.28 590.95 98.26 585.86   Q 92.25 580.77 83.22 578.99   Q 80.25 578.40 77.58 576.53   A 1.82 1.82 0.0 0 1 76.94 574.36   C 81.28 563.60 91.60 556.25 102.32 552.30   Q 112.15 548.67 122.35 549.87   A 0.82 0.82 0.0 0 1 122.92 551.16   Q 117.51 558.74 108.61 563.11   Q 102.85 565.94 102.49 566.13   Q 101.98 566.40 102.43 566.77   Z"></path>
  <path fill="#d52229" d="   M 363.28 603.08   Q 370.18 594.56 366.82 585.49   C 362.98 575.12 351.78 569.45 340.94 566.42   Q 340.28 566.23 340.72 565.72   L 353.48 550.98   A 1.86 1.85 -63.4 0 1 355.27 550.38   Q 369.42 553.50 378.92 565.41   Q 384.36 572.23 384.61 580.39   Q 384.80 586.83 381.24 595.31   Q 373.49 613.80 357.52 627.11   A 0.80 0.77 -65.5 0 1 357.04 627.30   Q 333.02 627.89 310.07 627.40   Q 309.30 627.38 309.78 626.77   Q 316.87 617.81 326.77 606.52   Q 328.03 605.09 328.80 604.50   Q 329.81 603.71 331.40 603.73   Q 342.78 603.83 360.75 603.80   Q 361.49 603.80 362.17 603.72   Q 362.82 603.64 363.28 603.08   Z"></path>
  <rect fill="#d52229" x="-7.65" y="-7.65" transform="translate(281.98,564.95) rotate(45.0)" width="15.30" height="15.30" rx="0.46"></rect>
  <rect fill="#d52229" x="-7.74" y="-7.74" transform="translate(633.75,578.62) rotate(45.0)" width="15.48" height="15.48" rx="0.39"></rect>
  <path fill="#d52229" d="   M 280.69 582.86   L 270.36 593.43   A 0.38 0.38 0.0 0 1 269.82 593.43   L 259.36 582.99   A 0.38 0.38 0.0 0 1 259.35 582.45   L 269.66 571.88   A 0.38 0.38 0.0 0 1 270.20 571.87   L 280.68 582.32   A 0.38 0.38 0.0 0 1 280.69 582.86   Z"></path>
  <rect fill="#d52229" x="-7.74" y="-7.74" transform="translate(293.31,582.77) rotate(-44.7)" width="15.48" height="15.48" rx="0.46"></rect>
  <rect fill="#d52229" x="-7.72" y="-7.72" transform="translate(682.70,643.39) rotate(44.9)" width="15.44" height="15.44" rx="0.40"></rect>
</svg>
